<svg width="540" height="200" viewBox="0 0 1440 371" fill="none" xmlns="http://www.w3.org/2000/svg">
<g style="mix-blend-mode:plus-lighter" opacity="0.5">
<path d="M613.15 370.598L664.099 284.727" stroke="#7233B4" stroke-width="0.780674" stroke-miterlimit="10"/>
<path d="M473.17 183.173C475.819 183.173 477.967 181.158 477.967 178.672C477.967 176.187 475.819 174.172 473.17 174.172C470.521 174.172 468.373 176.187 468.373 178.672C468.373 181.158 470.521 183.173 473.17 183.173Z" fill="#7233B4"/>
<path d="M948.056 187.673C950.705 187.673 952.852 185.658 952.852 183.173C952.852 180.688 950.705 178.673 948.056 178.673C945.406 178.673 943.259 180.688 943.259 183.173C943.259 185.658 945.406 187.673 948.056 187.673Z" fill="#7233B4"/>
<path d="M808.85 370.598L757.926 284.727" stroke="#7233B4" stroke-width="0.780674" stroke-miterlimit="10"/>
<path d="M713.326 246.496C720.042 246.496 725.487 241.388 725.487 235.086C725.487 228.785 720.042 223.676 713.326 223.676C706.609 223.676 701.164 228.785 701.164 235.086C701.164 241.388 706.609 246.496 713.326 246.496Z" fill="#7233B4"/>
<path d="M711.582 67.6863C708.868 86.4151 706.664 88.4835 686.701 91.0291C706.664 93.5748 708.868 95.6432 711.582 114.372C714.295 95.6432 716.5 93.5748 736.462 91.0291C716.5 88.4835 714.295 86.4151 711.582 67.6863Z" fill="#7233B4"/>
<path d="M0 147.182L391.573 2.33984" stroke="#7233B4" stroke-width="0.780674" stroke-miterlimit="10"/>
<path d="M1041.74 4.79419L1440 152.784" stroke="#7233B4" stroke-width="0.780674" stroke-miterlimit="10"/>
<path d="M778.009 71.8233L969.408 0.705322" stroke="#7233B4" stroke-width="0.780674" stroke-miterlimit="10"/>
<path d="M648.666 71.8233L462.326 2.58765" stroke="#7233B4" stroke-width="0.780674" stroke-miterlimit="10"/>
<path d="M711.58 137.214V194.174" stroke="#7233B4" stroke-width="0.780674" stroke-miterlimit="10"/>
<path d="M650.485 119.145L510.432 171.127" stroke="#7233B4" stroke-width="0.780674" stroke-miterlimit="10"/>
<path d="M906.048 170.831L766.77 119.145" stroke="#7233B4" stroke-width="0.780674" stroke-miterlimit="10"/>
<path d="M510.432 199.243C558.667 217.176 610.245 228.836 664.076 233.178" stroke="#7233B4" stroke-width="0.780674" stroke-miterlimit="10"/>
<path d="M437.556 166.058C363.311 125.585 300.155 69.1828 253.405 1.84082" stroke="#7233B4" stroke-width="0.780674" stroke-miterlimit="10"/>
<path d="M998.229 158.967C1067.44 118.868 1126.39 64.6982 1170.55 0.705322" stroke="#7233B4" stroke-width="0.780674" stroke-miterlimit="10"/>
<path d="M757.926 233.268C810.449 229.131 860.84 218.017 908.057 200.947" stroke="#7233B4" stroke-width="0.780674" stroke-miterlimit="10"/>
</g>
</svg>
