<svg width="1422" height="191" viewBox="0 0 1422 191" fill="none" xmlns="http://www.w3.org/2000/svg">
<path d="M141.674 8.47358V45.0062H139.085C131.575 24.0227 115.254 13.6526 90.3903 13.6526C54.1272 13.6526 37.296 39.5719 37.296 96.5653C37.296 153.559 54.1272 179.478 90.3903 179.478C117.077 179.478 134.164 169.12 141.674 148.124H144.262L141.674 184.657C124.32 189.836 107.221 192.438 90.3903 192.438C63.4603 192.438 41.6952 184.146 24.864 167.819C8.288 151.504 0 127.664 0 96.5653C0 65.4669 8.288 41.6387 24.864 25.3114C41.6952 8.99635 63.4603 0.705078 90.3903 0.705078C107.221 0.705078 124.32 3.29458 141.674 8.47358Z" fill="white" fill-opacity="0.3"/>
<path d="M214.71 179.744C233.619 179.744 242.94 165.496 242.94 126.884C242.94 88.2729 233.619 70.4017 214.71 70.4017C195.801 70.4017 186.48 84.65 186.48 123.262C186.48 161.873 195.801 179.744 214.71 179.744ZM276.87 125.073C276.87 167.307 256.15 192.437 214.71 192.437C173.27 192.437 152.295 167.563 152.295 125.073C152.295 82.5833 173.015 57.7095 214.71 57.7095C256.405 57.7095 276.87 82.8386 276.87 125.073Z" fill="white" fill-opacity="0.3"/>
<path d="M330.73 84.1394L351.45 63.4112C358.705 59.5209 365.96 57.7095 373.471 57.7095C396.257 57.7095 409.734 70.1464 409.734 94.2421V167.83C409.734 171.198 409.989 173.532 410.256 175.088C411.034 178.188 414.923 183.124 423.989 187.27V189.859H365.973V187.27C377.372 179.756 377.372 176.644 377.372 167.83V100.977C377.372 89.5737 371.417 83.872 359.24 83.872C349.141 83.872 339.298 86.9842 330.232 93.4641V167.83C330.232 171.198 330.487 173.532 330.755 175.088C331.532 178.188 335.409 183.124 344.487 187.27V189.859H284.138V187.27C298.125 179.756 298.125 176.644 298.125 167.83V85.4281C298.125 80.2491 298.125 77.9149 296.315 73.5018C295.014 68.5781 290.615 65.2105 284.138 62.8763V60.2868H330.244V84.1273H330.767L330.73 84.1394Z" fill="white" fill-opacity="0.3"/>
<path d="M469.815 138.543C452.206 130.507 429.931 120.405 429.931 94.4974C429.931 85.1727 433.819 76.614 441.33 69.1008C448.84 61.5876 461.272 57.6973 478.37 57.6973C493.658 57.6973 507.123 59.5087 518.522 62.8763L509.201 86.7167L507.901 86.972C496.247 76.8693 488.481 72.2009 477.338 72.2009C466.194 72.2009 460.251 77.9027 460.251 86.4492C460.251 96.0292 469.827 103.032 481.749 107.688C498.847 114.691 521.646 125.049 521.378 153.29C521.378 168.316 509.457 192.412 470.35 192.412C456.107 192.412 443.408 190.601 432.021 187.233L428.399 162.359L429.432 161.837C444.72 172.462 457.918 177.896 469.317 177.896C483.049 177.896 491.592 171.416 491.592 160.28C491.592 150.944 482.004 143.953 469.827 138.507" fill="white" fill-opacity="0.3"/>
<path d="M618.221 166.022H617.699L596.979 186.75C589.724 190.641 582.468 192.452 575.481 192.452C552.695 192.452 538.963 180.015 538.963 155.919V85.4436C538.963 80.2646 538.963 77.9304 537.14 73.5294C535.852 68.6057 531.44 65.2382 524.963 62.904V60.3145H571.069V149.196C571.069 160.6 577.292 166.302 589.456 166.302C599.81 166.302 609.398 163.189 618.209 156.722V83.9117C618.209 81.0669 617.954 78.4774 617.686 76.6538C617.431 72.7635 612.765 66.2958 604.221 62.9161V60.3266H650.583V167.858C650.583 171.225 650.838 173.56 651.106 175.116C651.884 178.228 655.76 183.152 664.838 187.297V189.887H619.509L618.209 166.046L618.221 166.022Z" fill="white" fill-opacity="0.3"/>
<path d="M712.744 3.29492V167.832C712.744 176.646 712.744 179.746 726.731 187.271V189.861H666.382V187.271C680.369 179.758 680.369 176.646 680.369 167.832V28.424C680.369 23.245 680.369 20.9108 678.559 16.5099C677.271 11.5862 672.859 8.21862 666.382 5.88442V3.29492H712.744Z" fill="white" fill-opacity="0.3"/>
<path d="M731.386 70.9273L744.85 60.3018L768.159 31.5498H779.035V60.3018H808.299V84.3975H779.035V153.062C779.035 161.876 783.702 166.277 793.278 166.277C798.71 166.277 803.899 165.243 808.821 163.165V187.783C800.788 190.895 791.99 192.451 782.402 192.451C769.192 192.451 759.604 189.862 753.649 184.683C747.694 179.504 744.583 170.69 744.583 157.998V84.4097H731.118L731.373 70.9394L731.386 70.9273Z" fill="white" fill-opacity="0.3"/>
<path d="M863.216 190.115H829.019V60.5553H863.216V190.115ZM827.221 25.3113C827.221 20.3876 829.031 16.242 832.398 12.8744C835.764 9.50682 840.163 7.95068 845.607 7.95068C851.052 7.95068 855.706 9.50682 859.34 12.8744C862.961 16.242 864.772 20.3876 864.772 25.3113C864.772 30.235 862.961 34.1132 859.595 37.2376C856.229 40.3377 851.562 41.8938 845.863 41.8938C840.163 41.8938 836.019 40.3377 832.653 37.2376C829.287 34.1253 827.476 29.9797 827.476 25.056L827.221 25.3113Z" fill="white" fill-opacity="0.3"/>
<path d="M880.314 70.9273L893.779 60.3018L917.088 31.5498H927.964V60.3018H957.227V84.3975H927.964V153.062C927.964 161.876 932.631 166.277 942.207 166.277C947.639 166.277 952.828 165.243 957.75 163.165V187.783C949.717 190.895 940.919 192.451 931.33 192.451C918.121 192.451 908.532 189.862 902.578 184.683C896.623 179.504 893.512 170.69 893.512 157.998V84.4097H880.047L880.302 70.9394L880.314 70.9273Z" fill="white" fill-opacity="0.3"/>
<path d="M1050.22 171.456L1037.79 184.927C1028.98 189.85 1019.91 192.44 1010.59 192.44C999.713 192.44 990.903 189.072 983.915 182.592C976.915 176.113 973.549 166.788 973.549 154.606V60.3022H1007.75V147.883C1007.75 159.797 1013.19 165.767 1023.8 165.767C1030.8 165.767 1039.85 162.654 1050.74 156.175V60.3022H1084.94V189.862H1052.04L1050.74 171.468H1050.22V171.456Z" fill="white" fill-opacity="0.3"/>
<path d="M1167.54 167.564C1175.05 167.564 1182.3 164.197 1189.55 157.461V86.4629C1182.82 82.5847 1175.56 80.5058 1167.54 80.5058C1149.15 80.5058 1139.83 95.2769 1139.83 125.074C1139.83 140.101 1142.17 150.982 1146.83 157.717C1151.49 164.452 1158.49 167.819 1167.55 167.819V167.564H1167.54ZM1223.74 190.116H1190.85L1189.55 172.755L1174.02 186.493C1167.28 190.639 1159.76 192.718 1151.49 192.718C1136.98 192.718 1125.59 186.493 1117.3 174.056C1109.01 161.619 1104.87 145.292 1104.87 125.087C1104.87 104.881 1109.79 87.5084 1119.62 75.5943C1129.47 63.6801 1142.42 57.7109 1158.47 57.7109C1169.61 57.7109 1179.97 60.5679 1189.55 66.2697V13.6529L1214.41 3.29492H1223.73V190.116H1223.74Z" fill="white" fill-opacity="0.3"/>
<path d="M1327.08 114.445C1327.85 111.078 1328.11 107.71 1328.11 104.342C1328.11 95.7959 1326.04 89.8267 1321.9 86.4712C1317.76 83.1037 1313.1 81.5475 1307.66 81.5475C1289.79 81.5475 1279.95 92.9511 1278.13 116.013L1327.08 114.457V114.445ZM1361.01 106.154C1361.01 113.144 1359.71 121.958 1357.38 132.584H1277.87C1278.9 144.51 1282.79 153.312 1289.27 159.014C1295.75 164.716 1304.04 167.572 1313.88 167.572C1320.36 167.572 1327.34 166.539 1335.11 164.46C1342.89 162.381 1349.35 159.792 1354.27 156.947V182.344C1342.1 189.334 1326.3 192.702 1306.88 192.702C1286.41 192.702 1270.62 186.489 1259.48 174.308C1248.35 162.126 1242.65 145.811 1242.65 125.338C1242.65 104.865 1248.09 88.2827 1259.23 76.1011C1270.37 63.9195 1286.17 57.9624 1306.62 57.9624C1313.88 57.9624 1320.61 58.7405 1326.83 60.2844C1333.04 61.8406 1338.74 64.1748 1344.19 67.5423C1349.63 70.9099 1353.78 75.8336 1356.87 82.3134C1359.99 88.7933 1361.54 96.5618 1361.54 105.631L1361.02 106.142L1361.01 106.154Z" fill="white" fill-opacity="0.3"/>
<path d="M1382.83 72.7959H1376.45V68.3828H1394.48V72.7959H1388.11V94.0347H1382.83V72.7959Z" fill="white" fill-opacity="0.3"/>
<path d="M1416.91 84.6861C1416.91 81.5617 1417.02 78.8384 1417.21 76.5407H1417.03L1411.83 89.3666H1408.03L1402.82 76.5407H1402.63C1402.82 78.8384 1402.93 81.5617 1402.93 84.6861V93.9986H1398.07V68.3467H1405.01L1408.63 77.4768C1409.24 79.0208 1409.69 80.4918 1410.07 81.8899H1410.21C1410.66 80.1879 1411.11 78.7168 1411.57 77.5133L1415.04 68.3832H1422.01V94.035H1416.92V84.6739L1416.91 84.6861Z" fill="white" fill-opacity="0.3"/>
</svg>
