<svg width="84" height="86" viewBox="0 0 84 86" fill="none" xmlns="http://www.w3.org/2000/svg">
<g opacity="0.4">
<g opacity="0.6">
<path d="M83.5066 31.5176C81.6932 33.352 79.873 35.1863 78.0597 37.0207C85.5829 44.4887 93.1061 51.9568 100.629 59.4248" stroke="#9241DC" stroke-linecap="round" stroke-linejoin="round"/>
<path d="M95.3831 76.6202C89.611 70.8904 83.8319 65.1537 78.0597 59.4238" stroke="#9241DC" stroke-linecap="round" stroke-linejoin="round"/>
<path d="M66.854 74.415C63.8225 77.4723 60.798 80.5296 57.7666 83.5869" stroke="#9241DC" stroke-linecap="round" stroke-linejoin="round"/>
<path d="M39.3432 0.827148C37.5299 2.66152 35.7097 4.4959 33.8964 6.33027C41.4196 13.7983 48.9427 21.2663 56.4659 28.7344" stroke="#9241DC" stroke-linecap="round" stroke-linejoin="round"/>
<path d="M51.212 45.9308C45.4398 40.2009 39.6607 34.4642 33.8885 28.7344" stroke="#9241DC" stroke-linecap="round" stroke-linejoin="round"/>
<path d="M34.5953 73.2125C40.3052 67.4483 46.0151 61.6841 51.725 55.9199" stroke="#9241DC" stroke-linecap="round" stroke-linejoin="round"/>
<path d="M6.27365 60.2969C4.46034 62.1313 2.6401 63.9656 0.826782 65.8C8.34998 73.268 15.8732 80.7361 23.3964 88.2041" stroke="#9241DC" stroke-linecap="round" stroke-linejoin="round"/>
<path d="M22.6915 43.7256C19.6601 46.7829 16.6356 49.8402 13.6041 52.8975" stroke="#9241DC" stroke-linecap="round" stroke-linejoin="round"/>
</g>
</g>
</svg>
