<svg width="222" height="30" viewBox="0 0 222 30" fill="none" xmlns="http://www.w3.org/2000/svg">
<path d="M22.1179 1.21421V6.91615H21.7143C20.5415 3.64262 17.9958 2.02483 14.1117 2.02483C8.45116 2.02483 5.82268 6.06759 5.82268 14.9637C5.82268 23.8599 8.45116 27.9026 14.1117 27.9026C18.2787 27.9026 20.9451 26.2848 22.1179 23.0113H22.5215L22.1179 28.7132C19.4101 29.5239 16.7402 29.9275 14.1117 29.9275C9.90683 29.9275 6.50912 28.6339 3.88063 26.0848C1.29354 23.5322 0 19.8137 0 14.9603C0 10.1069 1.29354 6.38839 3.88063 3.83924C6.50912 1.29354 9.90683 0 14.1117 0C16.7402 0 19.4101 0.403586 22.1179 1.21421Z" fill="white"/>
<path d="M33.5181 27.9405C36.4709 27.9405 37.9265 25.7156 37.9265 19.6928C37.9265 13.6701 36.4709 10.8795 33.5181 10.8795C30.5654 10.8795 29.1132 13.1044 29.1132 19.1271C29.1132 25.1499 30.5689 27.9405 33.5181 27.9405ZM43.2215 19.4065C43.2215 25.995 39.9859 29.9204 33.5181 29.9204C27.0504 29.9204 23.7734 26.0398 23.7734 19.4065C23.7734 12.7732 27.009 8.89258 33.5181 8.89258C40.0273 8.89258 43.2215 12.8146 43.2215 19.4065Z" fill="white"/>
<path d="M51.6334 13.0181L54.8689 9.78254C56.0004 9.17543 57.1318 8.89258 58.3046 8.89258C61.861 8.89258 63.9651 10.8346 63.9651 14.5945V26.0778C63.9651 26.6021 64.0065 26.9677 64.0445 27.2092C64.1652 27.6921 64.7723 28.4613 66.1866 29.1098V29.5134H57.1283V29.1098C58.9083 27.937 58.9083 27.4506 58.9083 26.0778V15.6466C58.9083 13.8667 57.9804 12.9767 56.0797 12.9767C54.5033 12.9767 52.9648 13.4631 51.5506 14.4738V26.0778C51.5506 26.6021 51.592 26.9677 51.6299 27.2092C51.7506 27.6921 52.3577 28.4613 53.772 29.1098V29.5134H44.3516V29.1098C46.5351 27.937 46.5351 27.4506 46.5351 26.0778V13.2182C46.5351 12.4076 46.5351 12.0454 46.2522 11.3589C46.0487 10.5897 45.3623 10.0654 44.3516 9.69975V9.29616H51.5506V13.0181H51.6299H51.6334Z" fill="white"/>
<path d="M73.3432 21.5107C70.594 20.2585 67.1169 18.6821 67.1169 14.6359C67.1169 13.1802 67.724 11.8453 68.8968 10.6725C70.0696 9.49968 72.0117 8.89258 74.6781 8.89258C77.0651 8.89258 79.1659 9.17543 80.9458 9.69975L79.4901 13.4217L79.2866 13.4631C77.4687 11.8867 76.2545 11.1589 74.516 11.1589C72.7775 11.1589 71.8496 12.0488 71.8496 13.3838C71.8496 14.8808 73.3466 15.9709 75.2059 16.6987C77.8758 17.7922 81.4321 19.4065 81.3942 23.8149C81.3942 26.1605 79.5349 29.9204 73.4294 29.9204C71.2045 29.9204 69.2245 29.6376 67.4446 29.1133L66.8789 25.2326L67.041 25.1533C69.4281 26.8125 71.4874 27.6611 73.2673 27.6611C75.4094 27.6611 76.7443 26.6504 76.7443 24.9118C76.7443 23.4562 75.2473 22.3627 73.3466 21.5141" fill="white"/>
<path d="M96.5137 25.798H96.4344L93.1988 29.0336C92.0674 29.6407 90.936 29.9236 89.8425 29.9236C86.2861 29.9236 84.1405 27.9815 84.1405 24.2216V13.2248C84.1405 12.4176 84.1405 12.0519 83.8577 11.3655C83.6576 10.5963 82.9677 10.072 81.957 9.70632V9.30273H89.156V23.173C89.156 24.9529 90.1253 25.8429 92.026 25.8429C93.6438 25.8429 95.1408 25.3565 96.5137 24.3458V12.9833C96.5137 12.5383 96.4723 12.1347 96.4344 11.8519C96.393 11.2448 95.6652 10.2341 94.3302 9.70977V9.30618H101.567V26.0878C101.567 26.6121 101.609 26.9777 101.647 27.2192C101.767 27.7056 102.374 28.4748 103.789 29.1198V29.5234H96.7138L96.5103 25.8049L96.5137 25.798Z" fill="white"/>
<path d="M111.27 0.404297V26.0786C111.27 27.4549 111.27 27.9378 113.454 29.1106V29.5142H104.033V29.1106C106.217 27.9378 106.217 27.4515 106.217 26.0786V4.32633C106.217 3.5157 106.217 3.15351 105.934 2.46707C105.734 1.69784 105.044 1.17352 104.033 0.807883V0.404297H111.27Z" fill="white"/>
<path d="M114.18 10.9575L116.284 9.29829L119.923 4.81055H121.621V9.29829H126.191V13.0582H121.621V23.7722C121.621 25.1485 122.348 25.835 123.845 25.835C124.694 25.835 125.505 25.6728 126.27 25.3486V29.1913C125.015 29.6777 123.642 29.9191 122.145 29.9191C120.082 29.9191 118.585 29.5155 117.657 28.7049C116.726 27.8943 116.243 26.5214 116.243 24.5414V13.0582H114.139L114.18 10.954V10.9575Z" fill="white"/>
<path d="M134.76 29.5593H129.423V9.34205H134.76V29.5593ZM129.141 3.84018C129.141 3.07095 129.423 2.4259 129.951 1.89813C130.476 1.37382 131.165 1.12891 132.014 1.12891C132.863 1.12891 133.59 1.37037 134.156 1.89813C134.722 2.42245 135.005 3.07095 135.005 3.84018C135.005 4.6094 134.722 5.21306 134.198 5.69943C133.673 6.18236 132.942 6.42727 132.055 6.42727C131.169 6.42727 130.52 6.1858 129.993 5.69943C129.468 5.21306 129.185 4.56801 129.185 3.79878L129.144 3.84018H129.141Z" fill="white"/>
<path d="M137.426 10.9575L139.53 9.29829L143.169 4.81055H144.867V9.29829H149.437V13.0582H144.867V23.7722C144.867 25.1485 145.594 25.835 147.092 25.835C147.94 25.835 148.751 25.6728 149.516 25.3486V29.1913C148.264 29.6777 146.888 29.9191 145.391 29.9191C143.328 29.9191 141.831 29.5155 140.903 28.7049C139.972 27.8943 139.489 26.5214 139.489 24.5414V13.0582H137.385L137.426 10.954V10.9575Z" fill="white"/>
<path d="M163.952 26.6481L162.01 28.7522C160.634 29.5215 159.219 29.9251 157.764 29.9251C156.067 29.9251 154.69 29.4007 153.6 28.3901C152.507 27.3794 151.982 25.9237 151.982 24.023V9.30078H157.319V22.9675C157.319 24.8268 158.167 25.7581 159.826 25.7581C160.92 25.7581 162.334 25.2718 164.031 24.2611V9.30078H169.368V29.518H164.231L164.028 26.6481H163.949H163.952Z" fill="white"/>
<path d="M182.265 26.0406C183.437 26.0406 184.569 25.5163 185.7 24.4642V13.3846C184.648 12.7775 183.517 12.4567 182.265 12.4567C179.395 12.4567 177.939 14.7609 177.939 19.4108C177.939 21.7564 178.305 23.4535 179.032 24.5056C179.76 25.5577 180.85 26.082 182.268 26.082V26.0406H182.265ZM191.04 29.5591H185.904L185.7 26.8513L183.275 28.9934C182.223 29.6419 181.05 29.9627 179.757 29.9627C177.494 29.9627 175.714 28.9934 174.421 27.0513C173.127 25.1093 172.479 22.5636 172.479 19.4108C172.479 16.258 173.248 13.5467 174.783 11.6875C176.321 9.8282 178.343 8.89685 180.847 8.89685C182.585 8.89685 184.203 9.34183 185.697 10.2318V2.02209L189.577 0.404297H191.033V29.5591H191.04Z" fill="white"/>
<path d="M207.174 17.7494C207.295 17.225 207.337 16.6973 207.337 16.173C207.337 14.838 207.012 13.9101 206.367 13.3823C205.719 12.858 204.994 12.6131 204.142 12.6131C201.352 12.6131 199.817 14.393 199.534 17.9908L207.178 17.7459L207.174 17.7494ZM212.469 16.4558C212.469 17.5458 212.266 18.9222 211.904 20.5814H199.489C199.651 22.4406 200.258 23.8169 201.269 24.7069C202.28 25.5969 203.573 26.0418 205.112 26.0418C206.122 26.0418 207.212 25.8797 208.427 25.5555C209.641 25.2312 210.652 24.8276 211.421 24.3827V28.3461C209.52 29.4361 207.054 29.9639 204.022 29.9639C200.828 29.9639 198.361 28.9946 196.623 27.0939C194.884 25.1933 193.994 22.6476 193.994 19.4499C193.994 16.2523 194.843 13.6687 196.581 11.768C198.32 9.86736 200.786 8.93945 203.98 8.93945C205.112 8.93945 206.164 9.06018 207.133 9.30165C208.102 9.54311 208.992 9.90875 209.841 10.4331C210.689 10.9574 211.338 11.7266 211.821 12.7373C212.307 13.748 212.549 14.9622 212.549 16.3765L212.469 16.4558Z" fill="white"/>
<path d="M215.876 11.2524H214.879V10.5625H217.694V11.2524H216.7V14.5639H215.876V11.2524Z" fill="white"/>
<path d="M221.201 13.1058C221.201 12.616 221.218 12.1951 221.249 11.8364H221.221L220.407 13.8371H219.814L219.003 11.8364H218.972C219.003 12.1951 219.021 12.6194 219.021 13.1058V14.558H218.262V10.5566H219.345L219.911 11.9813C220.004 12.2227 220.076 12.4538 220.135 12.6712H220.159C220.228 12.4055 220.3 12.1744 220.369 11.9882L220.911 10.5635H222.001V14.5649H221.208V13.1058H221.201Z" fill="white"/>
<path d="M33.7458 16.6266L34.2184 17.9236C34.3495 18.2823 34.6289 18.5686 34.9876 18.7031L36.2674 19.1861C36.4744 19.2654 36.4744 19.5586 36.2674 19.6345L34.9876 20.1174C34.6289 20.2519 34.3495 20.5382 34.2184 20.897L33.7458 22.194C33.67 22.4044 33.3699 22.4044 33.294 22.194L32.8214 20.897C32.6903 20.5382 32.4109 20.2519 32.0522 20.1174L30.7724 19.6345C30.5654 19.5551 30.5654 19.2619 30.7724 19.1861L32.0522 18.7031C32.4109 18.5686 32.6903 18.2823 32.8214 17.9236L33.294 16.6266C33.3699 16.4161 33.67 16.4161 33.7458 16.6266Z" fill="white"/>
</svg>
