<svg width="341" height="201" viewBox="0 0 341 201" fill="none" xmlns="http://www.w3.org/2000/svg">
<path d="M307.161 11.774C357.067 28.7465 395.504 67.3939 407.132 115.64C411.97 135.715 413.239 157.766 409.051 180.609C407.735 187.815 405.958 194.618 403.896 201.004" stroke="white" stroke-opacity="0.6" stroke-width="2.6321" stroke-linecap="round" stroke-linejoin="round"/>
<path d="M69.6572 87.6527C102.288 35.6605 175.148 3.94446 245.264 2.23117C246.295 2.20419 247.327 2.19073 248.358 2.17724C257.971 2.08281 267.41 2.7303 276.594 4.06585" stroke="white" stroke-opacity="0.6" stroke-width="2.6321" stroke-linecap="round" stroke-linejoin="round"/>
<path d="M178.67 166.188C176.814 162.208 175.767 157.718 175.371 152.691C174.704 138.463 181.827 127.844 194.359 118.547C216.203 102.198 251.15 96.2895 271.391 118.175C280.402 127.362 286.24 139.331 285.922 151.423C285.827 163.392 280.687 177.055 274.691 187.729C267.806 197.398 258.542 208.031 231.971 221.543C224.785 225 216.568 228.236 209.096 230.66C184.143 238.635 150.449 242.739 124.069 237.767C93.3731 231.597 69.0546 213.678 57.9186 188.363C52.3347 176.573 51.7319 164.646 52.0174 151.919C52.2871 139.468 54.5238 127.637 58.4262 116.509" stroke="white" stroke-opacity="0.6" stroke-width="2.6321" stroke-linecap="round" stroke-linejoin="round"/>
<path d="M152.366 200.516C115.008 171.762 95.0521 112.117 114.342 70.7265C120.354 57.8104 129.587 49.7868 134.044 45.9847C174.956 11.1085 241.978 22.9203 249.973 24.43C263.267 26.9461 286.888 33.1106 312.015 50.1083C360.922 87.2769 399.66 165.444 368.568 253.424" stroke="white" stroke-opacity="0.6" stroke-width="2.6321" stroke-linecap="round" stroke-linejoin="round"/>
<path d="M195.817 127.643C201.544 126.111 207.889 125.569 214.869 126.057C237.126 128.225 253.956 145.027 261.492 162.141C271.105 183.835 263.538 202.819 239.711 213.726C230.764 217.548 220.866 218.821 210.237 218.767C193.168 218.74 177.368 214.946 163.187 207.249" stroke="white" stroke-opacity="0.6" stroke-width="2.6321" stroke-linecap="round" stroke-linejoin="round"/>
<path d="M354.752 114.115C364.777 135.205 365.745 161.355 358.813 188.539C352.245 209.767 332.146 237.157 311.746 253.423" stroke="white" stroke-opacity="0.6" stroke-width="2.6321" stroke-linecap="round" stroke-linejoin="round"/>
<path d="M167.311 87.5385C184.57 77.7463 210.903 68.1181 245.707 65.2601C288.126 62.484 318.155 70.5427 337.254 85.1959" stroke="white" stroke-opacity="0.6" stroke-width="2.6321" stroke-linecap="round" stroke-linejoin="round"/>
<path d="M148.464 191.722C134.044 180.156 127.953 163.492 131.046 146.204C133.616 129.187 140.485 115.343 154.048 103.018C155.952 101.269 158.093 99.4522 160.489 97.6217" stroke="white" stroke-opacity="0.6" stroke-width="2.6321" stroke-linecap="round" stroke-linejoin="round"/>
<path d="M236.711 140.96C239.218 145.482 240.423 150.781 240.36 156.647C239.773 170.053 230.699 181.034 217.739 189.114C203.271 197.458 185.425 202.534 169.546 200.609" stroke="white" stroke-opacity="0.6" stroke-width="2.6321" stroke-linecap="round" stroke-linejoin="round"/>
<path d="M176.02 90.5967C177.939 89.7784 179.97 89.0712 182.111 88.4749C194.77 84.3283 207.001 83.718 220.421 86.5333C238.6 90.0835 256.32 99.6527 269.423 111.08C281.701 122.202 291.029 135.71 297.295 149.842C310.445 179.353 309.176 216.659 300.959 237.378C298.5 242.912 295.28 247.46 291.663 253.41" stroke="white" stroke-opacity="0.6" stroke-width="2.6321" stroke-linecap="round" stroke-linejoin="round"/>
<path d="M223.498 175.732C210.76 180.154 193.691 179.139 182.095 173.327C167.342 166.098 154.715 152.176 151.653 138.174C148.972 126.924 151.114 115.113 157.887 105.747" stroke="white" stroke-opacity="0.6" stroke-width="2.6321" stroke-linecap="round" stroke-linejoin="round"/>
<path d="M45.1324 50.7137C26.493 98.583 24.9701 188.831 104.271 253.409" stroke="white" stroke-opacity="0.6" stroke-width="2.6321" stroke-linecap="round" stroke-linejoin="round"/>
<path d="M3.20546 169.832C-1.47422 132.94 6.82227 90.9095 39.5642 50.7288" stroke="white" stroke-opacity="0.6" stroke-width="2.6321" stroke-linecap="round" stroke-linejoin="round"/>
<path d="M37.5492 253.409C24.3033 237.967 12.5803 217.053 6.45703 193.08" stroke="white" stroke-opacity="0.6" stroke-width="2.6321" stroke-linecap="round" stroke-linejoin="round"/>
</svg>
