<svg width="373" height="186" viewBox="0 0 373 186" fill="none" xmlns="http://www.w3.org/2000/svg">
<path d="M525.115 140.8C512.247 190.078 464.261 226.705 407.005 226.705C339.901 226.705 285.51 176.408 285.51 114.354C285.51 52.3004 339.901 2.00269 407.005 2.00269C474.11 2.00269 524.128 48.3639 528.23 106.964" stroke="white" stroke-opacity="0.6" stroke-width="3.74472" stroke-linecap="round" stroke-linejoin="round"/>
<path d="M137.989 62.4637C132.359 77.995 129.166 95.6377 129.166 114.354C129.166 176.408 164.169 226.705 207.338 226.705C250.507 226.705 285.51 176.408 285.51 114.354C285.51 52.3004 250.507 2.00269 207.338 2.00269C184.738 2.00269 164.363 15.7983 150.083 37.8606" stroke="white" stroke-opacity="0.6" stroke-width="3.74472" stroke-linecap="round" stroke-linejoin="round"/>
<path d="M433.398 63.2868C438.855 78.6034 441.931 95.9777 441.931 114.354C441.931 176.408 406.909 226.705 363.721 226.705C320.532 226.705 285.51 176.408 285.51 114.354C285.51 52.3004 320.532 2.00269 363.721 2.00269C386.708 2.00269 407.392 16.2457 421.692 38.9342" stroke="white" stroke-opacity="0.6" stroke-width="3.74472" stroke-linecap="round" stroke-linejoin="round"/>
<path d="M95.4969 220.031C110.57 224.361 126.824 226.705 143.774 226.705C222.062 226.705 285.528 176.408 285.528 114.354C285.528 52.3004 222.062 2.00269 143.774 2.00269C65.4858 2.00269 2 52.3183 2 114.354C2 153.128 26.7867 187.322 64.4989 207.506" stroke="white" stroke-opacity="0.6" stroke-width="3.74472" stroke-linecap="round" stroke-linejoin="round"/>
<path d="M223.628 164.687C228.988 201.476 240.056 226.705 252.846 226.705C270.879 226.705 285.508 176.408 285.508 114.354C285.508 52.3004 270.879 2.00269 252.846 2.00269C234.812 2.00269 220.184 52.3004 220.184 114.354C220.184 123.444 220.493 132.283 221.093 140.764" stroke="white" stroke-opacity="0.6" stroke-width="3.74472" stroke-linecap="round" stroke-linejoin="round"/>
</svg>
