<svg width="268" height="183" viewBox="0 0 268 183" fill="none" xmlns="http://www.w3.org/2000/svg">
<path d="M29.4802 60.405V88.875L3.74023 103.205" stroke="#C7A8E7" stroke-width="0.94" stroke-miterlimit="10"/>
<path d="M53.9005 8.79492L29.4805 23.325V44.8649" stroke="#C7A8E7" stroke-width="0.94" stroke-miterlimit="10"/>
<path d="M90.1904 -35.2451V-12.8051L68.1904 0.294861" stroke="#C7A8E7" stroke-width="0.94" stroke-miterlimit="10"/>
<path d="M53.3605 -0.365097L29.4805 -14.5751V-35.2351" stroke="#C7A8E7" stroke-width="0.94" stroke-miterlimit="10"/>
<path d="M90.1908 43.8151V21.5551L67.8008 8.2251" stroke="#C7A8E7" stroke-width="0.94" stroke-miterlimit="10"/>
<path d="M90.1904 153.015V56.825" stroke="#C7A8E7" stroke-width="0.94" stroke-miterlimit="10"/>
<path d="M97.2705 159.185L131.621 178.305" stroke="#C7A8E7" stroke-width="0.94" stroke-miterlimit="10"/>
<path d="M6.07031 108.425L85.0203 152.375" stroke="#C7A8E7" stroke-width="0.94" stroke-miterlimit="10"/>
<path d="M94.541 -37.2849C117.931 -24.6849 141.331 -12.0949 164.731 0.505096" stroke="#C7A8E7" stroke-width="0.94" stroke-miterlimit="10"/>
<path d="M94.0205 47.4949C117.981 34.5849 141.951 21.6849 165.921 8.78491" stroke="#C7A8E7" stroke-width="0.94" stroke-miterlimit="10"/>
<path d="M36.3301 56.8349C43.0101 60.4949 49.6801 64.1349 56.3601 67.7949C66.8701 62.1249 77.4001 56.4749 87.9101 50.8049" stroke="#C7A8E7" stroke-width="0.94" stroke-miterlimit="10"/>
<path d="M-22.6094 49.0549C-15.1994 44.9949 -7.78935 40.9449 -0.369354 36.8849V36.7449C7.12065 40.8449 14.6206 44.9449 22.1106 49.0449" stroke="#C7A8E7" stroke-width="0.94" stroke-miterlimit="10"/>
<path d="M118.211 -80.585H152.091L100.761 6.00505" stroke="#C7A8E7" stroke-width="0.94" stroke-miterlimit="10"/>
<path d="M45.8802 99.2749L-0.439789 181.565H-0.279785L-42.7998 106.035" stroke="#C7A8E7" stroke-width="0.94" stroke-miterlimit="10"/>
<path d="M100.681 6.26489L152.011 92.8549H57.6709" stroke="#C7A8E7" stroke-width="0.94" stroke-miterlimit="10"/>
<path d="M176.411 19.725C176.711 15.515 176.871 11.255 176.871 6.96503C176.871 -56.665 143.121 -112.405 92.541 -143.335" stroke="#C7A8E7" stroke-width="0.94" stroke-linecap="round" stroke-linejoin="round"/>
<path d="M39.5605 178.735C96.8705 165.865 143.611 125.045 164.721 71.355" stroke="#C7A8E7" stroke-width="0.94" stroke-linecap="round" stroke-linejoin="round"/>
<path d="M87.6509 55.8447C71.6009 84.1147 42.3009 103.875 8.21094 106.685" stroke="#C7A8E7" stroke-width="0.94" stroke-linecap="round" stroke-linejoin="round"/>
<path d="M92.541 -33.905C97.821 -21.655 100.751 -8.13504 100.751 6.05496C100.751 20.245 98.031 32.795 93.091 44.695" stroke="#C7A8E7" stroke-width="0.94" stroke-linecap="round" stroke-linejoin="round"/>
<path d="M91.9904 51.515C92.9804 51.515 93.7904 50.705 93.7904 49.715C93.7904 48.725 92.9804 47.915 91.9904 47.915C91.0004 47.915 90.1904 48.725 90.1904 49.715C90.1904 50.705 91.0004 51.515 91.9904 51.515Z" fill="#C7A8E7"/>
<path d="M1.54025 108.715C2.53025 108.715 3.34024 107.905 3.34024 106.915C3.34024 105.925 2.53025 105.115 1.54025 105.115C0.550253 105.115 -0.259766 105.925 -0.259766 106.915C-0.259766 107.905 0.550253 108.715 1.54025 108.715Z" fill="#C7A8E7"/>
<path d="M60.4504 6.1149C61.4404 6.1149 62.2504 5.30491 62.2504 4.31491C62.2504 3.32491 61.4404 2.51489 60.4504 2.51489C59.4604 2.51489 58.6504 3.32491 58.6504 4.31491C58.6504 5.30491 59.4604 6.1149 60.4504 6.1149Z" fill="#C7A8E7"/>
<path d="M29.4807 54.5949C30.4707 54.5949 31.2807 53.7849 31.2807 52.7949C31.2807 51.8049 30.4707 50.9949 29.4807 50.9949C28.4907 50.9949 27.6807 51.8049 27.6807 52.7949C27.6807 53.7849 28.4907 54.5949 29.4807 54.5949Z" fill="#C7A8E7"/>
<path d="M174.051 108.425C175.041 108.425 175.851 107.615 175.851 106.625C175.851 105.635 175.041 104.825 174.051 104.825C173.061 104.825 172.251 105.635 172.251 106.625C172.251 107.615 173.061 108.425 174.051 108.425Z" fill="#C7A8E7"/>
<path d="M168.471 1.5249C170.411 4.0749 170.411 4.56492 168.471 7.10492C171.021 5.16492 171.511 5.16492 174.051 7.10492C172.111 4.55492 172.111 4.0649 174.051 1.5249C171.501 3.4649 171.011 3.4649 168.471 1.5249Z" fill="#C7A8E7"/>
<path d="M165.831 120.625C158.651 138.735 153.991 158.095 152.251 178.305" stroke="#C7A8E7" stroke-width="0.94" stroke-miterlimit="10"/>
<path d="M268.82 10.6951C231.22 28.5251 199.91 57.4651 179.11 93.2551" stroke="#C7A8E7" stroke-width="0.94" stroke-miterlimit="10"/>
</svg>
