<svg width="197" height="282" viewBox="0 0 197 282" fill="none" xmlns="http://www.w3.org/2000/svg">
<g opacity="0.4">
<mask id="mask0_1418_43862" style="mask-type:luminance" maskUnits="userSpaceOnUse" x="0" y="-256" width="536" height="538">
<path d="M535.56 -256H0V282H535.56V-256Z" fill="white"/>
</mask>
<g mask="url(#mask0_1418_43862)">
<path d="M173.831 158.99L136.811 179.6" stroke="#C7A8E7" stroke-width="0.94" stroke-miterlimit="10"/>
<path d="M262.371 109.72L181.541 154.7" stroke="#C7A8E7" stroke-width="0.94" stroke-miterlimit="10"/>
<path d="M178.24 46.1599V22.8499L199.69 10.0898" stroke="#C7A8E7" stroke-width="0.94" stroke-miterlimit="10"/>
<path d="M178.24 149.82V58.0996" stroke="#C7A8E7" stroke-width="0.94" stroke-miterlimit="10"/>
<path d="M102.521 1.67979C126.291 -11.1202 150.071 -23.9202 173.831 -36.7202" stroke="#C7A8E7" stroke-width="0.94" stroke-miterlimit="10"/>
<path d="M182.83 54.0898C192.19 59.1298 201.56 64.1799 210.92 69.2099C218.75 64.9299 226.58 60.6399 234.41 56.3599" stroke="#C7A8E7" stroke-width="0.94" stroke-miterlimit="10"/>
<path d="M102.521 10.8398C125.191 23.0498 147.861 35.2499 170.531 47.4599" stroke="#C7A8E7" stroke-width="0.94" stroke-miterlimit="10"/>
<path d="M123.131 80.89L162.951 13.71" stroke="#C7A8E7" stroke-width="0.94" stroke-miterlimit="10"/>
<path d="M211.071 94.1499H131.591" stroke="#C7A8E7" stroke-width="0.94" stroke-miterlimit="10"/>
<path d="M103.521 52.1C100.441 39.18 98.8105 25.69 98.8105 11.83C98.8105 -10.05 102.871 -30.98 110.281 -50.25" stroke="#C7A8E7" stroke-width="0.94" stroke-linecap="round" stroke-linejoin="round"/>
<path d="M248.441 183.29C194.371 175.98 148.231 143.7 122.011 98.4297" stroke="#C7A8E7" stroke-width="0.94" stroke-linecap="round" stroke-linejoin="round"/>
<path d="M257.79 -191.47C161.06 -195.17 79.6502 -119.75 75.9502 -23.0201C75.0402 0.839935 78.9402 23.7599 86.7802 44.8299" stroke="#C7A8E7" stroke-width="0.94" stroke-linecap="round" stroke-linejoin="round"/>
<path d="M167.001 0.930054C167.771 -11.3399 170.741 -23.02 175.501 -33.71" stroke="#C7A8E7" stroke-width="0.94" stroke-linecap="round" stroke-linejoin="round"/>
<path d="M174.061 45.0197C170.131 35.2497 167.681 24.7197 167.001 13.7197" stroke="#C7A8E7" stroke-width="0.94" stroke-linecap="round" stroke-linejoin="round"/>
<path d="M212.96 92.1696C199.64 83.5396 188.47 71.8496 180.45 58.0996" stroke="#C7A8E7" stroke-width="0.94" stroke-linecap="round" stroke-linejoin="round"/>
<path d="M177.601 54.6C178.591 54.6 179.401 53.79 179.401 52.8C179.401 51.81 178.591 51 177.601 51C176.611 51 175.801 51.81 175.801 52.8C175.801 53.79 176.611 54.6 177.601 54.6Z" fill="#C7A8E7"/>
<path d="M166.801 9.35977C167.791 9.35977 168.601 8.54975 168.601 7.55975C168.601 6.56975 167.791 5.75977 166.801 5.75977C165.811 5.75977 165.001 6.56975 165.001 7.55975C165.001 8.54975 165.811 9.35977 166.801 9.35977Z" fill="#C7A8E7"/>
<path d="M96.8508 111.52C97.8408 111.52 98.6508 110.71 98.6508 109.72C98.6508 108.73 97.8408 107.92 96.8508 107.92C95.8608 107.92 95.0508 108.73 95.0508 109.72C95.0508 110.71 95.8608 111.52 96.8508 111.52Z" fill="#C7A8E7"/>
<path d="M96.8508 111.52C97.8408 111.52 98.6508 110.71 98.6508 109.72C98.6508 108.73 97.8408 107.92 96.8508 107.92C95.8608 107.92 95.0508 108.73 95.0508 109.72C95.0508 110.71 95.8608 111.52 96.8508 111.52Z" fill="#C7A8E7"/>
<path d="M116.101 89.3799C118.041 91.9299 118.041 92.4199 116.101 94.9599C118.651 93.0199 119.141 93.0199 121.681 94.9599C119.741 92.4099 119.741 91.9199 121.681 89.3799C119.131 91.3199 118.641 91.3199 116.101 89.3799Z" fill="#C7A8E7"/>
<path d="M104.551 121.92C111.731 140.03 116.391 159.39 118.131 179.6" stroke="#C7A8E7" stroke-width="0.94" stroke-miterlimit="10"/>
<path d="M1.56055 11.9897C39.1605 29.8197 70.4705 58.7597 91.2705 94.5497" stroke="#C7A8E7" stroke-width="0.94" stroke-miterlimit="10"/>
</g>
</g>
</svg>
