<svg width="183" height="85" viewBox="0 0 183 85" fill="none" xmlns="http://www.w3.org/2000/svg">
<g id="Footer Icons">
<path id="Vector" d="M180.141 52.3198C175.741 70.54 159.334 84.0828 139.759 84.0828C116.815 84.0828 98.2188 65.4854 98.2188 42.5414C98.2188 19.5974 116.815 1.00001 139.759 1.00001C162.702 1.00001 179.803 18.1419 181.206 39.809" stroke="white" stroke-width="1.58736" stroke-linecap="round" stroke-linejoin="round"/>
<path id="Vector_2" d="M47.7804 23.3552C45.8553 29.0978 44.7637 35.6211 44.7637 42.5414C44.7637 65.4854 56.7315 84.0828 71.4911 84.0828C86.2507 84.0828 98.2184 65.4854 98.2184 42.5414C98.2184 19.5974 86.2507 1.00001 71.4911 1.00001C63.7639 1.00001 56.7976 6.10087 51.9152 14.2583" stroke="white" stroke-width="1.58736" stroke-linecap="round" stroke-linejoin="round"/>
<path id="Vector_3" d="M148.782 23.6596C150.648 29.3228 151.7 35.7468 151.7 42.5414C151.7 65.4854 139.726 84.0828 124.959 84.0828C110.193 84.0828 98.2188 65.4854 98.2188 42.5414C98.2188 19.5974 110.193 1.00001 124.959 1.00001C132.819 1.00001 139.891 6.26629 144.78 14.6553" stroke="white" stroke-width="1.58736" stroke-linecap="round" stroke-linejoin="round"/>
<path id="Vector_4" d="M33.2522 81.615C38.4058 83.2161 43.963 84.0828 49.7583 84.0828C76.5254 84.0828 98.2249 65.4854 98.2249 42.5414C98.2249 19.5974 76.5254 1 49.7583 1C22.9912 1 1.28516 19.604 1.28516 42.5414C1.28516 56.8781 9.75985 69.5211 22.6538 76.9839" stroke="white" stroke-width="1.58736" stroke-linecap="round" stroke-linejoin="round"/>
<path id="Vector_5" d="M77.0614 61.152C78.8939 74.7543 82.6781 84.0828 87.0511 84.0828C93.2169 84.0828 98.2184 65.4854 98.2184 42.5414C98.2184 19.5974 93.2169 1.00001 87.0511 1.00001C80.8852 1.00001 75.8838 19.5974 75.8838 42.5414C75.8838 45.9023 75.9896 49.1706 76.1947 52.3065" stroke="white" stroke-width="1.58736" stroke-linecap="round" stroke-linejoin="round"/>
<path id="Vector_6" d="M102.426 43.9444C98.8734 43.2498 98.4831 42.694 98.0134 37.6395C97.5238 42.694 97.1268 43.2498 93.5742 43.9312C97.1268 44.6259 97.5172 45.1816 97.9869 50.2362C98.4764 45.1816 98.8734 44.6259 102.426 43.9444Z" fill="white"/>
<path id="Vector_7" d="M27.4429 81.0332C28.276 81.0332 28.9513 80.3579 28.9513 79.5248C28.9513 78.6917 28.276 78.0163 27.4429 78.0163C26.6099 78.0163 25.9346 78.6917 25.9346 79.5248C25.9346 80.3579 26.6099 81.0332 27.4429 81.0332Z" fill="white"/>
<path id="Vector_8" d="M49.7525 19.954C50.5856 19.954 51.2609 19.2787 51.2609 18.4456C51.2609 17.6125 50.5856 16.9371 49.7525 16.9371C48.9195 16.9371 48.2441 17.6125 48.2441 18.4456C48.2441 19.2787 48.9195 19.954 49.7525 19.954Z" fill="white"/>
<path id="Vector_9" d="M75.8844 57.863C76.7174 57.863 77.3927 57.1877 77.3927 56.3546C77.3927 55.5215 76.7174 54.8462 75.8844 54.8462C75.0513 54.8462 74.376 55.5215 74.376 56.3546C74.376 57.1877 75.0513 57.863 75.8844 57.863Z" fill="white"/>
<path id="Vector_10" d="M147.069 19.954C147.902 19.954 148.577 19.2787 148.577 18.4456C148.577 17.6125 147.902 16.9371 147.069 16.9371C146.236 16.9371 145.561 17.6125 145.561 18.4456C145.561 19.2787 146.236 19.954 147.069 19.954Z" fill="white"/>
<path id="Vector_11" d="M181.206 48.5032C182.039 48.5032 182.714 47.8279 182.714 46.9948C182.714 46.1617 182.039 45.4863 181.206 45.4863C180.373 45.4863 179.697 46.1617 179.697 46.9948C179.697 47.8279 180.373 48.5032 181.206 48.5032Z" fill="white"/>
</g>
</svg>
