<svg width="1422" height="191" viewBox="0 0 1422 191" fill="none" xmlns="http://www.w3.org/2000/svg">
<path d="M141.674 7.77749V44.3008H139.089C131.577 23.3325 115.27 12.9699 90.3912 12.9699C54.1331 12.9699 37.2966 38.8654 37.2966 95.8487C37.2966 152.832 54.1331 178.728 90.3912 178.728C117.082 178.728 134.162 168.365 141.674 147.397H144.259L141.674 183.92C124.329 189.112 107.228 191.697 90.3912 191.697C63.4573 191.697 41.6935 183.412 24.857 167.084C8.28568 150.733 0 126.915 0 95.8266C0 64.7388 8.28568 40.9202 24.857 24.5919C41.6935 8.28568 63.4573 0 90.3912 0C107.228 0 124.329 2.58513 141.674 7.77749Z" fill="white" fill-opacity="0.3"/>
<path d="M214.697 178.976C233.61 178.976 242.934 164.725 242.934 126.147C242.934 87.5686 233.61 69.6936 214.697 69.6936C195.783 69.6936 186.481 83.945 186.481 122.523C186.481 161.101 195.806 178.976 214.697 178.976ZM276.851 124.313C276.851 166.515 256.125 191.659 214.697 191.659C173.268 191.659 152.278 166.802 152.278 124.313C152.278 81.8238 173.003 56.9668 214.697 56.9668C256.39 56.9668 276.851 82.089 276.851 124.313Z" fill="white" fill-opacity="0.3"/>
<path d="M330.72 83.3926L351.445 62.6673C358.692 58.7786 365.94 56.9668 373.452 56.9668C396.232 56.9668 409.71 69.4064 409.71 93.4901V167.045C409.71 170.403 409.975 172.745 410.218 174.292C410.992 177.385 414.88 182.313 423.939 186.466V189.052H365.918V186.466C377.319 178.954 377.319 175.839 377.319 167.045V100.229C377.319 88.828 371.375 83.1274 359.201 83.1274C349.103 83.1274 339.249 86.2429 330.19 92.7167V167.045C330.19 170.403 330.455 172.745 330.698 174.292C331.471 177.385 335.36 182.313 344.419 186.466V189.052H284.077V186.466C298.063 178.954 298.063 175.839 298.063 167.045V84.6741C298.063 79.4818 298.063 77.1618 296.252 72.7648C294.948 67.8376 290.551 64.4791 284.077 62.1371V59.5519H330.19V83.3926H330.698H330.72Z" fill="white" fill-opacity="0.3"/>
<path d="M469.788 137.791C452.178 129.77 429.906 119.673 429.906 93.7552C429.906 84.4311 433.795 75.8802 441.307 68.3679C448.82 60.8555 461.259 56.9668 478.339 56.9668C493.629 56.9668 507.085 58.7786 518.486 62.1371L509.162 85.9777L507.858 86.2429C496.214 76.1454 488.436 71.4833 477.3 71.4833C466.165 71.4833 460.221 77.1839 460.221 85.7347C460.221 95.324 469.81 102.306 481.72 106.968C498.821 113.972 521.601 124.313 521.358 152.55C521.358 167.575 509.449 191.659 470.34 191.659C456.089 191.659 443.407 189.847 432.005 186.489L428.382 161.632L429.42 161.123C444.71 171.751 457.901 177.187 469.302 177.187C483.023 177.187 491.574 170.713 491.574 159.577C491.574 150.253 481.985 143.248 469.81 137.813" fill="white" fill-opacity="0.3"/>
<path d="M618.198 165.25H617.69L596.965 185.975C589.717 189.864 582.47 191.676 575.466 191.676C552.686 191.676 538.943 179.236 538.943 155.152V84.713C538.943 79.5427 538.943 77.2007 537.131 72.8037C535.849 67.8765 531.43 64.518 524.957 62.176V59.5908H571.069V148.435C571.069 159.837 577.278 165.537 589.452 165.537C599.815 165.537 609.404 162.422 618.198 155.948V83.1663C618.198 80.3161 617.933 77.7309 617.69 75.9191C617.425 72.0304 612.763 65.5565 604.212 62.198V59.6129H650.567V167.106C650.567 170.464 650.833 172.806 651.076 174.353C651.849 177.468 655.738 182.396 664.797 186.527V189.113H619.48L618.176 165.294L618.198 165.25Z" fill="white" fill-opacity="0.3"/>
<path d="M712.722 2.58496V167.039C712.722 175.855 712.722 178.948 726.709 186.461V189.046H666.367V186.461C680.353 178.948 680.353 175.833 680.353 167.039V27.7071C680.353 22.5148 680.353 20.1948 678.541 15.7979C677.26 10.8706 672.841 7.51218 666.367 5.17009V2.58496H712.722Z" fill="white" fill-opacity="0.3"/>
<path d="M731.37 70.1997L744.848 59.572L768.158 30.8262H779.029V59.572H808.305V83.6557H779.029V152.283C779.029 161.099 783.691 165.496 793.28 165.496C798.716 165.496 803.908 164.458 808.813 162.381V186.995C800.77 190.11 791.977 191.657 782.387 191.657C769.174 191.657 759.585 189.072 753.642 183.879C747.676 178.687 744.582 169.893 744.582 157.21V83.6557H731.104L731.37 70.1776V70.1997Z" fill="white" fill-opacity="0.3"/>
<path d="M863.189 189.332H829.008V59.8327H863.189V189.332ZM827.196 24.5909C827.196 19.6637 829.008 15.5319 832.388 12.1513C835.747 8.79288 840.166 7.22412 845.601 7.22412C851.037 7.22412 855.699 8.77078 859.322 12.1513C862.946 15.5098 864.758 19.6637 864.758 24.5909C864.758 29.5181 862.946 33.3848 859.587 36.5002C856.229 39.5935 851.545 41.1623 845.866 41.1623C840.188 41.1623 836.034 39.6156 832.653 36.5002C829.295 33.3848 827.483 29.253 827.483 24.3258L827.218 24.5909H827.196Z" fill="white" fill-opacity="0.3"/>
<path d="M880.269 70.1997L893.747 59.572L917.057 30.8262H927.928V59.572H957.204V83.6557H927.928V152.283C927.928 161.099 932.59 165.496 942.18 165.496C947.615 165.496 952.807 164.458 957.712 162.381V186.995C949.692 190.11 940.876 191.657 931.287 191.657C918.074 191.657 908.484 189.072 902.541 183.879C896.575 178.687 893.482 169.893 893.482 157.21V83.6557H880.004L880.269 70.1776V70.1997Z" fill="white" fill-opacity="0.3"/>
<path d="M1050.18 170.684L1037.74 184.162C1028.93 189.089 1019.87 191.674 1010.54 191.674C999.674 191.674 990.858 188.316 983.876 181.842C976.871 175.368 973.513 166.044 973.513 153.869V59.5674H1007.69V147.108C1007.69 159.018 1013.13 164.983 1023.76 164.983C1030.76 164.983 1039.82 161.868 1050.69 155.394V59.5674H1084.87V189.067H1051.97L1050.67 170.684H1050.16H1050.18Z" fill="white" fill-opacity="0.3"/>
<path d="M1167.48 166.796C1174.99 166.796 1182.24 163.438 1189.49 156.699V85.729C1182.75 81.8403 1175.5 79.7854 1167.48 79.7854C1149.1 79.7854 1139.77 94.545 1139.77 124.329C1139.77 139.354 1142.12 150.225 1146.78 156.964C1151.44 163.703 1158.42 167.061 1167.5 167.061V166.796H1167.48ZM1223.69 189.333H1190.79L1189.49 171.988L1173.96 185.71C1167.22 189.863 1159.7 191.918 1151.42 191.918C1136.92 191.918 1125.52 185.71 1117.24 173.27C1108.95 160.83 1104.8 144.524 1104.8 124.329C1104.8 104.134 1109.72 86.7675 1119.56 74.8582C1129.41 62.9489 1142.36 56.9832 1158.4 56.9832C1169.54 56.9832 1179.9 59.8335 1189.47 65.534V12.9476L1214.32 2.58496H1223.65V189.333H1223.69Z" fill="white" fill-opacity="0.3"/>
<path d="M1327.04 113.702C1327.81 110.344 1328.08 106.963 1328.08 103.605C1328.08 95.0542 1326 89.1106 1321.87 85.73C1317.71 82.3716 1313.07 80.8028 1307.62 80.8028C1289.74 80.8028 1279.91 92.2039 1278.1 115.249L1327.06 113.68L1327.04 113.702ZM1360.95 105.417C1360.95 112.399 1359.65 121.215 1357.33 131.843H1277.81C1278.85 143.752 1282.74 152.568 1289.21 158.268C1295.68 163.969 1303.97 166.819 1313.82 166.819C1320.3 166.819 1327.28 165.781 1335.06 163.704C1342.83 161.627 1349.31 159.042 1354.24 156.191V181.579C1342.06 188.561 1326.26 191.941 1306.84 191.941C1286.38 191.941 1270.58 185.733 1259.45 173.558C1248.31 161.384 1242.61 145.078 1242.61 124.595C1242.61 104.113 1248.05 87.5639 1259.18 75.3895C1270.32 63.2151 1286.12 57.2715 1306.58 57.2715C1313.82 57.2715 1320.56 58.0448 1326.77 59.5915C1332.98 61.1381 1338.68 63.4802 1344.12 66.8387C1349.55 70.1971 1353.71 75.1244 1356.8 81.5982C1359.91 88.0721 1361.46 95.8496 1361.46 104.909L1360.95 105.417Z" fill="white" fill-opacity="0.3"/>
<path d="M1382.78 72.0782H1376.39V67.6592H1394.42V72.0782H1388.06V93.2896H1382.78V72.0782Z" fill="white" fill-opacity="0.3"/>
<path d="M1416.87 83.9406C1416.87 80.8031 1416.98 78.1075 1417.18 75.8096H1417.01L1411.79 88.6248H1407.99L1402.8 75.8096H1402.6C1402.8 78.1075 1402.91 80.8252 1402.91 83.9406V93.2427H1398.05V67.6123H1404.99L1408.61 76.7376C1409.21 78.2843 1409.67 79.7646 1410.05 81.1566H1410.2C1410.64 79.4553 1411.11 77.9749 1411.55 76.7818L1415.02 67.6565H1422V93.2869H1416.92V83.9406H1416.87Z" fill="white" fill-opacity="0.3"/>
<path d="M216.155 106.502L219.182 114.81C220.022 117.108 221.812 118.942 224.11 119.803L232.307 122.897C233.633 123.405 233.633 125.283 232.307 125.769L224.11 128.862C221.812 129.724 220.022 131.558 219.182 133.856L216.155 142.164C215.669 143.511 213.747 143.511 213.261 142.164L210.234 133.856C209.394 131.558 207.604 129.724 205.307 128.862L197.109 125.769C195.784 125.261 195.784 123.383 197.109 122.897L205.307 119.803C207.604 118.942 209.394 117.108 210.234 114.81L213.261 106.502C213.747 105.154 215.669 105.154 216.155 106.502Z" fill="white" fill-opacity="0.3"/>
</svg>
