<svg width="40" height="40" viewBox="0 0 40 40" fill="none" xmlns="http://www.w3.org/2000/svg">
<path opacity="0.6" d="M9.9987 26.668H21.6654V21.668H9.9987V26.668ZM24.9987 26.668H29.9987V13.3346H24.9987V26.668ZM9.9987 18.3346H21.6654V13.3346H9.9987V18.3346ZM6.66536 33.3346C5.7487 33.3346 4.96425 33.0085 4.31203 32.3563C3.65981 31.7041 3.33314 30.9191 3.33203 30.0013V10.0013C3.33203 9.08464 3.6587 8.30019 4.31203 7.64797C4.96536 6.99575 5.74981 6.66908 6.66536 6.66797H33.332C34.2487 6.66797 35.0337 6.99464 35.687 7.64797C36.3404 8.3013 36.6665 9.08575 36.6654 10.0013V30.0013C36.6654 30.918 36.3393 31.703 35.687 32.3563C35.0348 33.0096 34.2498 33.3357 33.332 33.3346H6.66536Z" fill="#17B26A"/>
</svg>
