<svg width="40" height="40" viewBox="0 0 40 40" fill="none" xmlns="http://www.w3.org/2000/svg">
<g clip-path="url(#clip0_5327_184944)">
<path d="M29.7578 0.565944L30.4538 2.70794C30.6698 3.35967 31.0354 3.9518 31.5213 4.43696C32.0071 4.92211 32.5998 5.28683 33.2518 5.50194L35.3938 6.19794L35.4358 6.20994C35.601 6.2681 35.7441 6.3761 35.8453 6.51904C35.9465 6.66197 36.0009 6.8328 36.0009 7.00794C36.0009 7.18309 35.9465 7.35392 35.8453 7.49685C35.7441 7.63979 35.601 7.74779 35.4358 7.80594L33.2938 8.50194C32.6418 8.71706 32.0491 9.08178 31.5633 9.56693C31.0774 10.0521 30.7118 10.6442 30.4958 11.2959L29.7998 13.4359C29.7416 13.6012 29.6336 13.7442 29.4907 13.8455C29.3478 13.9467 29.1769 14.001 29.0018 14.001C28.8267 14.001 28.6558 13.9467 28.5129 13.8455C28.37 13.7442 28.262 13.6012 28.2038 13.4359L27.5058 11.2959C27.2915 10.6428 26.9271 10.0489 26.4418 9.56194C25.9563 9.07406 25.363 8.70689 24.7098 8.48994L22.5678 7.79394C22.4026 7.73579 22.2595 7.62779 22.1583 7.48485C22.0571 7.34192 22.0027 7.17109 22.0027 6.99594C22.0027 6.8208 22.0571 6.64997 22.1583 6.50704C22.2595 6.3641 22.4026 6.2561 22.5678 6.19794L24.7098 5.50194C25.3537 5.28101 25.9376 4.91369 26.4154 4.42887C26.8933 3.94405 27.2522 3.35496 27.4638 2.70794L28.1598 0.567944C28.2175 0.402042 28.3255 0.258225 28.4687 0.156453C28.6118 0.0546803 28.7831 0 28.9588 0C29.1345 0 29.3058 0.0546803 29.4489 0.156453C29.5921 0.258225 29.7001 0.400042 29.7578 0.565944ZM39.5678 16.4299L38.0358 15.9339C37.5709 15.7785 37.1486 15.5171 36.8022 15.1703C36.4558 14.8236 36.1947 14.401 36.0398 13.9359L35.5398 12.4079C35.4984 12.2898 35.4213 12.1875 35.3192 12.115C35.2171 12.0426 35.095 12.0037 34.9698 12.0037C34.8446 12.0037 34.7225 12.0426 34.6204 12.115C34.5183 12.1875 34.4412 12.2898 34.3998 12.4079L33.9038 13.9359C33.7517 14.398 33.4949 14.8187 33.1536 15.1652C32.8122 15.5118 32.3955 15.7749 31.9358 15.9339L30.4058 16.4299C30.2886 16.4723 30.1872 16.5497 30.1156 16.6517C30.044 16.7537 30.0056 16.8753 30.0056 16.9999C30.0056 17.1246 30.044 17.2462 30.1156 17.3482C30.1872 17.4502 30.2886 17.5276 30.4058 17.5699L31.9358 18.0679C32.4021 18.2234 32.8256 18.4855 33.1728 18.8334C33.52 19.1813 33.7812 19.6054 33.9358 20.0719L34.4318 21.5999C34.4732 21.7181 34.5503 21.8204 34.6524 21.8928C34.7545 21.9653 34.8766 22.0042 35.0018 22.0042C35.127 22.0042 35.2491 21.9653 35.3512 21.8928C35.4533 21.8204 35.5304 21.7181 35.5718 21.5999L36.0698 20.0719C36.225 19.6067 36.4863 19.184 36.833 18.8372C37.1798 18.4904 37.6026 18.2291 38.0678 18.0739L39.5978 17.5779C39.715 17.5356 39.8164 17.4582 39.888 17.3562C39.9596 17.2542 39.998 17.1326 39.998 17.0079C39.998 16.8833 39.9596 16.7617 39.888 16.6597C39.8164 16.5577 39.715 16.4803 39.5978 16.4379L39.5678 16.4299ZM35.0058 24.0019C34.4737 24.0013 33.9539 23.8411 33.5138 23.5419C33.0738 23.2219 32.7538 22.7999 32.5538 22.2999L32.0338 20.6959C31.981 20.5271 31.8844 20.3753 31.7538 20.2559C31.6294 20.1315 31.4792 20.0359 31.3138 19.9759L29.7898 19.4759C29.2498 19.2759 28.8098 18.9539 28.4898 18.5139C28.1698 18.0739 28.0098 17.5519 28.0098 17.0099C28.0098 16.6299 28.0898 16.2499 28.2498 15.9099C27.9298 15.8299 27.6298 15.6899 27.3498 15.4899C26.8739 15.1411 26.5115 14.6597 26.3078 14.1059L25.5878 11.9219C25.4078 11.4619 25.2278 11.2019 25.0078 10.9819C24.7392 10.7226 24.4179 10.5241 24.0658 10.3999L21.9438 9.69994C21.598 9.58493 21.2781 9.40354 21.0018 9.16594V34.5059C21.7842 35.2 22.7359 35.6755 23.7608 35.8842C24.7856 36.093 25.8474 36.0278 26.839 35.6951C27.8306 35.3624 28.7169 34.774 29.4084 33.9893C30.1 33.2047 30.5723 32.2515 30.7778 31.2259L30.8518 30.8519C32.4165 30.5201 33.8039 29.6229 34.7485 28.3322C35.6931 27.0414 36.1287 25.4477 35.9718 23.8559C35.6599 23.9571 35.3336 24.0064 35.0058 24.0019ZM19.0018 4.92594C18.3443 4.44837 17.5772 4.14382 16.7711 4.04033C15.9651 3.93683 15.1459 4.03771 14.3891 4.33368C13.6322 4.62965 12.962 5.11121 12.4399 5.73405C11.9179 6.35689 11.5609 7.10101 11.4018 7.89794L11.1518 9.15194L10.3398 9.31394C9.11677 9.55927 8.01639 10.2204 7.2256 11.1851C6.43481 12.1498 6.00239 13.3586 6.0018 14.6059V15.0019C6.0018 16.4539 6.6218 17.7619 7.6118 18.6759C6.40258 19.2751 5.40999 20.2361 4.77193 21.4252C4.13387 22.6144 3.88201 23.9728 4.05135 25.3117C4.22069 26.6505 4.80281 27.9034 5.71685 28.8963C6.63089 29.8891 7.83147 30.5727 9.1518 30.8519L9.2258 31.2219C9.43098 32.2476 9.90312 33.2011 10.5946 33.986C11.286 34.7709 12.1723 35.3595 13.1639 35.6924C14.1555 36.0253 15.2174 36.0908 16.2424 35.8821C17.2674 35.6734 18.2192 35.198 19.0018 34.5039V4.92594Z" fill="#F79009"/>
</g>
<defs>
<clipPath id="clip0_5327_184944">
<rect width="40" height="40" fill="white"/>
</clipPath>
</defs>
</svg>
