<svg width="310" height="921" viewBox="0 0 310 921" fill="none" xmlns="http://www.w3.org/2000/svg">
<path d="M267.111 296.821L302.493 233.271" stroke="white" stroke-width="0.517341" stroke-miterlimit="10"/>
<path d="M182.529 448.806L259.757 310.042" stroke="white" stroke-width="0.517341" stroke-miterlimit="10"/>
<path d="M100.088 509.094L148.96 509.094L173.553 464.906" stroke="white" stroke-width="0.517341" stroke-miterlimit="10"/>
<path d="M11.4746 551.021L36.4261 509.097L73.4007 509.097" stroke="white" stroke-width="0.517341" stroke-miterlimit="10"/>
<path d="M71.6063 613.319L33.3827 613.319L10.4922 574.877" stroke="white" stroke-width="0.517341" stroke-miterlimit="10"/>
<path d="M259.087 613.318L93.9512 613.318" stroke="white" stroke-width="0.517341" stroke-miterlimit="10"/>
<path d="M269.674 625.47L302.495 684.445" stroke="white" stroke-width="0.517341" stroke-miterlimit="10"/>
<path d="M182.529 468.902L257.977 604.449" stroke="white" stroke-width="0.517341" stroke-miterlimit="10"/>
<path d="M98.166 408.614L148.959 408.614L172.583 451.038" stroke="white" stroke-width="0.517341" stroke-miterlimit="10"/>
<path d="M10.4922 365.037L36.4274 408.616L71.4502 408.616" stroke="white" stroke-width="0.517341" stroke-miterlimit="10"/>
<path d="M73.4007 304.376L33.3814 304.376L11.4746 341.194" stroke="white" stroke-width="0.517341" stroke-miterlimit="10"/>
<path d="M251.372 304.376L93.9023 304.376" stroke="white" stroke-width="0.517341" stroke-miterlimit="10"/>
<path d="M77.9288 619.895C55.7722 661.038 33.6156 702.182 11.4746 743.325" stroke="white" stroke-width="0.517341" stroke-miterlimit="10"/>
<path d="M93.9499 520.852C100.227 532.312 106.488 543.773 112.765 555.234C103.037 573.284 93.3253 591.35 83.5977 609.4" stroke="white" stroke-width="0.517341" stroke-miterlimit="10"/>
<path d="M80.6007 419.668C73.6367 432.394 66.6728 445.119 59.7088 457.845L59.4746 457.845C66.5166 470.711 73.543 483.577 80.5851 496.443" stroke="white" stroke-width="0.517341" stroke-miterlimit="10"/>
<path d="M87.0176 312.26C95.6679 328.327 104.334 344.41 112.984 360.477C105.63 373.921 98.2755 387.365 90.9211 400.809" stroke="white" stroke-width="0.517341" stroke-miterlimit="10"/>
<path d="M12.7715 174.389C33.7258 213.315 54.6801 252.226 75.6344 291.152" stroke="white" stroke-width="0.517341" stroke-miterlimit="10"/>
<path d="M133.032 209.772L17.6895 278.132" stroke="white" stroke-width="0.517341" stroke-miterlimit="10"/>
<path d="M155.797 360.745L155.797 224.292" stroke="white" stroke-width="0.517341" stroke-miterlimit="10"/>
<path d="M166.822 537.246L308.1 457.722L308.1 458.003L178.424 385.007" stroke="white" stroke-width="0.517341" stroke-miterlimit="10"/>
<path d="M7.13282 631.323L155.796 719.45L155.796 557.483" stroke="white" stroke-width="0.517341" stroke-miterlimit="10"/>
<path d="M303.244 526.41C281.15 624.795 211.073 705.037 118.887 741.278" stroke="white" stroke-width="0.517341" stroke-linecap="round" stroke-linejoin="round"/>
<path d="M308.831 424.905C296.277 332.078 240.862 252.867 163.15 207.851" stroke="white" stroke-width="0.517341" stroke-linecap="round" stroke-linejoin="round"/>
<path d="M71.4513 297.206C54.6816 290.46 36.6003 286.26 17.707 285.089" stroke="white" stroke-width="0.517341" stroke-linecap="round" stroke-linejoin="round"/>
<path d="M152.393 363.989C137.575 341.114 117.511 321.94 93.9023 308.184" stroke="white" stroke-width="0.517341" stroke-linecap="round" stroke-linejoin="round"/>
<path d="M179.936 449.528C178.78 425.841 172.878 403.404 163.15 383.152" stroke="white" stroke-width="0.517341" stroke-linecap="round" stroke-linejoin="round"/>
<path d="M92.2637 608.964C140.793 581.405 174.722 531.112 179.547 472.574" stroke="white" stroke-width="0.517341" stroke-linecap="round" stroke-linejoin="round"/>
<path d="M84.8161 616.41C84.8161 618.118 83.4319 619.502 81.7244 619.502C80.017 619.502 78.6328 618.118 78.6328 616.41C78.6328 614.703 80.017 613.318 81.7244 613.318C83.4319 613.318 84.8161 614.703 84.8161 616.41Z" fill="white"/>
<path d="M183.029 461.131C183.029 462.839 181.645 464.223 179.937 464.223C178.23 464.223 176.846 462.839 176.846 461.131C176.846 459.424 178.23 458.04 179.937 458.04C181.645 458.04 183.029 459.424 183.029 461.131Z" fill="white"/>
<path d="M164.884 375.109C164.884 376.817 163.5 378.201 161.793 378.201C160.085 378.201 158.701 376.817 158.701 375.109C158.701 373.402 160.085 372.018 161.793 372.018C163.5 372.018 164.884 373.402 164.884 375.109Z" fill="white"/>
<path d="M87.8903 303.286C87.8903 304.994 86.5061 306.378 84.7987 306.378C83.0912 306.378 81.707 304.994 81.707 303.286C81.707 301.579 83.0912 300.195 84.7987 300.195C86.5061 300.195 87.8903 301.579 87.8903 303.286Z" fill="white"/>
<path d="M10.2281 284.749C10.2281 286.457 8.84401 287.841 7.13656 287.841C5.4291 287.841 4.04492 286.457 4.04492 284.749C4.04492 283.042 5.4291 281.658 7.13656 281.658C8.84401 281.658 10.2281 283.042 10.2281 284.749Z" fill="white"/>
<path d="M6.88245 562.263C6.88245 563.97 5.49826 565.354 3.79081 565.354C2.08335 565.354 0.699219 563.97 0.699219 562.263C0.699219 560.555 2.08335 559.171 3.79081 559.171C5.49826 559.171 6.88244 560.555 6.88245 562.263Z" fill="white"/>
<path d="M90.109 509.089C90.109 510.796 88.7249 512.18 87.0174 512.18C85.31 512.18 83.9258 510.796 83.9258 509.089C83.9258 507.381 85.31 505.997 87.0174 505.997C88.7249 505.997 90.109 507.381 90.109 509.089Z" fill="white"/>
<path d="M6.88245 351.404C6.88245 353.112 5.49826 354.496 3.79081 354.496C2.08335 354.496 0.699219 353.112 0.699219 351.404C0.699219 349.697 2.08335 348.312 3.79081 348.312C5.49826 348.312 6.88244 349.697 6.88245 351.404Z" fill="white"/>
<path d="M87.8903 408.617C87.8903 410.324 86.5061 411.708 84.7987 411.708C83.0912 411.708 81.707 410.324 81.707 408.617C81.707 406.909 83.0912 405.525 84.7987 405.525C86.5061 405.525 87.8903 406.909 87.8903 408.617Z" fill="white"/>
<path d="M182.531 167.474C184.096 167.474 185.364 166.206 185.364 164.641C185.364 163.077 184.096 161.808 182.531 161.808C180.966 161.808 179.698 163.077 179.698 164.641C179.698 166.206 180.966 167.474 182.531 167.474Z" fill="#6B11CA" stroke="white" stroke-width="0.517341"/>
<path d="M185.623 164.641C185.623 166.349 184.238 167.733 182.531 167.733C180.824 167.733 179.439 166.349 179.439 164.641C179.439 162.934 180.824 161.55 182.531 161.55C184.238 161.55 185.623 162.934 185.623 164.641Z" fill="white"/>
<path d="M182.529 757.297C182.529 759.004 181.145 760.388 179.437 760.388C177.73 760.388 176.346 759.004 176.346 757.297C176.346 755.589 177.73 754.205 179.437 754.205C181.145 754.205 182.529 755.589 182.529 757.297Z" fill="white"/>
<path d="M-1.00195 747.709C3.37003 751.034 4.21323 751.034 8.58521 747.709C5.25938 752.081 5.25938 752.924 8.58521 757.296C4.21323 753.97 3.37003 753.97 -1.00195 757.296C2.32388 752.924 2.32388 752.081 -1.00195 747.709Z" fill="white"/>
<path d="M147.6 197.697C151.972 201.023 152.815 201.023 157.187 197.697C153.861 202.069 153.861 202.912 157.187 207.284C152.815 203.958 151.972 203.958 147.6 207.284C150.925 202.912 150.925 202.069 147.6 197.697Z" fill="white"/>
<path d="M203.469 177.87C234.557 190.189 267.799 198.199 302.494 201.182" stroke="white" stroke-width="0.517341" stroke-miterlimit="10"/>
<path d="M14.7383 1.05176C45.3578 65.601 95.0267 119.361 156.484 155.071" stroke="white" stroke-width="0.517341" stroke-miterlimit="10"/>
<path d="M203.469 743.184C234.557 730.864 267.799 722.854 302.494 719.872" stroke="white" stroke-width="0.517341" stroke-miterlimit="10"/>
<path d="M14.7383 920C45.3578 855.451 95.0267 801.691 156.484 765.981" stroke="white" stroke-width="0.517341" stroke-miterlimit="10"/>
</svg>
