<svg width="310" height="921" viewBox="0 0 310 921" fill="none" xmlns="http://www.w3.org/2000/svg">
<path d="M42.7207 296.77L7.33883 233.22" stroke="white" stroke-width="0.517341" stroke-miterlimit="10"/>
<path d="M127.303 448.754L50.0747 309.991" stroke="white" stroke-width="0.517341" stroke-miterlimit="10"/>
<path d="M209.744 509.042L160.872 509.042L136.279 464.854" stroke="white" stroke-width="0.517341" stroke-miterlimit="10"/>
<path d="M298.357 550.97L273.406 509.045L236.431 509.045" stroke="white" stroke-width="0.517341" stroke-miterlimit="10"/>
<path d="M238.226 613.267L276.449 613.267L299.34 574.825" stroke="white" stroke-width="0.517341" stroke-miterlimit="10"/>
<path d="M50.7447 613.267L215.881 613.267" stroke="white" stroke-width="0.517341" stroke-miterlimit="10"/>
<path d="M40.1582 625.418L7.33703 684.393" stroke="white" stroke-width="0.517341" stroke-miterlimit="10"/>
<path d="M127.303 468.85L51.8547 604.397" stroke="white" stroke-width="0.517341" stroke-miterlimit="10"/>
<path d="M211.666 408.562L160.873 408.562L137.249 450.986" stroke="white" stroke-width="0.517341" stroke-miterlimit="10"/>
<path d="M299.34 364.985L273.405 408.564L238.382 408.564" stroke="white" stroke-width="0.517341" stroke-miterlimit="10"/>
<path d="M236.431 304.324L276.451 304.324L298.357 341.143" stroke="white" stroke-width="0.517341" stroke-miterlimit="10"/>
<path d="M58.4601 304.324L215.93 304.324" stroke="white" stroke-width="0.517341" stroke-miterlimit="10"/>
<path d="M231.903 619.843C254.06 660.986 276.216 702.13 298.357 743.273" stroke="white" stroke-width="0.517341" stroke-miterlimit="10"/>
<path d="M215.882 520.8C209.605 532.261 203.344 543.721 197.067 555.182C206.795 573.232 216.507 591.298 226.234 609.348" stroke="white" stroke-width="0.517341" stroke-miterlimit="10"/>
<path d="M229.231 419.616C236.195 432.342 243.159 445.067 250.123 457.793L250.357 457.793C243.315 470.659 236.289 483.525 229.247 496.391" stroke="white" stroke-width="0.517341" stroke-miterlimit="10"/>
<path d="M222.814 312.208C214.164 328.276 205.498 344.358 196.848 360.425C204.202 373.869 211.557 387.313 218.911 400.757" stroke="white" stroke-width="0.517341" stroke-miterlimit="10"/>
<path d="M297.061 174.337C276.106 213.264 255.152 252.174 234.198 291.101" stroke="white" stroke-width="0.517341" stroke-miterlimit="10"/>
<path d="M176.8 209.721L292.143 278.08" stroke="white" stroke-width="0.517341" stroke-miterlimit="10"/>
<path d="M154.035 360.694L154.035 224.241" stroke="white" stroke-width="0.517341" stroke-miterlimit="10"/>
<path d="M143.01 537.194L1.73211 457.671L1.73211 457.952L131.408 384.955" stroke="white" stroke-width="0.517341" stroke-miterlimit="10"/>
<path d="M302.699 631.271L154.036 719.398L154.036 557.432" stroke="white" stroke-width="0.517341" stroke-miterlimit="10"/>
<path d="M6.58797 526.358C28.6821 624.744 98.7588 704.985 190.945 741.226" stroke="white" stroke-width="0.517341" stroke-linecap="round" stroke-linejoin="round"/>
<path d="M1.00073 424.853C13.5546 332.026 68.9696 252.815 146.682 207.799" stroke="white" stroke-width="0.517341" stroke-linecap="round" stroke-linejoin="round"/>
<path d="M238.381 297.154C255.15 290.408 273.232 286.208 292.125 285.037" stroke="white" stroke-width="0.517341" stroke-linecap="round" stroke-linejoin="round"/>
<path d="M157.439 363.937C172.257 341.062 192.321 321.888 215.93 308.132" stroke="white" stroke-width="0.517341" stroke-linecap="round" stroke-linejoin="round"/>
<path d="M129.896 449.476C131.052 425.789 136.954 403.352 146.682 383.1" stroke="white" stroke-width="0.517341" stroke-linecap="round" stroke-linejoin="round"/>
<path d="M217.568 608.912C169.039 581.353 135.11 531.06 130.285 472.522" stroke="white" stroke-width="0.517341" stroke-linecap="round" stroke-linejoin="round"/>
<path d="M225.016 616.358C225.016 618.066 226.4 619.45 228.108 619.45C229.815 619.45 231.199 618.066 231.199 616.358C231.199 614.651 229.815 613.267 228.108 613.267C226.4 613.267 225.016 614.651 225.016 616.358Z" fill="white"/>
<path d="M126.803 461.079C126.803 462.787 128.187 464.171 129.895 464.171C131.602 464.171 132.986 462.787 132.986 461.079C132.986 459.372 131.602 457.988 129.895 457.988C128.187 457.988 126.803 459.372 126.803 461.079Z" fill="white"/>
<path d="M144.948 375.057C144.948 376.765 146.332 378.149 148.039 378.149C149.747 378.149 151.131 376.765 151.131 375.057C151.131 373.35 149.747 371.966 148.039 371.966C146.332 371.966 144.948 373.35 144.948 375.057Z" fill="white"/>
<path d="M221.942 303.235C221.942 304.942 223.326 306.326 225.033 306.326C226.741 306.326 228.125 304.942 228.125 303.235C228.125 301.527 226.741 300.143 225.033 300.143C223.326 300.143 221.942 301.527 221.942 303.235Z" fill="white"/>
<path d="M299.604 284.698C299.604 286.405 300.988 287.789 302.695 287.789C304.403 287.789 305.787 286.405 305.787 284.698C305.787 282.99 304.403 281.606 302.695 281.606C300.988 281.606 299.604 282.99 299.604 284.698Z" fill="white"/>
<path d="M302.95 562.211C302.95 563.918 304.334 565.302 306.041 565.302C307.749 565.302 309.133 563.918 309.133 562.211C309.133 560.503 307.749 559.119 306.041 559.119C304.334 559.119 302.95 560.503 302.95 562.211Z" fill="white"/>
<path d="M219.723 509.037C219.723 510.744 221.107 512.129 222.815 512.129C224.522 512.129 225.906 510.744 225.906 509.037C225.906 507.329 224.522 505.945 222.815 505.945C221.107 505.945 219.723 507.329 219.723 509.037Z" fill="white"/>
<path d="M302.95 351.352C302.95 353.06 304.334 354.444 306.041 354.444C307.749 354.444 309.133 353.06 309.133 351.352C309.133 349.645 307.749 348.261 306.041 348.261C304.334 348.261 302.95 349.645 302.95 351.352Z" fill="white"/>
<path d="M221.942 408.565C221.942 410.272 223.326 411.656 225.033 411.656C226.741 411.656 228.125 410.272 228.125 408.565C228.125 406.857 226.741 405.473 225.033 405.473C223.326 405.473 221.942 406.857 221.942 408.565Z" fill="white"/>
<path d="M127.301 167.423C125.736 167.423 124.468 166.154 124.468 164.59C124.468 163.025 125.736 161.757 127.301 161.757C128.866 161.757 130.134 163.025 130.134 164.59C130.134 166.154 128.866 167.423 127.301 167.423Z" fill="#6B11CA" stroke="white" stroke-width="0.517341"/>
<path d="M124.209 164.59C124.209 166.297 125.594 167.681 127.301 167.681C129.008 167.681 130.393 166.297 130.393 164.59C130.393 162.882 129.008 161.498 127.301 161.498C125.594 161.498 124.209 162.882 124.209 164.59Z" fill="white"/>
<path d="M127.303 757.245C127.303 758.952 128.687 760.337 130.395 760.337C132.102 760.337 133.486 758.952 133.486 757.245C133.486 755.538 132.102 754.153 130.395 754.153C128.687 754.153 127.303 755.538 127.303 757.245Z" fill="white"/>
<path d="M310.834 747.657C306.462 750.983 305.619 750.983 301.247 747.657C304.573 752.029 304.573 752.872 301.247 757.244C305.619 753.918 306.462 753.918 310.834 757.244C307.508 752.872 307.508 752.029 310.834 747.657Z" fill="white"/>
<path d="M162.232 197.645C157.86 200.971 157.017 200.971 152.645 197.645C155.971 202.017 155.971 202.86 152.645 207.232C157.017 203.906 157.86 203.906 162.232 207.232C158.907 202.86 158.907 202.017 162.232 197.645Z" fill="white"/>
<path d="M106.363 177.818C75.2753 190.138 42.0326 198.148 7.33775 201.13" stroke="white" stroke-width="0.517341" stroke-miterlimit="10"/>
<path d="M295.094 1C264.474 65.5493 214.805 119.309 153.348 155.019" stroke="white" stroke-width="0.517341" stroke-miterlimit="10"/>
<path d="M106.363 743.132C75.2753 730.812 42.0326 722.802 7.33776 719.82" stroke="white" stroke-width="0.517341" stroke-miterlimit="10"/>
<path d="M295.094 919.948C264.474 855.399 214.805 801.639 153.348 765.929" stroke="white" stroke-width="0.517341" stroke-miterlimit="10"/>
</svg>
