<svg width="180" height="302" viewBox="0 0 180 302" fill="none" xmlns="http://www.w3.org/2000/svg">
<path d="M26.4841 245.169L4.78941 282.189" stroke="#C7A8E7" stroke-width="0.94" stroke-miterlimit="10"/>
<path d="M78.3491 156.629L31.0017 237.459" stroke="#C7A8E7" stroke-width="0.94" stroke-miterlimit="10"/>
<path d="M128.896 121.519L98.9276 121.519L83.8434 147.259" stroke="#C7A8E7" stroke-width="0.94" stroke-miterlimit="10"/>
<path d="M183.222 97.0995L167.928 121.52L145.254 121.52" stroke="#C7A8E7" stroke-width="0.94" stroke-miterlimit="10"/>
<path d="M146.358 60.8088L169.79 60.8088L183.822 83.1988" stroke="#C7A8E7" stroke-width="0.94" stroke-miterlimit="10"/>
<path d="M31.4119 60.8087L132.665 60.8087" stroke="#C7A8E7" stroke-width="0.94" stroke-miterlimit="10"/>
<path d="M24.9165 53.7296L4.79019 19.3796" stroke="#C7A8E7" stroke-width="0.94" stroke-miterlimit="10"/>
<path d="M78.3481 144.929L32.085 65.9787" stroke="#C7A8E7" stroke-width="0.94" stroke-miterlimit="10"/>
<path d="M130.074 180.05L98.9369 180.05L84.4527 155.34" stroke="#C7A8E7" stroke-width="0.94" stroke-miterlimit="10"/>
<path d="M183.833 205.429L167.927 180.049L146.454 180.049" stroke="#C7A8E7" stroke-width="0.94" stroke-miterlimit="10"/>
<path d="M145.253 240.759L169.79 240.759L183.221 219.309" stroke="#C7A8E7" stroke-width="0.94" stroke-miterlimit="10"/>
<path d="M36.1367 240.76L132.684 240.76" stroke="#C7A8E7" stroke-width="0.94" stroke-miterlimit="10"/>
<path d="M142.486 56.9792C156.075 33.0192 169.654 9.04925 183.233 -14.9207" stroke="#C7A8E7" stroke-width="0.94" stroke-miterlimit="10"/>
<path d="M132.653 114.669C128.8 107.989 124.969 101.319 121.116 94.639C127.085 84.129 133.032 73.599 139 63.089" stroke="#C7A8E7" stroke-width="0.94" stroke-miterlimit="10"/>
<path d="M140.843 173.609C145.117 166.199 149.38 158.789 153.654 151.369L153.801 151.369C149.485 143.879 145.17 136.379 140.854 128.889" stroke="#C7A8E7" stroke-width="0.94" stroke-miterlimit="10"/>
<path d="M136.906 236.171C131.601 226.811 126.285 217.441 120.991 208.081C125.496 200.251 130.012 192.421 134.517 184.591" stroke="#C7A8E7" stroke-width="0.94" stroke-miterlimit="10"/>
<path d="M182.433 316.479C169.58 293.809 156.738 271.139 143.886 248.469" stroke="#C7A8E7" stroke-width="0.94" stroke-miterlimit="10"/>
<path d="M108.695 295.868L179.411 256.048" stroke="#C7A8E7" stroke-width="0.94" stroke-miterlimit="10"/>
<path d="M94.7378 207.929L94.7378 287.409" stroke="#C7A8E7" stroke-width="0.94" stroke-miterlimit="10"/>
<path d="M87.981 105.12L1.35989 151.44L1.35989 151.28L80.8652 193.8" stroke="#C7A8E7" stroke-width="0.94" stroke-miterlimit="10"/>
<path d="M185.884 50.3181L94.7369 -1.01189L94.7369 93.3281" stroke="#C7A8E7" stroke-width="0.94" stroke-miterlimit="10"/>
<path d="M171.716 -25.4113C176.148 -25.7113 180.632 -25.8712 185.148 -25.8712C252.127 -25.8712 310.8 7.87874 343.358 58.4587" stroke="#C7A8E7" stroke-width="0.94" stroke-linecap="round" stroke-linejoin="round"/>
<path d="M4.33711 111.439C17.8845 54.1293 60.8529 7.38931 117.369 -13.7207" stroke="#C7A8E7" stroke-width="0.94" stroke-linecap="round" stroke-linejoin="round"/>
<path d="M0.905636 170.559C8.60037 224.629 42.5793 270.769 90.2319 296.989" stroke="#C7A8E7" stroke-width="0.94" stroke-linecap="round" stroke-linejoin="round"/>
<path d="M395.39 161.21C399.285 257.94 319.896 339.35 218.075 343.05C192.959 343.96 168.833 340.06 146.654 332.22" stroke="#C7A8E7" stroke-width="0.94" stroke-linecap="round" stroke-linejoin="round"/>
<path d="M146.454 244.939C156.739 248.869 167.823 251.319 179.402 251.999" stroke="#C7A8E7" stroke-width="0.94" stroke-linecap="round" stroke-linejoin="round"/>
<path d="M96.8209 206.039C105.905 219.359 118.21 230.529 132.684 238.549" stroke="#C7A8E7" stroke-width="0.94" stroke-linecap="round" stroke-linejoin="round"/>
<path d="M79.9384 156.22C80.6437 170.02 84.2647 183.09 90.2332 194.88" stroke="#C7A8E7" stroke-width="0.94" stroke-linecap="round" stroke-linejoin="round"/>
<path d="M133.696 63.349C103.938 79.399 83.1379 108.699 80.18 142.789" stroke="#C7A8E7" stroke-width="0.94" stroke-linecap="round" stroke-linejoin="round"/>
<path d="M228.169 58.4583C215.275 53.1783 201.043 50.2483 186.106 50.2483C171.169 50.2483 157.959 52.9683 145.433 57.9083" stroke="#C7A8E7" stroke-width="0.94" stroke-linecap="round" stroke-linejoin="round"/>
<path d="M138.254 59.009C138.254 58.019 139.106 57.2089 140.148 57.2089C141.191 57.2089 142.043 58.019 142.043 59.009C142.043 59.999 141.191 60.8089 140.148 60.8089C139.106 60.8089 138.254 59.999 138.254 59.009Z" fill="#C7A8E7"/>
<path d="M78.043 149.46C78.043 148.47 78.8957 147.66 79.9378 147.66C80.9799 147.66 81.8325 148.47 81.8325 149.46C81.8325 150.45 80.9799 151.26 79.9378 151.26C78.8957 151.26 78.043 150.45 78.043 149.46Z" fill="#C7A8E7"/>
<path d="M89.169 199.559C89.169 198.569 90.0216 197.759 91.0637 197.759C92.1058 197.759 92.9585 198.569 92.9585 199.559C92.9585 200.549 92.1058 201.359 91.0637 201.359C90.0216 201.359 89.169 200.549 89.169 199.559Z" fill="#C7A8E7"/>
<path d="M136.369 241.399C136.369 240.409 137.222 239.599 138.264 239.599C139.306 239.599 140.159 240.409 140.159 241.399C140.159 242.389 139.306 243.199 138.264 243.199C137.222 243.199 136.369 242.389 136.369 241.399Z" fill="#C7A8E7"/>
<path d="M135.011 121.518C135.011 120.528 135.863 119.718 136.906 119.718C137.948 119.718 138.8 120.528 138.8 121.518C138.8 122.508 137.948 123.318 136.906 123.318C135.863 123.318 135.011 122.508 135.011 121.518Z" fill="#C7A8E7"/>
<path d="M136.369 180.05C136.369 179.06 137.222 178.25 138.264 178.25C139.306 178.25 140.159 179.06 140.159 180.05C140.159 181.04 139.306 181.85 138.264 181.85C137.222 181.85 136.369 181.04 136.369 180.05Z" fill="#C7A8E7"/>
<path d="M99.759 302.899C97.0748 300.959 96.559 300.959 93.8853 302.899C95.9274 300.349 95.9274 299.859 93.8853 297.319C96.5695 299.259 97.0853 299.259 99.759 297.319C97.7169 299.869 97.7169 300.359 99.759 302.899Z" fill="#C7A8E7"/>
<path d="M65.5054 314.449C46.4422 307.269 26.0633 302.609 4.78959 300.869" stroke="#C7A8E7" stroke-width="0.94" stroke-miterlimit="10"/>
</svg>
