<svg width="20" height="20" viewBox="0 0 20 20" fill="none" xmlns="http://www.w3.org/2000/svg">
<path d="M10.8333 3.37786C14.5833 3.79203 17.5 6.9712 17.5 10.832V18.332H2.5V10.832C2.5 6.9712 5.41667 3.79203 9.16667 3.37786V0.832031H10.8333V3.37786ZM15.8333 16.6654V10.832C15.8333 9.28493 15.2188 7.8012 14.1248 6.70724C13.0308 5.61328 11.5471 4.9987 10 4.9987C8.4529 4.9987 6.96917 5.61328 5.87521 6.70724C4.78125 7.8012 4.16667 9.28493 4.16667 10.832V16.6654H15.8333ZM10 14.9987C8.89493 14.9987 7.83512 14.5597 7.05372 13.7783C6.27232 12.9969 5.83333 11.9371 5.83333 10.832C5.83333 9.72696 6.27232 8.66715 7.05372 7.88575C7.83512 7.10435 8.89493 6.66536 10 6.66536C11.1051 6.66536 12.1649 7.10435 12.9463 7.88575C13.7277 8.66715 14.1667 9.72696 14.1667 10.832C14.1667 11.9371 13.7277 12.9969 12.9463 13.7783C12.1649 14.5597 11.1051 14.9987 10 14.9987ZM10 13.332C10.663 13.332 11.2989 13.0686 11.7678 12.5998C12.2366 12.131 12.5 11.4951 12.5 10.832C12.5 10.169 12.2366 9.5331 11.7678 9.06426C11.2989 8.59542 10.663 8.33203 10 8.33203C9.33696 8.33203 8.70107 8.59542 8.23223 9.06426C7.76339 9.5331 7.5 10.169 7.5 10.832C7.5 11.4951 7.76339 12.131 8.23223 12.5998C8.70107 13.0686 9.33696 13.332 10 13.332ZM10 11.6654C9.77899 11.6654 9.56702 11.5776 9.41074 11.4213C9.25446 11.265 9.16667 11.053 9.16667 10.832C9.16667 10.611 9.25446 10.3991 9.41074 10.2428C9.56702 10.0865 9.77899 9.9987 10 9.9987C10.221 9.9987 10.433 10.0865 10.5893 10.2428C10.7455 10.3991 10.8333 10.611 10.8333 10.832C10.8333 11.053 10.7455 11.265 10.5893 11.4213C10.433 11.5776 10.221 11.6654 10 11.6654Z" fill="#0F1324" fill-opacity="0.6"/>
</svg>
