<svg width="41" height="40" viewBox="0 0 41 40" fill="none" xmlns="http://www.w3.org/2000/svg">
<path d="M3.75195 36.6667C3.75195 33.1304 5.15671 29.7391 7.6572 27.2386C10.1577 24.7381 13.5491 23.3333 17.0853 23.3333C20.6215 23.3333 24.0129 24.7381 26.5134 27.2386C29.0139 29.7391 30.4186 33.1304 30.4186 36.6667H3.75195ZM17.0853 21.6667C11.5603 21.6667 7.08529 17.1917 7.08529 11.6667C7.08529 6.14167 11.5603 1.66667 17.0853 1.66667C22.6103 1.66667 27.0853 6.14167 27.0853 11.6667C27.0853 17.1917 22.6103 21.6667 17.0853 21.6667ZM29.357 25.3883C31.9064 26.0436 34.1841 27.4864 35.8658 29.5114C37.5476 31.5364 38.5476 34.0403 38.7236 36.6667H33.752C33.752 32.3167 32.0853 28.3567 29.357 25.3883ZM25.9853 21.595C27.3819 20.3458 28.4989 18.8156 29.2629 17.1046C30.0269 15.3936 30.4207 13.5405 30.4186 11.6667C30.4222 9.38911 29.8396 7.14895 28.727 5.16167C30.6147 5.54098 32.3128 6.56229 33.5327 8.05199C34.7526 9.5417 35.419 11.4079 35.4186 13.3333C35.4191 14.5208 35.1657 15.6946 34.6755 16.7761C34.1852 17.8577 33.4695 18.8219 32.5762 19.6042C31.6829 20.3866 30.6327 20.9689 29.496 21.3123C28.3593 21.6556 27.1623 21.752 25.9853 21.595V21.595Z" fill="url(#paint0_linear_810_59431)"/>
<defs>
<linearGradient id="paint0_linear_810_59431" x1="3.75195" y1="19.1667" x2="38.7236" y2="19.1667" gradientUnits="userSpaceOnUse">
<stop stop-color="#54148C"/>
<stop offset="1" stop-color="#A46EDE"/>
</linearGradient>
</defs>
</svg>
