<svg width="20" height="20" viewBox="0 0 20 20" fill="none" xmlns="http://www.w3.org/2000/svg">
<path d="M10.0013 1.66797C14.6038 1.66797 18.3346 5.3988 18.3346 10.0013C18.3346 14.6038 14.6038 18.3346 10.0013 18.3346C5.3988 18.3346 1.66797 14.6038 1.66797 10.0013H3.33464C3.33464 13.683 6.31964 16.668 10.0013 16.668C13.683 16.668 16.668 13.683 16.668 10.0013C16.668 6.31964 13.683 3.33464 10.0013 3.33464C7.70964 3.33464 5.68797 4.49047 4.4888 6.2513H6.66797V7.91797H1.66797V2.91797H3.33464V5.0013C4.85464 2.9763 7.27547 1.66797 10.0013 1.66797ZM10.8346 5.83464V9.65547L13.5371 12.358L12.358 13.5371L9.16797 10.3455V5.83464H10.8346Z" fill="#0F1324" fill-opacity="0.6"/>
</svg>
