<svg width="41" height="40" viewBox="0 0 41 40" fill="none" xmlns="http://www.w3.org/2000/svg">
<path d="M19.251 30H14.1527C13.6577 27.8783 11.4243 26.1433 10.5077 25C8.93798 23.0388 7.95424 20.6741 7.66976 18.1783C7.38529 15.6825 7.81166 13.157 8.89975 10.8929C9.98784 8.62882 11.6934 6.71814 13.8199 5.38099C15.9465 4.04384 18.4075 3.33462 20.9195 3.33502C23.4315 3.33542 25.8922 4.04543 28.0183 5.38326C30.1445 6.72109 31.8494 8.63232 32.9368 10.8968C34.0241 13.1612 34.4497 15.6868 34.1644 18.1825C33.8791 20.6783 32.8946 23.0427 31.3243 25.0033C30.4077 26.145 28.1777 27.88 27.6827 30H22.5843V21.6667H19.251V30ZM27.5843 33.3333V35C27.5843 35.8841 27.2331 36.7319 26.608 37.357C25.9829 37.9822 25.135 38.3333 24.251 38.3333H17.5843C16.7003 38.3333 15.8524 37.9822 15.2273 37.357C14.6022 36.7319 14.251 35.8841 14.251 35V33.3333H27.5843Z" fill="url(#paint0_linear_810_59416)"/>
<defs>
<linearGradient id="paint0_linear_810_59416" x1="7.58398" y1="20.8342" x2="34.2507" y2="20.8342" gradientUnits="userSpaceOnUse">
<stop stop-color="#54148C"/>
<stop offset="1" stop-color="#A46EDE"/>
</linearGradient>
</defs>
</svg>
