<svg width="20" height="20" viewBox="0 0 20 20" fill="none" xmlns="http://www.w3.org/2000/svg">
<g clip-path="url(#clip0_5409_133853)">
<path d="M15.832 7.4987L16.8737 5.20703L19.1654 4.16536L16.8737 3.1237L15.832 0.832031L14.7904 3.1237L12.4987 4.16536L14.7904 5.20703L15.832 7.4987Z" fill="#0F1324" fill-opacity="0.6"/>
<path d="M15.832 12.4987L14.7904 14.7904L12.4987 15.832L14.7904 16.8737L15.832 19.1654L16.8737 16.8737L19.1654 15.832L16.8737 14.7904L15.832 12.4987Z" fill="#0F1324" fill-opacity="0.6"/>
<path d="M9.58203 7.91536L7.4987 3.33203L5.41536 7.91536L0.832031 9.9987L5.41536 12.082L7.4987 16.6654L9.58203 12.082L14.1654 9.9987L9.58203 7.91536ZM8.3237 10.8237L7.4987 12.6404L6.6737 10.8237L4.85703 9.9987L6.6737 9.1737L7.4987 7.35703L8.3237 9.1737L10.1404 9.9987L8.3237 10.8237Z" fill="#0F1324" fill-opacity="0.6"/>
</g>
<defs>
<clipPath id="clip0_5409_133853">
<rect width="20" height="20" fill="white"/>
</clipPath>
</defs>
</svg>
