<svg width="41" height="40" viewBox="0 0 41 40" fill="none" xmlns="http://www.w3.org/2000/svg">
<path d="M33.891 17.5L35.8944 18.7017C36.0179 18.7757 36.1202 18.8804 36.1913 19.0057C36.2623 19.1311 36.2996 19.2726 36.2996 19.4167C36.2996 19.5607 36.2623 19.7023 36.1913 19.8276C36.1202 19.9529 36.0179 20.0577 35.8944 20.1317L20.4194 29.4167L4.94435 20.1317C4.82076 20.0577 4.71846 19.9529 4.64743 19.8276C4.5764 19.7023 4.53906 19.5607 4.53906 19.4167C4.53906 19.2726 4.5764 19.1311 4.64743 19.0057C4.71846 18.8804 4.82076 18.7757 4.94435 18.7017L6.94769 17.5L20.4194 25.5833L33.891 17.5ZM33.891 25.3333L35.8944 26.535C36.0179 26.609 36.1202 26.7138 36.1913 26.8391C36.2623 26.9644 36.2996 27.106 36.2996 27.25C36.2996 27.3941 36.2623 27.5356 36.1913 27.661C36.1202 27.7863 36.0179 27.891 35.8944 27.965L21.2777 36.735C21.0185 36.8908 20.7218 36.973 20.4194 36.973C20.1169 36.973 19.8202 36.8908 19.561 36.735L4.94435 27.965C4.82076 27.891 4.71846 27.7863 4.64743 27.661C4.5764 27.5356 4.53906 27.3941 4.53906 27.25C4.53906 27.106 4.5764 26.9644 4.64743 26.8391C4.71846 26.7138 4.82076 26.609 4.94435 26.535L6.94769 25.3333L20.4194 33.4167L33.891 25.3333V25.3333ZM21.276 2.18168L35.8944 10.9517C36.0179 11.0257 36.1202 11.1304 36.1913 11.2557C36.2623 11.3811 36.2996 11.5226 36.2996 11.6667C36.2996 11.8107 36.2623 11.9523 36.1913 12.0776C36.1202 12.2029 36.0179 12.3077 35.8944 12.3817L20.4194 21.6667L4.94435 12.3817C4.82076 12.3077 4.71846 12.2029 4.64743 12.0776C4.5764 11.9523 4.53906 11.8107 4.53906 11.6667C4.53906 11.5226 4.5764 11.3811 4.64743 11.2557C4.71846 11.1304 4.82076 11.0257 4.94435 10.9517L19.561 2.18168C19.8202 2.02594 20.1169 1.94366 20.4194 1.94366C20.7218 1.94366 21.0185 2.02594 21.2777 2.18168H21.276Z" fill="url(#paint0_linear_810_59421)"/>
<defs>
<linearGradient id="paint0_linear_810_59421" x1="4.53906" y1="19.4583" x2="36.2996" y2="19.4583" gradientUnits="userSpaceOnUse">
<stop stop-color="#54148C"/>
<stop offset="1" stop-color="#A46EDE"/>
</linearGradient>
</defs>
</svg>
