<svg width="67" height="51" viewBox="0 0 67 51" fill="none" xmlns="http://www.w3.org/2000/svg">
<g clip-path="url(#clip0_684_44265)">
<path d="M66.9499 21.9762H42.4873V15.7148H66.9499V21.9762Z" fill="#E669A2"/>
<path d="M63.795 22.0298H42.5098V6.36963H63.795V22.0298Z" fill="#F3BE26"/>
<path d="M55.0655 22.0652H42.5742V0.146973H55.0655V22.0652Z" fill="#EE9C34"/>
<path d="M57.5044 22.0536H42.5557V2.58105H57.5044V22.0536Z" fill="#F3BC87"/>
<path d="M42.5723 2.58252V22.0493H55.0657V2.58252H42.5723Z" fill="#E3721C"/>
<path d="M30.2256 21.9209H42.7515V25.0519H30.2256V21.9209Z" fill="#AD1B02"/>
<path d="M42.5557 6.36426V22.0259H57.5151V6.36426H42.5557Z" fill="#E88D14"/>
<path d="M42.5723 6.36426V22.0259H55.0657V6.36426H42.5723Z" fill="#D85604"/>
<path d="M50.4199 21.9937H42.6084V12.5942H50.4199V21.9937Z" fill="#C14303"/>
<path d="M42.5098 15.7178V21.9726H63.8056V15.7178H42.5098Z" fill="#DB4E18"/>
<path d="M42.5557 15.7178V21.9726H57.5151V15.7178H42.5557Z" fill="#D1390D"/>
<path d="M42.5723 15.7178V21.9726H55.0657V15.7178H42.5723Z" fill="#C22303"/>
<path d="M42.6025 15.7178V21.9726H50.4252V15.7178H42.6025Z" fill="#AD1B02"/>
<path d="M45.6397 33.4957C43.5085 33.8746 42.3718 35.4849 42.3718 38.2792C42.3718 41.1209 43.8873 43.0154 46.1134 43.0154C47.2027 43.0154 48.1499 42.6365 50.139 41.6419V43.9627C47.7236 45.0993 46.3027 45.3835 44.4083 45.3835C42.2771 45.3835 40.7614 44.8625 39.5774 43.5838C38.3459 42.3523 37.6829 40.742 37.6829 38.8948C37.6829 34.8692 40.714 32.0748 45.1187 32.0748C48.0078 32.0748 50.0443 33.4484 50.0443 35.3902C50.0443 36.669 49.097 37.5689 47.7235 37.5689C47.0131 37.5689 46.4447 37.3321 45.6396 36.9058M34.9833 38.8949C36.9251 36.4795 37.6356 35.4849 37.6356 34.3008C37.6356 33.1167 36.6883 32.0747 35.3622 32.0747C34.6044 32.0747 33.8941 32.501 33.5625 32.8799V37.8529L30.3892 42.1154V32.4538H27.3581L22.3377 40.7421V32.4538H20.6326L16.0385 33.4958V34.6798L18.5486 34.9165V45.1941H21.7219L26.5528 37.2373V45.1941H30.1049M6.42413 43.5838H7.13453C9.69199 43.5838 11.1129 42.0208 11.1129 38.8948C11.1129 36.29 9.97627 34.8692 7.84486 34.8692C7.56072 34.8692 7.13446 34.9165 6.42406 35.0586V43.5837L6.42413 43.5838ZM6.42413 49.1724L8.50799 49.646V50.83H0.314454V49.646L2.20886 49.1724V34.8691H0.125V33.6851L5.09795 32.1695H6.42419V33.8746C8.74485 32.4537 9.55002 32.2169 10.7814 32.2169C13.5284 32.2169 15.6123 34.7745 15.6123 38.3267C15.6123 42.3998 12.8179 45.1941 8.55533 45.1941C8.08173 45.1941 7.27657 45.1468 6.42413 45.0994" fill="white"/>
</g>
<defs>
<clipPath id="clip0_684_44265">
<rect x="0.483398" y="0.279785" width="66.293" height="50.4404" fill="white"/>
</clipPath>
</defs>
</svg>
