<svg width="421" height="435" viewBox="0 0 421 435" fill="none" xmlns="http://www.w3.org/2000/svg">
<g clip-path="url(#clip0_594_25663)">
<rect x="104.359" y="0.47171" width="217.994" height="134.507" rx="4.63818" fill="#150C1D"/>
<rect x="104.359" y="0.47171" width="104.359" height="134.507" fill="#A862EA"/>
<path d="M221.46 73.2253V64.6818H218.273V63.2764H226.288V64.6818H223.116V73.2253H221.46ZM229.961 67.9795C229.961 67.4647 229.655 67.0751 228.681 67.0751C227.512 67.0751 227.081 67.4368 227.011 68.3552H225.592C225.662 66.9916 226.538 65.9201 228.681 65.9201C230.253 65.9201 231.422 66.5185 231.422 68.4108V71.7921C231.422 72.293 231.534 72.5574 232.104 72.5017V73.1974C231.77 73.3227 231.534 73.3505 231.255 73.3505C230.476 73.3505 230.114 73.0722 229.975 72.3765H229.947C229.502 73.0026 228.695 73.434 227.596 73.434C226.149 73.434 225.258 72.5991 225.258 71.4025C225.258 69.844 226.413 69.357 228.194 69.0092C229.293 68.8005 229.961 68.6613 229.961 67.9795ZM227.916 72.2791C229.126 72.2791 229.961 71.6808 229.961 70.5259V69.4544C229.725 69.6214 229.154 69.7884 228.472 69.9275C227.262 70.1919 226.733 70.5398 226.733 71.2633C226.733 71.9173 227.123 72.2791 227.916 72.2791ZM232.959 63.2764H234.42V68.9674L237.314 66.1149H239.109L236.409 68.7587L239.401 73.2253H237.648L235.408 69.7188L234.42 70.6511V73.2253H232.959V63.2764ZM242.762 72.2373C243.972 72.2373 244.459 71.486 244.584 71.0546H246.046C245.684 72.4043 244.626 73.434 242.803 73.434C240.591 73.434 239.241 71.9034 239.241 69.6771C239.241 67.3673 240.591 65.9201 242.734 65.9201C245.03 65.9201 246.157 67.5203 246.157 70.0528H240.702C240.702 71.2494 241.468 72.2373 242.762 72.2373ZM242.734 67.0751C241.551 67.0751 240.702 67.8682 240.702 68.9674H244.696C244.696 67.8682 243.917 67.0751 242.734 67.0751ZM251.458 67.9795C251.458 67.4647 251.152 67.0751 250.178 67.0751C249.009 67.0751 248.578 67.4368 248.508 68.3552H247.089C247.159 66.9916 248.035 65.9201 250.178 65.9201C251.75 65.9201 252.919 66.5185 252.919 68.4108V71.7921C252.919 72.293 253.03 72.5574 253.601 72.5017V73.1974C253.267 73.3227 253.03 73.3505 252.752 73.3505C251.973 73.3505 251.611 73.0722 251.472 72.3765H251.444C250.999 73.0026 250.192 73.434 249.093 73.434C247.646 73.434 246.755 72.5991 246.755 71.4025C246.755 69.844 247.91 69.357 249.691 69.0092C250.79 68.8005 251.458 68.6613 251.458 67.9795ZM249.413 72.2791C250.623 72.2791 251.458 71.6808 251.458 70.5259V69.4544C251.222 69.6214 250.651 69.7884 249.969 69.9275C248.759 70.1919 248.23 70.5398 248.23 71.2633C248.23 71.9173 248.62 72.2791 249.413 72.2791ZM253.652 66.1149H255.196L256.643 71.5138H256.671L258.118 66.1149H259.552L261.013 71.5138H261.04L262.474 66.1149H264.018L261.847 73.2253H260.372L258.842 67.7986H258.814L257.297 73.2253H255.836L253.652 66.1149ZM268.824 67.9795C268.824 67.4647 268.518 67.0751 267.544 67.0751C266.375 67.0751 265.944 67.4368 265.874 68.3552H264.455C264.525 66.9916 265.401 65.9201 267.544 65.9201C269.116 65.9201 270.285 66.5185 270.285 68.4108V71.7921C270.285 72.293 270.396 72.5574 270.967 72.5017V73.1974C270.633 73.3227 270.396 73.3505 270.118 73.3505C269.339 73.3505 268.977 73.0722 268.838 72.3765H268.81C268.365 73.0026 267.558 73.434 266.459 73.434C265.012 73.434 264.121 72.5991 264.121 71.4025C264.121 69.844 265.276 69.357 267.057 69.0092C268.156 68.8005 268.824 68.6613 268.824 67.9795ZM266.779 72.2791C267.989 72.2791 268.824 71.6808 268.824 70.5259V69.4544C268.588 69.6214 268.017 69.7884 267.335 69.9275C266.125 70.1919 265.596 70.5398 265.596 71.2633C265.596 71.9173 265.986 72.2791 266.779 72.2791ZM277.92 66.1149L275.082 73.6705C274.678 74.7698 274.219 75.6464 272.855 75.6464C272.438 75.6464 272.09 75.5768 271.812 75.5073V74.3941H271.937C272.549 74.4776 273.008 74.4358 273.329 74.0462C273.593 73.7262 273.788 73.1696 273.523 72.5017L270.949 66.1149H272.521L274.511 71.5555H274.539L276.362 66.1149H277.92ZM281.636 68.9257C282.944 69.2318 284.364 69.524 284.364 71.2216C284.364 72.5852 283.195 73.434 281.47 73.434C279.174 73.434 278.186 72.3626 278.116 70.8598H279.535C279.605 71.6251 279.939 72.2791 281.442 72.2791C282.457 72.2791 282.889 71.7782 282.889 71.3329C282.889 70.4424 282.04 70.3728 280.996 70.1223C279.869 69.858 278.339 69.6353 278.339 68.0212C278.339 66.8524 279.368 65.9201 281.149 65.9201C283.084 65.9201 284.002 66.9637 284.099 68.2021H282.68C282.583 67.6455 282.304 67.0751 281.163 67.0751C280.287 67.0751 279.814 67.409 279.814 67.9099C279.814 68.6335 280.607 68.6891 281.636 68.9257Z" fill="#F5F5F6"/>
</g>
<rect x="104.939" y="1.05148" width="216.835" height="133.348" rx="4.0584" stroke="#333741" stroke-width="1.15954"/>
<rect x="104.939" y="151.792" width="216.835" height="133.348" rx="4.0584" fill="#150C1D"/>
<rect x="104.939" y="151.792" width="216.835" height="133.348" rx="4.0584" stroke="#333741" stroke-width="1.15954"/>
<path d="M204.66 196.631H222.053C222.309 196.631 222.555 196.733 222.736 196.914C222.917 197.095 223.019 197.341 223.019 197.598V213.058C223.019 213.314 222.917 213.56 222.736 213.741C222.555 213.923 222.309 214.024 222.053 214.024H204.66C204.403 214.024 204.158 213.923 203.976 213.741C203.795 213.56 203.693 213.314 203.693 213.058V197.598C203.693 197.341 203.795 197.095 203.976 196.914C204.158 196.733 204.403 196.631 204.66 196.631ZM208.525 206.294V210.159H210.457V206.294H208.525ZM212.39 200.496V210.159H214.323V200.496H212.39ZM216.255 203.395V210.159H218.188V203.395H216.255Z" fill="#CECFD2"/>
<path d="M194.494 237.848H190.431L189.624 240.2H187.94L191.599 230.251H193.339L196.984 240.2H195.301L194.494 237.848ZM190.89 236.471H194.048L192.49 231.767H192.462L190.89 236.471ZM201.605 232.895C202.927 232.895 203.971 233.66 203.971 235.288V240.2H202.496V235.705C202.496 234.745 202.092 234.133 201.09 234.133C199.963 234.133 199.24 234.815 199.24 235.872V240.2H197.779V233.089H199.24V234.008H199.268C199.643 233.451 200.381 232.895 201.605 232.895ZM209.606 234.954C209.606 234.439 209.3 234.049 208.326 234.049C207.157 234.049 206.726 234.411 206.656 235.33H205.237C205.307 233.966 206.183 232.895 208.326 232.895C209.898 232.895 211.067 233.493 211.067 235.385V238.766C211.067 239.267 211.179 239.532 211.749 239.476V240.172C211.415 240.297 211.179 240.325 210.9 240.325C210.121 240.325 209.759 240.047 209.62 239.351H209.592C209.147 239.977 208.34 240.408 207.241 240.408C205.794 240.408 204.903 239.573 204.903 238.377C204.903 236.818 206.058 236.331 207.839 235.984C208.938 235.775 209.606 235.636 209.606 234.954ZM207.561 239.253C208.771 239.253 209.606 238.655 209.606 237.5V236.429C209.37 236.596 208.799 236.763 208.117 236.902C206.907 237.166 206.378 237.514 206.378 238.238C206.378 238.892 206.768 239.253 207.561 239.253ZM212.631 230.251H214.106V240.2H212.631V230.251ZM221.801 233.089L218.962 240.645C218.559 241.744 218.099 242.621 216.736 242.621C216.318 242.621 215.97 242.551 215.692 242.482V241.368H215.817C216.43 241.452 216.889 241.41 217.209 241.021C217.473 240.701 217.668 240.144 217.404 239.476L214.829 233.089H216.402L218.392 238.53H218.419L220.242 233.089H221.801ZM225.517 235.9C226.825 236.206 228.244 236.498 228.244 238.196C228.244 239.56 227.075 240.408 225.35 240.408C223.054 240.408 222.066 239.337 221.996 237.834H223.416C223.485 238.599 223.819 239.253 225.322 239.253C226.338 239.253 226.769 238.753 226.769 238.307C226.769 237.417 225.92 237.347 224.877 237.097C223.75 236.832 222.219 236.61 222.219 234.996C222.219 233.827 223.249 232.895 225.03 232.895C226.964 232.895 227.882 233.938 227.98 235.176H226.56C226.463 234.62 226.185 234.049 225.044 234.049C224.167 234.049 223.694 234.383 223.694 234.884C223.694 235.608 224.487 235.664 225.517 235.9ZM230.043 231.893C229.64 231.893 229.222 231.614 229.222 231.113C229.222 230.613 229.64 230.348 230.043 230.348C230.475 230.348 230.878 230.613 230.878 231.113C230.878 231.614 230.475 231.893 230.043 231.893ZM229.32 233.089H230.781V240.2H229.32V233.089ZM235.341 235.9C236.649 236.206 238.068 236.498 238.068 238.196C238.068 239.56 236.9 240.408 235.174 240.408C232.878 240.408 231.89 239.337 231.821 237.834H233.24C233.31 238.599 233.644 239.253 235.146 239.253C236.162 239.253 236.594 238.753 236.594 238.307C236.594 237.417 235.745 237.347 234.701 237.097C233.574 236.832 232.043 236.61 232.043 234.996C232.043 233.827 233.073 232.895 234.854 232.895C236.788 232.895 237.707 233.938 237.804 235.176H236.385C236.287 234.62 236.009 234.049 234.868 234.049C233.991 234.049 233.518 234.383 233.518 234.884C233.518 235.608 234.312 235.664 235.341 235.9Z" fill="#F5F5F6"/>
<rect x="104.939" y="300.214" width="216.835" height="133.348" rx="4.0584" fill="#150C1D"/>
<rect x="104.939" y="300.214" width="216.835" height="133.348" rx="4.0584" stroke="#333741" stroke-width="1.15954"/>
<g clip-path="url(#clip1_594_25663)">
<path d="M212.39 344.135V354.716H222.971C222.487 359.598 218.366 363.412 213.356 363.412C208.019 363.412 203.693 359.086 203.693 353.749C203.693 348.739 207.507 344.619 212.39 344.135ZM214.323 342.679C219.688 343.14 223.965 347.417 224.427 352.783H214.323V342.679Z" fill="#CECFD2"/>
</g>
<path d="M194.494 386.27H190.431L189.624 388.621H187.94L191.599 378.672H193.339L196.984 388.621H195.301L194.494 386.27ZM190.89 384.892H194.048L192.49 380.189H192.462L190.89 384.892ZM201.605 381.316C202.927 381.316 203.971 382.081 203.971 383.709V388.621H202.496V384.127C202.496 383.167 202.092 382.555 201.09 382.555C199.963 382.555 199.24 383.236 199.24 384.294V388.621H197.779V381.511H199.24V382.429H199.268C199.643 381.873 200.381 381.316 201.605 381.316ZM209.606 383.375C209.606 382.861 209.3 382.471 208.326 382.471C207.157 382.471 206.726 382.833 206.656 383.751H205.237C205.307 382.388 206.183 381.316 208.326 381.316C209.898 381.316 211.067 381.914 211.067 383.807V387.188C211.067 387.689 211.179 387.953 211.749 387.898V388.593C211.415 388.719 211.179 388.747 210.9 388.747C210.121 388.747 209.759 388.468 209.62 387.772H209.592C209.147 388.399 208.34 388.83 207.241 388.83C205.794 388.83 204.903 387.995 204.903 386.798C204.903 385.24 206.058 384.753 207.839 384.405C208.938 384.196 209.606 384.057 209.606 383.375ZM207.561 387.675C208.771 387.675 209.606 387.077 209.606 385.922V384.85C209.37 385.017 208.799 385.184 208.117 385.324C206.907 385.588 206.378 385.936 206.378 386.659C206.378 387.313 206.768 387.675 207.561 387.675ZM212.631 378.672H214.106V388.621H212.631V378.672ZM221.801 381.511L218.962 389.067C218.559 390.166 218.099 391.042 216.736 391.042C216.318 391.042 215.97 390.973 215.692 390.903V389.79H215.817C216.43 389.874 216.889 389.832 217.209 389.442C217.473 389.122 217.668 388.566 217.404 387.898L214.829 381.511H216.402L218.392 386.952H218.419L220.242 381.511H221.801ZM225.517 384.322C226.825 384.628 228.244 384.92 228.244 386.618C228.244 387.981 227.075 388.83 225.35 388.83C223.054 388.83 222.066 387.759 221.996 386.256H223.416C223.485 387.021 223.819 387.675 225.322 387.675C226.338 387.675 226.769 387.174 226.769 386.729C226.769 385.838 225.92 385.769 224.877 385.518C223.75 385.254 222.219 385.031 222.219 383.417C222.219 382.248 223.249 381.316 225.03 381.316C226.964 381.316 227.882 382.36 227.98 383.598H226.56C226.463 383.042 226.185 382.471 225.044 382.471C224.167 382.471 223.694 382.805 223.694 383.306C223.694 384.029 224.487 384.085 225.517 384.322ZM230.043 380.314C229.64 380.314 229.222 380.036 229.222 379.535C229.222 379.034 229.64 378.77 230.043 378.77C230.475 378.77 230.878 379.034 230.878 379.535C230.878 380.036 230.475 380.314 230.043 380.314ZM229.32 381.511H230.781V388.621H229.32V381.511ZM235.341 384.322C236.649 384.628 238.068 384.92 238.068 386.618C238.068 387.981 236.9 388.83 235.174 388.83C232.878 388.83 231.89 387.759 231.821 386.256H233.24C233.31 387.021 233.644 387.675 235.146 387.675C236.162 387.675 236.594 387.174 236.594 386.729C236.594 385.838 235.745 385.769 234.701 385.518C233.574 385.254 232.043 385.031 232.043 383.417C232.043 382.248 233.073 381.316 234.854 381.316C236.788 381.316 237.707 382.36 237.804 383.598H236.385C236.287 383.042 236.009 382.471 234.868 382.471C233.991 382.471 233.518 382.805 233.518 383.306C233.518 384.029 234.312 384.085 235.341 384.322Z" fill="#F5F5F6"/>
<g clip-path="url(#clip2_594_25663)">
<rect x="125.23" y="82.7993" width="217.994" height="134.507" rx="4.63818" fill="#150C1D"/>
<path d="M146.097 147.053V138.509H142.91V137.104H150.925V138.509H147.752V147.053H146.097ZM153.526 147.262C151.3 147.262 149.95 145.717 149.95 143.505C149.95 141.292 151.3 139.748 153.526 139.748C155.752 139.748 157.102 141.292 157.102 143.505C157.102 145.717 155.752 147.262 153.526 147.262ZM153.526 146.065C154.917 146.065 155.641 144.966 155.641 143.505C155.641 142.03 154.917 140.944 153.526 140.944C152.134 140.944 151.411 142.03 151.411 143.505C151.411 144.966 152.134 146.065 153.526 146.065ZM161.799 139.748C163.608 139.748 164.958 141.167 164.958 143.505C164.958 145.842 163.608 147.262 161.799 147.262C160.686 147.262 159.99 146.733 159.615 146.204H159.587V149.474H158.112V139.943H159.587V140.777H159.615C159.99 140.277 160.686 139.748 161.799 139.748ZM161.521 146.065C162.801 146.065 163.483 144.896 163.483 143.505C163.483 142.113 162.801 140.944 161.521 140.944C160.338 140.944 159.601 141.918 159.601 143.505C159.601 145.077 160.338 146.065 161.521 146.065ZM171.016 137.104H172.477V147.053H171.016V146.232H170.988C170.612 146.719 169.916 147.262 168.817 147.262C166.994 147.262 165.645 145.842 165.645 143.505C165.645 141.167 166.994 139.748 168.817 139.748C169.916 139.748 170.612 140.263 170.988 140.805H171.016V137.104ZM169.067 146.065C170.264 146.065 171.002 145.077 171.002 143.505C171.002 141.918 170.264 140.944 169.067 140.944C167.787 140.944 167.106 142.113 167.106 143.505C167.106 144.896 167.787 146.065 169.067 146.065ZM177.075 147.262C174.848 147.262 173.499 145.717 173.499 143.505C173.499 141.292 174.848 139.748 177.075 139.748C179.301 139.748 180.651 141.292 180.651 143.505C180.651 145.717 179.301 147.262 177.075 147.262ZM177.075 146.065C178.466 146.065 179.19 144.966 179.19 143.505C179.19 142.03 178.466 140.944 177.075 140.944C175.683 140.944 174.96 142.03 174.96 143.505C174.96 144.966 175.683 146.065 177.075 146.065ZM180.816 139.943H182.36L183.808 145.341H183.835L185.282 139.943H186.716L188.177 145.341H188.205L189.638 139.943H191.182L189.012 147.053H187.537L186.006 141.626H185.978L184.462 147.053H183L180.816 139.943ZM195.746 139.748C197.068 139.748 198.112 140.513 198.112 142.141V147.053H196.637V142.559C196.637 141.598 196.233 140.986 195.231 140.986C194.104 140.986 193.381 141.668 193.381 142.725V147.053H191.92V139.943H193.381V140.861H193.409C193.784 140.304 194.522 139.748 195.746 139.748ZM151.175 156.748C152.609 156.748 153.346 157.61 153.346 159.141V164.053H151.871V159.559C151.871 158.598 151.676 157.986 150.674 157.986C149.687 157.986 149.074 158.668 149.074 159.725V164.053H147.599V159.559C147.599 158.598 147.405 157.986 146.389 157.986C145.415 157.986 144.789 158.668 144.789 159.725V164.053H143.328V156.943H144.789V157.861H144.816C145.192 157.304 145.86 156.748 146.931 156.748C147.933 156.748 148.532 157.207 148.824 157.972H148.852C149.38 157.29 150.076 156.748 151.175 156.748ZM157.846 163.065C159.056 163.065 159.543 162.314 159.669 161.882H161.13C160.768 163.232 159.71 164.262 157.887 164.262C155.675 164.262 154.325 162.731 154.325 160.505C154.325 158.195 155.675 156.748 157.818 156.748C160.114 156.748 161.241 158.348 161.241 160.88H155.786C155.786 162.077 156.552 163.065 157.846 163.065ZM157.818 157.903C156.635 157.903 155.786 158.696 155.786 159.795H159.78C159.78 158.696 159.001 157.903 157.818 157.903ZM165.318 159.753C166.626 160.059 168.045 160.352 168.045 162.049C168.045 163.413 166.876 164.262 165.151 164.262C162.855 164.262 161.867 163.19 161.797 161.687H163.217C163.286 162.453 163.62 163.107 165.123 163.107C166.139 163.107 166.57 162.606 166.57 162.161C166.57 161.27 165.721 161.2 164.678 160.95C163.551 160.686 162.02 160.463 162.02 158.849C162.02 157.68 163.05 156.748 164.831 156.748C166.765 156.748 167.683 157.791 167.781 159.03H166.361C166.264 158.473 165.986 157.903 164.845 157.903C163.968 157.903 163.495 158.237 163.495 158.738C163.495 159.461 164.288 159.517 165.318 159.753ZM172.126 159.753C173.433 160.059 174.853 160.352 174.853 162.049C174.853 163.413 173.684 164.262 171.959 164.262C169.663 164.262 168.675 163.19 168.605 161.687H170.024C170.094 162.453 170.428 163.107 171.931 163.107C172.946 163.107 173.378 162.606 173.378 162.161C173.378 161.27 172.529 161.2 171.485 160.95C170.358 160.686 168.828 160.463 168.828 158.849C168.828 157.68 169.857 156.748 171.639 156.748C173.573 156.748 174.491 157.791 174.588 159.03H173.169C173.072 158.473 172.793 157.903 171.652 157.903C170.776 157.903 170.303 158.237 170.303 158.738C170.303 159.461 171.096 159.517 172.126 159.753ZM180.199 158.807C180.199 158.292 179.892 157.903 178.918 157.903C177.75 157.903 177.318 158.264 177.249 159.183H175.829C175.899 157.819 176.776 156.748 178.918 156.748C180.491 156.748 181.66 157.346 181.66 159.238V162.62C181.66 163.121 181.771 163.385 182.341 163.329V164.025C182.007 164.15 181.771 164.178 181.493 164.178C180.713 164.178 180.352 163.9 180.212 163.204H180.185C179.739 163.83 178.932 164.262 177.833 164.262C176.386 164.262 175.495 163.427 175.495 162.23C175.495 160.672 176.65 160.185 178.431 159.837C179.531 159.628 180.199 159.489 180.199 158.807ZM178.153 163.107C179.364 163.107 180.199 162.508 180.199 161.353V160.282C179.962 160.449 179.392 160.616 178.71 160.755C177.499 161.02 176.97 161.367 176.97 162.091C176.97 162.745 177.36 163.107 178.153 163.107ZM188.122 156.943H189.583V163.566C189.583 165.611 188.344 166.516 186.327 166.516C184.281 166.516 183.154 165.444 183.001 164.248H184.476C184.615 164.874 185.116 165.347 186.271 165.347C187.496 165.347 188.122 164.79 188.122 163.51V162.648H188.094C187.718 163.176 187.064 163.705 185.937 163.705C184.156 163.705 182.82 162.467 182.82 160.226C182.82 157.972 184.156 156.748 185.937 156.748C187.064 156.748 187.718 157.277 188.094 157.777H188.122V156.943ZM186.215 162.508C187.398 162.508 188.108 161.729 188.108 160.226C188.108 158.724 187.398 157.944 186.215 157.944C184.935 157.944 184.281 158.905 184.281 160.226C184.281 161.534 184.935 162.508 186.215 162.508ZM194.113 163.065C195.324 163.065 195.811 162.314 195.936 161.882H197.397C197.035 163.232 195.978 164.262 194.155 164.262C191.943 164.262 190.593 162.731 190.593 160.505C190.593 158.195 191.943 156.748 194.085 156.748C196.381 156.748 197.508 158.348 197.508 160.88H192.054C192.054 162.077 192.819 163.065 194.113 163.065ZM194.085 157.903C192.903 157.903 192.054 158.696 192.054 159.795H196.047C196.047 158.696 195.268 157.903 194.085 157.903Z" fill="#F5F5F6"/>
<rect x="231.908" y="82.7991" width="111.316" height="134.507" fill="#A862EA"/>
</g>
<rect x="125.81" y="83.3791" width="216.835" height="133.348" rx="4.0584" stroke="#A862EA" stroke-width="1.15954"/>
<g filter="url(#filter0_d_594_25663)">
<path d="M317.43 220.786L313.799 202.28L330.47 211.414L322.258 213.797L317.43 220.786Z" fill="#F5F5F6"/>
<path d="M317.43 220.786L313.799 202.28L330.47 211.414L322.258 213.797L317.43 220.786Z" stroke="#150C1D" stroke-width="1.15954"/>
</g>
<g filter="url(#filter1_d_594_25663)">
<path d="M328.151 223.104C328.151 221.824 329.19 220.785 330.47 220.785H380.619C393.474 220.785 403.895 231.206 403.895 244.062C403.895 256.917 393.474 267.338 380.619 267.338H355.98C340.611 267.338 328.151 254.879 328.151 239.509V223.104Z" fill="#A862EA" shape-rendering="crispEdges"/>
<path d="M329.311 223.104C329.311 222.464 329.83 221.945 330.47 221.945H380.619C392.833 221.945 402.735 231.847 402.735 244.062C402.735 256.276 392.833 266.178 380.619 266.178H355.98C341.251 266.178 329.311 254.238 329.311 239.509V223.104Z" stroke="#A862EA" stroke-width="2.31909" shape-rendering="crispEdges"/>
<path d="M355.546 241.113C355.475 240.49 355.185 240.007 354.676 239.664C354.166 239.317 353.525 239.144 352.752 239.144C352.199 239.144 351.72 239.231 351.316 239.407C350.912 239.578 350.598 239.816 350.374 240.119C350.154 240.417 350.044 240.758 350.044 241.14C350.044 241.46 350.119 241.737 350.268 241.97C350.422 242.203 350.622 242.398 350.868 242.556C351.118 242.71 351.386 242.84 351.672 242.945C351.957 243.046 352.232 243.13 352.495 243.195L353.813 243.538C354.243 243.643 354.685 243.786 355.137 243.966C355.59 244.146 356.009 244.383 356.396 244.678C356.782 244.972 357.094 245.337 357.331 245.771C357.573 246.206 357.693 246.727 357.693 247.333C357.693 248.097 357.496 248.776 357.1 249.369C356.71 249.962 356.141 250.429 355.394 250.772C354.652 251.115 353.754 251.286 352.699 251.286C351.689 251.286 350.815 251.126 350.077 250.805C349.339 250.484 348.762 250.03 348.345 249.441C347.927 248.848 347.697 248.145 347.653 247.333H349.695C349.735 247.82 349.893 248.227 350.17 248.552C350.451 248.872 350.809 249.112 351.243 249.27C351.683 249.424 352.164 249.5 352.686 249.5C353.262 249.5 353.773 249.41 354.221 249.23C354.674 249.046 355.03 248.791 355.289 248.466C355.548 248.137 355.677 247.752 355.677 247.313C355.677 246.913 355.563 246.586 355.335 246.331C355.111 246.077 354.806 245.866 354.419 245.699C354.037 245.532 353.604 245.385 353.121 245.258L351.527 244.823C350.446 244.528 349.59 244.096 348.957 243.525C348.329 242.954 348.015 242.198 348.015 241.258C348.015 240.481 348.226 239.802 348.648 239.223C349.069 238.643 349.64 238.193 350.361 237.872C351.081 237.547 351.894 237.385 352.798 237.385C353.712 237.385 354.518 237.545 355.216 237.865C355.919 238.186 356.472 238.628 356.876 239.19C357.281 239.748 357.491 240.389 357.509 241.113H355.546ZM361.213 254.857C360.919 254.857 360.651 254.833 360.409 254.784C360.168 254.74 359.988 254.692 359.869 254.639L360.344 253.025C360.704 253.122 361.024 253.164 361.305 253.15C361.587 253.137 361.835 253.032 362.05 252.834C362.27 252.636 362.463 252.314 362.63 251.866L362.873 251.194L359.171 240.942H361.279L363.842 248.795H363.947L366.51 240.942H368.625L364.455 252.412C364.261 252.94 364.015 253.385 363.717 253.75C363.418 254.119 363.062 254.396 362.649 254.58C362.237 254.764 361.758 254.857 361.213 254.857ZM373.92 251.26C373.103 251.26 372.374 251.051 371.733 250.634C371.096 250.212 370.596 249.612 370.231 248.835C369.871 248.053 369.691 247.115 369.691 246.022C369.691 244.928 369.873 243.993 370.238 243.215C370.607 242.438 371.112 241.843 371.753 241.43C372.394 241.017 373.121 240.81 373.934 240.81C374.562 240.81 375.067 240.916 375.449 241.127C375.835 241.333 376.134 241.575 376.345 241.851C376.56 242.128 376.727 242.372 376.846 242.583H376.964V237.569H378.934V251.062H377.01V249.487H376.846C376.727 249.702 376.556 249.948 376.332 250.225C376.112 250.502 375.809 250.743 375.423 250.95C375.036 251.156 374.535 251.26 373.92 251.26ZM374.355 249.579C374.922 249.579 375.401 249.43 375.792 249.131C376.187 248.828 376.485 248.409 376.688 247.873C376.894 247.337 376.997 246.714 376.997 246.002C376.997 245.299 376.896 244.684 376.694 244.157C376.492 243.63 376.196 243.22 375.805 242.925C375.414 242.631 374.931 242.484 374.355 242.484C373.762 242.484 373.268 242.638 372.873 242.945C372.478 243.253 372.179 243.672 371.977 244.203C371.779 244.735 371.68 245.334 371.68 246.002C371.68 246.678 371.781 247.287 371.983 247.827C372.186 248.367 372.484 248.795 372.879 249.112C373.279 249.424 373.771 249.579 374.355 249.579Z" fill="#150C1D"/>
</g>
<rect x="56.8174" y="12.0672" width="10.4359" height="416.276" rx="5.21795" fill="#281F2F"/>
<rect x="59.1367" y="192.956" width="5.79772" height="54.4986" rx="2.89886" fill="#9241DC"/>
<path d="M86.2563 44.2813H87.5503V53.8962H85.9363V46.925C85.3658 47.4816 84.7257 47.4816 83.9187 47.4816V46.3267C85.658 46.3267 86.1589 45.464 86.2563 44.2813Z" fill="#F5F5F6"/>
<path d="M85.6719 220.462H84.1135C84.1135 218.389 85.2266 216.845 87.6895 216.845C89.4706 216.845 90.8759 217.902 90.8759 219.739C90.8759 222.8 86.7711 223.315 85.978 225.277V225.305H90.7785V226.668H83.8769C83.8769 224.971 84.8927 223.732 86.3676 222.8C88.1348 221.631 89.2618 221.172 89.2618 219.808C89.2618 219.015 88.8861 218.222 87.6477 218.222C86.2146 218.222 85.6719 219.141 85.6719 220.462Z" fill="#F5F5F6"/>
<path d="M85.5467 369.543H83.9743C83.9743 367.748 85.1988 366.426 87.606 366.426C89.3036 366.426 90.8063 367.386 90.8063 369.083C90.8063 370.113 90.2776 370.753 89.3592 371.143V371.171C90.6672 371.546 91.1264 372.409 91.1264 373.55C91.1264 375.442 89.721 376.458 87.6338 376.458C85.1014 376.458 83.7239 375.164 83.7239 372.952H85.2823C85.2823 374.246 85.8806 375.081 87.5225 375.081C88.9696 375.081 89.5262 374.524 89.5262 373.508C89.5262 372.186 88.5661 371.894 87.5782 371.894H86.7155V370.614H87.5225C88.5244 370.614 89.1923 370.197 89.1923 369.209C89.1923 368.416 88.6913 367.803 87.5503 367.803C86.0337 367.803 85.5467 368.596 85.5467 369.543Z" fill="#F5F5F6"/>
<defs>
<filter id="filter0_d_594_25663" x="310.671" y="200.019" width="23.6216" height="25.711" filterUnits="userSpaceOnUse" color-interpolation-filters="sRGB">
<feFlood flood-opacity="0" result="BackgroundImageFix"/>
<feColorMatrix in="SourceAlpha" type="matrix" values="0 0 0 0 0 0 0 0 0 0 0 0 0 0 0 0 0 0 127 0" result="hardAlpha"/>
<feOffset dy="1.15954"/>
<feGaussianBlur stdDeviation="1.15954"/>
<feComposite in2="hardAlpha" operator="out"/>
<feColorMatrix type="matrix" values="0 0 0 0 0 0 0 0 0 0 0 0 0 0 0 0 0 0 0.25 0"/>
<feBlend mode="normal" in2="BackgroundImageFix" result="effect1_dropShadow_594_25663"/>
<feBlend mode="normal" in="SourceGraphic" in2="effect1_dropShadow_594_25663" result="shape"/>
</filter>
<filter id="filter1_d_594_25663" x="321.194" y="213.828" width="98.934" height="69.7436" filterUnits="userSpaceOnUse" color-interpolation-filters="sRGB">
<feFlood flood-opacity="0" result="BackgroundImageFix"/>
<feColorMatrix in="SourceAlpha" type="matrix" values="0 0 0 0 0 0 0 0 0 0 0 0 0 0 0 0 0 0 127 0" result="hardAlpha"/>
<feOffset dx="4.63818" dy="4.63818"/>
<feGaussianBlur stdDeviation="5.79772"/>
<feComposite in2="hardAlpha" operator="out"/>
<feColorMatrix type="matrix" values="0 0 0 0 0.593726 0 0 0 0 0.180392 0 0 0 0 0.980392 0 0 0 0.16 0"/>
<feBlend mode="normal" in2="BackgroundImageFix" result="effect1_dropShadow_594_25663"/>
<feBlend mode="normal" in="SourceGraphic" in2="effect1_dropShadow_594_25663" result="shape"/>
</filter>
<clipPath id="clip0_594_25663">
<rect x="104.359" y="0.47171" width="217.994" height="134.507" rx="4.63818" fill="white"/>
</clipPath>
<clipPath id="clip1_594_25663">
<rect width="23.1909" height="23.1909" fill="white" transform="translate(201.761 342.154)"/>
</clipPath>
<clipPath id="clip2_594_25663">
<rect x="125.23" y="82.7993" width="217.994" height="134.507" rx="4.63818" fill="white"/>
</clipPath>
</defs>
</svg>
