<svg width="178" height="24" viewBox="0 0 178 24" fill="none" xmlns="http://www.w3.org/2000/svg">
<g clip-path="url(#clip0_1916_145999)">
<path d="M17.7147 0.972488V5.53931H17.3915C16.4522 2.91746 14.4133 1.62173 11.3024 1.62173C6.76873 1.62173 4.66352 4.85967 4.66352 11.9848C4.66352 19.1099 6.76873 22.3479 11.3024 22.3479C14.6398 22.3479 16.7754 21.0521 17.7147 18.4303H18.038L17.7147 22.9971C15.546 23.6464 13.4076 23.9696 11.3024 23.9696C7.93461 23.9696 5.21331 22.9336 3.10809 20.8919C1.03603 18.8475 0 15.8692 0 11.982C0 8.09485 1.03603 5.11661 3.10809 3.07494C5.21331 1.03603 7.93461 0 11.3024 0C13.4076 0 15.546 0.323242 17.7147 0.972488Z" fill="#9241DC"/>
<path d="M26.8458 22.3785C29.2107 22.3785 30.3766 20.5965 30.3766 15.7727C30.3766 10.949 29.2107 8.7139 26.8458 8.7139C24.4809 8.7139 23.3178 10.4959 23.3178 15.3196C23.3178 20.1434 24.4836 22.3785 26.8458 22.3785ZM34.6174 15.5434C34.6174 20.8203 32.0259 23.9643 26.8458 23.9643C21.6656 23.9643 19.041 20.8562 19.041 15.5434C19.041 10.2307 21.6325 7.12256 26.8458 7.12256C32.0591 7.12256 34.6174 10.2638 34.6174 15.5434Z" fill="#9241DC"/>
<path d="M41.3536 10.4268L43.9451 7.83535C44.8513 7.3491 45.7575 7.12256 46.6968 7.12256C49.5452 7.12256 51.2305 8.67799 51.2305 11.6894V20.8866C51.2305 21.3065 51.2636 21.5994 51.294 21.7928C51.3907 22.1795 51.877 22.7956 53.0097 23.315V23.6383H45.7547V23.315C47.1803 22.3757 47.1803 21.9861 47.1803 20.8866V12.532C47.1803 11.1064 46.4371 10.3937 44.9148 10.3937C43.6523 10.3937 42.4201 10.7832 41.2873 11.5927V20.8866C41.2873 21.3065 41.3205 21.5994 41.3509 21.7928C41.4476 22.1795 41.9338 22.7956 43.0666 23.315V23.6383H35.5215V23.315C37.2703 22.3757 37.2703 21.9861 37.2703 20.8866V10.587C37.2703 9.9378 37.2703 9.64771 37.0438 9.09792C36.8808 8.48183 36.331 8.06189 35.5215 7.76904V7.4458H41.2873V10.4268H41.3509H41.3536Z" fill="#9241DC"/>
<path d="M58.7418 17.2287C56.5399 16.2258 53.7551 14.9632 53.7551 11.7225C53.7551 10.5567 54.2413 9.48747 55.1807 8.54814C56.12 7.6088 57.6754 7.12256 59.811 7.12256C61.7229 7.12256 63.4054 7.3491 64.8309 7.76904L63.6651 10.75L63.5021 10.7832C62.0461 9.52062 61.0736 8.93768 59.6812 8.93768C58.2888 8.93768 57.5456 9.65047 57.5456 10.7197C57.5456 11.9187 58.7446 12.7917 60.2337 13.3747C62.3721 14.2505 65.2205 15.5434 65.1901 19.0742C65.1901 20.9529 63.701 23.9643 58.8109 23.9643C57.0289 23.9643 55.4431 23.7377 54.0175 23.3178L53.5645 20.2097L53.6943 20.1462C55.6061 21.475 57.2555 22.1547 58.6811 22.1547C60.3967 22.1547 61.4659 21.3452 61.4659 19.9528C61.4659 18.7869 60.2669 17.9111 58.7446 17.2315" fill="#9241DC"/>
<path d="M77.2994 20.6626H77.2359L74.6444 23.2541C73.7382 23.7403 72.8321 23.9669 71.9563 23.9669C69.1079 23.9669 67.3894 22.4115 67.3894 19.4001V10.5924C67.3894 9.94593 67.3894 9.65308 67.1629 9.1033C67.0027 8.4872 66.4501 8.06726 65.6406 7.77441V7.45117H71.4065V18.5602C71.4065 19.9858 72.1828 20.6986 73.7051 20.6986C75.0008 20.6986 76.1999 20.309 77.2994 19.4995V10.399C77.2994 10.0426 77.2663 9.71939 77.2359 9.49284C77.2027 9.0066 76.6198 8.19711 75.5506 7.77718V7.45393H81.3469V20.8947C81.3469 21.3146 81.38 21.6075 81.4104 21.8009C81.5071 22.1904 81.9933 22.8065 83.1261 23.3232V23.6464H77.4597L77.2967 20.6682L77.2994 20.6626Z" fill="#9241DC"/>
<path d="M89.1185 0.323242V20.8864C89.1185 21.9887 89.1185 22.3755 90.8673 23.3148V23.6381H83.3223V23.3148C85.0711 22.3755 85.0711 21.986 85.0711 20.8864V3.46449C85.0711 2.81524 85.0711 2.52515 84.8445 1.97537C84.6843 1.35927 84.1318 0.939335 83.3223 0.646484V0.323242H89.1185Z" fill="#9241DC"/>
<path d="M91.4492 8.77722L93.1344 7.44834L96.0491 3.854H97.4084V7.44834H101.069V10.4597H97.4084V19.0408C97.4084 20.1432 97.9914 20.693 99.1904 20.693C99.87 20.693 100.519 20.5631 101.133 20.3034V23.3811C100.127 23.7707 99.0274 23.9641 97.8284 23.9641C96.1762 23.9641 94.9772 23.6408 94.234 22.9916C93.4881 22.3423 93.1013 21.2427 93.1013 19.6569V10.4597H91.416L91.4492 8.77446V8.77722Z" fill="#9241DC"/>
<path d="M107.932 23.6739H103.658V7.48143H107.932V23.6739ZM103.432 3.07484C103.432 2.45875 103.658 1.94211 104.081 1.51941C104.501 1.09948 105.053 0.90332 105.733 0.90332C106.413 0.90332 106.996 1.09671 107.449 1.51941C107.902 1.93935 108.128 2.45875 108.128 3.07484C108.128 3.69093 107.902 4.17442 107.482 4.56396C107.062 4.95075 106.476 5.1469 105.766 5.1469C105.056 5.1469 104.537 4.95351 104.114 4.56396C103.694 4.17442 103.468 3.65778 103.468 3.04169L103.434 3.07484H103.432Z" fill="#9241DC"/>
<path d="M110.068 8.77722L111.754 7.44834L114.668 3.854H116.028V7.44834H119.688V10.4597H116.028V19.0408C116.028 20.1432 116.611 20.693 117.81 20.693C118.489 20.693 119.138 20.5631 119.752 20.3034V23.3811C118.749 23.7707 117.647 23.9641 116.447 23.9641C114.795 23.9641 113.596 23.6408 112.853 22.9916C112.107 22.3423 111.72 21.2427 111.72 19.6569V10.4597H110.035L110.068 8.77446V8.77722Z" fill="#9241DC"/>
<path d="M131.313 21.3421L129.758 23.0274C128.656 23.6435 127.523 23.9667 126.357 23.9667C124.998 23.9667 123.895 23.5468 123.022 22.7373C122.147 21.9278 121.727 20.7619 121.727 19.2397V7.44824H126.001V18.3943C126.001 19.8834 126.68 20.6293 128.009 20.6293C128.885 20.6293 130.018 20.2398 131.377 19.4303V7.44824H135.651V23.6407H131.537L131.374 21.3421H131.311H131.313Z" fill="#9241DC"/>
<path d="M145.981 20.856C146.92 20.856 147.826 20.4361 148.732 19.5934V10.7195C147.89 10.2332 146.983 9.97629 145.981 9.97629C143.682 9.97629 142.516 11.8218 142.516 15.546C142.516 17.4247 142.809 18.7839 143.392 19.6266C143.975 20.4692 144.848 20.8891 145.983 20.8891V20.856H145.981ZM153.009 23.674H148.895L148.732 21.5052L146.79 23.2209C145.947 23.7403 145.008 23.9972 143.972 23.9972C142.16 23.9972 140.734 23.2209 139.698 21.6655C138.662 20.11 138.143 18.0711 138.143 15.546C138.143 13.0208 138.759 10.8493 139.988 9.36019C141.22 7.87107 142.839 7.12513 144.845 7.12513C146.237 7.12513 147.533 7.48152 148.729 8.19431V1.61897L151.838 0.323242H153.003V23.674H153.009Z" fill="#9241DC"/>
<path d="M165.931 14.2172C166.028 13.7973 166.061 13.3746 166.061 12.9546C166.061 11.8854 165.802 11.1423 165.285 10.7196C164.766 10.2996 164.185 10.1035 163.503 10.1035C161.268 10.1035 160.039 11.529 159.812 14.4106L165.934 14.2144L165.931 14.2172ZM170.172 13.1812C170.172 14.0542 170.009 15.1565 169.719 16.4854H159.776C159.906 17.9745 160.392 19.0769 161.202 19.7897C162.011 20.5024 163.047 20.8588 164.279 20.8588C165.089 20.8588 165.962 20.729 166.934 20.4693C167.907 20.2096 168.716 19.8864 169.332 19.53V22.7044C167.81 23.5774 165.835 24.0001 163.406 24.0001C160.848 24.0001 158.873 23.2238 157.48 21.7015C156.088 20.1792 155.375 18.1403 155.375 15.5792C155.375 13.0182 156.055 10.9489 157.447 9.42659C158.839 7.90431 160.815 7.16113 163.373 7.16113C164.279 7.16113 165.122 7.25783 165.898 7.45122C166.675 7.64461 167.387 7.93747 168.067 8.3574C168.747 8.77734 169.266 9.39343 169.653 10.2029C170.042 11.0124 170.236 11.9849 170.236 13.1176L170.172 13.1812Z" fill="#9241DC"/>
<path d="M172.9 9.01202H172.102V8.45947H174.356V9.01202H173.56V11.6643H172.9V9.01202Z" fill="#9241DC"/>
<path d="M177.164 10.4958C177.164 10.1035 177.178 9.76641 177.203 9.47908H177.181L176.529 11.0815H176.054L175.405 9.47908H175.38C175.405 9.76641 175.418 10.1062 175.418 10.4958V11.6589H174.811V8.4541H175.678L176.131 9.59512C176.206 9.78851 176.264 9.97361 176.311 10.1477H176.33C176.385 9.93493 176.443 9.74983 176.499 9.60064L176.932 8.45963H177.805V11.6644H177.17V10.4958H177.164Z" fill="#9241DC"/>
<path d="M27.0273 13.3163L27.4058 14.3551C27.5108 14.6425 27.7346 14.8718 28.0219 14.9795L29.0469 15.3663C29.2126 15.4298 29.2126 15.6647 29.0469 15.7255L28.0219 16.1122C27.7346 16.22 27.5108 16.4493 27.4058 16.7366L27.0273 17.7754C26.9665 17.9439 26.7262 17.9439 26.6654 17.7754L26.2869 16.7366C26.1819 16.4493 25.9581 16.22 25.6708 16.1122L24.6458 15.7255C24.48 15.6619 24.48 15.4271 24.6458 15.3663L25.6708 14.9795C25.9581 14.8718 26.1819 14.6425 26.2869 14.3551L26.6654 13.3163C26.7262 13.1478 26.9665 13.1478 27.0273 13.3163Z" fill="#9241DC"/>
</g>
<defs>
<clipPath id="clip0_1916_145999">
<rect width="177.805" height="24" fill="white"/>
</clipPath>
</defs>
</svg>
