<svg width="178" height="24" viewBox="0 0 178 24" fill="none" xmlns="http://www.w3.org/2000/svg">
<g clip-path="url(#clip0_684_25126)">
<path d="M17.7162 0.971063V5.53764H17.3925C16.4534 2.91471 14.4125 1.61844 11.3032 1.61844C6.76857 1.61844 4.66384 4.85835 4.66384 11.9825C4.66384 19.1067 6.76857 22.3466 11.3032 22.3466C14.6404 22.3466 16.7771 21.0519 17.7162 18.4274H18.0399L17.7162 22.994C15.5461 23.6414 13.408 23.9666 11.3032 23.9666C7.93567 23.9666 5.21396 22.9302 3.10923 20.8893C1.03641 18.8499 0 15.8698 0 11.9825C0 8.09523 1.03641 5.1167 3.10923 3.07579C5.21396 1.03641 7.93567 0 11.3032 0C13.408 0 15.5461 0.323688 17.7162 0.971063Z" fill="white"/>
<path d="M26.8489 22.3798C29.2135 22.3798 30.3791 20.5988 30.3791 15.7724C30.3791 10.9459 29.2135 8.71201 26.8489 8.71201C24.4843 8.71201 23.3188 10.4931 23.3188 15.3195C23.3188 20.1459 24.4843 22.3798 26.8489 22.3798ZM34.622 15.5459C34.622 20.8252 32.031 23.9664 26.8489 23.9664C21.6669 23.9664 19.0439 20.8571 19.0439 15.5459C19.0439 10.2347 21.635 7.12549 26.8489 7.12549C32.0629 7.12549 34.622 10.2666 34.622 15.5459Z" fill="white"/>
<path d="M41.3576 10.4292L43.9487 7.83821C44.8559 7.35192 45.7631 7.12549 46.7023 7.12549C49.5516 7.12549 51.2369 8.6801 51.2369 11.6921V20.8906C51.2369 21.3115 51.2689 21.6033 51.3023 21.7978C51.3995 22.1853 51.8858 22.8023 53.0195 23.3205V23.6442H45.7646V23.3205C47.1901 22.3814 47.1901 21.9923 47.1901 20.8906V12.534C47.1901 11.1085 46.4455 10.3958 44.9228 10.3958C43.6599 10.3958 42.429 10.7848 41.2953 11.5948V20.8906C41.2953 21.3115 41.3272 21.6033 41.3607 21.7978C41.4579 22.1853 41.9427 22.8023 43.0779 23.3205V23.6442H35.5312V23.3205C37.2804 22.3814 37.2804 21.9923 37.2804 20.8906V10.5903C37.2804 9.94294 37.2804 9.65116 37.054 9.09953C36.8913 8.48406 36.3412 8.06312 35.5312 7.77134V7.44766H41.2968V10.4277H41.3622L41.3576 10.4292Z" fill="white"/>
<path d="M58.7503 17.2298C56.5483 16.2253 53.7628 14.9624 53.7628 11.724C53.7628 10.5585 54.2491 9.48861 55.1882 8.54946C56.1274 7.61031 57.682 7.12402 59.8201 7.12402C61.7319 7.12402 63.4157 7.35045 64.8411 7.7714L63.6755 10.7515L63.5129 10.7834C62.0556 9.52053 61.0845 8.93698 59.691 8.93698C58.2974 8.93698 57.5543 9.6497 57.5543 10.718C57.5543 11.9155 58.7518 12.7908 60.2426 13.3729C62.3808 14.2482 65.2317 15.5429 65.1982 19.0731C65.1982 20.9514 63.7074 23.9634 58.8172 23.9634C57.0361 23.9634 55.4481 23.7369 54.0241 23.316L53.5713 20.2068L53.7005 20.1414C55.6122 21.4696 57.2625 22.1489 58.688 22.1489C60.4052 22.1489 61.4735 21.3389 61.4735 19.9469C61.4735 18.7798 60.2745 17.906 58.7518 17.2252" fill="white"/>
<path d="M77.3084 20.6641H77.243L74.652 23.2552C73.7448 23.7414 72.8375 23.9679 71.9637 23.9679C69.1143 23.9679 67.3971 22.4133 67.3971 19.4013V10.5918C67.3971 9.94445 67.3971 9.65267 67.1692 9.10256C67.0081 8.48709 66.4565 8.06615 65.6465 7.77437V7.45068H71.4121V18.5609C71.4121 19.9864 72.1901 20.6991 73.7113 20.6991C75.0061 20.6991 76.2051 20.3101 77.3068 19.5016V10.4003C77.3068 10.0447 77.2749 9.72106 77.2415 9.49311C77.2096 9.00682 76.626 8.19836 75.5577 7.77589V7.4522H81.3552V20.8936C81.3552 21.3145 81.3871 21.6063 81.4206 21.8008C81.5178 22.1899 82.0026 22.8053 83.1378 23.3235V23.6472H77.4694L77.3068 20.6672L77.3084 20.6641Z" fill="white"/>
<path d="M89.1286 0.32373V20.8908C89.1286 21.9926 89.1286 22.3801 90.8777 23.3208V23.6444H83.3311V23.3208C85.0802 22.3816 85.0802 21.9926 85.0802 20.8908V3.46487C85.0802 2.81749 85.0802 2.52572 84.8538 1.9756C84.6927 1.36014 84.141 0.939193 83.3311 0.647418V0.32373H89.1286Z" fill="white"/>
<path d="M91.4592 8.77765L93.143 7.44947L96.0577 3.85547H97.4178V7.44947H101.077V10.4614H97.4178V19.0445C97.4178 20.1462 98.0014 20.6964 99.1989 20.6964C99.8781 20.6964 100.527 20.5672 101.142 20.3073V23.3846C100.138 23.7737 99.0378 23.9682 97.8388 23.9682C96.1869 23.9682 94.9879 23.6445 94.2432 22.9971C93.4986 22.3497 93.1096 21.248 93.1096 19.6615V10.463H91.4258L91.4577 8.77917L91.4592 8.77765Z" fill="white"/>
<path d="M107.945 23.6764H103.668V7.48133H107.945V23.6764ZM103.443 3.07584C103.443 2.46037 103.67 1.94217 104.091 1.52122C104.512 1.10028 105.062 0.905762 105.743 0.905762C106.423 0.905762 107.005 1.10028 107.46 1.52122C107.913 1.94217 108.139 2.46037 108.139 3.07584C108.139 3.6913 107.913 4.17607 107.492 4.56662C107.071 4.95414 106.487 5.14865 105.775 5.14865C105.062 5.14865 104.544 4.95414 104.123 4.56662C103.702 4.17759 103.475 3.65939 103.475 3.04392L103.443 3.07584Z" fill="white"/>
<path d="M110.082 8.77765L111.766 7.44947L114.681 3.85547H116.041V7.44947H119.7V10.4614H116.041V19.0445C116.041 20.1462 116.624 20.6964 117.822 20.6964C118.501 20.6964 119.15 20.5672 119.766 20.3073V23.3846C118.761 23.7737 117.661 23.9682 116.462 23.9682C114.81 23.9682 113.611 23.6445 112.866 22.9971C112.122 22.3497 111.733 21.248 111.733 19.6615V10.463H110.049L110.081 8.77917L110.082 8.77765Z" fill="white"/>
<path d="M131.329 21.3435L129.774 23.0273C128.672 23.6427 127.539 23.9664 126.373 23.9664C125.013 23.9664 123.911 23.5455 123.037 22.7355C122.162 21.9255 121.741 20.7599 121.741 19.2372V7.44922H126.018V18.3969C126.018 19.8861 126.698 20.6323 128.025 20.6323C128.9 20.6323 130.032 20.2432 131.394 19.4333V7.44922H135.67V23.6442H131.557L131.394 21.345H131.329V21.3435Z" fill="white"/>
<path d="M146 20.8574C146.939 20.8574 147.846 20.4364 148.752 19.5945V10.7197C147.91 10.235 147.003 9.97509 146 9.97509C143.701 9.97509 142.535 11.8215 142.535 15.5462C142.535 17.4245 142.827 18.7846 143.41 19.6265C143.993 20.4684 144.868 20.8893 146.002 20.8893V20.8574H146ZM153.028 23.6764H148.915L148.752 21.5063L146.81 23.2235C145.968 23.7417 145.027 24.0016 143.993 24.0016C142.178 24.0016 140.754 23.2235 139.718 21.6689C138.681 20.1143 138.163 18.0734 138.163 15.5477C138.163 13.022 138.779 10.8504 140.008 9.36115C141.239 7.87188 142.859 7.12573 144.866 7.12573C146.258 7.12573 147.555 7.48285 148.752 8.19557V1.61848L151.861 0.32373H153.027V23.6764H153.028Z" fill="white"/>
<path d="M165.95 14.2181C166.047 13.7971 166.079 13.3762 166.079 12.9552C166.079 11.8869 165.82 11.1407 165.302 10.7213C164.784 10.3004 164.202 10.1059 163.521 10.1059C161.287 10.1059 160.056 11.5313 159.828 14.4141L165.95 14.2196V14.2181ZM170.193 13.1817C170.193 14.0555 170.03 15.1572 169.74 16.4854H159.797C159.926 17.9762 160.412 19.0764 161.222 19.7891C162.032 20.5019 163.068 20.859 164.299 20.859C165.109 20.859 165.983 20.7298 166.954 20.4699C167.927 20.2101 168.735 19.8864 169.351 19.5308V22.7054C167.828 23.5792 165.852 24.0001 163.424 24.0001C160.865 24.0001 158.889 23.2236 157.497 21.7009C156.105 20.1782 155.393 18.1388 155.393 15.5797C155.393 13.0206 156.072 10.9477 157.465 9.42505C158.859 7.90235 160.834 7.15771 163.392 7.15771C164.299 7.15771 165.141 7.25497 165.919 7.44797C166.696 7.64249 167.409 7.93426 168.089 8.35521C168.77 8.77615 169.288 9.39162 169.676 10.2016C170.065 11.0116 170.259 11.9826 170.259 13.1163L170.194 13.1801L170.193 13.1817Z" fill="white"/>
<path d="M172.922 9.0116H172.124V8.45996H174.378V9.0116H173.581V11.6664H172.922V9.0116Z" fill="white"/>
<path d="M177.184 10.498C177.184 10.1074 177.197 9.76703 177.222 9.47982H177.199L176.548 11.0831H176.073L175.422 9.47982H175.398C175.422 9.76703 175.436 10.1074 175.436 10.498V11.6621H174.828V8.45557H175.696L176.149 9.59683C176.225 9.78983 176.281 9.97371 176.328 10.1485H176.346C176.403 9.93572 176.459 9.75184 176.516 9.60139L176.95 8.46013H177.822V11.6666H177.185V10.4965L177.184 10.498Z" fill="white"/>
<path d="M26.9789 13.4473L27.5731 14.7132C27.5943 14.7572 27.6369 14.7892 27.6855 14.7952L29.073 14.9685C29.193 14.9837 29.2416 15.1326 29.1535 15.2147L28.1323 16.1705C28.0958 16.204 28.0806 16.2541 28.0897 16.3027L28.3542 17.675C28.377 17.7935 28.2508 17.8862 28.1444 17.827L26.9196 17.1522C26.877 17.1279 26.8239 17.1279 26.7813 17.1522L25.5565 17.827C25.4501 17.8862 25.324 17.7935 25.3467 17.675L25.6112 16.3027C25.6203 16.2541 25.6036 16.2055 25.5686 16.1705L24.5474 15.2147C24.4593 15.1311 24.5064 14.9837 24.6279 14.9685L26.0154 14.7952C26.064 14.7892 26.1066 14.7588 26.1279 14.7132L26.722 13.4473C26.7737 13.3379 26.9302 13.3379 26.9819 13.4473H26.9789Z" fill="white"/>
</g>
<defs>
<clipPath id="clip0_684_25126">
<rect width="177.82" height="24" fill="white"/>
</clipPath>
</defs>
</svg>
