<svg width="178" height="24" viewBox="0 0 178 24" fill="none" xmlns="http://www.w3.org/2000/svg">
<path d="M17.7147 0.972488V5.53931H17.3915C16.4522 2.91746 14.4133 1.62173 11.3024 1.62173C6.76873 1.62173 4.66352 4.85967 4.66352 11.9848C4.66352 19.1099 6.76873 22.3479 11.3024 22.3479C14.6398 22.3479 16.7754 21.0521 17.7147 18.4303H18.038L17.7147 22.9971C15.546 23.6464 13.4076 23.9696 11.3024 23.9696C7.93461 23.9696 5.21331 22.9336 3.10809 20.8919C1.03603 18.8475 0 15.8692 0 11.982C0 8.09485 1.03603 5.11661 3.10809 3.07494C5.21331 1.03603 7.93461 0 11.3024 0C13.4076 0 15.546 0.323242 17.7147 0.972488Z" fill="white"/>
<path d="M26.8453 22.3789C29.2102 22.3789 30.3761 20.597 30.3761 15.7732C30.3761 10.9495 29.2102 8.71439 26.8453 8.71439C24.4804 8.71439 23.3173 10.4964 23.3173 15.3201C23.3173 20.1439 24.4831 22.3789 26.8453 22.3789ZM34.6169 15.5439C34.6169 20.8208 32.0254 23.9648 26.8453 23.9648C21.6651 23.9648 19.0405 20.8567 19.0405 15.5439C19.0405 10.2311 21.632 7.12305 26.8453 7.12305C32.0586 7.12305 34.6169 10.2643 34.6169 15.5439Z" fill="white"/>
<path d="M41.3527 10.4273L43.9441 7.83584C44.8503 7.34959 45.7565 7.12305 46.6958 7.12305C49.5442 7.12305 51.2295 8.67847 51.2295 11.6899V20.8871C51.2295 21.307 51.2626 21.5999 51.293 21.7932C51.3897 22.18 51.876 22.7961 53.0087 23.3155V23.6388H45.7537V23.3155C47.1793 22.3762 47.1793 21.9866 47.1793 20.8871V12.5325C47.1793 11.1069 46.4361 10.3941 44.9139 10.3941C43.6513 10.3941 42.4191 10.7837 41.2864 11.5932V20.8871C41.2864 21.307 41.3195 21.5999 41.3499 21.7932C41.4466 22.18 41.9328 22.7961 43.0656 23.3155V23.6388H35.5205V23.3155C37.2693 22.3762 37.2693 21.9866 37.2693 20.8871V10.5875C37.2693 9.93829 37.2693 9.6482 37.0428 9.09841C36.8798 8.48232 36.33 8.06238 35.5205 7.76953V7.44629H41.2864V10.4273H41.3499H41.3527Z" fill="white"/>
<path d="M58.7418 17.2292C56.5399 16.2263 53.7551 14.9637 53.7551 11.723C53.7551 10.5571 54.2413 9.48796 55.1807 8.54863C56.12 7.60929 57.6754 7.12305 59.811 7.12305C61.7229 7.12305 63.4054 7.34959 64.8309 7.76953L63.6651 10.7505L63.5021 10.7837C62.0461 9.52111 61.0736 8.93817 59.6812 8.93817C58.2888 8.93817 57.5456 9.65096 57.5456 10.7201C57.5456 11.9192 58.7446 12.7922 60.2337 13.3751C62.3721 14.2509 65.2205 15.5439 65.1901 19.0747C65.1901 20.9534 63.701 23.9648 58.8109 23.9648C57.0289 23.9648 55.4431 23.7382 54.0175 23.3183L53.5645 20.2102L53.6943 20.1466C55.6061 21.4755 57.2555 22.1552 58.6811 22.1552C60.3967 22.1552 61.4659 21.3457 61.4659 19.9533C61.4659 18.7874 60.2669 17.9116 58.7446 17.2319" fill="white"/>
<path d="M77.2989 20.6626H77.2354L74.6439 23.2541C73.7378 23.7403 72.8316 23.9669 71.9558 23.9669C69.1074 23.9669 67.389 22.4115 67.389 19.4001V10.5924C67.389 9.94593 67.389 9.65308 67.1624 9.1033C67.0022 8.4872 66.4496 8.06726 65.6401 7.77441V7.45117H71.406V18.5602C71.406 19.9858 72.1823 20.6986 73.7046 20.6986C75.0003 20.6986 76.1994 20.309 77.2989 19.4995V10.399C77.2989 10.0426 77.2658 9.71939 77.2354 9.49284C77.2022 9.0066 76.6193 8.19711 75.5501 7.77718V7.45393H81.3464V20.8947C81.3464 21.3146 81.3795 21.6075 81.4099 21.8009C81.5066 22.1904 81.9928 22.8065 83.1256 23.3232V23.6464H77.4592L77.2962 20.6682L77.2989 20.6626Z" fill="white"/>
<path d="M89.118 0.323242V20.8864C89.118 21.9887 89.118 22.3755 90.8668 23.3148V23.6381H83.3218V23.3148C85.0706 22.3755 85.0706 21.986 85.0706 20.8864V3.46449C85.0706 2.81524 85.0706 2.52515 84.8441 1.97537C84.6838 1.35927 84.1313 0.939335 83.3218 0.646484V0.323242H89.118Z" fill="white"/>
<path d="M91.4497 8.77771L93.1349 7.44883L96.0496 3.85449H97.4089V7.44883H101.07V10.4602H97.4089V19.0413C97.4089 20.1437 97.9918 20.6934 99.1909 20.6934C99.8705 20.6934 100.52 20.5636 101.133 20.3039V23.3816C100.127 23.7711 99.0279 23.9645 97.8288 23.9645C96.1767 23.9645 94.9777 23.6413 94.2345 22.9921C93.4886 22.3428 93.1018 21.2432 93.1018 19.6574V10.4602H91.4165L91.4497 8.77495V8.77771Z" fill="white"/>
<path d="M107.932 23.6739H103.658V7.48143H107.932V23.6739ZM103.432 3.07484C103.432 2.45875 103.658 1.94211 104.081 1.51941C104.501 1.09948 105.053 0.90332 105.733 0.90332C106.413 0.90332 106.996 1.09671 107.449 1.51941C107.902 1.93935 108.128 2.45875 108.128 3.07484C108.128 3.69093 107.902 4.17442 107.482 4.56396C107.062 4.95075 106.476 5.1469 105.766 5.1469C105.056 5.1469 104.537 4.95351 104.114 4.56396C103.694 4.17442 103.468 3.65778 103.468 3.04169L103.434 3.07484H103.432Z" fill="white"/>
<path d="M110.068 8.77771L111.753 7.44883L114.668 3.85449H116.027V7.44883H119.688V10.4602H116.027V19.0413C116.027 20.1437 116.61 20.6934 117.809 20.6934C118.489 20.6934 119.138 20.5636 119.751 20.3039V23.3816C118.748 23.7711 117.646 23.9645 116.447 23.9645C114.795 23.9645 113.596 23.6413 112.853 22.9921C112.107 22.3428 111.72 21.2432 111.72 19.6574V10.4602H110.035L110.068 8.77495V8.77771Z" fill="white"/>
<path d="M131.314 21.3421L129.758 23.0274C128.656 23.6435 127.523 23.9667 126.357 23.9667C124.998 23.9667 123.896 23.5468 123.023 22.7373C122.147 21.9278 121.727 20.7619 121.727 19.2397V7.44824H126.001V18.3943C126.001 19.8834 126.681 20.6293 128.01 20.6293C128.885 20.6293 130.018 20.2398 131.377 19.4303V7.44824H135.651V23.6407H131.538L131.375 21.3421H131.311H131.314Z" fill="white"/>
<path d="M145.981 20.856C146.92 20.856 147.826 20.4361 148.732 19.5934V10.7195C147.89 10.2332 146.983 9.97629 145.981 9.97629C143.682 9.97629 142.516 11.8218 142.516 15.546C142.516 17.4247 142.809 18.7839 143.392 19.6266C143.975 20.4692 144.848 20.8891 145.983 20.8891V20.856H145.981ZM153.009 23.674H148.895L148.732 21.5052L146.79 23.2209C145.947 23.7403 145.008 23.9972 143.972 23.9972C142.16 23.9972 140.734 23.2209 139.698 21.6655C138.662 20.11 138.143 18.0711 138.143 15.546C138.143 13.0208 138.759 10.8493 139.988 9.36019C141.22 7.87107 142.839 7.12513 144.845 7.12513C146.237 7.12513 147.533 7.48152 148.729 8.19431V1.61897L151.838 0.323242H153.003V23.674H153.009Z" fill="white"/>
<path d="M165.931 14.2172C166.028 13.7973 166.061 13.3746 166.061 12.9546C166.061 11.8854 165.801 11.1423 165.284 10.7196C164.765 10.2996 164.185 10.1035 163.503 10.1035C161.267 10.1035 160.038 11.529 159.811 14.4106L165.934 14.2144L165.931 14.2172ZM170.172 13.1812C170.172 14.0542 170.009 15.1565 169.719 16.4854H159.776C159.905 17.9745 160.392 19.0769 161.201 19.7897C162.011 20.5024 163.047 20.8588 164.279 20.8588C165.088 20.8588 165.961 20.729 166.934 20.4693C167.906 20.2096 168.716 19.8864 169.332 19.53V22.7044C167.81 23.5774 165.834 24.0001 163.406 24.0001C160.848 24.0001 158.872 23.2238 157.48 21.7015C156.087 20.1792 155.375 18.1403 155.375 15.5792C155.375 13.0182 156.054 10.9489 157.447 9.42659C158.839 7.90431 160.814 7.16113 163.373 7.16113C164.279 7.16113 165.121 7.25783 165.898 7.45122C166.674 7.64461 167.387 7.93747 168.067 8.3574C168.746 8.77734 169.266 9.39343 169.652 10.2029C170.042 11.0124 170.235 11.9849 170.235 13.1176L170.172 13.1812Z" fill="white"/>
<path d="M172.9 9.01251H172.102V8.45996H174.356V9.01251H173.561V11.6647H172.9V9.01251Z" fill="white"/>
<path d="M177.164 10.4958C177.164 10.1035 177.178 9.76641 177.203 9.47908H177.181L176.528 11.0815H176.053L175.404 9.47908H175.379C175.404 9.76641 175.418 10.1062 175.418 10.4958V11.6589H174.81V8.4541H175.678L176.131 9.59512C176.205 9.78851 176.263 9.97361 176.31 10.1477H176.33C176.385 9.93493 176.443 9.74983 176.498 9.60064L176.932 8.45963H177.805V11.6644H177.169V10.4958H177.164Z" fill="white"/>
<path d="M27.0278 13.3168L27.4063 14.3556C27.5113 14.6429 27.735 14.8723 28.0224 14.98L29.0474 15.3668C29.2131 15.4303 29.2131 15.6652 29.0474 15.7259L28.0224 16.1127C27.735 16.2205 27.5113 16.4498 27.4063 16.7371L27.0278 17.7759C26.967 17.9444 26.7266 17.9444 26.6659 17.7759L26.2874 16.7371C26.1824 16.4498 25.9586 16.2205 25.6713 16.1127L24.6463 15.7259C24.4805 15.6624 24.4805 15.4276 24.6463 15.3668L25.6713 14.98C25.9586 14.8723 26.1824 14.6429 26.2874 14.3556L26.6659 13.3168C26.7266 13.1483 26.967 13.1483 27.0278 13.3168Z" fill="white"/>
</svg>
