<svg width="178" height="24" viewBox="0 0 178 24" fill="none" xmlns="http://www.w3.org/2000/svg">
<path d="M17.7147 0.972488V5.53931H17.3915C16.4522 2.91746 14.4133 1.62173 11.3024 1.62173C6.76873 1.62173 4.66352 4.85967 4.66352 11.9848C4.66352 19.1099 6.76873 22.3479 11.3024 22.3479C14.6398 22.3479 16.7754 21.0521 17.7147 18.4303H18.038L17.7147 22.9971C15.546 23.6464 13.4076 23.9696 11.3024 23.9696C7.93461 23.9696 5.21331 22.9336 3.10809 20.8919C1.03603 18.8475 0 15.8692 0 11.982C0 8.09485 1.03603 5.11661 3.10809 3.07494C5.21331 1.03603 7.93461 0 11.3024 0C13.4076 0 15.546 0.323242 17.7147 0.972488Z" fill="white"/>
<path d="M26.8458 22.3785C29.2107 22.3785 30.3766 20.5965 30.3766 15.7727C30.3766 10.949 29.2107 8.7139 26.8458 8.7139C24.4809 8.7139 23.3178 10.4959 23.3178 15.3196C23.3178 20.1434 24.4836 22.3785 26.8458 22.3785ZM34.6174 15.5434C34.6174 20.8203 32.0259 23.9643 26.8458 23.9643C21.6656 23.9643 19.041 20.8562 19.041 15.5434C19.041 10.2307 21.6325 7.12256 26.8458 7.12256C32.0591 7.12256 34.6174 10.2638 34.6174 15.5434Z" fill="white"/>
<path d="M41.3527 10.4268L43.9441 7.83535C44.8503 7.3491 45.7565 7.12256 46.6958 7.12256C49.5442 7.12256 51.2295 8.67799 51.2295 11.6894V20.8866C51.2295 21.3065 51.2626 21.5994 51.293 21.7928C51.3897 22.1795 51.876 22.7956 53.0087 23.315V23.6383H45.7537V23.315C47.1793 22.3757 47.1793 21.9861 47.1793 20.8866V12.532C47.1793 11.1064 46.4361 10.3937 44.9139 10.3937C43.6513 10.3937 42.4191 10.7832 41.2864 11.5927V20.8866C41.2864 21.3065 41.3195 21.5994 41.3499 21.7928C41.4466 22.1795 41.9328 22.7956 43.0656 23.315V23.6383H35.5205V23.315C37.2693 22.3757 37.2693 21.9861 37.2693 20.8866V10.587C37.2693 9.9378 37.2693 9.64771 37.0428 9.09792C36.8798 8.48183 36.33 8.06189 35.5205 7.76904V7.4458H41.2864V10.4268H41.3499H41.3527Z" fill="white"/>
<path d="M58.7418 17.2287C56.5399 16.2258 53.7551 14.9632 53.7551 11.7225C53.7551 10.5567 54.2413 9.48747 55.1807 8.54814C56.12 7.6088 57.6754 7.12256 59.811 7.12256C61.7229 7.12256 63.4054 7.3491 64.8309 7.76904L63.6651 10.75L63.5021 10.7832C62.0461 9.52062 61.0736 8.93768 59.6812 8.93768C58.2888 8.93768 57.5456 9.65047 57.5456 10.7197C57.5456 11.9187 58.7446 12.7917 60.2337 13.3747C62.3721 14.2505 65.2205 15.5434 65.1901 19.0742C65.1901 20.9529 63.701 23.9643 58.8109 23.9643C57.0289 23.9643 55.4431 23.7377 54.0175 23.3178L53.5645 20.2097L53.6943 20.1462C55.6061 21.475 57.2555 22.1547 58.6811 22.1547C60.3967 22.1547 61.4659 21.3452 61.4659 19.9528C61.4659 18.7869 60.2669 17.9111 58.7446 17.2315" fill="white"/>
<path d="M77.2985 20.6629H77.2349L74.6434 23.2543C73.7373 23.7406 72.8311 23.9671 71.9553 23.9671C69.1069 23.9671 67.3885 22.4117 67.3885 19.4003V10.5927C67.3885 9.94618 67.3885 9.65333 67.1619 9.10354C67.0017 8.48745 66.4491 8.06751 65.6396 7.77466V7.45142H71.4055V18.5604C71.4055 19.986 72.1818 20.6988 73.7041 20.6988C74.9998 20.6988 76.1989 20.3092 77.2985 19.4998V10.3993C77.2985 10.0429 77.2653 9.71963 77.2349 9.49309C77.2018 9.00684 76.6188 8.19736 75.5496 7.77742V7.45418H81.3459V20.895C81.3459 21.3149 81.379 21.6077 81.4094 21.8011C81.5061 22.1907 81.9924 22.8068 83.1251 23.3234V23.6466H77.4587L77.2957 20.6684L77.2985 20.6629Z" fill="white"/>
<path d="M89.1175 0.323486V20.8866C89.1175 21.989 89.1175 22.3757 90.8664 23.3151V23.6383H83.3213V23.3151C85.0701 22.3757 85.0701 21.9862 85.0701 20.8866V3.46473C85.0701 2.81549 85.0701 2.5254 84.8436 1.97561C84.6833 1.35952 84.1308 0.939579 83.3213 0.646728V0.323486H89.1175Z" fill="white"/>
<path d="M91.4492 8.77747L93.1344 7.44858L96.0491 3.85425H97.4084V7.44858H101.069V10.46H97.4084V19.0411C97.4084 20.1434 97.9914 20.6932 99.1904 20.6932C99.87 20.6932 100.519 20.5634 101.133 20.3037V23.3814C100.127 23.7709 99.0274 23.9643 97.8284 23.9643C96.1762 23.9643 94.9772 23.6411 94.234 22.9918C93.4881 22.3426 93.1013 21.243 93.1013 19.6572V10.46H91.416L91.4492 8.7747V8.77747Z" fill="white"/>
<path d="M107.932 23.6741H103.658V7.48167H107.932V23.6741ZM103.432 3.07509C103.432 2.45899 103.658 1.94236 104.081 1.51966C104.501 1.09972 105.053 0.903564 105.733 0.903564C106.413 0.903564 106.996 1.09696 107.449 1.51966C107.902 1.9396 108.128 2.45899 108.128 3.07509C108.128 3.69118 107.902 4.17466 107.482 4.56421C107.062 4.95099 106.476 5.14715 105.766 5.14715C105.056 5.14715 104.537 4.95375 104.114 4.56421C103.694 4.17466 103.468 3.65803 103.468 3.04193L103.434 3.07509H103.432Z" fill="white"/>
<path d="M110.067 8.77747L111.753 7.44858L114.667 3.85425H116.027V7.44858H119.687V10.46H116.027V19.0411C116.027 20.1434 116.61 20.6932 117.809 20.6932C118.488 20.6932 119.137 20.5634 119.751 20.3037V23.3814C118.748 23.7709 117.646 23.9643 116.447 23.9643C114.794 23.9643 113.595 23.6411 112.852 22.9918C112.106 22.3426 111.719 21.243 111.719 19.6572V10.46H110.034L110.067 8.7747V8.77747Z" fill="white"/>
<path d="M131.313 21.3424L129.758 23.0276C128.656 23.6437 127.523 23.967 126.357 23.967C124.998 23.967 123.895 23.547 123.022 22.7375C122.147 21.9281 121.727 20.7622 121.727 19.2399V7.44849H126.001V18.3945C126.001 19.8836 126.68 20.6296 128.009 20.6296C128.885 20.6296 130.018 20.24 131.377 19.4305V7.44849H135.651V23.641H131.537L131.374 21.3424H131.311H131.313Z" fill="white"/>
<path d="M145.981 20.8562C146.92 20.8562 147.826 20.4363 148.732 19.5937V10.7197C147.89 10.2335 146.983 9.97653 145.981 9.97653C143.682 9.97653 142.516 11.822 142.516 15.5462C142.516 17.4249 142.809 18.7842 143.392 19.6268C143.975 20.4694 144.848 20.8894 145.983 20.8894V20.8562H145.981ZM153.009 23.6742H148.895L148.732 21.5055L146.79 23.2211C145.947 23.7405 145.008 23.9975 143.972 23.9975C142.16 23.9975 140.734 23.2211 139.698 21.6657C138.662 20.1103 138.143 18.0714 138.143 15.5462C138.143 13.0211 138.759 10.8496 139.988 9.36044C141.22 7.87132 142.839 7.12537 144.845 7.12537C146.237 7.12537 147.533 7.48177 148.729 8.19456V1.61922L151.838 0.323486H153.003V23.6742H153.009Z" fill="white"/>
<path d="M165.931 14.2172C166.028 13.7973 166.061 13.3746 166.061 12.9546C166.061 11.8854 165.802 11.1423 165.285 10.7196C164.766 10.2996 164.185 10.1035 163.503 10.1035C161.268 10.1035 160.039 11.529 159.812 14.4106L165.934 14.2144L165.931 14.2172ZM170.172 13.1812C170.172 14.0542 170.009 15.1565 169.719 16.4854H159.776C159.906 17.9745 160.392 19.0769 161.202 19.7897C162.011 20.5024 163.047 20.8588 164.279 20.8588C165.089 20.8588 165.962 20.729 166.934 20.4693C167.907 20.2096 168.716 19.8864 169.332 19.53V22.7044C167.81 23.5774 165.835 24.0001 163.406 24.0001C160.848 24.0001 158.873 23.2238 157.48 21.7015C156.088 20.1792 155.375 18.1403 155.375 15.5792C155.375 13.0182 156.055 10.9489 157.447 9.42659C158.839 7.90431 160.815 7.16113 163.373 7.16113C164.279 7.16113 165.122 7.25783 165.898 7.45122C166.675 7.64461 167.387 7.93747 168.067 8.3574C168.747 8.77734 169.266 9.39343 169.653 10.2029C170.042 11.0124 170.236 11.9849 170.236 13.1176L170.172 13.1812Z" fill="white"/>
<path d="M172.901 9.01227H172.103V8.45972H174.357V9.01227H173.561V11.6645H172.901V9.01227Z" fill="white"/>
<path d="M177.164 10.4958C177.164 10.1035 177.178 9.76641 177.203 9.47908H177.181L176.529 11.0815H176.054L175.405 9.47908H175.38C175.405 9.76641 175.418 10.1062 175.418 10.4958V11.6589H174.811V8.4541H175.678L176.131 9.59512C176.206 9.78851 176.264 9.97361 176.311 10.1477H176.33C176.385 9.93493 176.443 9.74983 176.499 9.60064L176.932 8.45963H177.805V11.6644H177.17V10.4958H177.164Z" fill="white"/>
<path d="M27.0273 13.3166L27.4058 14.3554C27.5108 14.6427 27.7346 14.872 28.0219 14.9798L29.0469 15.3665C29.2126 15.4301 29.2126 15.6649 29.0469 15.7257L28.0219 16.1125C27.7346 16.2202 27.5108 16.4495 27.4058 16.7369L27.0273 17.7757C26.9665 17.9442 26.7262 17.9442 26.6654 17.7757L26.2869 16.7369C26.1819 16.4495 25.9581 16.2202 25.6708 16.1125L24.6458 15.7257C24.48 15.6622 24.48 15.4273 24.6458 15.3665L25.6708 14.9798C25.9581 14.872 26.1819 14.6427 26.2869 14.3554L26.6654 13.3166C26.7262 13.1481 26.9665 13.1481 27.0273 13.3166Z" fill="white"/>
</svg>
