<svg width="113" height="81" viewBox="0 0 113 81" fill="none" xmlns="http://www.w3.org/2000/svg">
<path d="M107.888 68.3606C106.197 72.4691 104.261 75.7774 102.635 78.2037" stroke="#51118C" stroke-width="1.0322" stroke-linecap="round" stroke-linejoin="round"/>
<path d="M83.7192 3.8938C97.2531 9.14233 107.677 21.0935 110.83 36.0131C112.142 42.221 112.486 49.0398 111.35 56.1038C110.993 58.3323 110.512 60.436 109.952 62.4106" stroke="#51118C" stroke-width="1.0322" stroke-linecap="round" stroke-linejoin="round"/>
<path d="M19.3115 28.2608C28.1606 11.6806 47.9193 1.56644 66.9338 1.02008C67.2134 1.01147 67.493 1.00718 67.7727 1.00288C70.3796 0.972765 72.9393 1.17925 75.4301 1.60515" stroke="#51118C" stroke-width="1.0322" stroke-linecap="round" stroke-linejoin="round"/>
<path d="M48.8743 51.105C48.371 49.8617 48.0871 48.4592 47.9795 46.8889C47.7988 42.4449 49.7304 39.128 53.1289 36.2241C59.0527 31.1175 68.5298 29.2719 74.019 36.1079C76.4625 38.9774 78.0457 42.7159 77.9596 46.4932C77.9338 50.2317 76.54 54.4993 74.9138 57.8334C73.0468 60.8535 70.5345 64.1747 63.3288 68.395C61.38 69.4748 59.1516 70.4858 57.1254 71.243C50.3585 73.7339 41.2212 75.0159 34.0671 73.4629C25.7429 71.5355 19.148 65.9385 16.1281 58.0313C14.6138 54.3487 14.4504 50.6231 14.5278 46.648C14.6009 42.7589 15.2075 39.0635 16.2658 35.5874" stroke="#51118C" stroke-width="1.0322" stroke-linecap="round" stroke-linejoin="round"/>
<path d="M41.7408 61.9205C31.6098 53.0711 26.198 34.7142 31.4291 21.9757C33.0596 18.0006 35.5633 15.5312 36.7721 14.361C47.8668 3.62736 66.0424 7.26262 68.2106 7.72724C71.8156 8.50162 78.2211 10.3988 85.0354 15.6302C98.2982 27.0694 108.803 51.1266 100.372 78.2038" stroke="#51118C" stroke-width="1.0322" stroke-linecap="round" stroke-linejoin="round"/>
<path d="M53.5243 38.8312C55.0773 38.3451 56.7981 38.173 58.691 38.3279C64.7266 39.0162 69.2909 44.3508 71.3343 49.7843C73.9412 56.6719 71.8892 62.6992 65.4278 66.1623C63.0015 67.3755 60.3171 67.7799 57.4348 67.7627C52.8059 67.7541 48.5212 66.5495 44.6753 64.1059" stroke="#51118C" stroke-width="1.0322" stroke-linecap="round" stroke-linejoin="round"/>
<path d="M96.6254 34.7271C99.3442 41.3092 99.6066 49.4703 97.7267 57.9539C95.9457 64.5791 90.4952 73.1274 84.9629 78.2038" stroke="#51118C" stroke-width="1.0322" stroke-linecap="round" stroke-linejoin="round"/>
<path d="M45.7939 28.2266C50.4744 24.6301 57.6156 21.0938 67.054 20.0441C78.5574 19.0245 86.7009 21.9843 91.8804 27.3662" stroke="#51118C" stroke-width="1.0322" stroke-linecap="round" stroke-linejoin="round"/>
<path d="M40.6831 59.6145C36.7727 55.9448 35.1207 50.6575 35.9596 45.1724C36.6565 39.7733 38.5192 35.3809 42.1974 31.4703C42.7136 30.9153 43.2944 30.3388 43.944 29.7581" stroke="#51118C" stroke-width="1.0322" stroke-linecap="round" stroke-linejoin="round"/>
<path d="M64.6142 42.8147C65.2939 44.2903 65.6209 46.0197 65.6037 47.9342C65.4445 52.3094 62.9838 55.893 59.4691 58.5302C55.5458 61.2534 50.7061 62.9097 46.3999 62.2816" stroke="#51118C" stroke-width="1.0322" stroke-linecap="round" stroke-linejoin="round"/>
<path d="M48.1553 27.6929C48.6758 27.4391 49.2265 27.2197 49.8072 27.0347C53.2402 25.7484 56.5569 25.5591 60.1964 26.4324C65.1264 27.5338 69.9316 30.5022 73.485 34.0471C76.8147 37.4974 79.3442 41.6876 81.0435 46.0714C84.6098 55.2262 84.2656 66.7988 82.0372 73.2261C81.3704 74.9426 80.4971 76.3537 79.5163 78.1993" stroke="#51118C" stroke-width="1.0322" stroke-linecap="round" stroke-linejoin="round"/>
<path d="M61.0313 54.7401C57.5768 56.1641 52.948 55.8371 49.8033 53.9657C45.8025 51.6383 42.3782 47.1555 41.5479 42.647C40.8209 39.0246 41.4016 35.2216 43.2385 32.2058" stroke="#51118C" stroke-width="1.0322" stroke-linecap="round" stroke-linejoin="round"/>
<path d="M12.6607 15.6257C7.60596 30.4034 7.19297 58.2636 28.6983 78.1994" stroke="#51118C" stroke-width="1.0322" stroke-linecap="round" stroke-linejoin="round"/>
<path d="M1.29077 53.0194C0.0217046 41.4383 2.2716 28.2438 11.1508 15.6301" stroke="#51118C" stroke-width="1.0322" stroke-linecap="round" stroke-linejoin="round"/>
<path d="M10.6041 78.1993C7.01203 73.1616 3.8329 66.3385 2.17236 58.5173" stroke="#51118C" stroke-width="1.0322" stroke-linecap="round" stroke-linejoin="round"/>
<path d="M52.9306 39.1537C52.1305 39.6915 51.9799 39.6872 51.2744 39.0806C51.7863 39.8592 51.7734 40.0055 51.1367 40.7325C51.9369 40.1948 52.0875 40.1991 52.793 40.8057C52.281 40.027 52.294 39.8807 52.9306 39.1537Z" fill="#51118C"/>
<path d="M50.9819 51.8234C50.1817 52.3611 50.0312 52.3568 49.3257 51.7502C49.8376 52.5289 49.8247 52.6752 49.188 53.4022C49.9881 52.8645 50.1387 52.8688 50.8442 53.4754C50.3323 52.6967 50.3452 52.5504 50.9819 51.8234Z" fill="#51118C"/>
<path d="M63.3193 52.6881C62.5191 53.2259 62.3686 53.2216 61.6631 52.615C62.175 53.3937 62.1621 53.5399 61.5254 54.267C62.3255 53.7292 62.4761 53.7335 63.1816 54.3401C62.6697 53.5615 62.6826 53.4152 63.3193 52.6881Z" fill="#51118C"/>
<path d="M64.6318 40.8746C63.8317 41.4124 63.6811 41.4081 62.9756 40.8015C63.4875 41.5802 63.4746 41.7264 62.8379 42.4535C63.638 41.9157 63.7886 41.9201 64.4941 42.5266C63.9822 41.748 63.9951 41.6017 64.6318 40.8746Z" fill="#51118C"/>
<path d="M17.8015 32.8941C18.184 32.8941 18.4941 32.584 18.4941 32.2014C18.4941 31.8189 18.184 31.5088 17.8015 31.5088C17.419 31.5088 17.1089 31.8189 17.1089 32.2014C17.1089 32.584 17.419 32.8941 17.8015 32.8941Z" fill="#51118C"/>
<path d="M1.66038 56.3147C2.04289 56.3147 2.35299 56.0046 2.35299 55.6221C2.35299 55.2396 2.04289 54.9294 1.66038 54.9294C1.27786 54.9294 0.967773 55.2396 0.967773 55.6221C0.967773 56.0046 1.27786 56.3147 1.66038 56.3147Z" fill="#51118C"/>
<path d="M43.2517 60.9998C43.6342 60.9998 43.9443 60.6897 43.9443 60.3071C43.9443 59.9246 43.6342 59.6145 43.2517 59.6145C42.8692 59.6145 42.5591 59.9246 42.5591 60.3071C42.5591 60.6897 42.8692 60.9998 43.2517 60.9998Z" fill="#51118C"/>
<path d="M45.7937 31.1433C46.1762 31.1433 46.4863 30.8332 46.4863 30.4507C46.4863 30.0682 46.1762 29.7581 45.7937 29.7581C45.4112 29.7581 45.1011 30.0682 45.1011 30.4507C45.1011 30.8332 45.4112 31.1433 45.7937 31.1433Z" fill="#51118C"/>
<path d="M13.8308 13.8015C14.2133 13.8015 14.5234 13.4914 14.5234 13.1089C14.5234 12.7264 14.2133 12.4163 13.8308 12.4163C13.4483 12.4163 13.1382 12.7264 13.1382 13.1089C13.1382 13.4914 13.4483 13.8015 13.8308 13.8015Z" fill="#51118C"/>
<path d="M79.9036 3.33887C80.2861 3.33887 80.5962 3.02877 80.5962 2.64624C80.5962 2.26371 80.2861 1.95361 79.9036 1.95361C79.521 1.95361 79.2109 2.26371 79.2109 2.64624C79.2109 3.02877 79.521 3.33887 79.9036 3.33887Z" fill="#51118C"/>
<path d="M77.9631 81C78.3457 81 78.6557 80.6899 78.6557 80.3074C78.6557 79.9248 78.3457 79.6147 77.9631 79.6147C77.5806 79.6147 77.2705 79.9248 77.2705 80.3074C77.2705 80.6899 77.5806 81 77.9631 81Z" fill="#51118C"/>
<path d="M94.5993 31.8359C94.9819 31.8359 95.2919 31.5258 95.2919 31.1433C95.2919 30.7608 94.9819 30.4507 94.5993 30.4507C94.2168 30.4507 93.9067 30.7608 93.9067 31.1433C93.9067 31.5258 94.2168 31.8359 94.5993 31.8359Z" fill="#51118C"/>
<path d="M109.316 66.1751C109.699 66.1751 110.009 65.865 110.009 65.4824C110.009 65.0999 109.699 64.7898 109.316 64.7898C108.934 64.7898 108.624 65.0999 108.624 65.4824C108.624 65.865 108.934 66.1751 109.316 66.1751Z" fill="#51118C"/>
</svg>
