<svg width="52" height="39" viewBox="0 0 52 39" fill="none" xmlns="http://www.w3.org/2000/svg">
<g clip-path="url(#clip0_684_44265)">
<path d="M51.1514 16.7753H32.332V11.9341H51.1514V16.7753Z" fill="#E669A2"/>
<path d="M48.7246 16.8163H32.3496V4.70801H48.7246V16.8163Z" fill="#F3BE26"/>
<path d="M42.0082 16.8439H32.3984V-0.103027H42.0082V16.8439Z" fill="#EE9C34"/>
<path d="M43.885 16.8353H32.3848V1.7793H43.885V16.8353Z" fill="#F3BC87"/>
<path d="M32.3975 1.78027V16.8318H42.0088V1.78027H32.3975Z" fill="#E3721C"/>
<path d="M22.8984 16.7324H32.5347V19.1533H22.8984V16.7324Z" fill="#AD1B02"/>
<path d="M32.3848 4.7041V16.8135H43.8932V4.7041H32.3848Z" fill="#E88D14"/>
<path d="M32.3975 4.7041V16.8135H42.0088V4.7041H32.3975Z" fill="#D85604"/>
<path d="M38.4343 16.7886H32.4248V9.521H38.4343V16.7886Z" fill="#C14303"/>
<path d="M32.3486 11.936V16.7722H48.7318V11.936H32.3486Z" fill="#DB4E18"/>
<path d="M32.3848 11.936V16.7722H43.8932V11.936H32.3848Z" fill="#D1390D"/>
<path d="M32.3975 11.936V16.7722H42.0088V11.936H32.3975Z" fill="#C22303"/>
<path d="M32.4209 11.936V16.7722H38.4389V11.936H32.4209Z" fill="#AD1B02"/>
<path d="M34.7572 25.6817C33.1176 25.9747 32.2432 27.2197 32.2432 29.3803C32.2432 31.5775 33.409 33.0423 35.1216 33.0423C35.9596 33.0423 36.6883 32.7493 38.2186 31.9803V33.7747C36.3603 34.6535 35.2673 34.8732 33.8099 34.8732C32.1703 34.8732 31.0042 34.4704 30.0933 33.4817C29.146 32.5295 28.6359 31.2845 28.6359 29.8563C28.6359 26.7437 30.9678 24.5831 34.3563 24.5831C36.5789 24.5831 38.1457 25.6451 38.1457 27.1465C38.1457 28.1352 37.4169 28.831 36.3603 28.831C35.8138 28.831 35.3765 28.648 34.7571 28.3183M26.5591 29.8563C28.053 27.9887 28.5995 27.2197 28.5995 26.3042C28.5995 25.3887 27.8708 24.583 26.8506 24.583C26.2676 24.583 25.7211 24.9126 25.4661 25.2056V29.0506L23.0248 32.3464V24.8761H20.6929L16.8306 31.2846V24.8761H15.5189L11.9846 25.6818V26.5972L13.9157 26.7803V34.7268H16.3569L20.0734 28.5747V34.7268H22.8061M4.58818 33.4817H5.1347C7.10218 33.4817 8.19527 32.2732 8.19527 29.8563C8.19527 27.8423 7.32088 26.7437 5.68117 26.7437C5.46257 26.7437 5.13465 26.7803 4.58813 26.8901V33.4817L4.58818 33.4817ZM4.58818 37.8028L6.19131 38.169V39.0845H-0.112063V38.169L1.34532 37.8028V26.7436H-0.257812V25.8281L3.56793 24.6563H4.58823V25.9747C6.37354 24.8761 6.99296 24.693 7.94025 24.693C10.0536 24.693 11.6567 26.6704 11.6567 29.417C11.6567 32.5663 9.50702 34.7268 6.22774 34.7268C5.86339 34.7268 5.24397 34.6902 4.58818 34.6536" fill="white"/>
</g>
<defs>
<clipPath id="clip0_684_44265">
<rect x="0.0175781" width="51" height="39" fill="white"/>
</clipPath>
</defs>
</svg>
