<svg width="283" height="364" viewBox="0 0 283 364" fill="none" xmlns="http://www.w3.org/2000/svg">
<g style="mix-blend-mode:plus-lighter" opacity="0.5">
<mask id="mask0_810_59444" style="mask-type:luminance" maskUnits="userSpaceOnUse" x="0" y="-86" width="567" height="536">
<path d="M566.316 -85.56L566.316 450L0.000610352 450L0.000634994 -85.56L566.316 -85.56Z" fill="white"/>
</mask>
<g mask="url(#mask0_810_59444)">
<path d="M129.486 276.168L107.792 313.188" stroke="#C7A8E7" stroke-width="0.94" stroke-miterlimit="10"/>
<path d="M181.352 187.629L134.004 268.459" stroke="#C7A8E7" stroke-width="0.94" stroke-miterlimit="10"/>
<path d="M231.898 152.519L201.93 152.519L186.846 178.259" stroke="#C7A8E7" stroke-width="0.94" stroke-miterlimit="10"/>
<path d="M286.225 128.1L270.93 152.52L248.256 152.52" stroke="#C7A8E7" stroke-width="0.94" stroke-miterlimit="10"/>
<path d="M249.359 91.8082L272.791 91.8082L286.822 114.198" stroke="#C7A8E7" stroke-width="0.94" stroke-miterlimit="10"/>
<path d="M134.413 91.8086L235.666 91.8086" stroke="#C7A8E7" stroke-width="0.94" stroke-miterlimit="10"/>
<path d="M127.918 84.7295L107.792 50.3795" stroke="#C7A8E7" stroke-width="0.94" stroke-miterlimit="10"/>
<path d="M181.35 175.929L135.086 96.9786" stroke="#C7A8E7" stroke-width="0.94" stroke-miterlimit="10"/>
<path d="M233.074 211.05L201.937 211.05L187.453 186.34" stroke="#C7A8E7" stroke-width="0.94" stroke-miterlimit="10"/>
<path d="M286.834 236.43L270.929 211.05L249.455 211.05" stroke="#C7A8E7" stroke-width="0.94" stroke-miterlimit="10"/>
<path d="M248.254 271.759L272.791 271.759L286.223 250.309" stroke="#C7A8E7" stroke-width="0.94" stroke-miterlimit="10"/>
<path d="M139.138 271.76L235.686 271.76" stroke="#C7A8E7" stroke-width="0.94" stroke-miterlimit="10"/>
<path d="M245.487 87.9795C259.076 64.0195 272.655 40.0495 286.234 16.0795" stroke="#C7A8E7" stroke-width="0.94" stroke-miterlimit="10"/>
<path d="M235.655 145.669C231.802 138.989 227.97 132.319 224.118 125.639C230.086 115.129 236.034 104.599 242.002 94.0889" stroke="#C7A8E7" stroke-width="0.94" stroke-miterlimit="10"/>
<path d="M243.845 204.609C248.119 197.199 252.382 189.789 256.655 182.369L256.803 182.369C252.487 174.879 248.171 167.379 243.855 159.889" stroke="#C7A8E7" stroke-width="0.94" stroke-miterlimit="10"/>
<path d="M239.908 267.171C234.603 257.811 229.287 248.441 223.992 239.081C228.498 231.251 233.013 223.421 237.519 215.591" stroke="#C7A8E7" stroke-width="0.94" stroke-miterlimit="10"/>
<path d="M285.436 347.479C272.583 324.809 259.741 302.139 246.888 279.469" stroke="#C7A8E7" stroke-width="0.94" stroke-miterlimit="10"/>
<path d="M211.696 326.868L282.412 287.048" stroke="#C7A8E7" stroke-width="0.94" stroke-miterlimit="10"/>
<path d="M197.74 238.929L197.74 318.409" stroke="#C7A8E7" stroke-width="0.94" stroke-miterlimit="10"/>
<path d="M190.982 136.12L104.361 182.44L104.361 182.28L183.867 224.8" stroke="#C7A8E7" stroke-width="0.94" stroke-miterlimit="10"/>
<path d="M288.885 81.3181L197.737 29.9881L197.737 124.328" stroke="#C7A8E7" stroke-width="0.94" stroke-miterlimit="10"/>
<path d="M274.717 5.58898C279.149 5.28898 283.633 5.12902 288.149 5.12902C355.128 5.12902 413.801 38.879 446.359 89.459" stroke="#C7A8E7" stroke-width="0.94" stroke-linecap="round" stroke-linejoin="round"/>
<path d="M107.34 142.439C120.887 85.1294 163.855 38.3894 220.371 17.2794" stroke="#C7A8E7" stroke-width="0.94" stroke-linecap="round" stroke-linejoin="round"/>
<path d="M242.001 346.479C255.601 349.559 269.801 351.189 284.391 351.189C307.422 351.189 329.454 347.129 349.738 339.719" stroke="#C7A8E7" stroke-width="0.94" stroke-linecap="round" stroke-linejoin="round"/>
<path d="M103.908 201.558C111.603 255.628 145.582 301.768 193.234 327.988" stroke="#C7A8E7" stroke-width="0.94" stroke-linecap="round" stroke-linejoin="round"/>
<path d="M498.392 192.21C502.287 288.94 422.897 370.35 321.076 374.05C295.96 374.96 271.834 371.06 249.655 363.22" stroke="#C7A8E7" stroke-width="0.94" stroke-linecap="round" stroke-linejoin="round"/>
<path d="M249.457 275.939C259.741 279.869 270.825 282.319 282.404 282.999" stroke="#C7A8E7" stroke-width="0.94" stroke-linecap="round" stroke-linejoin="round"/>
<path d="M199.822 237.039C208.907 250.359 221.212 261.529 235.686 269.549" stroke="#C7A8E7" stroke-width="0.94" stroke-linecap="round" stroke-linejoin="round"/>
<path d="M182.94 187.22C183.645 201.02 187.266 214.09 193.234 225.88" stroke="#C7A8E7" stroke-width="0.94" stroke-linecap="round" stroke-linejoin="round"/>
<path d="M236.697 94.3489C206.939 110.399 186.139 139.699 183.181 173.789" stroke="#C7A8E7" stroke-width="0.94" stroke-linecap="round" stroke-linejoin="round"/>
<path d="M331.172 89.458C318.277 84.178 304.046 81.248 289.109 81.248C274.172 81.248 260.961 83.968 248.435 88.908" stroke="#C7A8E7" stroke-width="0.94" stroke-linecap="round" stroke-linejoin="round"/>
<path d="M241.255 90.0086C241.255 89.0186 242.108 88.2086 243.15 88.2086C244.192 88.2086 245.045 89.0186 245.045 90.0086C245.045 90.9986 244.192 91.8086 243.15 91.8086C242.108 91.8086 241.255 90.9986 241.255 90.0086Z" fill="#C7A8E7"/>
<path d="M181.045 180.46C181.045 179.47 181.897 178.66 182.939 178.66C183.981 178.66 184.834 179.47 184.834 180.46C184.834 181.45 183.981 182.26 182.939 182.26C181.897 182.26 181.045 181.45 181.045 180.46Z" fill="#C7A8E7"/>
<path d="M192.171 230.559C192.171 229.569 193.024 228.759 194.066 228.759C195.108 228.759 195.961 229.569 195.961 230.559C195.961 231.549 195.108 232.359 194.066 232.359C193.024 232.359 192.171 231.549 192.171 230.559Z" fill="#C7A8E7"/>
<path d="M239.371 272.399C239.371 271.409 240.223 270.599 241.265 270.599C242.308 270.599 243.16 271.409 243.16 272.399C243.16 273.389 242.308 274.199 241.265 274.199C240.223 274.199 239.371 273.389 239.371 272.399Z" fill="#C7A8E7"/>
<path d="M238.013 152.518C238.013 151.528 238.866 150.718 239.908 150.718C240.95 150.718 241.803 151.528 241.803 152.518C241.803 153.508 240.95 154.318 239.908 154.318C238.866 154.318 238.013 153.508 238.013 152.518Z" fill="#C7A8E7"/>
<path d="M239.371 211.05C239.371 210.06 240.223 209.25 241.265 209.25C242.308 209.25 243.16 210.06 243.16 211.05C243.16 212.04 242.308 212.85 241.265 212.85C240.223 212.85 239.371 212.04 239.371 211.05Z" fill="#C7A8E7"/>
<path d="M179.457 353.149C179.457 352.159 180.309 351.349 181.351 351.349C182.393 351.349 183.246 352.159 183.246 353.149C183.246 354.139 182.393 354.949 181.351 354.949C180.309 354.949 179.457 354.139 179.457 353.149Z" fill="#C7A8E7"/>
<path d="M179.457 353.149C179.457 352.159 180.309 351.349 181.351 351.349C182.393 351.349 183.246 352.159 183.246 353.149C183.246 354.139 182.393 354.949 181.351 354.949C180.309 354.949 179.457 354.139 179.457 353.149Z" fill="#C7A8E7"/>
<path d="M181.349 7.949C181.349 6.959 182.202 6.14902 183.244 6.14902C184.286 6.14902 185.139 6.95901 185.139 7.94901C185.139 8.93901 184.286 9.74902 183.244 9.74902C182.202 9.74902 181.349 8.939 181.349 7.949Z" fill="#C7A8E7"/>
<path d="M202.76 333.899C200.076 331.959 199.56 331.959 196.886 333.899C198.928 331.349 198.928 330.859 196.886 328.319C199.57 330.259 200.086 330.259 202.76 328.319C200.718 330.869 200.718 331.359 202.76 333.899Z" fill="#C7A8E7"/>
<path d="M168.508 345.448C149.445 338.268 129.066 333.608 107.792 331.868" stroke="#C7A8E7" stroke-width="0.94" stroke-miterlimit="10"/>
<path d="M284.223 448.439C265.454 410.839 234.991 379.529 197.317 358.729" stroke="#C7A8E7" stroke-width="0.94" stroke-miterlimit="10"/>
<path d="M168.508 16.169C149.445 23.349 129.066 28.009 107.792 29.749" stroke="#C7A8E7" stroke-width="0.94" stroke-miterlimit="10"/>
<path d="M284.223 -86.8223C265.454 -49.2223 234.991 -17.9123 197.317 2.88769" stroke="#C7A8E7" stroke-width="0.94" stroke-miterlimit="10"/>
</g>
</g>
</svg>
