<svg width="646" height="387" viewBox="0 0 646 387" fill="none" xmlns="http://www.w3.org/2000/svg">
<g clip-path="url(#clip0_2489_40349)">
<rect x="-0.0693359" width="645" height="385" fill="#11061A"/>
<path d="M278.683 215.128L303.399 165.257" stroke="#C7A8E7" stroke-width="0.916736" stroke-miterlimit="10"/>
<path d="M210.774 106.276C212.06 106.276 213.101 105.106 213.101 103.663C213.101 102.219 212.06 101.049 210.774 101.049C209.489 101.049 208.447 102.219 208.447 103.663C208.447 105.106 209.489 106.276 210.774 106.276Z" fill="#7233B4"/>
<path d="M441.156 108.89C442.441 108.89 443.483 107.72 443.483 106.277C443.483 104.833 442.441 103.663 441.156 103.663C439.871 103.663 438.829 104.833 438.829 106.277C438.829 107.72 439.871 108.89 441.156 108.89Z" fill="#7233B4"/>
<path d="M373.623 215.128L348.918 165.257" stroke="#7233B4" stroke-width="0.916736" stroke-miterlimit="10"/>
<path d="M327.281 143.053C330.539 143.053 333.181 140.086 333.181 136.426C333.181 132.767 330.539 129.8 327.281 129.8C324.022 129.8 321.381 132.767 321.381 136.426C321.381 140.086 324.022 143.053 327.281 143.053Z" fill="#7233B4"/>
<path d="M326.435 39.2041C325.118 50.0813 324.049 51.2825 314.364 52.761C324.049 54.2394 325.118 55.4406 326.435 66.3178C327.751 55.4406 328.821 54.2394 338.505 52.761C328.821 51.2825 327.751 50.0813 326.435 39.2041Z" fill="#7233B4"/>
<path d="M-18.7754 85.374L171.189 1.25391" stroke="#C7A8E7" stroke-width="0.916736" stroke-miterlimit="10"/>
<path d="M486.605 2.67969L679.814 88.6277" stroke="#7233B4" stroke-width="0.916736" stroke-miterlimit="10"/>
<path d="M358.661 41.608L451.515 0.304688" stroke="#7233B4" stroke-width="0.916736" stroke-miterlimit="10"/>
<path d="M295.913 41.6085L205.514 1.39844" stroke="#7233B4" stroke-width="0.916736" stroke-miterlimit="10"/>
<path d="M326.435 79.5859V112.666" stroke="#7233B4" stroke-width="0.916736" stroke-miterlimit="10"/>
<path d="M296.795 69.0908L228.851 99.2802" stroke="#C7A8E7" stroke-width="0.916736" stroke-miterlimit="10"/>
<path d="M420.777 99.1086L353.209 69.0908" stroke="#7233B4" stroke-width="0.916736" stroke-miterlimit="10"/>
<path d="M228.851 115.609C252.251 126.025 277.273 132.796 303.388 135.318" stroke="#7233B4" stroke-width="0.916736" stroke-miterlimit="10"/>
<path d="M193.496 96.3365C157.478 72.8308 126.839 40.0741 104.159 0.963867" stroke="#7233B4" stroke-width="0.916736" stroke-miterlimit="10"/>
<path d="M465.497 92.2182C499.075 68.9303 527.672 37.4699 549.095 0.304688" stroke="#7233B4" stroke-width="0.916736" stroke-miterlimit="10"/>
<path d="M348.918 135.371C374.399 132.968 398.845 126.513 421.751 116.6" stroke="#C7A8E7" stroke-width="0.916736" stroke-miterlimit="10"/>
</g>
<defs>
<clipPath id="clip0_2489_40349">
<rect width="645.069" height="386" fill="white" transform="translate(0 0.341797)"/>
</clipPath>
</defs>
</svg>
