<svg width="646" height="387" viewBox="0 0 646 387" fill="none" xmlns="http://www.w3.org/2000/svg">
<g clip-path="url(#clip0_2489_40161)">
<rect x="-0.0693359" width="645" height="386" fill="url(#paint0_linear_2489_40161)"/>
<path d="M521.976 323.342L436.859 376.379" stroke="#C7A8E7" stroke-width="0.52229" stroke-miterlimit="10"/>
<path d="M558.955 266.722V300.286L531.851 317.175" stroke="#C7A8E7" stroke-width="0.52229" stroke-miterlimit="10"/>
<path d="M584.673 205.867L558.957 223.003V248.396" stroke="#C7A8E7" stroke-width="0.52229" stroke-miterlimit="10"/>
<path d="M622.887 153.945V180.4L599.719 195.841" stroke="#C7A8E7" stroke-width="0.52229" stroke-miterlimit="10"/>
<path d="M622.888 71.2793V143.683" stroke="#C7A8E7" stroke-width="0.52229" stroke-miterlimit="10"/>
<path d="M622.888 28.2891V62.0997" stroke="#C7A8E7" stroke-width="0.52229" stroke-miterlimit="10"/>
<path d="M430.758 21.1364L389.766 -4.40656V-47.332" stroke="#C7A8E7" stroke-width="0.52229" stroke-miterlimit="10"/>
<path d="M441.171 27.6248L434.744 23.625" stroke="#C7A8E7" stroke-width="0.52229" stroke-miterlimit="10"/>
<path d="M522.773 78.4745L445.107 30.0801" stroke="#C7A8E7" stroke-width="0.52229" stroke-miterlimit="10"/>
<path d="M558.957 135.394V101.025L533.959 85.4551" stroke="#C7A8E7" stroke-width="0.52229" stroke-miterlimit="10"/>
<path d="M584.108 195.069L558.957 178.309V153.945" stroke="#C7A8E7" stroke-width="0.52229" stroke-miterlimit="10"/>
<path d="M622.887 247.162V220.912L599.307 205.191" stroke="#C7A8E7" stroke-width="0.52229" stroke-miterlimit="10"/>
<path d="M622.888 375.918V262.508" stroke="#C7A8E7" stroke-width="0.52229" stroke-miterlimit="10"/>
<path d="M630.34 383.188L666.515 405.729" stroke="#C7A8E7" stroke-width="0.52229" stroke-miterlimit="10"/>
<path d="M534.304 323.342L617.447 375.157" stroke="#C7A8E7" stroke-width="0.52229" stroke-miterlimit="10"/>
<path d="M497.325 265.403V300.286L523.348 316.511" stroke="#C7A8E7" stroke-width="0.52229" stroke-miterlimit="10"/>
<path d="M470.593 205.191L497.324 223.003V247.055" stroke="#C7A8E7" stroke-width="0.52229" stroke-miterlimit="10"/>
<path d="M625.809 20.9541L666.514 -4.40655V-47.332" stroke="#C7A8E7" stroke-width="0.52229" stroke-miterlimit="10"/>
<path d="M533.499 78.474L616.901 26.5088" stroke="#C7A8E7" stroke-width="0.52229" stroke-miterlimit="10"/>
<path d="M497.325 133.023V101.025L520.838 86.377" stroke="#C7A8E7" stroke-width="0.52229" stroke-miterlimit="10"/>
<path d="M472.173 195.069L497.324 178.309V153.484" stroke="#C7A8E7" stroke-width="0.52229" stroke-miterlimit="10"/>
<path d="M627.465 151.543C652.099 166.395 676.742 181.247 701.376 196.098" stroke="#C7A8E7" stroke-width="0.52229" stroke-miterlimit="10"/>
<path d="M565.211 140.809C572.557 136.305 579.903 131.812 587.259 127.309C597.478 133.475 607.707 139.63 617.926 145.796" stroke="#C7A8E7" stroke-width="0.52229" stroke-miterlimit="10"/>
<path d="M504.104 149.388C511.909 154.17 519.715 158.953 527.521 163.736V163.896C535.317 159.124 543.113 154.353 550.909 149.57" stroke="#C7A8E7" stroke-width="0.52229" stroke-miterlimit="10"/>
<path d="M626.919 251.506C652.156 236.289 677.393 221.073 702.63 205.867" stroke="#C7A8E7" stroke-width="0.52229" stroke-miterlimit="10"/>
<path d="M566.169 262.508C573.199 266.819 580.229 271.119 587.259 275.43C598.331 268.749 609.412 262.079 620.484 255.398" stroke="#C7A8E7" stroke-width="0.52229" stroke-miterlimit="10"/>
<path d="M504.104 253.34C511.909 248.557 519.715 243.775 527.521 238.992V238.831C535.413 243.667 543.305 248.493 551.197 253.329" stroke="#C7A8E7" stroke-width="0.52229" stroke-miterlimit="10"/>
<path d="M652.395 100.489H688.072L634.016 202.586" stroke="#C7A8E7" stroke-width="0.52229" stroke-miterlimit="10"/>
<path d="M589.748 100.489H639.408" stroke="#C7A8E7" stroke-width="0.52229" stroke-miterlimit="10"/>
<path d="M534.304 9.37305L574.041 88.4147" stroke="#C7A8E7" stroke-width="0.52229" stroke-miterlimit="10"/>
<path d="M481.195 88.415L520.837 9.54492" stroke="#C7A8E7" stroke-width="0.52229" stroke-miterlimit="10"/>
<path d="M576.225 312.554L527.446 409.578H527.618L482.843 320.521" stroke="#C7A8E7" stroke-width="0.52229" stroke-miterlimit="10"/>
<path d="M633.929 202.887L687.986 304.983H588.637" stroke="#C7A8E7" stroke-width="0.52229" stroke-miterlimit="10"/>
<path d="M617.82 21.609C594.077 7.02531 567.174 -1.90722 538.556 -3.56934" stroke="#C7A8E7" stroke-width="0.52229" stroke-linecap="round" stroke-linejoin="round"/>
<path d="M713.682 218.757C713.999 213.792 714.161 208.773 714.161 203.712C714.161 128.691 678.619 62.9681 625.357 26.498" stroke="#C7A8E7" stroke-width="0.52229" stroke-linecap="round" stroke-linejoin="round"/>
<path d="M569.578 406.243C629.927 391.07 679.146 342.943 701.376 279.633" stroke="#C7A8E7" stroke-width="0.52229" stroke-linecap="round" stroke-linejoin="round"/>
<path d="M719.516 98.4201C704.383 50.2188 673.352 8.18333 629.534 -16.9521" stroke="#C7A8E7" stroke-width="0.52229" stroke-linecap="round" stroke-linejoin="round"/>
<path d="M663.593 139.243C653.019 108.21 636.354 80.5435 615.226 58.0889" stroke="#C7A8E7" stroke-width="0.52229" stroke-linecap="round" stroke-linejoin="round"/>
<path d="M538.556 84.2109C549.283 85.4334 559.531 88.4359 569.07 92.9505" stroke="#C7A8E7" stroke-width="0.52229" stroke-linecap="round" stroke-linejoin="round"/>
<path d="M481.004 95.6422C493.531 88.7792 507.448 84.5864 522.149 83.75" stroke="#C7A8E7" stroke-width="0.52229" stroke-linecap="round" stroke-linejoin="round"/>
<path d="M522.417 321.561C507.887 320.767 494.124 316.714 481.702 310.033" stroke="#C7A8E7" stroke-width="0.52229" stroke-linecap="round" stroke-linejoin="round"/>
<path d="M620.214 261.35C603.31 294.678 572.46 317.979 536.554 321.293" stroke="#C7A8E7" stroke-width="0.52229" stroke-linecap="round" stroke-linejoin="round"/>
<path d="M625.367 155.532C630.932 169.977 634.016 185.911 634.016 202.651C634.016 219.39 631.152 234.177 625.951 248.203" stroke="#C7A8E7" stroke-width="0.52229" stroke-linecap="round" stroke-linejoin="round"/>
<path d="M590.381 106.483C602.468 116.381 612.62 129.056 620.081 143.683" stroke="#C7A8E7" stroke-width="0.52229" stroke-linecap="round" stroke-linejoin="round"/>
<path d="M558.955 146.792C560.002 146.792 560.851 145.842 560.851 144.669C560.851 143.496 560.002 142.546 558.955 142.546C557.908 142.546 557.059 143.496 557.059 144.669C557.059 145.842 557.908 146.792 558.955 146.792Z" fill="#C7A8E7"/>
<path d="M622.887 151.511C623.934 151.511 624.783 150.56 624.783 149.388C624.783 148.215 623.934 147.265 622.887 147.265C621.839 147.265 620.99 148.215 620.99 149.388C620.99 150.56 621.839 151.511 622.887 151.511Z" fill="#C7A8E7"/>
<path d="M579.404 102.613C580.452 102.613 581.301 101.662 581.301 100.489C581.301 99.3168 580.452 98.3662 579.404 98.3662C578.357 98.3662 577.508 99.3168 577.508 100.489C577.508 101.662 578.357 102.613 579.404 102.613Z" fill="#C7A8E7"/>
<path d="M624.784 256.235C625.831 256.235 626.68 255.284 626.68 254.112C626.68 252.939 625.831 251.988 624.784 251.988C623.737 251.988 622.888 252.939 622.888 254.112C622.888 255.284 623.737 256.235 624.784 256.235Z" fill="#C7A8E7"/>
<path d="M529.534 323.685C530.581 323.685 531.43 322.734 531.43 321.562C531.43 320.389 530.581 319.438 529.534 319.438C528.487 319.438 527.638 320.389 527.638 321.562C527.638 322.734 528.487 323.685 529.534 323.685Z" fill="#C7A8E7"/>
<path d="M476.771 311.224C477.819 311.224 478.668 310.273 478.668 309.101C478.668 307.928 477.819 306.978 476.771 306.978C475.724 306.978 474.875 307.928 474.875 309.101C474.875 310.273 475.724 311.224 476.771 311.224Z" fill="#C7A8E7"/>
<path d="M474.874 100.5C475.921 100.5 476.77 99.5497 476.77 98.3771C476.77 97.2045 475.921 96.2539 474.874 96.2539C473.827 96.2539 472.978 97.2045 472.978 98.3771C472.978 99.5497 473.827 100.5 474.874 100.5Z" fill="#C7A8E7"/>
<path d="M527.515 85.8734C528.562 85.8734 529.411 84.9228 529.411 83.7502C529.411 82.5775 528.562 81.627 527.515 81.627C526.467 81.627 525.618 82.5775 525.618 83.7502C525.618 84.9228 526.467 85.8734 527.515 85.8734Z" fill="#C7A8E7"/>
<path d="M591.569 202.714C592.617 202.714 593.466 201.764 593.466 200.591C593.466 199.418 592.617 198.468 591.569 198.468C590.522 198.468 589.673 199.418 589.673 200.591C589.673 201.764 590.522 202.714 591.569 202.714Z" fill="#C7A8E7"/>
<path d="M558.955 259.869C560.002 259.869 560.851 258.919 560.851 257.746C560.851 256.574 560.002 255.623 558.955 255.623C557.908 255.623 557.059 256.574 557.059 257.746C557.059 258.919 557.908 259.869 558.955 259.869Z" fill="#C7A8E7"/>
<path d="M497.323 146.792C498.37 146.792 499.22 145.842 499.22 144.669C499.22 143.496 498.37 142.546 497.323 142.546C496.276 142.546 495.427 143.496 495.427 144.669C495.427 145.842 496.276 146.792 497.323 146.792Z" fill="#C7A8E7"/>
<path d="M462.232 202.714C463.28 202.714 464.129 201.764 464.129 200.591C464.129 199.418 463.28 198.468 462.232 198.468C461.185 198.468 460.336 199.418 460.336 200.591C460.336 201.764 461.185 202.714 462.232 202.714Z" fill="#C7A8E7"/>
<path d="M497.323 258.348C498.37 258.348 499.22 257.397 499.22 256.225C499.22 255.052 498.37 254.102 497.323 254.102C496.276 254.102 495.427 255.052 495.427 256.225C495.427 257.397 496.276 258.348 497.323 258.348Z" fill="#C7A8E7"/>
<path d="M619.43 20.9434C621.087 23.3776 621.087 23.8601 619.43 26.2943C621.604 24.4392 622.035 24.4392 624.209 26.2943C622.552 23.8601 622.552 23.3776 624.209 20.9434C622.035 22.7985 621.604 22.7985 619.43 20.9434Z" fill="#C7A8E7"/>
<path d="M524.917 -3.34473C526.957 -0.342196 526.957 0.236863 524.917 3.23939C527.599 0.955326 528.116 0.955326 530.798 3.23939C528.758 0.236863 528.758 -0.342196 530.798 -3.34473C528.116 -1.06066 527.599 -1.06066 524.917 -3.34473Z" fill="#C7A8E7"/>
<path d="M622.608 7.96829V-33.6275V-92.8202L569.299 -123.307" stroke="#C7A8E7" stroke-width="0.52229" stroke-miterlimit="10"/>
<path d="M433.105 7.96843V-33.6273V-92.8201L483.359 -121.559" stroke="#C7A8E7" stroke-width="0.52229" stroke-miterlimit="10"/>
</g>
<defs>
<linearGradient id="paint0_linear_2489_40161" x1="-19.5819" y1="-255.513" x2="341.687" y2="213.011" gradientUnits="userSpaceOnUse">
<stop stop-color="#C7A8E7"/>
<stop offset="1" stop-color="#7233B4"/>
</linearGradient>
<clipPath id="clip0_2489_40161">
<rect width="645.069" height="386" fill="white" transform="translate(0 0.341797)"/>
</clipPath>
</defs>
</svg>
