<svg width="646" height="386" viewBox="0 0 646 386" fill="none" xmlns="http://www.w3.org/2000/svg">
<g clip-path="url(#clip0_2489_40255)">
<rect x="-0.0693359" y="-0.341797" width="645" height="386" fill="url(#paint0_linear_2489_40255)"/>
<path d="M559.06 323L473.943 376.038" stroke="#C7A8E7" stroke-width="0.52229" stroke-miterlimit="10"/>
<path d="M596.038 266.38V299.944L568.934 316.833" stroke="#C7A8E7" stroke-width="0.52229" stroke-miterlimit="10"/>
<path d="M621.756 205.525L596.04 222.661V248.054" stroke="#C7A8E7" stroke-width="0.52229" stroke-miterlimit="10"/>
<path d="M659.969 153.604V180.058L636.801 195.5" stroke="#C7A8E7" stroke-width="0.52229" stroke-miterlimit="10"/>
<path d="M467.841 20.7946L426.849 -4.74836V-47.6738" stroke="#C7A8E7" stroke-width="0.52229" stroke-miterlimit="10"/>
<path d="M478.254 27.283L471.827 23.2832" stroke="#C7A8E7" stroke-width="0.52229" stroke-miterlimit="10"/>
<path d="M559.856 78.1327L482.19 29.7383" stroke="#C7A8E7" stroke-width="0.52229" stroke-miterlimit="10"/>
<path d="M596.04 135.052V100.684L571.042 85.1133" stroke="#C7A8E7" stroke-width="0.52229" stroke-miterlimit="10"/>
<path d="M621.191 194.727L596.04 177.967V153.604" stroke="#C7A8E7" stroke-width="0.52229" stroke-miterlimit="10"/>
<path d="M659.97 246.821V220.57L636.39 204.85" stroke="#C7A8E7" stroke-width="0.52229" stroke-miterlimit="10"/>
<path d="M571.387 323L654.53 374.815" stroke="#C7A8E7" stroke-width="0.52229" stroke-miterlimit="10"/>
<path d="M534.408 265.062V299.945L560.431 316.169" stroke="#C7A8E7" stroke-width="0.52229" stroke-miterlimit="10"/>
<path d="M507.676 204.85L534.407 222.661V246.713" stroke="#C7A8E7" stroke-width="0.52229" stroke-miterlimit="10"/>
<path d="M570.582 78.1322L653.984 26.167" stroke="#C7A8E7" stroke-width="0.52229" stroke-miterlimit="10"/>
<path d="M534.408 132.682V100.683L557.921 86.0352" stroke="#C7A8E7" stroke-width="0.52229" stroke-miterlimit="10"/>
<path d="M509.256 194.728L534.407 177.967V153.143" stroke="#C7A8E7" stroke-width="0.52229" stroke-miterlimit="10"/>
<path d="M602.294 140.467C609.64 135.964 616.986 131.471 624.342 126.967C634.561 133.133 644.79 139.288 655.009 145.454" stroke="#C7A8E7" stroke-width="0.52229" stroke-miterlimit="10"/>
<path d="M541.187 149.046C548.992 153.829 556.798 158.611 564.604 163.394V163.555C572.4 158.783 580.196 154.011 587.992 149.228" stroke="#C7A8E7" stroke-width="0.52229" stroke-miterlimit="10"/>
<path d="M603.252 262.166C610.282 266.477 617.312 270.777 624.342 275.088C635.414 268.407 646.495 261.737 657.567 255.057" stroke="#C7A8E7" stroke-width="0.52229" stroke-miterlimit="10"/>
<path d="M541.187 252.998C548.992 248.215 556.798 243.433 564.604 238.65V238.489C572.496 243.325 580.388 248.151 588.28 252.987" stroke="#C7A8E7" stroke-width="0.52229" stroke-miterlimit="10"/>
<path d="M626.831 100.147H676.491" stroke="#C7A8E7" stroke-width="0.52229" stroke-miterlimit="10"/>
<path d="M571.387 9.03125L611.124 88.0729" stroke="#C7A8E7" stroke-width="0.52229" stroke-miterlimit="10"/>
<path d="M518.278 88.0732L557.92 9.20312" stroke="#C7A8E7" stroke-width="0.52229" stroke-miterlimit="10"/>
<path d="M613.308 312.212L564.529 409.237H564.701L519.926 320.179" stroke="#C7A8E7" stroke-width="0.52229" stroke-miterlimit="10"/>
<path d="M671.012 202.545L725.069 304.642H625.72" stroke="#C7A8E7" stroke-width="0.52229" stroke-miterlimit="10"/>
<path d="M654.903 21.2672C631.16 6.68352 604.257 -2.24902 575.639 -3.91113" stroke="#C7A8E7" stroke-width="0.52229" stroke-linecap="round" stroke-linejoin="round"/>
<path d="M606.661 405.901C667.01 390.728 716.229 342.602 738.459 279.291" stroke="#C7A8E7" stroke-width="0.52229" stroke-linecap="round" stroke-linejoin="round"/>
<path d="M575.639 83.8691C586.366 85.0916 596.614 88.0941 606.153 92.6087" stroke="#C7A8E7" stroke-width="0.52229" stroke-linecap="round" stroke-linejoin="round"/>
<path d="M518.087 95.3004C530.614 88.4374 544.531 84.2446 559.232 83.4082" stroke="#C7A8E7" stroke-width="0.52229" stroke-linecap="round" stroke-linejoin="round"/>
<path d="M559.5 321.219C544.97 320.425 531.207 316.372 518.785 309.691" stroke="#C7A8E7" stroke-width="0.52229" stroke-linecap="round" stroke-linejoin="round"/>
<path d="M657.297 261.008C640.393 294.336 609.543 317.638 573.637 320.951" stroke="#C7A8E7" stroke-width="0.52229" stroke-linecap="round" stroke-linejoin="round"/>
<path d="M627.464 106.142C639.551 116.039 649.703 128.714 657.164 143.341" stroke="#C7A8E7" stroke-width="0.52229" stroke-linecap="round" stroke-linejoin="round"/>
<path d="M596.038 146.451C597.085 146.451 597.934 145.5 597.934 144.327C597.934 143.155 597.085 142.204 596.038 142.204C594.991 142.204 594.142 143.155 594.142 144.327C594.142 145.5 594.991 146.451 596.038 146.451Z" fill="#C7A8E7"/>
<path d="M616.487 102.271C617.535 102.271 618.384 101.32 618.384 100.148C618.384 98.975 617.535 98.0244 616.487 98.0244C615.44 98.0244 614.591 98.975 614.591 100.148C614.591 101.32 615.44 102.271 616.487 102.271Z" fill="#C7A8E7"/>
<path d="M566.617 323.343C567.664 323.343 568.513 322.392 568.513 321.22C568.513 320.047 567.664 319.097 566.617 319.097C565.57 319.097 564.721 320.047 564.721 321.22C564.721 322.392 565.57 323.343 566.617 323.343Z" fill="#C7A8E7"/>
<path d="M513.854 310.882C514.902 310.882 515.751 309.932 515.751 308.759C515.751 307.586 514.902 306.636 513.854 306.636C512.807 306.636 511.958 307.586 511.958 308.759C511.958 309.932 512.807 310.882 513.854 310.882Z" fill="#C7A8E7"/>
<path d="M511.957 100.159C513.004 100.159 513.853 99.2079 513.853 98.0353C513.853 96.8627 513.004 95.9121 511.957 95.9121C510.91 95.9121 510.061 96.8627 510.061 98.0353C510.061 99.2079 510.91 100.159 511.957 100.159Z" fill="#C7A8E7"/>
<path d="M564.598 85.5316C565.645 85.5316 566.494 84.581 566.494 83.4084C566.494 82.2357 565.645 81.2852 564.598 81.2852C563.55 81.2852 562.701 82.2357 562.701 83.4084C562.701 84.581 563.55 85.5316 564.598 85.5316Z" fill="#C7A8E7"/>
<path d="M628.652 202.372C629.7 202.372 630.549 201.422 630.549 200.249C630.549 199.077 629.7 198.126 628.652 198.126C627.605 198.126 626.756 199.077 626.756 200.249C626.756 201.422 627.605 202.372 628.652 202.372Z" fill="#C7A8E7"/>
<path d="M596.038 259.528C597.085 259.528 597.934 258.577 597.934 257.404C597.934 256.232 597.085 255.281 596.038 255.281C594.991 255.281 594.142 256.232 594.142 257.404C594.142 258.577 594.991 259.528 596.038 259.528Z" fill="#C7A8E7"/>
<path d="M534.406 146.451C535.453 146.451 536.303 145.5 536.303 144.327C536.303 143.155 535.453 142.204 534.406 142.204C533.359 142.204 532.51 143.155 532.51 144.327C532.51 145.5 533.359 146.451 534.406 146.451Z" fill="#C7A8E7"/>
<path d="M499.315 202.372C500.363 202.372 501.212 201.422 501.212 200.249C501.212 199.077 500.363 198.126 499.315 198.126C498.268 198.126 497.419 199.077 497.419 200.249C497.419 201.422 498.268 202.372 499.315 202.372Z" fill="#C7A8E7"/>
<path d="M534.406 258.006C535.453 258.006 536.303 257.056 536.303 255.883C536.303 254.71 535.453 253.76 534.406 253.76C533.359 253.76 532.51 254.71 532.51 255.883C532.51 257.056 533.359 258.006 534.406 258.006Z" fill="#C7A8E7"/>
<path d="M562 -3.68652C564.04 -0.683992 564.04 -0.104933 562 2.8976C564.682 0.613529 565.199 0.613529 567.881 2.8976C565.841 -0.104933 565.841 -0.683992 567.881 -3.68652C565.199 -1.40246 564.682 -1.40246 562 -3.68652Z" fill="#C7A8E7"/>
<path d="M659.692 7.62649V-33.9693V-93.162L606.383 -123.648" stroke="#C7A8E7" stroke-width="0.52229" stroke-miterlimit="10"/>
<path d="M470.188 7.62663V-33.9691V-93.1619L520.442 -121.9" stroke="#C7A8E7" stroke-width="0.52229" stroke-miterlimit="10"/>
</g>
<defs>
<linearGradient id="paint0_linear_2489_40255" x1="-19.5819" y1="-255.854" x2="341.687" y2="212.67" gradientUnits="userSpaceOnUse">
<stop stop-color="#DFBFFF"/>
<stop offset="1" stop-color="#310163"/>
</linearGradient>
<clipPath id="clip0_2489_40255">
<rect width="645.069" height="386" fill="white"/>
</clipPath>
</defs>
</svg>
