<svg width="67" height="52" viewBox="0 0 67 52" fill="none" xmlns="http://www.w3.org/2000/svg">
<g id="Image 218">
<g clip-path="url(#clip0_1343_64769)">
<g id="Group">
<g id="Group_2">
<g id="Group_3">
<g id="Group_4">
<g id="Group_5">
<path id="Vector" d="M66.4665 22.6466H42.0039V16.3853H66.4665V22.6466Z" fill="#E669A2"/>
</g>
<g id="Group_6">
<path id="Vector_2" d="M63.3116 22.7002H42.0264V7.04004H63.3116V22.7002Z" fill="#F3BE26"/>
</g>
<g id="Group_7">
<path id="Vector_3" d="M54.5821 22.7356H42.0908V0.817383H54.5821V22.7356Z" fill="#EE9C34"/>
</g>
<g id="Group_8">
<path id="Vector_4" d="M57.021 22.724H42.0723V3.25146H57.021V22.724Z" fill="#F3BC87"/>
</g>
<g id="Group_9">
<path id="Vector_5" d="M42.0889 3.25293V22.7197H54.5823V3.25293H42.0889Z" fill="#E3721C"/>
</g>
<g id="Group_10">
<path id="Vector_6" d="M29.7422 22.5913H42.2681V25.7223H29.7422V22.5913Z" fill="#AD1B02"/>
</g>
<g id="Group_11">
<path id="Vector_7" d="M42.0723 7.03467V22.6963H57.0317V7.03467H42.0723Z" fill="#E88D14"/>
</g>
<g id="Group_12">
<path id="Vector_8" d="M42.0889 7.03467V22.6963H54.5823V7.03467H42.0889Z" fill="#D85604"/>
</g>
<g id="Group_13">
<path id="Vector_9" d="M49.9365 22.6641H42.125V13.2646H49.9365V22.6641Z" fill="#C14303"/>
</g>
<g id="Group_14">
<path id="Vector_10" d="M42.0264 16.3882V22.6431H63.3222V16.3882H42.0264Z" fill="#DB4E18"/>
</g>
<g id="Group_15">
<path id="Vector_11" d="M42.0723 16.3882V22.6431H57.0317V16.3882H42.0723Z" fill="#D1390D"/>
</g>
<g id="Group_16">
<path id="Vector_12" d="M42.0889 16.3882V22.6431H54.5823V16.3882H42.0889Z" fill="#C22303"/>
</g>
<g id="Group_17">
<path id="Vector_13" d="M42.1191 16.3882V22.6431H49.9418V16.3882H42.1191Z" fill="#AD1B02"/>
</g>
<g id="Group_18">
<path id="Vector_14" d="M45.1563 34.1661C43.0251 34.545 41.8884 36.1553 41.8884 38.9496C41.8884 41.7914 43.4039 43.6858 45.63 43.6858C46.7193 43.6858 47.6665 43.3069 49.6556 42.3123V44.6331C47.2402 45.7697 45.8193 46.0539 43.9249 46.0539C41.7937 46.0539 40.278 45.533 39.094 44.2542C37.8625 43.0227 37.1995 41.4125 37.1995 39.5653C37.1995 35.5396 40.2306 32.7453 44.6353 32.7453C47.5244 32.7453 49.5609 34.1188 49.5609 36.0606C49.5609 37.3394 48.6136 38.2393 47.2401 38.2393C46.5297 38.2393 45.9613 38.0025 45.1562 37.5762M34.4999 39.5653C36.4417 37.1499 37.1522 36.1553 37.1522 34.9712C37.1522 33.7871 36.2049 32.7451 34.8788 32.7451C34.121 32.7451 33.4107 33.1714 33.0791 33.5503V38.5233L29.9058 42.7858V33.1242H26.8747L21.8543 41.4125V33.1242H20.1492L15.5551 34.1662V35.3502L18.0652 35.5869V45.8645H21.2385L26.0694 37.9077V45.8645H29.6215M5.94073 44.2542H6.65113C9.20859 44.2542 10.6295 42.6912 10.6295 39.5653C10.6295 36.9605 9.49287 35.5396 7.36146 35.5396C7.07732 35.5396 6.65106 35.5869 5.94066 35.729V44.2541L5.94073 44.2542ZM5.94073 49.8428L8.02459 50.3165V51.5005H-0.168944V50.3165L1.72546 49.8428V35.5395H-0.358398V34.3555L4.61455 32.8399H5.94079V34.545C8.26145 33.1242 9.06662 32.8874 10.298 32.8874C13.045 32.8874 15.1289 35.4449 15.1289 38.9971C15.1289 43.0702 12.3345 45.8645 8.07193 45.8645C7.59833 45.8645 6.79317 45.8172 5.94073 45.7698" fill="white"/>
</g>
</g>
</g>
</g>
</g>
</g>
</g>
<defs>
<clipPath id="clip0_1343_64769">
<rect y="0.950195" width="66.293" height="50.4404" fill="white"/>
</clipPath>
</defs>
</svg>
