<svg width="660" height="501" viewBox="0 0 660 501" fill="none" xmlns="http://www.w3.org/2000/svg">
<g clip-path="url(#clip0_1849_78609)">
<rect x="241.359" y="30.4717" width="217.994" height="134.507" rx="4.63818" fill="#150C1D"/>
<rect x="241.359" y="30.4717" width="104.359" height="134.507" fill="#A862EA"/>
<path d="M358.46 103.225V94.6818H355.273V93.2764H363.288V94.6818H360.116V103.225H358.46ZM366.961 97.9795C366.961 97.4647 366.655 97.0751 365.681 97.0751C364.512 97.0751 364.081 97.4368 364.011 98.3552H362.592C362.662 96.9916 363.538 95.9201 365.681 95.9201C367.253 95.9201 368.422 96.5185 368.422 98.4108V101.792C368.422 102.293 368.534 102.557 369.104 102.502V103.197C368.77 103.323 368.534 103.351 368.255 103.351C367.476 103.351 367.114 103.072 366.975 102.376H366.947C366.502 103.003 365.695 103.434 364.596 103.434C363.149 103.434 362.258 102.599 362.258 101.402C362.258 99.844 363.413 99.357 365.194 99.0092C366.293 98.8005 366.961 98.6613 366.961 97.9795ZM364.916 102.279C366.126 102.279 366.961 101.681 366.961 100.526V99.4544C366.725 99.6214 366.154 99.7884 365.472 99.9275C364.262 100.192 363.733 100.54 363.733 101.263C363.733 101.917 364.123 102.279 364.916 102.279ZM369.959 93.2764H371.42V98.9674L374.314 96.1149H376.109L373.409 98.7587L376.401 103.225H374.648L372.408 99.7188L371.42 100.651V103.225H369.959V93.2764ZM379.762 102.237C380.972 102.237 381.459 101.486 381.584 101.055H383.046C382.684 102.404 381.626 103.434 379.803 103.434C377.591 103.434 376.241 101.903 376.241 99.6771C376.241 97.3673 377.591 95.9201 379.734 95.9201C382.03 95.9201 383.157 97.5203 383.157 100.053H377.702C377.702 101.249 378.468 102.237 379.762 102.237ZM379.734 97.0751C378.551 97.0751 377.702 97.8682 377.702 98.9674H381.696C381.696 97.8682 380.917 97.0751 379.734 97.0751ZM388.458 97.9795C388.458 97.4647 388.152 97.0751 387.178 97.0751C386.009 97.0751 385.578 97.4368 385.508 98.3552H384.089C384.159 96.9916 385.035 95.9201 387.178 95.9201C388.75 95.9201 389.919 96.5185 389.919 98.4108V101.792C389.919 102.293 390.03 102.557 390.601 102.502V103.197C390.267 103.323 390.03 103.351 389.752 103.351C388.973 103.351 388.611 103.072 388.472 102.376H388.444C387.999 103.003 387.192 103.434 386.093 103.434C384.646 103.434 383.755 102.599 383.755 101.402C383.755 99.844 384.91 99.357 386.691 99.0092C387.79 98.8005 388.458 98.6613 388.458 97.9795ZM386.413 102.279C387.623 102.279 388.458 101.681 388.458 100.526V99.4544C388.222 99.6214 387.651 99.7884 386.969 99.9275C385.759 100.192 385.23 100.54 385.23 101.263C385.23 101.917 385.62 102.279 386.413 102.279ZM390.652 96.1149H392.196L393.643 101.514H393.671L395.118 96.1149H396.552L398.013 101.514H398.04L399.474 96.1149H401.018L398.847 103.225H397.372L395.842 97.7986H395.814L394.297 103.225H392.836L390.652 96.1149ZM405.824 97.9795C405.824 97.4647 405.518 97.0751 404.544 97.0751C403.375 97.0751 402.944 97.4368 402.874 98.3552H401.455C401.525 96.9916 402.401 95.9201 404.544 95.9201C406.116 95.9201 407.285 96.5185 407.285 98.4108V101.792C407.285 102.293 407.396 102.557 407.967 102.502V103.197C407.633 103.323 407.396 103.351 407.118 103.351C406.339 103.351 405.977 103.072 405.838 102.376H405.81C405.365 103.003 404.558 103.434 403.459 103.434C402.012 103.434 401.121 102.599 401.121 101.402C401.121 99.844 402.276 99.357 404.057 99.0092C405.156 98.8005 405.824 98.6613 405.824 97.9795ZM403.779 102.279C404.989 102.279 405.824 101.681 405.824 100.526V99.4544C405.588 99.6214 405.017 99.7884 404.335 99.9275C403.125 100.192 402.596 100.54 402.596 101.263C402.596 101.917 402.986 102.279 403.779 102.279ZM414.92 96.1149L412.082 103.671C411.678 104.77 411.219 105.646 409.855 105.646C409.438 105.646 409.09 105.577 408.812 105.507V104.394H408.937C409.549 104.478 410.008 104.436 410.329 104.046C410.593 103.726 410.788 103.17 410.523 102.502L407.949 96.1149H409.521L411.511 101.556H411.539L413.362 96.1149H414.92ZM418.636 98.9257C419.944 99.2318 421.364 99.524 421.364 101.222C421.364 102.585 420.195 103.434 418.47 103.434C416.174 103.434 415.186 102.363 415.116 100.86H416.535C416.605 101.625 416.939 102.279 418.442 102.279C419.457 102.279 419.889 101.778 419.889 101.333C419.889 100.442 419.04 100.373 417.996 100.122C416.869 99.858 415.339 99.6353 415.339 98.0212C415.339 96.8524 416.368 95.9201 418.149 95.9201C420.084 95.9201 421.002 96.9637 421.099 98.2021H419.68C419.583 97.6455 419.304 97.0751 418.163 97.0751C417.287 97.0751 416.814 97.409 416.814 97.9099C416.814 98.6335 417.607 98.6891 418.636 98.9257Z" fill="#F5F5F6"/>
</g>
<rect x="241.939" y="31.0515" width="216.835" height="133.348" rx="4.0584" stroke="#333741" stroke-width="1.15954"/>
<rect x="241.939" y="181.792" width="216.835" height="133.348" rx="4.0584" fill="#150C1D"/>
<rect x="241.939" y="181.792" width="216.835" height="133.348" rx="4.0584" stroke="#333741" stroke-width="1.15954"/>
<path d="M341.66 226.631H359.053C359.309 226.631 359.555 226.733 359.736 226.914C359.917 227.095 360.019 227.341 360.019 227.598V243.058C360.019 243.314 359.917 243.56 359.736 243.741C359.555 243.923 359.309 244.024 359.053 244.024H341.66C341.403 244.024 341.158 243.923 340.976 243.741C340.795 243.56 340.693 243.314 340.693 243.058V227.598C340.693 227.341 340.795 227.095 340.976 226.914C341.158 226.733 341.403 226.631 341.66 226.631V226.631ZM345.525 236.294V240.159H347.457V236.294H345.525ZM349.39 230.496V240.159H351.323V230.496H349.39ZM353.255 233.395V240.159H355.188V233.395H353.255Z" fill="#CECFD2"/>
<path d="M331.494 267.848H327.431L326.624 270.2H324.94L328.599 260.251H330.339L333.984 270.2H332.301L331.494 267.848ZM327.89 266.471H331.048L329.49 261.767H329.462L327.89 266.471ZM338.605 262.895C339.927 262.895 340.971 263.66 340.971 265.288V270.2H339.496V265.705C339.496 264.745 339.092 264.133 338.09 264.133C336.963 264.133 336.24 264.815 336.24 265.872V270.2H334.779V263.089H336.24V264.008H336.268C336.643 263.451 337.381 262.895 338.605 262.895ZM346.606 264.954C346.606 264.439 346.3 264.049 345.326 264.049C344.157 264.049 343.726 264.411 343.656 265.33H342.237C342.307 263.966 343.183 262.895 345.326 262.895C346.898 262.895 348.067 263.493 348.067 265.385V268.766C348.067 269.267 348.179 269.532 348.749 269.476V270.172C348.415 270.297 348.179 270.325 347.9 270.325C347.121 270.325 346.759 270.047 346.62 269.351H346.592C346.147 269.977 345.34 270.408 344.241 270.408C342.794 270.408 341.903 269.573 341.903 268.377C341.903 266.818 343.058 266.331 344.839 265.984C345.938 265.775 346.606 265.636 346.606 264.954ZM344.561 269.253C345.771 269.253 346.606 268.655 346.606 267.5V266.429C346.37 266.596 345.799 266.763 345.117 266.902C343.907 267.166 343.378 267.514 343.378 268.238C343.378 268.892 343.768 269.253 344.561 269.253ZM349.631 260.251H351.106V270.2H349.631V260.251ZM358.801 263.089L355.962 270.645C355.559 271.744 355.099 272.621 353.736 272.621C353.318 272.621 352.97 272.551 352.692 272.482V271.368H352.817C353.43 271.452 353.889 271.41 354.209 271.021C354.473 270.701 354.668 270.144 354.404 269.476L351.829 263.089H353.402L355.392 268.53H355.419L357.242 263.089H358.801ZM362.517 265.9C363.825 266.206 365.244 266.498 365.244 268.196C365.244 269.56 364.075 270.408 362.35 270.408C360.054 270.408 359.066 269.337 358.996 267.834H360.416C360.485 268.599 360.819 269.253 362.322 269.253C363.338 269.253 363.769 268.753 363.769 268.307C363.769 267.417 362.92 267.347 361.877 267.097C360.75 266.832 359.219 266.61 359.219 264.996C359.219 263.827 360.249 262.895 362.03 262.895C363.964 262.895 364.882 263.938 364.98 265.176H363.56C363.463 264.62 363.185 264.049 362.044 264.049C361.167 264.049 360.694 264.383 360.694 264.884C360.694 265.608 361.487 265.664 362.517 265.9ZM367.043 261.893C366.64 261.893 366.222 261.614 366.222 261.113C366.222 260.613 366.64 260.348 367.043 260.348C367.475 260.348 367.878 260.613 367.878 261.113C367.878 261.614 367.475 261.893 367.043 261.893ZM366.32 263.089H367.781V270.2H366.32V263.089ZM372.341 265.9C373.649 266.206 375.068 266.498 375.068 268.196C375.068 269.56 373.9 270.408 372.174 270.408C369.878 270.408 368.89 269.337 368.821 267.834H370.24C370.31 268.599 370.644 269.253 372.146 269.253C373.162 269.253 373.594 268.753 373.594 268.307C373.594 267.417 372.745 267.347 371.701 267.097C370.574 266.832 369.043 266.61 369.043 264.996C369.043 263.827 370.073 262.895 371.854 262.895C373.788 262.895 374.707 263.938 374.804 265.176H373.385C373.287 264.62 373.009 264.049 371.868 264.049C370.991 264.049 370.518 264.383 370.518 264.884C370.518 265.608 371.312 265.664 372.341 265.9Z" fill="#F5F5F6"/>
<rect x="241.939" y="330.214" width="216.835" height="133.348" rx="4.0584" fill="#150C1D"/>
<rect x="241.939" y="330.214" width="216.835" height="133.348" rx="4.0584" stroke="#333741" stroke-width="1.15954"/>
<g clip-path="url(#clip1_1849_78609)">
<path d="M349.39 374.135V384.716H359.971C359.487 389.598 355.366 393.412 350.356 393.412C345.019 393.412 340.693 389.086 340.693 383.749C340.693 378.739 344.507 374.619 349.39 374.135V374.135ZM351.323 372.679C356.688 373.14 360.965 377.417 361.427 382.783H351.323V372.679V372.679Z" fill="#CECFD2"/>
</g>
<path d="M331.494 416.27H327.431L326.624 418.621H324.94L328.599 408.672H330.339L333.984 418.621H332.301L331.494 416.27ZM327.89 414.892H331.048L329.49 410.189H329.462L327.89 414.892ZM338.605 411.316C339.927 411.316 340.971 412.081 340.971 413.709V418.621H339.496V414.127C339.496 413.167 339.092 412.555 338.09 412.555C336.963 412.555 336.24 413.236 336.24 414.294V418.621H334.779V411.511H336.24V412.429H336.268C336.643 411.873 337.381 411.316 338.605 411.316ZM346.606 413.375C346.606 412.861 346.3 412.471 345.326 412.471C344.157 412.471 343.726 412.833 343.656 413.751H342.237C342.307 412.388 343.183 411.316 345.326 411.316C346.898 411.316 348.067 411.914 348.067 413.807V417.188C348.067 417.689 348.179 417.953 348.749 417.898V418.593C348.415 418.719 348.179 418.747 347.9 418.747C347.121 418.747 346.759 418.468 346.62 417.772H346.592C346.147 418.399 345.34 418.83 344.241 418.83C342.794 418.83 341.903 417.995 341.903 416.798C341.903 415.24 343.058 414.753 344.839 414.405C345.938 414.196 346.606 414.057 346.606 413.375ZM344.561 417.675C345.771 417.675 346.606 417.077 346.606 415.922V414.85C346.37 415.017 345.799 415.184 345.117 415.324C343.907 415.588 343.378 415.936 343.378 416.659C343.378 417.313 343.768 417.675 344.561 417.675ZM349.631 408.672H351.106V418.621H349.631V408.672ZM358.801 411.511L355.962 419.067C355.559 420.166 355.099 421.042 353.736 421.042C353.318 421.042 352.97 420.973 352.692 420.903V419.79H352.817C353.43 419.874 353.889 419.832 354.209 419.442C354.473 419.122 354.668 418.566 354.404 417.898L351.829 411.511H353.402L355.392 416.952H355.419L357.242 411.511H358.801ZM362.517 414.322C363.825 414.628 365.244 414.92 365.244 416.618C365.244 417.981 364.075 418.83 362.35 418.83C360.054 418.83 359.066 417.759 358.996 416.256H360.416C360.485 417.021 360.819 417.675 362.322 417.675C363.338 417.675 363.769 417.174 363.769 416.729C363.769 415.838 362.92 415.769 361.877 415.518C360.75 415.254 359.219 415.031 359.219 413.417C359.219 412.248 360.249 411.316 362.03 411.316C363.964 411.316 364.882 412.36 364.98 413.598H363.56C363.463 413.042 363.185 412.471 362.044 412.471C361.167 412.471 360.694 412.805 360.694 413.306C360.694 414.029 361.487 414.085 362.517 414.322ZM367.043 410.314C366.64 410.314 366.222 410.036 366.222 409.535C366.222 409.034 366.64 408.77 367.043 408.77C367.475 408.77 367.878 409.034 367.878 409.535C367.878 410.036 367.475 410.314 367.043 410.314ZM366.32 411.511H367.781V418.621H366.32V411.511ZM372.341 414.322C373.649 414.628 375.068 414.92 375.068 416.618C375.068 417.981 373.9 418.83 372.174 418.83C369.878 418.83 368.89 417.759 368.821 416.256H370.24C370.31 417.021 370.644 417.675 372.146 417.675C373.162 417.675 373.594 417.174 373.594 416.729C373.594 415.838 372.745 415.769 371.701 415.518C370.574 415.254 369.043 415.031 369.043 413.417C369.043 412.248 370.073 411.316 371.854 411.316C373.788 411.316 374.707 412.36 374.804 413.598H373.385C373.287 413.042 373.009 412.471 371.868 412.471C370.991 412.471 370.518 412.805 370.518 413.306C370.518 414.029 371.312 414.085 372.341 414.322Z" fill="#F5F5F6"/>
<g clip-path="url(#clip2_1849_78609)">
<rect x="262.23" y="112.799" width="217.994" height="134.507" rx="4.63818" fill="#150C1D"/>
<path d="M283.097 177.053V168.509H279.91V167.104H287.925V168.509H284.752V177.053H283.097ZM290.526 177.262C288.3 177.262 286.95 175.717 286.95 173.505C286.95 171.292 288.3 169.748 290.526 169.748C292.752 169.748 294.102 171.292 294.102 173.505C294.102 175.717 292.752 177.262 290.526 177.262ZM290.526 176.065C291.917 176.065 292.641 174.966 292.641 173.505C292.641 172.03 291.917 170.944 290.526 170.944C289.134 170.944 288.411 172.03 288.411 173.505C288.411 174.966 289.134 176.065 290.526 176.065ZM298.799 169.748C300.608 169.748 301.958 171.167 301.958 173.505C301.958 175.842 300.608 177.262 298.799 177.262C297.686 177.262 296.99 176.733 296.615 176.204H296.587V179.474H295.112V169.943H296.587V170.777H296.615C296.99 170.277 297.686 169.748 298.799 169.748ZM298.521 176.065C299.801 176.065 300.483 174.896 300.483 173.505C300.483 172.113 299.801 170.944 298.521 170.944C297.338 170.944 296.601 171.918 296.601 173.505C296.601 175.077 297.338 176.065 298.521 176.065ZM308.016 167.104H309.477V177.053H308.016V176.232H307.988C307.612 176.719 306.916 177.262 305.817 177.262C303.994 177.262 302.645 175.842 302.645 173.505C302.645 171.167 303.994 169.748 305.817 169.748C306.916 169.748 307.612 170.263 307.988 170.805H308.016V167.104ZM306.067 176.065C307.264 176.065 308.002 175.077 308.002 173.505C308.002 171.918 307.264 170.944 306.067 170.944C304.787 170.944 304.106 172.113 304.106 173.505C304.106 174.896 304.787 176.065 306.067 176.065ZM314.075 177.262C311.848 177.262 310.499 175.717 310.499 173.505C310.499 171.292 311.848 169.748 314.075 169.748C316.301 169.748 317.651 171.292 317.651 173.505C317.651 175.717 316.301 177.262 314.075 177.262ZM314.075 176.065C315.466 176.065 316.19 174.966 316.19 173.505C316.19 172.03 315.466 170.944 314.075 170.944C312.683 170.944 311.96 172.03 311.96 173.505C311.96 174.966 312.683 176.065 314.075 176.065ZM317.816 169.943H319.36L320.808 175.341H320.835L322.282 169.943H323.716L325.177 175.341H325.205L326.638 169.943H328.182L326.012 177.053H324.537L323.006 171.626H322.978L321.462 177.053H320L317.816 169.943ZM332.746 169.748C334.068 169.748 335.112 170.513 335.112 172.141V177.053H333.637V172.559C333.637 171.598 333.233 170.986 332.231 170.986C331.104 170.986 330.381 171.668 330.381 172.725V177.053H328.92V169.943H330.381V170.861H330.409C330.784 170.304 331.522 169.748 332.746 169.748ZM288.175 186.748C289.609 186.748 290.346 187.61 290.346 189.141V194.053H288.871V189.559C288.871 188.598 288.676 187.986 287.674 187.986C286.687 187.986 286.074 188.668 286.074 189.725V194.053H284.599V189.559C284.599 188.598 284.405 187.986 283.389 187.986C282.415 187.986 281.789 188.668 281.789 189.725V194.053H280.328V186.943H281.789V187.861H281.816C282.192 187.304 282.86 186.748 283.931 186.748C284.933 186.748 285.532 187.207 285.824 187.972H285.852C286.38 187.29 287.076 186.748 288.175 186.748ZM294.846 193.065C296.056 193.065 296.543 192.314 296.669 191.882H298.13C297.768 193.232 296.71 194.262 294.887 194.262C292.675 194.262 291.325 192.731 291.325 190.505C291.325 188.195 292.675 186.748 294.818 186.748C297.114 186.748 298.241 188.348 298.241 190.88H292.786C292.786 192.077 293.552 193.065 294.846 193.065ZM294.818 187.903C293.635 187.903 292.786 188.696 292.786 189.795H296.78C296.78 188.696 296.001 187.903 294.818 187.903ZM302.318 189.753C303.626 190.059 305.045 190.352 305.045 192.049C305.045 193.413 303.876 194.262 302.151 194.262C299.855 194.262 298.867 193.19 298.797 191.687H300.217C300.286 192.453 300.62 193.107 302.123 193.107C303.139 193.107 303.57 192.606 303.57 192.161C303.57 191.27 302.721 191.2 301.678 190.95C300.551 190.686 299.02 190.463 299.02 188.849C299.02 187.68 300.05 186.748 301.831 186.748C303.765 186.748 304.683 187.791 304.781 189.03H303.361C303.264 188.473 302.986 187.903 301.845 187.903C300.968 187.903 300.495 188.237 300.495 188.738C300.495 189.461 301.288 189.517 302.318 189.753ZM309.126 189.753C310.433 190.059 311.853 190.352 311.853 192.049C311.853 193.413 310.684 194.262 308.959 194.262C306.663 194.262 305.675 193.19 305.605 191.687H307.024C307.094 192.453 307.428 193.107 308.931 193.107C309.946 193.107 310.378 192.606 310.378 192.161C310.378 191.27 309.529 191.2 308.485 190.95C307.358 190.686 305.828 190.463 305.828 188.849C305.828 187.68 306.857 186.748 308.639 186.748C310.573 186.748 311.491 187.791 311.588 189.03H310.169C310.072 188.473 309.793 187.903 308.652 187.903C307.776 187.903 307.303 188.237 307.303 188.738C307.303 189.461 308.096 189.517 309.126 189.753ZM317.199 188.807C317.199 188.292 316.892 187.903 315.918 187.903C314.75 187.903 314.318 188.264 314.249 189.183H312.829C312.899 187.819 313.776 186.748 315.918 186.748C317.491 186.748 318.66 187.346 318.66 189.238V192.62C318.66 193.121 318.771 193.385 319.341 193.329V194.025C319.007 194.15 318.771 194.178 318.493 194.178C317.713 194.178 317.352 193.9 317.212 193.204H317.185C316.739 193.83 315.932 194.262 314.833 194.262C313.386 194.262 312.495 193.427 312.495 192.23C312.495 190.672 313.65 190.185 315.431 189.837C316.531 189.628 317.199 189.489 317.199 188.807ZM315.153 193.107C316.364 193.107 317.199 192.508 317.199 191.353V190.282C316.962 190.449 316.392 190.616 315.71 190.755C314.499 191.02 313.97 191.367 313.97 192.091C313.97 192.745 314.36 193.107 315.153 193.107ZM325.122 186.943H326.583V193.566C326.583 195.611 325.344 196.516 323.327 196.516C321.281 196.516 320.154 195.444 320.001 194.248H321.476C321.615 194.874 322.116 195.347 323.271 195.347C324.496 195.347 325.122 194.79 325.122 193.51V192.648H325.094C324.718 193.176 324.064 193.705 322.937 193.705C321.156 193.705 319.82 192.467 319.82 190.226C319.82 187.972 321.156 186.748 322.937 186.748C324.064 186.748 324.718 187.277 325.094 187.777H325.122V186.943ZM323.215 192.508C324.398 192.508 325.108 191.729 325.108 190.226C325.108 188.724 324.398 187.944 323.215 187.944C321.935 187.944 321.281 188.905 321.281 190.226C321.281 191.534 321.935 192.508 323.215 192.508ZM331.113 193.065C332.324 193.065 332.811 192.314 332.936 191.882H334.397C334.035 193.232 332.978 194.262 331.155 194.262C328.943 194.262 327.593 192.731 327.593 190.505C327.593 188.195 328.943 186.748 331.085 186.748C333.381 186.748 334.508 188.348 334.508 190.88H329.054C329.054 192.077 329.819 193.065 331.113 193.065ZM331.085 187.903C329.903 187.903 329.054 188.696 329.054 189.795H333.047C333.047 188.696 332.268 187.903 331.085 187.903Z" fill="#F5F5F6"/>
<rect x="368.908" y="112.799" width="111.316" height="134.507" fill="#A862EA"/>
</g>
<rect x="262.81" y="113.379" width="216.835" height="133.348" rx="4.0584" stroke="#A862EA" stroke-width="1.15954"/>
<rect x="193.817" y="42.0672" width="10.4359" height="416.276" rx="5.21795" fill="#281F2F"/>
<rect x="196.137" y="222.956" width="5.79772" height="54.4986" rx="2.89886" fill="#9241DC"/>
<path d="M223.256 74.2813H224.55V83.8962H222.936V76.925C222.366 77.4816 221.726 77.4816 220.919 77.4816V76.3267C222.658 76.3267 223.159 75.464 223.256 74.2813Z" fill="#F5F5F6"/>
<path d="M222.672 250.462H221.113C221.113 248.389 222.227 246.845 224.689 246.845C226.471 246.845 227.876 247.902 227.876 249.739C227.876 252.8 223.771 253.315 222.978 255.277V255.305H227.779V256.668H220.877C220.877 254.971 221.893 253.732 223.368 252.8C225.135 251.631 226.262 251.172 226.262 249.808C226.262 249.015 225.886 248.222 224.648 248.222C223.215 248.222 222.672 249.141 222.672 250.462Z" fill="#F5F5F6"/>
<path d="M222.547 399.543H220.974C220.974 397.748 222.199 396.426 224.606 396.426C226.304 396.426 227.806 397.386 227.806 399.083C227.806 400.113 227.278 400.753 226.359 401.143V401.171C227.667 401.546 228.126 402.409 228.126 403.55C228.126 405.442 226.721 406.458 224.634 406.458C222.101 406.458 220.724 405.164 220.724 402.952H222.282C222.282 404.246 222.881 405.081 224.523 405.081C225.97 405.081 226.526 404.524 226.526 403.508C226.526 402.186 225.566 401.894 224.578 401.894H223.715V400.614H224.523C225.524 400.614 226.192 400.197 226.192 399.209C226.192 398.416 225.691 397.803 224.55 397.803C223.034 397.803 222.547 398.596 222.547 399.543Z" fill="#F5F5F6"/>
<rect y="306.705" width="640" height="195" fill="url(#paint0_linear_1849_78609)"/>
<rect x="20" y="0.705322" width="640" height="171" fill="url(#paint1_linear_1849_78609)"/>
<defs>
<linearGradient id="paint0_linear_1849_78609" x1="320" y1="306.705" x2="320" y2="501.705" gradientUnits="userSpaceOnUse">
<stop stop-color="#11061A" stop-opacity="0"/>
<stop offset="1" stop-color="#11061A"/>
</linearGradient>
<linearGradient id="paint1_linear_1849_78609" x1="340" y1="0.705322" x2="340" y2="171.705" gradientUnits="userSpaceOnUse">
<stop stop-color="#11061A"/>
<stop offset="1" stop-color="#11061A" stop-opacity="0"/>
</linearGradient>
<clipPath id="clip0_1849_78609">
<rect x="241.359" y="30.4717" width="217.994" height="134.507" rx="4.63818" fill="white"/>
</clipPath>
<clipPath id="clip1_1849_78609">
<rect width="23.1909" height="23.1909" fill="white" transform="translate(338.761 372.154)"/>
</clipPath>
<clipPath id="clip2_1849_78609">
<rect x="262.23" y="112.799" width="217.994" height="134.507" rx="4.63818" fill="white"/>
</clipPath>
</defs>
</svg>
