<svg width="86" height="13" viewBox="0 0 86 13" fill="none" xmlns="http://www.w3.org/2000/svg">
<g id="Group">
<g id="Group_2">
<path id="Vector" d="M9.27562 1.16299V3.34623H9.12087C8.67187 2.09223 7.69613 1.47249 6.20964 1.47249C4.04166 1.47249 3.0354 3.02147 3.0354 6.42747C3.0354 9.83347 4.04166 11.3824 6.20964 11.3824C7.80511 11.3824 8.82662 10.7634 9.27562 9.50871H9.43038L9.27562 11.6919C8.23813 12.0015 7.21589 12.1569 6.20964 12.1569C4.59964 12.1569 3.29841 11.6614 2.29216 10.6857C1.30116 9.71069 0.805664 8.28595 0.805664 6.42747C0.805664 4.56899 1.30116 3.14498 2.29216 2.16924C3.29841 1.19423 4.59964 0.69873 6.20964 0.69873C7.21589 0.69873 8.23813 0.853483 9.27562 1.16299Z" fill="white"/>
<path id="Vector_2" d="M13.6416 11.398C14.7721 11.398 15.3294 10.5465 15.3294 8.23897C15.3294 5.93149 14.7721 4.86348 13.6416 4.86348C12.5112 4.86348 11.9539 5.71498 11.9539 8.02246C11.9539 10.3299 12.5112 11.398 13.6416 11.398ZM17.3579 8.13072C17.3579 10.6547 16.1191 12.1565 13.6416 12.1565C11.1642 12.1565 9.91016 10.67 9.91016 8.13072C9.91016 5.59147 11.1489 4.10498 13.6416 4.10498C16.1344 4.10498 17.3579 5.60673 17.3579 8.13072Z" fill="white"/>
<path id="Vector_3" d="M20.5785 5.68447L21.8173 4.44573C22.251 4.21323 22.6847 4.10498 23.1337 4.10498C24.496 4.10498 25.3017 4.84823 25.3017 6.28822V10.6859C25.3017 10.8872 25.317 11.0267 25.333 11.1197C25.3795 11.305 25.612 11.5999 26.1539 11.8477V12.0024H22.6855V11.8477C23.367 11.3987 23.367 11.2127 23.367 10.6859V6.69072C23.367 6.00923 23.011 5.66849 22.283 5.66849C21.6792 5.66849 21.0907 5.85448 20.5487 6.24172V10.6859C20.5487 10.8872 20.564 11.0267 20.58 11.1197C20.6265 11.305 20.8582 11.5999 21.4009 11.8477V12.0024H17.793V11.8477C18.6292 11.3987 18.6292 11.2127 18.6292 10.6859V5.76148C18.6292 5.45198 18.6292 5.31248 18.521 5.04875C18.4432 4.7545 18.1802 4.55325 17.793 4.41376V4.25901H20.5494V5.68374H20.5807L20.5785 5.68447Z" fill="white"/>
<path id="Vector_4" d="M28.893 8.93596C27.8403 8.45572 26.5085 7.85197 26.5085 6.30372C26.5085 5.74646 26.741 5.23498 27.19 4.78598C27.639 4.33698 28.3823 4.10449 29.4045 4.10449C30.3185 4.10449 31.1235 4.21275 31.805 4.414L31.2477 5.83873L31.17 5.85399C30.4732 5.25024 30.009 4.97125 29.3428 4.97125C28.6765 4.97125 28.3212 5.312 28.3212 5.82275C28.3212 6.39526 28.8938 6.81375 29.6065 7.09201C30.6287 7.51049 31.9917 8.1295 31.9757 9.81725C31.9757 10.7152 31.263 12.1552 28.925 12.1552C28.0735 12.1552 27.3143 12.047 26.6335 11.8457L26.417 10.3592L26.4787 10.328C27.3927 10.963 28.1817 11.2878 28.8632 11.2878C29.6842 11.2878 30.195 10.9005 30.195 10.235C30.195 9.67702 29.6217 9.25927 28.8938 8.93378" fill="white"/>
<path id="Vector_5" d="M37.7659 10.578H37.7346L36.4959 11.8167C36.0621 12.0492 35.6284 12.1575 35.2106 12.1575C33.8484 12.1575 33.0274 11.4142 33.0274 9.97422V5.76249C33.0274 5.45299 33.0274 5.31349 32.9184 5.05049C32.8414 4.75624 32.5777 4.55499 32.1904 4.41549V4.26074H34.9469V9.57245C34.9469 10.2539 35.3189 10.5947 36.0462 10.5947C36.6652 10.5947 37.2384 10.4087 37.7651 10.0222V5.67095C37.7651 5.50094 37.7499 5.34619 37.7339 5.23721C37.7186 5.00472 37.4397 4.6182 36.9289 4.41622V4.26147H39.7006V10.6877C39.7006 10.8889 39.7159 11.0284 39.7319 11.1214C39.7784 11.3074 40.0101 11.6017 40.5529 11.8494V12.0042H37.8429L37.7651 10.5794L37.7659 10.578Z" fill="white"/>
<path id="Vector_6" d="M43.4172 0.853516V10.6865C43.4172 11.2132 43.4172 11.3985 44.2535 11.8482V12.0029H40.6455V11.8482C41.4818 11.3992 41.4818 11.2132 41.4818 10.6865V2.35527C41.4818 2.04576 41.4818 1.90627 41.3735 1.64326C41.2965 1.34901 41.0328 1.14776 40.6455 1.00827V0.853516H43.4172Z" fill="white"/>
<path id="Vector_7" d="M44.5316 4.89524L45.3366 4.26025L46.7301 2.54199H47.3804V4.26025H49.1299V5.70024H47.3804V9.80372C47.3804 10.3305 47.6593 10.5935 48.2319 10.5935C48.5566 10.5935 48.8669 10.5317 49.1611 10.4075V11.8787C48.6809 12.0647 48.1548 12.1577 47.5816 12.1577C46.7919 12.1577 46.2186 12.0029 45.8626 11.6934C45.5066 11.3839 45.3206 10.8572 45.3206 10.0987V5.70097H44.5156L44.5309 4.89597L44.5316 4.89524Z" fill="white"/>
<path id="Vector_8" d="M52.4127 12.0183H50.3683V4.27556H52.4127V12.0183ZM50.2607 2.16933C50.2607 1.87508 50.369 1.62733 50.5702 1.42608C50.7715 1.22483 51.0345 1.13184 51.36 1.13184C51.6855 1.13184 51.9637 1.22483 52.181 1.42608C52.3975 1.62733 52.5057 1.87508 52.5057 2.16933C52.5057 2.46358 52.3975 2.69534 52.1962 2.88206C51.995 3.06733 51.716 3.16032 51.3752 3.16032C51.0345 3.16032 50.7868 3.06733 50.5855 2.88206C50.3843 2.69607 50.276 2.44832 50.276 2.15407L50.2607 2.16933Z" fill="white"/>
<path id="Vector_9" d="M53.4349 4.89524L54.2399 4.26025L55.6334 2.54199H56.2837V4.26025H58.0332V5.70024H56.2837V9.80372C56.2837 10.3305 56.5627 10.5935 57.1352 10.5935C57.4599 10.5935 57.7702 10.5317 58.0644 10.4075V11.8787C57.5842 12.0647 57.0582 12.1577 56.4849 12.1577C55.6952 12.1577 55.1219 12.0029 54.7659 11.6934C54.4099 11.3839 54.2239 10.8572 54.2239 10.0987V5.70097H53.4189L53.4342 4.89597L53.4349 4.89524Z" fill="white"/>
<path id="Vector_10" d="M63.5925 10.903L62.8493 11.708C62.3225 12.0022 61.7805 12.157 61.2233 12.157C60.573 12.157 60.0463 11.9557 59.6285 11.5685C59.21 11.1812 59.0088 10.624 59.0088 9.89599V4.26025H61.0533V9.49422C61.0533 10.2062 61.3788 10.563 62.013 10.563C62.4315 10.563 62.9728 10.377 63.6237 9.98972V4.26025H65.6682V12.0029H63.7015L63.6237 10.9037H63.5925V10.903Z" fill="white"/>
<path id="Vector_11" d="M70.6071 10.6705C71.0561 10.6705 71.4898 10.4692 71.9229 10.0667V5.82375C71.5204 5.59198 71.0866 5.46775 70.6071 5.46775C69.5079 5.46775 68.9506 6.35049 68.9506 8.13123C68.9506 9.02923 69.0901 9.67948 69.3691 10.082C69.6473 10.4845 70.0658 10.6857 70.6078 10.6857V10.6705H70.6071ZM73.9673 12.0182H72.0006L71.9229 10.9807L70.9943 11.8017C70.5918 12.0494 70.1421 12.1737 69.6473 12.1737C68.7799 12.1737 68.0991 11.8017 67.6036 11.0584C67.1081 10.3152 66.8604 9.33946 66.8604 8.13195C66.8604 6.92445 67.1546 5.88623 67.7424 5.17423C68.3309 4.46222 69.1054 4.10549 70.0651 4.10549C70.7306 4.10549 71.3503 4.27623 71.9229 4.61697V1.47252L73.4094 0.853516H73.9666V12.0182H73.9673Z" fill="white"/>
<path id="Vector_12" d="M80.1449 7.49609C80.1914 7.29484 80.2067 7.09359 80.2067 6.89234C80.2067 6.38159 80.0831 6.02486 79.8354 5.82433C79.5877 5.62308 79.3094 5.53009 78.9839 5.53009C77.9159 5.53009 77.3274 6.21158 77.2184 7.58982L80.1449 7.49682V7.49609ZM82.1734 7.0006C82.1734 7.41835 82.0957 7.94509 81.9569 8.58009H77.2032C77.2649 9.29282 77.4974 9.81883 77.8847 10.1596C78.2719 10.5003 78.7674 10.6711 79.3559 10.6711C79.7431 10.6711 80.1609 10.6093 80.6251 10.4851C81.0901 10.3608 81.4766 10.2061 81.7709 10.0361V11.5538C81.0429 11.9716 80.0984 12.1728 78.9374 12.1728C77.7139 12.1728 76.7694 11.8015 76.1039 11.0736C75.4384 10.3456 75.0977 9.37056 75.0977 8.14707C75.0977 6.92358 75.4224 5.93259 76.0886 5.2046C76.7549 4.47661 77.6994 4.12061 78.9221 4.12061C79.3559 4.12061 79.7584 4.1671 80.1304 4.25937C80.5016 4.35237 80.8424 4.49187 81.1679 4.69312C81.4934 4.89437 81.7411 5.18861 81.9264 5.57586C82.1124 5.9631 82.2054 6.42736 82.2054 6.96935L82.1741 6.99987L82.1734 7.0006Z" fill="white"/>
</g>
<path id="Vector_13" d="M83.4791 5.0069H83.0977V4.74316H84.1751V5.0069H83.7944V6.27616H83.4791V5.0069Z" fill="white"/>
<path id="Vector_14" d="M85.5158 5.71719C85.5158 5.53047 85.5223 5.36772 85.5339 5.23041H85.5231L85.2121 5.9969H84.9847L84.6737 5.23041H84.6621C84.6737 5.36772 84.6803 5.53047 84.6803 5.71719V6.27371H84.3896V4.74072H84.8045L85.021 5.28635C85.0573 5.37862 85.0842 5.46653 85.1067 5.55008H85.1155C85.1423 5.44837 85.1692 5.36046 85.1968 5.28853L85.4039 4.7429H85.8209V6.27589H85.5165V5.71646L85.5158 5.71719Z" fill="white"/>
</g>
</svg>
