<svg width="20" height="20" viewBox="0 0 20 20" fill="none" xmlns="http://www.w3.org/2000/svg">
<g id="attachment-2">
<path id="Vector" d="M12.3571 6.4644L7.64373 11.1786C7.56414 11.2554 7.50066 11.3474 7.45698 11.4491C7.41331 11.5507 7.39032 11.6601 7.38936 11.7707C7.3884 11.8814 7.40948 11.9911 7.45138 12.0935C7.49328 12.1959 7.55516 12.289 7.63341 12.3672C7.71165 12.4455 7.80469 12.5073 7.90711 12.5493C8.00952 12.5912 8.11925 12.6122 8.2299 12.6113C8.34055 12.6103 8.4499 12.5873 8.55157 12.5436C8.65324 12.5 8.7452 12.4365 8.82207 12.3569L13.5362 7.64357C14.0051 7.17468 14.2685 6.53875 14.2685 5.87565C14.2685 5.21255 14.0051 4.57661 13.5362 4.10773C13.0674 3.63885 12.4314 3.37544 11.7683 3.37544C11.1052 3.37544 10.4693 3.63885 10.0004 4.10773L5.28624 8.8219C4.8913 9.20701 4.57676 9.6667 4.36087 10.1743C4.14497 10.6819 4.03202 11.2274 4.02857 11.779C4.02511 12.3306 4.13122 12.8774 4.34073 13.3877C4.55025 13.8979 4.859 14.3615 5.24908 14.7516C5.63916 15.1416 6.1028 15.4503 6.61311 15.6597C7.12342 15.8692 7.67024 15.9752 8.22185 15.9717C8.77345 15.9681 9.31887 15.8551 9.82645 15.6391C10.334 15.4232 10.7937 15.1086 11.1787 14.7136L15.8929 10.0002L17.0712 11.1786L12.3571 15.8927C11.8154 16.4344 11.1723 16.8641 10.4645 17.1573C9.75673 17.4505 8.99815 17.6014 8.23207 17.6014C7.46599 17.6014 6.7074 17.4505 5.99963 17.1573C5.29187 16.8641 4.64877 16.4344 4.10707 15.8927C3.56537 15.351 3.13566 14.7079 2.8425 14.0002C2.54933 13.2924 2.39844 12.5338 2.39844 11.7677C2.39844 11.0016 2.54933 10.2431 2.8425 9.5353C3.13566 8.82753 3.56537 8.18443 4.10707 7.64273L8.82207 2.9294C9.60791 2.17041 10.6604 1.75043 11.7529 1.75992C12.8454 1.76942 13.8904 2.20762 14.663 2.98015C15.4355 3.75269 15.8737 4.79774 15.8832 5.89023C15.8927 6.98271 15.4727 8.03522 14.7137 8.82107L10.0004 13.5369C9.76818 13.7691 9.49251 13.9532 9.18912 14.0788C8.88573 14.2045 8.56056 14.2691 8.23219 14.2691C7.90382 14.269 7.57867 14.2043 7.27531 14.0786C6.97195 13.9529 6.69632 13.7687 6.46415 13.5365C6.23199 13.3043 6.04783 13.0286 5.92221 12.7252C5.79658 12.4218 5.73194 12.0966 5.73198 11.7683C5.73202 11.4399 5.79673 11.1148 5.92243 10.8114C6.04813 10.508 6.23235 10.2324 6.46457 10.0002L11.1787 5.28607L12.3571 6.4644Z" fill="#475467"/>
</g>
</svg>
