<svg width="482" height="65" viewBox="0 0 482 65" fill="none" xmlns="http://www.w3.org/2000/svg">
<path d="M47.9773 2.63381V15.0023H47.1019C44.5578 7.90144 39.0358 4.39218 30.6106 4.39218C18.3319 4.39218 12.6303 13.1616 12.6303 32.4588C12.6303 51.7559 18.3319 60.5253 30.6106 60.5253C39.6494 60.5253 45.4333 57.0161 47.9773 49.9152H48.8527L47.9773 62.2837C42.1036 64.0421 36.3122 64.9175 30.6106 64.9175C21.4895 64.9175 14.1193 62.1116 8.41773 56.5821C2.80591 51.0451 0 42.979 0 32.4513C0 21.9235 2.80591 13.8574 8.41773 8.32794C14.1193 2.80591 21.4895 0 30.6106 0C36.3122 0 42.1036 0.875444 47.9773 2.63381Z" fill="white"/>
<path d="M72.7082 60.608C79.1131 60.608 82.2707 55.7818 82.2707 42.7175C82.2707 29.6532 79.1131 23.5999 72.7082 23.5999C66.3032 23.5999 63.1531 28.4261 63.1531 41.4904C63.1531 54.5547 66.3107 60.608 72.7082 60.608ZM93.7562 42.0965C93.7562 56.3879 86.7377 64.9029 72.7082 64.9029C58.6786 64.9029 51.5703 56.4852 51.5703 42.0965C51.5703 27.7078 58.5888 19.29 72.7082 19.29C86.8275 19.29 93.7562 27.7976 93.7562 42.0965Z" fill="white"/>
<path d="M111.999 28.239L119.017 21.2205C121.471 19.9036 123.926 19.29 126.47 19.29C134.184 19.29 138.748 23.5026 138.748 31.6585V56.5675C138.748 57.7048 138.838 58.4979 138.92 59.0217C139.182 60.0693 140.499 61.7378 143.567 63.1445V64.02H123.918V63.1445C127.779 60.6005 127.779 59.5455 127.779 56.5675V33.9406C127.779 30.0797 125.766 28.1492 121.643 28.1492C118.224 28.1492 114.887 29.2043 111.819 31.3966V56.5675C111.819 57.7048 111.909 58.4979 111.991 59.0217C112.253 60.0693 113.57 61.7378 116.638 63.1445V64.02H96.2031V63.1445C100.939 60.6005 100.939 59.5455 100.939 56.5675V28.673C100.939 26.9146 100.939 26.129 100.326 24.64C99.8845 22.9714 98.3955 21.8341 96.2031 21.0409V20.1655H111.819V28.239H111.991H111.999Z" fill="white"/>
<path d="M159.092 46.6607C153.129 43.9446 145.587 40.5252 145.587 31.7483C145.587 28.5907 146.903 25.695 149.448 23.151C151.992 20.6069 156.204 19.29 161.988 19.29C167.166 19.29 171.723 19.9036 175.584 21.0409L172.426 29.1145L171.985 29.2043C168.041 25.7848 165.408 24.206 161.636 24.206C157.865 24.206 155.852 26.1365 155.852 29.0322C155.852 32.2795 159.1 34.644 163.133 36.2228C168.924 38.5947 176.639 42.0965 176.556 51.659C176.556 56.7471 172.523 64.9029 159.279 64.9029C154.453 64.9029 150.158 64.2893 146.297 63.152L145.07 54.7343L145.422 54.5622C150.6 58.1612 155.067 60.0019 158.928 60.0019C163.574 60.0019 166.47 57.8096 166.47 54.0384C166.47 50.8808 163.223 48.5089 159.1 46.6682" fill="white"/>
<path d="M209.351 55.9614H209.179L202.161 62.9799C199.706 64.2968 197.252 64.9104 194.88 64.9104C187.166 64.9104 182.512 60.6978 182.512 52.5419V28.6879C182.512 26.9371 182.512 26.1439 181.898 24.6549C181.464 22.9863 179.968 21.849 177.775 21.0559V20.1804H193.391V50.2673C193.391 54.1282 195.494 56.0586 199.617 56.0586C203.126 56.0586 206.373 55.0036 209.351 52.8113V28.1642C209.351 27.1989 209.261 26.3235 209.179 25.7099C209.089 24.393 207.511 22.2007 204.615 21.0633V20.1879H220.313V56.5899C220.313 57.7272 220.403 58.5204 220.485 59.0441C220.747 60.0992 222.064 61.7677 225.132 63.167V64.0424H209.785L209.344 55.9763L209.351 55.9614Z" fill="white"/>
<path d="M241.362 0.875732V56.5674C241.362 59.5529 241.362 60.6004 246.099 63.1445V64.0199H225.664V63.1445C230.4 60.6004 230.4 59.5454 230.4 56.5674V9.38325C230.4 7.62488 230.4 6.83922 229.787 5.35022C229.353 3.68164 227.856 2.54431 225.664 1.75118V0.875732H241.362Z" fill="white"/>
<path d="M247.676 23.7712L252.24 20.1721L260.134 10.4375H263.815V20.1721H273.73V28.328H263.815V51.5684C263.815 54.5539 265.394 56.0429 268.641 56.0429C270.482 56.0429 272.241 55.6912 273.902 54.9879V63.3233C271.178 64.3783 268.2 64.9021 264.953 64.9021C260.478 64.9021 257.231 64.0266 255.218 62.2683C253.198 60.5099 252.15 57.5319 252.15 53.237V28.328H247.586L247.676 23.7637V23.7712Z" fill="white"/>
<path d="M292.316 64.1167H280.741V20.2622H292.316V64.1167ZM280.127 8.32772C280.127 6.65914 280.741 5.25992 281.885 4.11511C283.023 2.97779 284.519 2.44653 286.36 2.44653C288.2 2.44653 289.779 2.9703 291.006 4.11511C292.234 5.25244 292.847 6.65914 292.847 8.32772C292.847 9.9963 292.234 11.3057 291.096 12.3607C289.959 13.4083 288.373 13.9395 286.45 13.9395C284.527 13.9395 283.12 13.4158 281.975 12.3607C280.838 11.3057 280.224 9.90651 280.224 8.23793L280.134 8.32772H280.127Z" fill="white"/>
<path d="M298.1 23.7712L302.664 20.1721L310.558 10.4375H314.239V20.1721H324.153V28.328H314.239V51.5684C314.239 54.5539 315.818 56.0429 319.065 56.0429C320.906 56.0429 322.664 55.6912 324.325 54.9879V63.3233C321.609 64.3783 318.624 64.9021 315.376 64.9021C310.902 64.9021 307.655 64.0266 305.642 62.2683C303.622 60.5099 302.574 57.5319 302.574 53.237V28.328H298.01L298.1 23.7637V23.7712Z" fill="white"/>
<path d="M355.64 57.8017L351.427 62.366C348.442 64.0346 345.374 64.91 342.216 64.91C338.535 64.91 335.549 63.7727 333.185 61.5803C330.813 59.388 329.676 56.2304 329.676 52.1076V20.1726H341.251V49.818C341.251 53.851 343.092 55.8713 346.691 55.8713C349.063 55.8713 352.131 54.8162 355.812 52.6239V20.1726H367.387V64.0271H356.246L355.804 57.8017H355.632H355.64Z" fill="white"/>
<path d="M395.362 56.4851C397.906 56.4851 400.361 55.3478 402.815 53.0656V29.0321C400.533 27.7152 398.079 27.0193 395.362 27.0193C389.137 27.0193 385.979 32.0176 385.979 42.1039C385.979 47.1919 386.773 50.8733 388.351 53.1554C389.93 55.4376 392.295 56.5749 395.37 56.5749V56.4851H395.362ZM414.398 64.1172H403.256L402.815 58.2435L397.555 62.8901C395.273 64.2968 392.729 64.9926 389.923 64.9926C385.014 64.9926 381.153 62.8901 378.347 58.6775C375.541 54.4649 374.135 48.9428 374.135 42.1039C374.135 35.265 375.803 29.3838 379.133 25.3507C382.47 21.3177 386.855 19.2975 392.287 19.2975C396.058 19.2975 399.568 20.2627 402.807 22.1932V4.38499L411.225 0.875732H414.383V64.1172H414.398Z" fill="white"/>
<path d="M449.395 38.5046C449.657 37.3673 449.747 36.2225 449.747 35.0852C449.747 32.1895 449.043 30.1767 447.644 29.0319C446.237 27.8946 444.666 27.3633 442.818 27.3633C436.765 27.3633 433.435 31.2242 432.821 39.0284L449.402 38.4972L449.395 38.5046ZM460.881 35.6987C460.881 38.0632 460.439 41.0487 459.653 44.6477H432.724C433.076 48.6807 434.393 51.6662 436.585 53.5967C438.777 55.5272 441.583 56.4924 444.921 56.4924C447.113 56.4924 449.477 56.1407 452.111 55.4374C454.745 54.734 456.937 53.8586 458.606 52.8933V61.4907C454.483 63.8551 449.133 64.9999 442.556 64.9999C435.627 64.9999 430.277 62.8974 426.506 58.7745C422.735 54.6517 420.805 49.1297 420.805 42.1935C420.805 35.2573 422.645 29.6529 426.417 25.5301C430.188 21.4073 435.538 19.3945 442.466 19.3945C444.921 19.3945 447.203 19.6564 449.305 20.1802C451.408 20.704 453.338 21.4971 455.179 22.6344C457.02 23.7717 458.426 25.4403 459.474 27.6327C460.529 29.825 461.053 32.4588 461.053 35.5266L460.881 35.6987Z" fill="white"/>
<path d="M468.268 24.4071H466.105V22.9106H472.211V24.4071H470.056V31.5903H468.268V24.4071Z" fill="white"/>
<path d="M479.82 28.4258C479.82 27.3632 479.858 26.4504 479.925 25.6722H479.865L478.099 30.012H476.812L475.054 25.6722H474.987C475.054 26.4504 475.091 27.3707 475.091 28.4258V31.5759H473.445V22.8962H475.795L477.022 25.9865C477.224 26.5103 477.381 27.0116 477.508 27.483H477.561C477.71 26.9068 477.867 26.4055 478.017 26.0014L479.192 22.9112H481.556V31.5908H479.835V28.4258H479.82Z" fill="white"/>
<path d="M73.2006 36.065L74.2257 38.8784C74.51 39.6565 75.1161 40.2776 75.8943 40.5694L78.6703 41.6169C79.1192 41.789 79.1192 42.425 78.6703 42.5896L75.8943 43.6372C75.1161 43.929 74.51 44.55 74.2257 45.3282L73.2006 48.1416C73.036 48.598 72.385 48.598 72.2204 48.1416L71.1953 45.3282C70.911 44.55 70.3049 43.929 69.5268 43.6372L66.7508 42.5896C66.3018 42.4176 66.3018 41.7815 66.7508 41.6169L69.5268 40.5694C70.3049 40.2776 70.911 39.6565 71.1953 38.8784L72.2204 36.065C72.385 35.6085 73.036 35.6085 73.2006 36.065Z" fill="white"/>
</svg>
