<svg width="20" height="20" viewBox="0 0 20 20" fill="none" xmlns="http://www.w3.org/2000/svg">
<path d="M8.33268 2.5H11.666C13.4341 2.5 15.1298 3.20238 16.3801 4.45262C17.6303 5.70286 18.3327 7.39856 18.3327 9.16667C18.3327 10.9348 17.6303 12.6305 16.3801 13.8807C15.1298 15.131 13.4341 15.8333 11.666 15.8333V18.75C7.49935 17.0833 1.66602 14.5833 1.66602 9.16667C1.66602 7.39856 2.36839 5.70286 3.61864 4.45262C4.86888 3.20238 6.56457 2.5 8.33268 2.5ZM9.99935 14.1667H11.666C12.3226 14.1667 12.9728 14.0373 13.5794 13.7861C14.1861 13.5348 14.7373 13.1665 15.2016 12.7022C15.6658 12.2379 16.0341 11.6867 16.2854 11.0801C16.5367 10.4735 16.666 9.82328 16.666 9.16667C16.666 8.51006 16.5367 7.85988 16.2854 7.25325C16.0341 6.64662 15.6658 6.09543 15.2016 5.63113C14.7373 5.16684 14.1861 4.79854 13.5794 4.54727C12.9728 4.296 12.3226 4.16667 11.666 4.16667H8.33268C7.0066 4.16667 5.73483 4.69345 4.79715 5.63113C3.85947 6.56881 3.33268 7.84058 3.33268 9.16667C3.33268 12.175 5.38435 14.1383 9.99935 16.2333V14.1667Z" fill="#667085"/>
</svg>
