<svg width="262" height="193" viewBox="0 0 262 193" fill="none" xmlns="http://www.w3.org/2000/svg">
<path d="M158.316 59.8071C154.866 63.3231 151.403 66.839 147.953 70.3549C162.267 84.6688 176.58 98.9828 190.893 113.297" stroke="#C7A8E7" stroke-width="1.58736" stroke-linecap="round" stroke-linejoin="round"/>
<path d="M189.551 28.0427C183.784 33.9026 178.029 39.7625 172.262 45.6224" stroke="#C7A8E7" stroke-width="1.58736" stroke-linecap="round" stroke-linejoin="round"/>
<path d="M180.912 146.256C169.93 135.274 158.935 124.278 147.953 113.296" stroke="#C7A8E7" stroke-width="1.58736" stroke-linecap="round" stroke-linejoin="round"/>
<path d="M153 192C162.667 183 172.333 174 182 165" stroke="#C7A8E7" stroke-width="1.58736" stroke-linecap="round" stroke-linejoin="round"/>
<path d="M88.6201 174C87.4149 175.183 86.2052 176.366 85 177.549C90 182.366 95 187.183 100 192" stroke="#C7A8E7" stroke-width="1.58736" stroke-linecap="round" stroke-linejoin="round"/>
<path d="M126.633 142.03C120.866 147.89 115.111 153.75 109.344 159.61" stroke="#C7A8E7" stroke-width="1.58736" stroke-linecap="round" stroke-linejoin="round"/>
<path d="M74.2927 0.983643C70.8428 4.49957 67.3797 8.0155 63.9297 11.5314C78.2431 25.8454 92.5565 40.1593 106.87 54.4732" stroke="#C7A8E7" stroke-width="1.58736" stroke-linecap="round" stroke-linejoin="round"/>
<path d="M96.8731 87.4324C85.8912 76.45 74.896 65.4545 63.9141 54.4722" stroke="#C7A8E7" stroke-width="1.58736" stroke-linecap="round" stroke-linejoin="round"/>
<path d="M65.2617 139.723C76.1252 128.675 86.9886 117.627 97.852 106.579" stroke="#C7A8E7" stroke-width="1.58736" stroke-linecap="round" stroke-linejoin="round"/>
<path d="M11.3787 114.968C7.92872 118.484 4.46559 122 1.01562 125.516C15.329 139.83 29.6424 154.144 43.9558 168.458" stroke="#C7A8E7" stroke-width="1.58736" stroke-linecap="round" stroke-linejoin="round"/>
<path d="M42.6136 83.2068C36.8461 89.0667 31.0917 94.9266 25.3242 100.786" stroke="#C7A8E7" stroke-width="1.58736" stroke-linecap="round" stroke-linejoin="round"/>
<path d="M25 192C17.0032 184.003 8.99679 175.997 1 168" stroke="#C7A8E7" stroke-width="1.58736" stroke-linecap="round" stroke-linejoin="round"/>
<path d="M227.929 149C224.957 151.826 221.973 154.653 219 157.479C231.333 168.986 243.667 180.493 256 192" stroke="#C7A8E7" stroke-width="1.58736" stroke-linecap="round" stroke-linejoin="round"/>
<path d="M260.485 116.745C254.717 122.605 248.963 128.465 243.195 134.325" stroke="#C7A8E7" stroke-width="1.58736" stroke-linecap="round" stroke-linejoin="round"/>
<path d="M244.752 59.1731C233.77 48.1907 222.775 37.1952 211.793 26.2129" stroke="#C7A8E7" stroke-width="1.58736" stroke-linecap="round" stroke-linejoin="round"/>
<path d="M213.137 111.464C224 100.416 234.864 89.3678 245.727 78.3196" stroke="#C7A8E7" stroke-width="1.58736" stroke-linecap="round" stroke-linejoin="round"/>
<path d="M17.4867 111.467C19.1448 111.467 20.489 110.122 20.489 108.464C20.489 106.806 19.1448 105.462 17.4867 105.462C15.8286 105.462 14.4844 106.806 14.4844 108.464C14.4844 110.122 15.8286 111.467 17.4867 111.467Z" fill="url(#paint0_linear_8429_336716)"/>
<path d="M102.682 168.405C104.34 168.405 105.684 167.061 105.684 165.403C105.684 163.744 104.34 162.4 102.682 162.4C101.024 162.4 99.6797 163.744 99.6797 165.403C99.6797 167.061 101.024 168.405 102.682 168.405Z" fill="url(#paint1_linear_8429_336716)"/>
<path d="M236.522 144.715C238.18 144.715 239.524 143.371 239.524 141.713C239.524 140.054 238.18 138.71 236.522 138.71C234.864 138.71 233.52 140.054 233.52 141.713C233.52 143.371 234.864 144.715 236.522 144.715Z" fill="url(#paint2_linear_8429_336716)"/>
<path d="M165.584 57.475C167.242 57.475 168.587 56.1307 168.587 54.4726C168.587 52.8144 167.242 51.4702 165.584 51.4702C163.926 51.4702 162.582 52.8144 162.582 54.4726C162.582 56.1307 163.926 57.475 165.584 57.475Z" fill="url(#paint3_linear_8429_336716)"/>
<path d="M184.769 161.254C189.904 157.396 190.918 157.422 196.251 161.531C192.143 156.211 192.13 155.184 195.975 150.048C190.839 153.906 189.825 153.88 184.492 149.771C188.601 155.091 188.614 156.119 184.769 161.254Z" fill="url(#paint4_linear_8429_336716)"/>
<path d="M111.279 103.473C107.421 98.3378 107.447 97.3239 111.556 91.9907C106.236 96.0992 105.209 96.1124 100.073 92.2673C103.932 97.4029 103.905 98.4168 99.7969 103.75C105.117 99.6415 106.144 99.6283 111.279 103.473Z" fill="url(#paint5_linear_8429_336716)"/>
<path d="M261.557 75.2391C257.698 70.1035 257.725 69.0895 261.833 63.7563C256.513 67.8649 255.486 67.878 250.351 64.0329C254.209 69.1685 254.183 70.1825 250.074 75.5156C255.394 71.4071 256.421 71.394 261.557 75.2391Z" fill="url(#paint6_linear_8429_336716)"/>
<defs>
<linearGradient id="paint0_linear_8429_336716" x1="14.4844" y1="108.464" x2="20.489" y2="108.464" gradientUnits="userSpaceOnUse">
<stop stop-color="#54148C"/>
<stop offset="1" stop-color="#A46EDE"/>
</linearGradient>
<linearGradient id="paint1_linear_8429_336716" x1="99.6797" y1="165.403" x2="105.684" y2="165.403" gradientUnits="userSpaceOnUse">
<stop stop-color="#54148C"/>
<stop offset="1" stop-color="#A46EDE"/>
</linearGradient>
<linearGradient id="paint2_linear_8429_336716" x1="233.52" y1="141.713" x2="239.524" y2="141.713" gradientUnits="userSpaceOnUse">
<stop stop-color="#54148C"/>
<stop offset="1" stop-color="#A46EDE"/>
</linearGradient>
<linearGradient id="paint3_linear_8429_336716" x1="162.582" y1="54.4726" x2="168.587" y2="54.4726" gradientUnits="userSpaceOnUse">
<stop stop-color="#54148C"/>
<stop offset="1" stop-color="#A46EDE"/>
</linearGradient>
<linearGradient id="paint4_linear_8429_336716" x1="184.492" y1="155.651" x2="196.251" y2="155.651" gradientUnits="userSpaceOnUse">
<stop stop-color="#54148C"/>
<stop offset="1" stop-color="#A46EDE"/>
</linearGradient>
<linearGradient id="paint5_linear_8429_336716" x1="99.7969" y1="97.8704" x2="111.556" y2="97.8704" gradientUnits="userSpaceOnUse">
<stop stop-color="#54148C"/>
<stop offset="1" stop-color="#A46EDE"/>
</linearGradient>
<linearGradient id="paint6_linear_8429_336716" x1="250.074" y1="69.636" x2="261.833" y2="69.636" gradientUnits="userSpaceOnUse">
<stop stop-color="#54148C"/>
<stop offset="1" stop-color="#A46EDE"/>
</linearGradient>
</defs>
</svg>
