<svg width="40" height="41" viewBox="0 0 40 41" fill="none" xmlns="http://www.w3.org/2000/svg">
<path d="M33.8875 7.9375L29.6875 3.7375C29.2125 3.2625 28.575 3 27.9125 3H27.4375V8.95C27.4375 9.6375 27.9875 10.2 28.6875 10.2H34.6125V9.7125C34.6125 9.05 34.35 8.4125 33.8875 7.9375Z" fill="#F79009"/>
<path d="M24.9371 8.95V3H12.2246C10.8496 3 9.72461 4.125 9.72461 5.5V23.5562C9.92191 23.0602 10.2629 22.6344 10.7039 22.3335C11.1449 22.0326 11.6658 21.8703 12.1996 21.8675C13.3246 21.8675 14.3371 22.5787 14.7196 23.6388L15.3484 25.3825C15.567 25.9932 15.9183 26.5478 16.3769 27.0064C16.8356 27.4651 17.3902 27.8164 18.0009 28.035L19.7459 28.6637C20.264 28.8512 20.7118 29.1936 21.0285 29.6445C21.3452 30.0953 21.5153 30.6328 21.5159 31.1838C21.5159 31.7838 21.3046 32.3425 20.9559 32.8H32.1134C33.4884 32.8 34.6134 31.675 34.6134 30.3V12.7H28.6884C27.6939 12.6993 26.7403 12.3041 26.037 11.601C25.3337 10.8979 24.9381 9.94447 24.9371 8.95Z" fill="#F79009"/>
<path d="M17.1534 30.3875C16.1971 30.0431 15.3287 29.4919 14.6101 28.7732C13.8914 28.0546 13.3402 27.1862 12.9959 26.23L12.3671 24.4862C12.3546 24.4516 12.3318 24.4217 12.3017 24.4006C12.2716 24.3795 12.2357 24.3682 12.199 24.3682C12.1622 24.3682 12.1264 24.3795 12.0963 24.4006C12.0662 24.4217 12.0433 24.4516 12.0309 24.4862L11.4021 26.23C11.0577 27.1862 10.5065 28.0546 9.78788 28.7732C9.06922 29.4919 8.20081 30.0431 7.2446 30.3875L5.50085 31.0162C5.46628 31.0287 5.43639 31.0515 5.41527 31.0816C5.39415 31.1117 5.38281 31.1476 5.38281 31.1843C5.38281 31.2211 5.39415 31.257 5.41527 31.287C5.43639 31.3171 5.46628 31.34 5.50085 31.3525L7.2446 31.9812C8.20081 32.3256 9.06922 32.8768 9.78788 33.5954C10.5065 34.3141 11.0577 35.1825 11.4021 36.1387L12.0309 37.8825C12.0433 37.917 12.0662 37.9469 12.0963 37.968C12.1264 37.9892 12.1622 38.0005 12.199 38.0005C12.2357 38.0005 12.2716 37.9892 12.3017 37.968C12.3318 37.9469 12.3546 37.917 12.3671 37.8825L12.9959 36.1387C13.3402 35.1825 13.8914 34.3141 14.6101 33.5954C15.3287 32.8768 16.1971 32.3256 17.1534 31.9812L18.8971 31.3525C18.9317 31.34 18.9616 31.3171 18.9827 31.287C19.0038 31.257 19.0151 31.2211 19.0151 31.1843C19.0151 31.1476 19.0038 31.1117 18.9827 31.0816C18.9616 31.0515 18.9317 31.0287 18.8971 31.0162L17.1534 30.3875Z" fill="#F79009"/>
</svg>
