<svg width="16" height="17" viewBox="0 0 16 17" fill="none" xmlns="http://www.w3.org/2000/svg">
<path d="M10 3.16683H3.33333V13.8335H12.6667V5.8335H10V3.16683ZM2 2.49483C2 2.1295 2.298 1.8335 2.666 1.8335H10.6667L14 5.16683V14.4955C14.0006 14.583 13.984 14.6699 13.951 14.751C13.9181 14.8321 13.8695 14.9059 13.808 14.9683C13.7466 15.0306 13.6734 15.0802 13.5928 15.1143C13.5121 15.1484 13.4255 15.1662 13.338 15.1668H2.662C2.48692 15.1656 2.31934 15.0956 2.19548 14.9718C2.07161 14.8481 2.0014 14.6806 2 14.5055V2.49483ZM8 5.8335V8.50016H10.6667C10.6667 9.02758 10.5103 9.54315 10.2173 9.98168C9.92423 10.4202 9.50776 10.762 9.02049 10.9638C8.53322 11.1657 7.99704 11.2185 7.47976 11.1156C6.96248 11.0127 6.48732 10.7587 6.11438 10.3858C5.74144 10.0128 5.48747 9.53769 5.38457 9.0204C5.28168 8.50312 5.33449 7.96694 5.53632 7.47967C5.73815 6.9924 6.07995 6.57593 6.51848 6.28291C6.95701 5.98989 7.47258 5.8335 8 5.8335Z" fill="#F79009"/>
</svg>
