<svg width="16" height="17" viewBox="0 0 16 17" fill="none" xmlns="http://www.w3.org/2000/svg">
<path d="M3.24934 2.5H12.752C12.8572 2.49999 12.9609 2.52486 13.0546 2.5726C13.1484 2.62034 13.2295 2.68958 13.2913 2.77467L15.84 6.27867C15.8853 6.34101 15.9076 6.41714 15.9031 6.49408C15.8986 6.57102 15.8676 6.64402 15.8153 6.70067L8.24534 14.9013C8.18536 14.9662 8.10211 15.0045 8.01387 15.008C7.92562 15.0115 7.83959 14.9799 7.77467 14.92C7.77001 14.916 5.24134 12.1767 0.186007 6.70067C0.133742 6.64402 0.102722 6.57102 0.0982245 6.49408C0.0937272 6.41714 0.116031 6.34101 0.16134 6.27867L2.71001 2.77467C2.77186 2.68958 2.85297 2.62034 2.94671 2.5726C3.04044 2.52486 3.14415 2.49999 3.24934 2.5ZM3.58934 3.83333L1.72267 6.4L8.00067 13.2L14.2787 6.4L12.412 3.83333H3.58934Z" fill="#F04438"/>
</svg>
