<svg width="283" height="340" viewBox="0 0 283 340" fill="none" xmlns="http://www.w3.org/2000/svg">
<g style="mix-blend-mode:plus-lighter" opacity="0.5">
<mask id="mask0_8205_632718" style="mask-type:luminance" maskUnits="userSpaceOnUse" x="0" y="-98" width="567" height="536">
<path d="M566.316 -97.56L566.316 438L0.000610352 438L0.000634994 -97.56L566.316 -97.56Z" fill="white"/>
</mask>
<g mask="url(#mask0_8205_632718)">
<path d="M129.488 264.168L107.794 301.188" stroke="#C7A8E7" stroke-width="0.94" stroke-miterlimit="10"/>
<path d="M181.355 175.629L134.008 256.459" stroke="#C7A8E7" stroke-width="0.94" stroke-miterlimit="10"/>
<path d="M231.902 140.519L201.934 140.519L186.85 166.259" stroke="#C7A8E7" stroke-width="0.94" stroke-miterlimit="10"/>
<path d="M286.227 116.1L270.932 140.52L248.258 140.52" stroke="#C7A8E7" stroke-width="0.94" stroke-miterlimit="10"/>
<path d="M249.361 79.8082L272.793 79.8082L286.824 102.198" stroke="#C7A8E7" stroke-width="0.94" stroke-miterlimit="10"/>
<path d="M134.415 79.8086L235.668 79.8086" stroke="#C7A8E7" stroke-width="0.94" stroke-miterlimit="10"/>
<path d="M127.922 72.7295L107.796 38.3795" stroke="#C7A8E7" stroke-width="0.94" stroke-miterlimit="10"/>
<path d="M181.352 163.929L135.088 84.9787" stroke="#C7A8E7" stroke-width="0.94" stroke-miterlimit="10"/>
<path d="M233.078 199.05L201.941 199.05L187.457 174.34" stroke="#C7A8E7" stroke-width="0.94" stroke-miterlimit="10"/>
<path d="M286.836 224.43L270.931 199.05L249.457 199.05" stroke="#C7A8E7" stroke-width="0.94" stroke-miterlimit="10"/>
<path d="M248.258 259.759L272.795 259.759L286.227 238.309" stroke="#C7A8E7" stroke-width="0.94" stroke-miterlimit="10"/>
<path d="M139.14 259.76L235.688 259.76" stroke="#C7A8E7" stroke-width="0.94" stroke-miterlimit="10"/>
<path d="M245.487 75.9795C259.076 52.0195 272.655 28.0495 286.234 4.0795" stroke="#C7A8E7" stroke-width="0.94" stroke-miterlimit="10"/>
<path d="M235.657 133.669C231.804 126.989 227.972 120.319 224.12 113.639C230.088 103.129 236.035 92.5989 242.004 82.0889" stroke="#C7A8E7" stroke-width="0.94" stroke-miterlimit="10"/>
<path d="M243.847 192.609C248.12 185.199 252.384 177.789 256.657 170.369L256.805 170.369C252.489 162.879 248.173 155.379 243.857 147.889" stroke="#C7A8E7" stroke-width="0.94" stroke-miterlimit="10"/>
<path d="M239.91 255.171C234.605 245.811 229.289 236.441 223.994 227.081C228.5 219.251 233.015 211.421 237.521 203.591" stroke="#C7A8E7" stroke-width="0.94" stroke-miterlimit="10"/>
<path d="M285.438 335.479C272.585 312.809 259.743 290.139 246.89 267.469" stroke="#C7A8E7" stroke-width="0.94" stroke-miterlimit="10"/>
<path d="M211.698 314.868L282.414 275.048" stroke="#C7A8E7" stroke-width="0.94" stroke-miterlimit="10"/>
<path d="M197.742 226.929L197.742 306.409" stroke="#C7A8E7" stroke-width="0.94" stroke-miterlimit="10"/>
<path d="M190.984 124.12L104.363 170.44L104.363 170.28L183.869 212.8" stroke="#C7A8E7" stroke-width="0.94" stroke-miterlimit="10"/>
<path d="M288.887 69.3181L197.739 17.9881L197.739 112.328" stroke="#C7A8E7" stroke-width="0.94" stroke-miterlimit="10"/>
<path d="M274.721 -6.41102C279.153 -6.71102 283.637 -6.87098 288.153 -6.87098C355.132 -6.87098 413.805 26.879 446.363 77.459" stroke="#C7A8E7" stroke-width="0.94" stroke-linecap="round" stroke-linejoin="round"/>
<path d="M107.343 130.439C120.891 73.1294 163.859 26.3894 220.375 5.27945" stroke="#C7A8E7" stroke-width="0.94" stroke-linecap="round" stroke-linejoin="round"/>
<path d="M242.005 334.478C255.605 337.558 269.805 339.188 284.395 339.188C307.426 339.188 329.458 335.128 349.742 327.718" stroke="#C7A8E7" stroke-width="0.94" stroke-linecap="round" stroke-linejoin="round"/>
<path d="M103.912 189.558C111.607 243.628 145.586 289.768 193.238 315.988" stroke="#C7A8E7" stroke-width="0.94" stroke-linecap="round" stroke-linejoin="round"/>
<path d="M498.394 180.21C502.289 276.94 422.899 358.35 321.078 362.05C295.962 362.96 271.836 359.06 249.657 351.22" stroke="#C7A8E7" stroke-width="0.94" stroke-linecap="round" stroke-linejoin="round"/>
<path d="M249.459 263.939C259.743 267.869 270.827 270.319 282.406 270.999" stroke="#C7A8E7" stroke-width="0.94" stroke-linecap="round" stroke-linejoin="round"/>
<path d="M199.824 225.039C208.909 238.359 221.214 249.529 235.688 257.549" stroke="#C7A8E7" stroke-width="0.94" stroke-linecap="round" stroke-linejoin="round"/>
<path d="M182.944 175.22C183.649 189.02 187.27 202.09 193.238 213.88" stroke="#C7A8E7" stroke-width="0.94" stroke-linecap="round" stroke-linejoin="round"/>
<path d="M236.699 82.3491C206.941 98.3991 186.141 127.699 183.183 161.789" stroke="#C7A8E7" stroke-width="0.94" stroke-linecap="round" stroke-linejoin="round"/>
<path d="M331.176 77.458C318.281 72.178 304.049 69.248 289.113 69.248C274.176 69.248 260.965 71.968 248.439 76.908" stroke="#C7A8E7" stroke-width="0.94" stroke-linecap="round" stroke-linejoin="round"/>
<path d="M241.257 78.0086C241.257 77.0186 242.11 76.2086 243.152 76.2086C244.194 76.2086 245.047 77.0186 245.047 78.0086C245.047 78.9986 244.194 79.8086 243.152 79.8086C242.11 79.8086 241.257 78.9986 241.257 78.0086Z" fill="#C7A8E7"/>
<path d="M181.046 168.46C181.046 167.47 181.899 166.66 182.941 166.66C183.983 166.66 184.836 167.47 184.836 168.46C184.836 169.45 183.983 170.26 182.941 170.26C181.899 170.26 181.046 169.45 181.046 168.46Z" fill="#C7A8E7"/>
<path d="M192.175 218.559C192.175 217.569 193.028 216.759 194.07 216.759C195.112 216.759 195.965 217.569 195.965 218.559C195.965 219.549 195.112 220.359 194.07 220.359C193.028 220.359 192.175 219.549 192.175 218.559Z" fill="#C7A8E7"/>
<path d="M239.375 260.399C239.375 259.409 240.227 258.599 241.269 258.599C242.311 258.599 243.164 259.409 243.164 260.399C243.164 261.389 242.311 262.199 241.269 262.199C240.227 262.199 239.375 261.389 239.375 260.399Z" fill="#C7A8E7"/>
<path d="M238.015 140.518C238.015 139.528 238.868 138.718 239.91 138.718C240.952 138.718 241.805 139.528 241.805 140.518C241.805 141.508 240.952 142.318 239.91 142.318C238.868 142.318 238.015 141.508 238.015 140.518Z" fill="#C7A8E7"/>
<path d="M239.375 199.05C239.375 198.06 240.227 197.25 241.269 197.25C242.311 197.25 243.164 198.06 243.164 199.05C243.164 200.04 242.311 200.85 241.269 200.85C240.227 200.85 239.375 200.04 239.375 199.05Z" fill="#C7A8E7"/>
<path d="M179.461 341.149C179.461 340.159 180.313 339.349 181.355 339.349C182.397 339.349 183.25 340.159 183.25 341.149C183.25 342.139 182.397 342.949 181.355 342.949C180.313 342.949 179.461 342.139 179.461 341.149Z" fill="#C7A8E7"/>
<path d="M179.461 341.149C179.461 340.159 180.313 339.349 181.355 339.349C182.397 339.349 183.25 340.159 183.25 341.149C183.25 342.139 182.397 342.949 181.355 342.949C180.313 342.949 179.461 342.139 179.461 341.149Z" fill="#C7A8E7"/>
<path d="M202.762 321.899C200.078 319.959 199.562 319.959 196.888 321.899C198.93 319.349 198.93 318.859 196.888 316.319C199.572 318.259 200.088 318.259 202.762 316.319C200.72 318.869 200.72 319.359 202.762 321.899Z" fill="#C7A8E7"/>
<path d="M168.512 333.448C149.449 326.268 129.07 321.608 107.796 319.868" stroke="#C7A8E7" stroke-width="0.94" stroke-miterlimit="10"/>
<path d="M168.508 4.16904C149.445 11.349 129.066 16.009 107.792 17.749" stroke="#C7A8E7" stroke-width="0.94" stroke-miterlimit="10"/>
</g>
</g>
</svg>
