<svg width="289" height="217" viewBox="0 0 289 217" fill="none" xmlns="http://www.w3.org/2000/svg">
<path d="M300.699 189.806C295.96 201.321 290.534 210.594 285.977 217.395" stroke="#C7A8E7" stroke-width="1.58736" stroke-linecap="round" stroke-linejoin="round"/>
<path d="M232.957 9.11133C270.891 23.8224 300.107 57.3204 308.946 99.1385C312.623 116.539 313.588 135.651 310.405 155.451C309.404 161.697 308.053 167.593 306.486 173.128" stroke="#C7A8E7" stroke-width="1.58736" stroke-linecap="round" stroke-linejoin="round"/>
<path d="M52.4297 77.4093C77.2327 30.9367 132.614 2.58768 185.91 1.05628C186.694 1.03216 187.478 1.02013 188.261 1.00807C195.568 0.923662 202.743 1.50242 209.724 2.69619" stroke="#C7A8E7" stroke-width="1.58736" stroke-linecap="round" stroke-linejoin="round"/>
<path d="M135.29 141.438C133.879 137.954 133.084 134.023 132.782 129.621C132.276 117.165 137.69 107.868 147.215 99.7288C163.819 85.4156 190.382 80.2426 205.768 99.4032C212.617 107.446 217.054 117.925 216.813 128.512C216.741 138.991 212.834 150.952 208.276 160.298C203.043 168.762 196.001 178.071 175.804 189.901C170.342 192.927 164.096 195.761 158.417 197.883C139.45 204.865 113.839 208.458 93.787 204.105C70.455 198.703 51.9704 183.015 43.5057 160.852C39.2614 150.53 38.8032 140.088 39.0202 128.946C39.2252 118.045 40.9254 107.687 43.8916 97.9442" stroke="#C7A8E7" stroke-width="1.58736" stroke-linecap="round" stroke-linejoin="round"/>
<path d="M115.295 171.753C86.8983 146.949 71.7295 95.4961 86.3918 59.7915C90.9617 48.6497 97.9795 41.7282 101.368 38.4484C132.465 8.36294 183.409 18.5522 189.486 19.8545C199.591 22.025 217.545 27.3427 236.645 42.0056C273.819 74.0685 303.264 141.498 279.631 217.393" stroke="#C7A8E7" stroke-width="1.58736" stroke-linecap="round" stroke-linejoin="round"/>
<path d="M148.319 107.038C152.672 105.675 157.495 105.193 162.8 105.627C179.717 107.556 192.511 122.509 198.238 137.738C205.545 157.044 199.794 173.937 181.683 183.644C174.882 187.045 167.358 188.178 159.279 188.13C146.305 188.106 134.295 184.729 123.516 177.88" stroke="#C7A8E7" stroke-width="1.58736" stroke-linecap="round" stroke-linejoin="round"/>
<path d="M269.13 95.533C276.751 113.982 277.486 136.857 272.217 160.636C267.225 179.205 251.948 203.165 236.441 217.394" stroke="#C7A8E7" stroke-width="1.58736" stroke-linecap="round" stroke-linejoin="round"/>
<path d="M126.652 77.3131C139.771 67.2324 159.787 57.3205 186.242 54.3783C218.485 51.5205 241.31 59.8165 255.828 74.9014" stroke="#C7A8E7" stroke-width="1.58736" stroke-linecap="round" stroke-linejoin="round"/>
<path d="M112.329 165.291C101.368 155.005 96.738 140.186 99.0892 124.812C101.043 109.678 106.264 97.3669 116.573 86.4059C118.02 84.8504 119.648 83.2346 121.469 81.6067" stroke="#C7A8E7" stroke-width="1.58736" stroke-linecap="round" stroke-linejoin="round"/>
<path d="M179.404 118.203C181.31 122.339 182.226 127.187 182.178 132.553C181.732 144.816 174.835 154.861 164.983 162.252C153.987 169.885 140.421 174.528 128.352 172.767" stroke="#C7A8E7" stroke-width="1.58736" stroke-linecap="round" stroke-linejoin="round"/>
<path d="M133.273 75.818C134.732 75.1065 136.276 74.4916 137.904 73.9731C147.526 70.3677 156.822 69.8371 167.023 72.2849C180.842 75.3718 194.31 83.6921 204.27 93.6281C213.603 103.299 220.693 115.044 225.456 127.331C235.452 152.991 234.487 185.428 228.241 203.443C226.372 208.254 223.924 212.209 221.175 217.382" stroke="#C7A8E7" stroke-width="1.58736" stroke-linecap="round" stroke-linejoin="round"/>
<path d="M169.361 151.628C159.679 155.619 146.705 154.703 137.89 149.457C126.676 142.934 117.078 130.369 114.751 117.732C112.713 107.579 114.341 96.9194 119.49 88.4666" stroke="#C7A8E7" stroke-width="1.58736" stroke-linecap="round" stroke-linejoin="round"/>
<path d="M33.7841 41.9956C19.6161 83.4158 18.4586 161.505 78.7358 217.383" stroke="#C7A8E7" stroke-width="1.58736" stroke-linecap="round" stroke-linejoin="round"/>
<path d="M1.91628 146.805C-1.64079 114.344 4.66545 77.3617 29.5528 42.0068" stroke="#C7A8E7" stroke-width="1.58736" stroke-linecap="round" stroke-linejoin="round"/>
<path d="M28.024 217.383C17.9557 203.263 9.04495 184.138 4.39062 162.216" stroke="#C7A8E7" stroke-width="1.58736" stroke-linecap="round" stroke-linejoin="round"/>
<path d="M146.657 107.94C144.414 109.448 143.992 109.436 142.015 107.735C143.45 109.918 143.413 110.328 141.629 112.366C143.872 110.858 144.294 110.871 146.271 112.571C144.836 110.388 144.873 109.978 146.657 107.94Z" fill="url(#paint0_linear_8205_632615)"/>
<path d="M141.196 143.452C138.953 144.959 138.531 144.947 136.554 143.247C137.989 145.43 137.953 145.84 136.168 147.877C138.411 146.37 138.833 146.382 140.81 148.082C139.375 145.9 139.412 145.49 141.196 143.452Z" fill="url(#paint1_linear_8205_632615)"/>
<path d="M175.778 145.876C173.535 147.383 173.113 147.371 171.136 145.671C172.571 147.854 172.535 148.264 170.75 150.302C172.993 148.794 173.415 148.806 175.392 150.507C173.957 148.324 173.994 147.914 175.778 145.876Z" fill="url(#paint2_linear_8205_632615)"/>
<path d="M179.454 112.763C177.211 114.27 176.789 114.258 174.812 112.558C176.247 114.741 176.21 115.151 174.426 117.188C176.669 115.681 177.091 115.693 179.068 117.393C177.633 115.211 177.669 114.801 179.454 112.763Z" fill="url(#paint3_linear_8205_632615)"/>
<path d="M48.1952 90.3972C49.2674 90.3972 50.1365 89.528 50.1365 88.4558C50.1365 87.3836 49.2674 86.5144 48.1952 86.5144C47.1231 86.5144 46.2539 87.3836 46.2539 88.4558C46.2539 89.528 47.1231 90.3972 48.1952 90.3972Z" fill="url(#paint4_linear_8205_632615)"/>
<path d="M2.95301 156.041C4.02517 156.041 4.89435 155.172 4.89435 154.1C4.89435 153.027 4.02517 152.158 2.95301 152.158C1.88086 152.158 1.01172 153.027 1.01172 154.1C1.01172 155.172 1.88086 156.041 2.95301 156.041Z" fill="url(#paint5_linear_8205_632615)"/>
<path d="M119.527 169.173C120.599 169.173 121.469 168.304 121.469 167.232C121.469 166.159 120.599 165.29 119.527 165.29C118.455 165.29 117.586 166.159 117.586 167.232C117.586 168.304 118.455 169.173 119.527 169.173Z" fill="url(#paint6_linear_8205_632615)"/>
<path d="M126.656 85.4895C127.728 85.4895 128.597 84.6203 128.597 83.5481C128.597 82.4759 127.728 81.6067 126.656 81.6067C125.584 81.6067 124.715 82.4759 124.715 83.5481C124.715 84.6203 125.584 85.4895 126.656 85.4895Z" fill="url(#paint7_linear_8205_632615)"/>
<path d="M37.0663 36.8826C38.1385 36.8826 39.0076 36.0134 39.0076 34.9412C39.0076 33.869 38.1385 32.9998 37.0663 32.9998C35.9941 32.9998 35.125 33.869 35.125 34.9412C35.125 36.0134 35.9941 36.8826 37.0663 36.8826Z" fill="#C7A8E7"/>
<path d="M222.262 7.55558C223.334 7.55558 224.203 6.68641 224.203 5.61422C224.203 4.54202 223.334 3.67285 222.262 3.67285C221.19 3.67285 220.32 4.54202 220.32 5.61422C220.32 6.68641 221.19 7.55558 222.262 7.55558Z" fill="url(#paint8_linear_8205_632615)"/>
<path d="M263.449 87.4303C264.521 87.4303 265.39 86.5612 265.39 85.489C265.39 84.4168 264.521 83.5476 263.449 83.5476C262.377 83.5476 261.508 84.4168 261.508 85.489C261.508 86.5612 262.377 87.4303 263.449 87.4303Z" fill="url(#paint9_linear_8205_632615)"/>
<defs>
<linearGradient id="paint0_linear_8205_632615" x1="141.629" y1="110.153" x2="146.657" y2="110.153" gradientUnits="userSpaceOnUse">
<stop stop-color="#54148C"/>
<stop offset="1" stop-color="#A46EDE"/>
</linearGradient>
<linearGradient id="paint1_linear_8205_632615" x1="136.168" y1="145.665" x2="141.196" y2="145.665" gradientUnits="userSpaceOnUse">
<stop stop-color="#54148C"/>
<stop offset="1" stop-color="#A46EDE"/>
</linearGradient>
<linearGradient id="paint2_linear_8205_632615" x1="170.75" y1="148.089" x2="175.778" y2="148.089" gradientUnits="userSpaceOnUse">
<stop stop-color="#54148C"/>
<stop offset="1" stop-color="#A46EDE"/>
</linearGradient>
<linearGradient id="paint3_linear_8205_632615" x1="174.426" y1="114.976" x2="179.454" y2="114.976" gradientUnits="userSpaceOnUse">
<stop stop-color="#54148C"/>
<stop offset="1" stop-color="#A46EDE"/>
</linearGradient>
<linearGradient id="paint4_linear_8205_632615" x1="46.2539" y1="88.4558" x2="50.1365" y2="88.4558" gradientUnits="userSpaceOnUse">
<stop stop-color="#54148C"/>
<stop offset="1" stop-color="#A46EDE"/>
</linearGradient>
<linearGradient id="paint5_linear_8205_632615" x1="1.01172" y1="154.1" x2="4.89435" y2="154.1" gradientUnits="userSpaceOnUse">
<stop stop-color="#54148C"/>
<stop offset="1" stop-color="#A46EDE"/>
</linearGradient>
<linearGradient id="paint6_linear_8205_632615" x1="117.586" y1="167.232" x2="121.469" y2="167.232" gradientUnits="userSpaceOnUse">
<stop stop-color="#54148C"/>
<stop offset="1" stop-color="#A46EDE"/>
</linearGradient>
<linearGradient id="paint7_linear_8205_632615" x1="124.715" y1="83.5481" x2="128.597" y2="83.5481" gradientUnits="userSpaceOnUse">
<stop stop-color="#54148C"/>
<stop offset="1" stop-color="#A46EDE"/>
</linearGradient>
<linearGradient id="paint8_linear_8205_632615" x1="220.32" y1="5.61422" x2="224.203" y2="5.61422" gradientUnits="userSpaceOnUse">
<stop stop-color="#54148C"/>
<stop offset="1" stop-color="#A46EDE"/>
</linearGradient>
<linearGradient id="paint9_linear_8205_632615" x1="261.508" y1="85.489" x2="265.39" y2="85.489" gradientUnits="userSpaceOnUse">
<stop stop-color="#54148C"/>
<stop offset="1" stop-color="#A46EDE"/>
</linearGradient>
</defs>
</svg>
