<svg width="263" height="218" viewBox="0 0 263 218" fill="none" xmlns="http://www.w3.org/2000/svg">
<path d="M158.316 59.8235C154.866 63.3394 151.403 66.8554 147.953 70.3713C162.267 84.6852 176.58 98.9991 190.893 113.313" stroke="#927CA9" stroke-width="1.58736" stroke-linecap="round" stroke-linejoin="round"/>
<path d="M189.551 28.0591C183.784 33.919 178.029 39.7789 172.262 45.6387" stroke="#927CA9" stroke-width="1.58736" stroke-linecap="round" stroke-linejoin="round"/>
<path d="M180.912 146.272C169.93 135.29 158.935 124.294 147.953 113.312" stroke="#927CA9" stroke-width="1.58736" stroke-linecap="round" stroke-linejoin="round"/>
<path d="M149.297 198.563C160.16 187.515 171.024 176.467 181.887 165.418" stroke="#927CA9" stroke-width="1.58736" stroke-linecap="round" stroke-linejoin="round"/>
<path d="M95.3982 173.808C91.9482 177.324 88.4851 180.84 85.0352 184.356C99.3486 198.67 102.865 202.186 117.178 216.5" stroke="#927CA9" stroke-width="1.58736" stroke-linecap="round" stroke-linejoin="round"/>
<path d="M126.633 142.046C120.866 147.906 115.111 153.766 109.344 159.626" stroke="#927CA9" stroke-width="1.58736" stroke-linecap="round" stroke-linejoin="round"/>
<path d="M74.2927 1C70.8428 4.51593 67.3797 8.03186 63.9297 11.5478C78.2431 25.8617 92.5565 40.1756 106.87 54.4896" stroke="#927CA9" stroke-width="1.58736" stroke-linecap="round" stroke-linejoin="round"/>
<path d="M96.8731 87.4487C85.8912 76.4664 74.896 65.4709 63.9141 54.4885" stroke="#927CA9" stroke-width="1.58736" stroke-linecap="round" stroke-linejoin="round"/>
<path d="M65.2617 139.74C76.1252 128.692 86.9886 117.643 97.852 106.595" stroke="#927CA9" stroke-width="1.58736" stroke-linecap="round" stroke-linejoin="round"/>
<path d="M11.3787 114.984C7.92872 118.5 4.46559 122.016 1.01562 125.532C15.329 139.846 29.6424 154.16 43.9558 168.474" stroke="#927CA9" stroke-width="1.58736" stroke-linecap="round" stroke-linejoin="round"/>
<path d="M42.6136 83.2231C36.8461 89.083 31.0917 94.9429 25.3242 100.803" stroke="#927CA9" stroke-width="1.58736" stroke-linecap="round" stroke-linejoin="round"/>
<path d="M33.9591 201.433C22.9771 190.451 11.982 179.455 1 168.473" stroke="#927CA9" stroke-width="1.58736" stroke-linecap="round" stroke-linejoin="round"/>
<path d="M229.254 148.526C225.804 152.042 222.341 155.558 218.891 159.074C233.204 173.388 247.517 187.702 261.831 202.015" stroke="#927CA9" stroke-width="1.58736" stroke-linecap="round" stroke-linejoin="round"/>
<path d="M260.485 116.761C254.717 122.621 248.963 128.481 243.195 134.341" stroke="#927CA9" stroke-width="1.58736" stroke-linecap="round" stroke-linejoin="round"/>
<path d="M237 217C231.002 212.002 224.998 206.998 219 202" stroke="#927CA9" stroke-width="1.58736" stroke-linecap="round" stroke-linejoin="round"/>
<path d="M244.752 59.1894C233.77 48.2071 222.775 37.2116 211.793 26.2292" stroke="#927CA9" stroke-width="1.58736" stroke-linecap="round" stroke-linejoin="round"/>
<path d="M213.137 111.48C224 100.432 234.864 89.3841 245.727 78.3359" stroke="#927CA9" stroke-width="1.58736" stroke-linecap="round" stroke-linejoin="round"/>
<path d="M17.4867 111.483C19.1448 111.483 20.489 110.139 20.489 108.481C20.489 106.822 19.1448 105.478 17.4867 105.478C15.8286 105.478 14.4844 106.822 14.4844 108.481C14.4844 110.139 15.8286 111.483 17.4867 111.483Z" fill="url(#paint0_linear_8360_216348)"/>
<path d="M102.682 168.421C104.34 168.421 105.684 167.077 105.684 165.419C105.684 163.761 104.34 162.417 102.682 162.417C101.024 162.417 99.6797 163.761 99.6797 165.419C99.6797 167.077 101.024 168.421 102.682 168.421Z" fill="url(#paint1_linear_8360_216348)"/>
<path d="M236.522 144.731C238.18 144.731 239.524 143.387 239.524 141.729C239.524 140.071 238.18 138.727 236.522 138.727C234.864 138.727 233.52 140.071 233.52 141.729C233.52 143.387 234.864 144.731 236.522 144.731Z" fill="url(#paint2_linear_8360_216348)"/>
<path d="M165.584 57.4913C167.242 57.4913 168.587 56.1471 168.587 54.4889C168.587 52.8308 167.242 51.4866 165.584 51.4866C163.926 51.4866 162.582 52.8308 162.582 54.4889C162.582 56.1471 163.926 57.4913 165.584 57.4913Z" fill="url(#paint3_linear_8360_216348)"/>
<path d="M184.769 161.271C189.904 157.412 190.918 157.439 196.251 161.547C192.143 156.227 192.13 155.2 195.975 150.064C190.839 153.923 189.825 153.896 184.492 149.788C188.601 155.108 188.614 156.135 184.769 161.271Z" fill="url(#paint4_linear_8360_216348)"/>
<path d="M111.279 103.49C107.421 98.3544 107.447 97.3405 111.556 92.0073C106.236 96.1158 105.209 96.129 100.073 92.2839C103.932 97.4195 103.905 98.4334 99.7969 103.767C105.117 99.6581 106.144 99.6449 111.279 103.49Z" fill="url(#paint5_linear_8360_216348)"/>
<path d="M49.5487 216.327C45.6905 211.191 45.7168 210.177 49.8252 204.844C44.5054 208.952 43.4783 208.966 38.3429 205.121C42.201 210.256 42.1748 211.27 38.0664 216.603C43.3862 212.495 44.4133 212.482 49.5487 216.327Z" fill="url(#paint6_linear_8360_216348)"/>
<path d="M261.557 75.2554C257.698 70.1198 257.725 69.1059 261.833 63.7727C256.513 67.8812 255.486 67.8944 250.351 64.0492C254.209 69.1849 254.183 70.1988 250.074 75.532C255.394 71.4235 256.421 71.4103 261.557 75.2554Z" fill="url(#paint7_linear_8360_216348)"/>
<defs>
<linearGradient id="paint0_linear_8360_216348" x1="14.4844" y1="108.481" x2="20.489" y2="108.481" gradientUnits="userSpaceOnUse">
<stop stop-color="#54148C"/>
<stop offset="1" stop-color="#A46EDE"/>
</linearGradient>
<linearGradient id="paint1_linear_8360_216348" x1="99.6797" y1="165.419" x2="105.684" y2="165.419" gradientUnits="userSpaceOnUse">
<stop stop-color="#54148C"/>
<stop offset="1" stop-color="#A46EDE"/>
</linearGradient>
<linearGradient id="paint2_linear_8360_216348" x1="233.52" y1="141.729" x2="239.524" y2="141.729" gradientUnits="userSpaceOnUse">
<stop stop-color="#54148C"/>
<stop offset="1" stop-color="#A46EDE"/>
</linearGradient>
<linearGradient id="paint3_linear_8360_216348" x1="162.582" y1="54.4889" x2="168.587" y2="54.4889" gradientUnits="userSpaceOnUse">
<stop stop-color="#54148C"/>
<stop offset="1" stop-color="#A46EDE"/>
</linearGradient>
<linearGradient id="paint4_linear_8360_216348" x1="184.492" y1="155.667" x2="196.251" y2="155.667" gradientUnits="userSpaceOnUse">
<stop stop-color="#54148C"/>
<stop offset="1" stop-color="#A46EDE"/>
</linearGradient>
<linearGradient id="paint5_linear_8360_216348" x1="99.7969" y1="97.887" x2="111.556" y2="97.887" gradientUnits="userSpaceOnUse">
<stop stop-color="#54148C"/>
<stop offset="1" stop-color="#A46EDE"/>
</linearGradient>
<linearGradient id="paint6_linear_8360_216348" x1="38.0664" y1="210.724" x2="49.8252" y2="210.724" gradientUnits="userSpaceOnUse">
<stop stop-color="#54148C"/>
<stop offset="1" stop-color="#A46EDE"/>
</linearGradient>
<linearGradient id="paint7_linear_8360_216348" x1="250.074" y1="69.6523" x2="261.833" y2="69.6523" gradientUnits="userSpaceOnUse">
<stop stop-color="#54148C"/>
<stop offset="1" stop-color="#A46EDE"/>
</linearGradient>
</defs>
</svg>
