<svg width="20" height="20" viewBox="0 0 20 20" fill="none" xmlns="http://www.w3.org/2000/svg">
<path d="M4.99967 17.9167C3.38884 17.9167 2.08301 16.6109 2.08301 15C2.08301 13.3892 3.38884 12.0834 4.99967 12.0834C6.32051 12.0834 7.43634 12.9617 7.79551 14.1667H12.4997V12.5H14.1663V7.70171L12.2972 5.83338H7.49967V7.50005H2.49967V2.50005H7.49967V4.16671H12.2972L14.9997 1.46338L18.5355 5.00005L15.833 7.70088V12.5H17.4997V17.5H12.4997V15.8334H7.79551C7.43717 17.0384 6.32051 17.9167 4.99967 17.9167ZM4.99967 13.75C4.30967 13.75 3.74967 14.31 3.74967 15C3.74967 15.69 4.30967 16.25 4.99967 16.25C5.68967 16.25 6.24967 15.69 6.24967 15C6.24967 14.31 5.68967 13.75 4.99967 13.75ZM15.833 14.1667H14.1663V15.8334H15.833V14.1667ZM14.9997 3.82171L13.8213 5.00005L14.9997 6.17838L16.178 5.00005L14.9997 3.82171ZM5.83301 4.16671H4.16634V5.83338H5.83301V4.16671Z" fill="#9241DC"/>
</svg>
