<svg width="20" height="20" viewBox="0 0 20 20" fill="none" xmlns="http://www.w3.org/2000/svg">
<path d="M10.0003 16.6665C11.7684 16.6665 13.4641 15.9641 14.7144 14.7139C15.9646 13.4636 16.667 11.7679 16.667 9.99984C16.667 8.23173 15.9646 6.53603 14.7144 5.28579C13.4641 4.03555 11.7684 3.33317 10.0003 3.33317C8.23222 3.33317 6.53652 4.03555 5.28628 5.28579C4.03604 6.53603 3.33366 8.23173 3.33366 9.99984C3.33366 11.7679 4.03604 13.4636 5.28628 14.7139C6.53652 15.9641 8.23222 16.6665 10.0003 16.6665V16.6665ZM10.0003 18.3332C5.39783 18.3332 1.66699 14.6023 1.66699 9.99984C1.66699 5.39734 5.39783 1.6665 10.0003 1.6665C14.6028 1.6665 18.3337 5.39734 18.3337 9.99984C18.3337 14.6023 14.6028 18.3332 10.0003 18.3332ZM10.0003 11.6665C9.5583 11.6665 9.13438 11.4909 8.82181 11.1783C8.50925 10.8658 8.33366 10.4419 8.33366 9.99984C8.33366 9.55781 8.50925 9.13389 8.82181 8.82133C9.13438 8.50877 9.5583 8.33317 10.0003 8.33317C10.4424 8.33317 10.8663 8.50877 11.1788 8.82133C11.4914 9.13389 11.667 9.55781 11.667 9.99984C11.667 10.4419 11.4914 10.8658 11.1788 11.1783C10.8663 11.4909 10.4424 11.6665 10.0003 11.6665Z" fill="#9241DC"/>
</svg>
