<svg width="20" height="20" viewBox="0 0 20 20" fill="none" xmlns="http://www.w3.org/2000/svg">
<path d="M9.16699 1.70835V3.38502C5.87866 3.79502 3.33366 6.60002 3.33366 10C3.33366 13.6817 6.31866 16.6667 10.0003 16.6667C11.5412 16.6667 12.9587 16.1442 14.0887 15.2667L15.2745 16.4525C13.8378 17.6275 12.0003 18.3334 10.0003 18.3334C5.39783 18.3334 1.66699 14.6025 1.66699 10C1.66699 5.67919 4.95616 2.12585 9.16699 1.70835V1.70835ZM18.292 10.8334C18.1253 12.5092 17.4637 14.0392 16.4528 15.2734L15.267 14.0884C15.9837 13.1659 16.4637 12.0509 16.6153 10.8334H18.2928H18.292ZM10.8353 1.70835C14.772 2.09919 17.902 5.23002 18.2937 9.16669H16.6162C16.2403 6.15169 13.8503 3.76169 10.8353 3.38502V1.70752V1.70835Z" fill="#9241DC"/>
</svg>
