<svg width="20" height="20" viewBox="0 0 20 20" fill="none" xmlns="http://www.w3.org/2000/svg">
<path d="M12.5 3.33317H4.16667V16.6665H15.8333V6.6665H12.5V3.33317ZM2.5 2.49317C2.5 2.0365 2.8725 1.6665 3.3325 1.6665H13.3333L17.5 5.83317V17.494C17.5008 17.6034 17.48 17.712 17.4388 17.8134C17.3976 17.9148 17.3369 18.0071 17.2601 18.085C17.1832 18.1629 17.0918 18.2249 16.991 18.2675C16.8901 18.3101 16.7819 18.3324 16.6725 18.3332H3.3275C3.10865 18.3316 2.89918 18.2441 2.74435 18.0894C2.58951 17.9347 2.50175 17.7254 2.5 17.5065V2.49317ZM10 6.6665V9.99984H13.3333C13.3333 10.6591 13.1378 11.3036 12.7716 11.8517C12.4053 12.3999 11.8847 12.8271 11.2756 13.0794C10.6665 13.3317 9.9963 13.3977 9.3497 13.2691C8.7031 13.1405 8.10915 12.823 7.64298 12.3569C7.1768 11.8907 6.85933 11.2967 6.73072 10.6501C6.6021 10.0035 6.66811 9.33331 6.9204 8.72423C7.17269 8.11514 7.59994 7.59454 8.1481 7.22827C8.69626 6.862 9.34073 6.6665 10 6.6665Z" fill="#9241DC"/>
</svg>
