<svg width="51" height="39" viewBox="0 0 51 39" fill="none" xmlns="http://www.w3.org/2000/svg">
<g clip-path="url(#clip0_6350_208323)">
<path d="M51.1377 16.7754H32.3184V11.9342H51.1377V16.7754Z" fill="#E669A2"/>
<path d="M48.7109 16.8166H32.3359V4.70825H48.7109V16.8166Z" fill="#F3BE26"/>
<path d="M41.9945 16.8441H32.3848V-0.102905H41.9945V16.8441Z" fill="#EE9C34"/>
<path d="M43.8714 16.8353H32.3711V1.7793H43.8714V16.8353Z" fill="#F3BC87"/>
<path d="M32.3848 1.78027V16.8318H41.9961V1.78027H32.3848Z" fill="#E3721C"/>
<path d="M22.8848 16.7323H32.5211V19.1532H22.8848V16.7323Z" fill="#AD1B02"/>
<path d="M32.3711 4.70435V16.8137H43.8795V4.70435H32.3711Z" fill="#E88D14"/>
<path d="M32.3848 4.70435V16.8137H41.9961V4.70435H32.3848Z" fill="#D85604"/>
<path d="M38.4216 16.7887H32.4121V9.52112H38.4216V16.7887Z" fill="#C14303"/>
<path d="M32.3359 11.9363V16.7725H48.7191V11.9363H32.3359Z" fill="#DB4E18"/>
<path d="M32.3711 11.9363V16.7725H43.8795V11.9363H32.3711Z" fill="#D1390D"/>
<path d="M32.3848 11.9363V16.7725H41.9961V11.9363H32.3848Z" fill="#C22303"/>
<path d="M32.4062 11.9363V16.7725H38.4243V11.9363H32.4062Z" fill="#AD1B02"/>
<path d="M34.7435 25.6818C33.1039 25.9748 32.2295 27.2198 32.2295 29.3804C32.2295 31.5776 33.3954 33.0424 35.1079 33.0424C35.9459 33.0424 36.6746 32.7494 38.2049 31.9804V33.7748C36.3467 34.6536 35.2536 34.8734 33.7962 34.8734C32.1566 34.8734 30.9905 34.4706 30.0797 33.4818C29.1323 32.5297 28.6222 31.2846 28.6222 29.8564C28.6222 26.7438 30.9541 24.5832 34.3427 24.5832C36.5653 24.5832 38.132 25.6452 38.132 27.1466C38.132 28.1354 37.4032 28.8312 36.3466 28.8312C35.8001 28.8312 35.3628 28.6481 34.7434 28.3184M26.5454 29.8565C28.0393 27.9889 28.5859 27.2198 28.5859 26.3043C28.5859 25.3888 27.8571 24.5831 26.8369 24.5831C26.2539 24.5831 25.7075 24.9128 25.4524 25.2057V29.0508L23.0111 32.3465V24.8762H20.6792L16.817 31.2847V24.8762H15.5052L11.9709 25.6819V26.5973L13.902 26.7804V34.7269H16.3432L20.0597 28.5748V34.7269H22.7924M4.57451 33.4818H5.12103C7.08851 33.4818 8.1816 32.2734 8.1816 29.8564C8.1816 27.8424 7.30721 26.7438 5.66749 26.7438C5.4489 26.7438 5.12097 26.7804 4.57445 26.8903V33.4818L4.57451 33.4818ZM4.57451 37.8029L6.17764 38.1691V39.0846H-0.125735V38.1691L1.33165 37.8029V26.7437H-0.271484V25.8283L3.55426 24.6565H4.57456V25.9748C6.35987 24.8762 6.97929 24.6931 7.92658 24.6931C10.0399 24.6931 11.6431 26.6706 11.6431 29.4171C11.6431 32.5664 9.49334 34.7269 6.21407 34.7269C5.84972 34.7269 5.2303 34.6903 4.57451 34.6537" fill="white"/>
</g>
<defs>
<clipPath id="clip0_6350_208323">
<rect x="0.00390625" width="51" height="39" fill="white"/>
</clipPath>
</defs>
</svg>
