<svg width="16" height="17" viewBox="0 0 16 17" fill="none" xmlns="http://www.w3.org/2000/svg">
<path d="M5.33333 3.16683H14V4.50016H5.33333V3.16683ZM3 4.8335C2.73478 4.8335 2.48043 4.72814 2.29289 4.5406C2.10536 4.35307 2 4.09871 2 3.8335C2 3.56828 2.10536 3.31393 2.29289 3.12639C2.48043 2.93885 2.73478 2.8335 3 2.8335C3.26522 2.8335 3.51957 2.93885 3.70711 3.12639C3.89464 3.31393 4 3.56828 4 3.8335C4 4.09871 3.89464 4.35307 3.70711 4.5406C3.51957 4.72814 3.26522 4.8335 3 4.8335ZM3 9.50016C2.73478 9.50016 2.48043 9.39481 2.29289 9.20727C2.10536 9.01973 2 8.76538 2 8.50016C2 8.23495 2.10536 7.98059 2.29289 7.79306C2.48043 7.60552 2.73478 7.50016 3 7.50016C3.26522 7.50016 3.51957 7.60552 3.70711 7.79306C3.89464 7.98059 4 8.23495 4 8.50016C4 8.76538 3.89464 9.01973 3.70711 9.20727C3.51957 9.39481 3.26522 9.50016 3 9.50016ZM3 14.1002C2.73478 14.1002 2.48043 13.9948 2.29289 13.8073C2.10536 13.6197 2 13.3654 2 13.1002C2 12.8349 2.10536 12.5806 2.29289 12.3931C2.48043 12.2055 2.73478 12.1002 3 12.1002C3.26522 12.1002 3.51957 12.2055 3.70711 12.3931C3.89464 12.5806 4 12.8349 4 13.1002C4 13.3654 3.89464 13.6197 3.70711 13.8073C3.51957 13.9948 3.26522 14.1002 3 14.1002ZM5.33333 7.8335H14V9.16683H5.33333V7.8335ZM5.33333 12.5002H14V13.8335H5.33333V12.5002Z" fill="#F04438"/>
</svg>
