<svg width="705" height="868" viewBox="0 0 705 868" fill="none" xmlns="http://www.w3.org/2000/svg">
<path d="M4.38281 158.711V868" stroke="url(#paint0_linear_6267_204854)" stroke-linecap="round" stroke-linejoin="round"/>
<path d="M4.38281 1V108.714" stroke="url(#paint1_linear_6267_204854)" stroke-linecap="round" stroke-linejoin="round"/>
<path d="M56.1055 667.944V867.996" stroke="url(#paint2_linear_6267_204854)" stroke-linecap="round" stroke-linejoin="round"/>
<path d="M56.1055 392.588V599.461" stroke="url(#paint3_linear_6267_204854)" stroke-linecap="round" stroke-linejoin="round"/>
<path d="M56.1055 1V352.412" stroke="url(#paint4_linear_6267_204854)" stroke-linecap="round" stroke-linejoin="round"/>
<path d="M125.936 437.295V867.994" stroke="url(#paint5_linear_6267_204854)" stroke-linecap="round" stroke-linejoin="round"/>
<path d="M125.936 1V284.992" stroke="url(#paint6_linear_6267_204854)" stroke-linecap="round" stroke-linejoin="round"/>
<path d="M195.732 385.688V867.997" stroke="url(#paint7_linear_6267_204854)" stroke-linecap="round" stroke-linejoin="round"/>
<path d="M195.732 1V352.412" stroke="url(#paint8_linear_6267_204854)" stroke-linecap="round" stroke-linejoin="round"/>
<path d="M268.129 218.277V867.993" stroke="url(#paint9_linear_6267_204854)" stroke-linecap="round" stroke-linejoin="round"/>
<path d="M268.129 1V158.707" stroke="url(#paint10_linear_6267_204854)" stroke-linecap="round" stroke-linejoin="round"/>
<path d="M423.281 513.352V867.996" stroke="url(#paint11_linear_6267_204854)" stroke-linecap="round" stroke-linejoin="round"/>
<path d="M423.281 1V434.498" stroke="url(#paint12_linear_6267_204854)" stroke-linecap="round" stroke-linejoin="round"/>
<path d="M697.385 791.941V867.996" stroke="url(#paint13_linear_6267_204854)" stroke-linecap="round" stroke-linejoin="round"/>
<path d="M697.385 158.711V715.891" stroke="url(#paint14_linear_6267_204854)" stroke-linecap="round" stroke-linejoin="round"/>
<path d="M697.385 1V79.8537" stroke="url(#paint15_linear_6267_204854)" stroke-linecap="round" stroke-linejoin="round"/>
<path d="M56.0984 381.939C60.3035 381.939 63.7125 377.914 63.7125 372.949C63.7125 367.985 60.3035 363.96 56.0984 363.96C51.8933 363.96 48.4844 367.985 48.4844 372.949C48.4844 377.914 51.8933 381.939 56.0984 381.939Z" fill="url(#paint16_linear_6267_204854)"/>
<path d="M268.122 197.738C272.327 197.738 275.736 193.713 275.736 188.748C275.736 183.784 272.327 179.759 268.122 179.759C263.917 179.759 260.508 183.784 260.508 188.748C260.508 193.713 263.917 197.738 268.122 197.738Z" fill="url(#paint17_linear_6267_204854)"/>
<path d="M697.393 126.656C701.598 126.656 705.007 122.631 705.007 117.667C705.007 112.702 701.598 108.677 697.393 108.677C693.188 108.677 689.779 112.702 689.779 117.667C689.779 122.631 693.188 126.656 697.393 126.656Z" fill="url(#paint18_linear_6267_204854)"/>
<path d="M423.289 482.125C426.258 482.125 428.665 479.283 428.665 475.777C428.665 472.272 426.258 469.43 423.289 469.43C420.319 469.43 417.912 472.272 417.912 475.777C417.912 479.283 420.319 482.125 423.289 482.125Z" fill="url(#paint19_linear_6267_204854)"/>
<path d="M697.378 754.876C700.348 754.876 702.755 752.034 702.755 748.528C702.755 745.023 700.348 742.181 697.378 742.181C694.409 742.181 692.002 745.023 692.002 748.528C692.002 752.034 694.409 754.876 697.378 754.876Z" fill="url(#paint20_linear_6267_204854)"/>
<path d="M195.741 371.808C197.327 371.808 198.613 370.29 198.613 368.417C198.613 366.545 197.327 365.027 195.741 365.027C194.155 365.027 192.869 366.545 192.869 368.417C192.869 370.29 194.155 371.808 195.741 371.808Z" fill="url(#paint21_linear_6267_204854)"/>
<path d="M157.583 353.795C132.07 349.655 129.265 346.304 125.859 316.181C122.352 346.304 119.514 349.615 94 353.637C119.514 357.777 122.319 361.128 125.725 391.25C129.231 361.128 132.07 357.816 157.583 353.795Z" fill="url(#paint22_linear_6267_204854)"/>
<path d="M56.1148 644.011C59.0842 644.011 61.4914 641.169 61.4914 637.664C61.4914 634.158 59.0842 631.316 56.1148 631.316C53.1454 631.316 50.7383 634.158 50.7383 637.664C50.7383 641.169 53.1454 644.011 56.1148 644.011Z" fill="url(#paint23_linear_6267_204854)"/>
<path d="M4.3765 142.976C7.34588 142.976 9.7531 140.134 9.7531 136.629C9.7531 133.123 7.34588 130.281 4.3765 130.281C1.40711 130.281 -1 133.123 -1 136.629C-1 140.134 1.40711 142.976 4.3765 142.976Z" fill="url(#paint24_linear_6267_204854)"/>
<defs>
<linearGradient id="paint0_linear_6267_204854" x1="4.38281" y1="513.355" x2="5.38281" y2="513.355" gradientUnits="userSpaceOnUse">
<stop stop-color="#54148C"/>
<stop offset="1" stop-color="#A46EDE"/>
</linearGradient>
<linearGradient id="paint1_linear_6267_204854" x1="4.38281" y1="54.8571" x2="5.38281" y2="54.8571" gradientUnits="userSpaceOnUse">
<stop stop-color="#54148C"/>
<stop offset="1" stop-color="#A46EDE"/>
</linearGradient>
<linearGradient id="paint2_linear_6267_204854" x1="56.1055" y1="767.97" x2="57.1055" y2="767.97" gradientUnits="userSpaceOnUse">
<stop stop-color="#54148C"/>
<stop offset="1" stop-color="#A46EDE"/>
</linearGradient>
<linearGradient id="paint3_linear_6267_204854" x1="56.1055" y1="496.025" x2="57.1055" y2="496.025" gradientUnits="userSpaceOnUse">
<stop stop-color="#54148C"/>
<stop offset="1" stop-color="#A46EDE"/>
</linearGradient>
<linearGradient id="paint4_linear_6267_204854" x1="56.1055" y1="176.706" x2="57.1055" y2="176.706" gradientUnits="userSpaceOnUse">
<stop stop-color="#54148C"/>
<stop offset="1" stop-color="#A46EDE"/>
</linearGradient>
<linearGradient id="paint5_linear_6267_204854" x1="125.936" y1="652.645" x2="126.936" y2="652.645" gradientUnits="userSpaceOnUse">
<stop stop-color="#54148C"/>
<stop offset="1" stop-color="#A46EDE"/>
</linearGradient>
<linearGradient id="paint6_linear_6267_204854" x1="125.936" y1="142.996" x2="126.936" y2="142.996" gradientUnits="userSpaceOnUse">
<stop stop-color="#54148C"/>
<stop offset="1" stop-color="#A46EDE"/>
</linearGradient>
<linearGradient id="paint7_linear_6267_204854" x1="195.732" y1="626.842" x2="196.732" y2="626.842" gradientUnits="userSpaceOnUse">
<stop stop-color="#54148C"/>
<stop offset="1" stop-color="#A46EDE"/>
</linearGradient>
<linearGradient id="paint8_linear_6267_204854" x1="195.732" y1="176.706" x2="196.732" y2="176.706" gradientUnits="userSpaceOnUse">
<stop stop-color="#54148C"/>
<stop offset="1" stop-color="#A46EDE"/>
</linearGradient>
<linearGradient id="paint9_linear_6267_204854" x1="268.129" y1="543.135" x2="269.129" y2="543.135" gradientUnits="userSpaceOnUse">
<stop stop-color="#54148C"/>
<stop offset="1" stop-color="#A46EDE"/>
</linearGradient>
<linearGradient id="paint10_linear_6267_204854" x1="268.129" y1="79.8537" x2="269.129" y2="79.8537" gradientUnits="userSpaceOnUse">
<stop stop-color="#54148C"/>
<stop offset="1" stop-color="#A46EDE"/>
</linearGradient>
<linearGradient id="paint11_linear_6267_204854" x1="423.281" y1="690.674" x2="424.281" y2="690.674" gradientUnits="userSpaceOnUse">
<stop stop-color="#54148C"/>
<stop offset="1" stop-color="#A46EDE"/>
</linearGradient>
<linearGradient id="paint12_linear_6267_204854" x1="423.281" y1="217.749" x2="424.281" y2="217.749" gradientUnits="userSpaceOnUse">
<stop stop-color="#54148C"/>
<stop offset="1" stop-color="#A46EDE"/>
</linearGradient>
<linearGradient id="paint13_linear_6267_204854" x1="697.385" y1="829.969" x2="698.385" y2="829.969" gradientUnits="userSpaceOnUse">
<stop stop-color="#54148C"/>
<stop offset="1" stop-color="#A46EDE"/>
</linearGradient>
<linearGradient id="paint14_linear_6267_204854" x1="697.385" y1="437.301" x2="698.385" y2="437.301" gradientUnits="userSpaceOnUse">
<stop stop-color="#54148C"/>
<stop offset="1" stop-color="#A46EDE"/>
</linearGradient>
<linearGradient id="paint15_linear_6267_204854" x1="697.385" y1="40.4269" x2="698.385" y2="40.4269" gradientUnits="userSpaceOnUse">
<stop stop-color="#54148C"/>
<stop offset="1" stop-color="#A46EDE"/>
</linearGradient>
<linearGradient id="paint16_linear_6267_204854" x1="48.4844" y1="372.949" x2="63.7125" y2="372.949" gradientUnits="userSpaceOnUse">
<stop stop-color="#261536"/>
<stop offset="1" stop-color="#54148C"/>
</linearGradient>
<linearGradient id="paint17_linear_6267_204854" x1="260.508" y1="188.748" x2="275.736" y2="188.748" gradientUnits="userSpaceOnUse">
<stop stop-color="#261536"/>
<stop offset="1" stop-color="#54148C"/>
</linearGradient>
<linearGradient id="paint18_linear_6267_204854" x1="689.779" y1="117.667" x2="705.007" y2="117.667" gradientUnits="userSpaceOnUse">
<stop stop-color="#261536"/>
<stop offset="1" stop-color="#54148C"/>
</linearGradient>
<linearGradient id="paint19_linear_6267_204854" x1="417.912" y1="475.777" x2="428.665" y2="475.777" gradientUnits="userSpaceOnUse">
<stop stop-color="#261536"/>
<stop offset="1" stop-color="#54148C"/>
</linearGradient>
<linearGradient id="paint20_linear_6267_204854" x1="692.002" y1="748.528" x2="702.755" y2="748.528" gradientUnits="userSpaceOnUse">
<stop stop-color="#261536"/>
<stop offset="1" stop-color="#54148C"/>
</linearGradient>
<linearGradient id="paint21_linear_6267_204854" x1="192.869" y1="368.417" x2="198.613" y2="368.417" gradientUnits="userSpaceOnUse">
<stop stop-color="#261536"/>
<stop offset="1" stop-color="#54148C"/>
</linearGradient>
<linearGradient id="paint22_linear_6267_204854" x1="94" y1="353.716" x2="157.583" y2="353.716" gradientUnits="userSpaceOnUse">
<stop stop-color="#261536"/>
<stop offset="1" stop-color="#54148C"/>
</linearGradient>
<linearGradient id="paint23_linear_6267_204854" x1="50.7383" y1="637.664" x2="61.4914" y2="637.664" gradientUnits="userSpaceOnUse">
<stop stop-color="#261536"/>
<stop offset="1" stop-color="#54148C"/>
</linearGradient>
<linearGradient id="paint24_linear_6267_204854" x1="-1" y1="136.629" x2="9.7531" y2="136.629" gradientUnits="userSpaceOnUse">
<stop stop-color="#261536"/>
<stop offset="1" stop-color="#54148C"/>
</linearGradient>
</defs>
</svg>
