<svg width="40" height="41" viewBox="0 0 40 41" fill="none" xmlns="http://www.w3.org/2000/svg">
<path d="M11.2753 20.8034L10.1612 21.849C9.68695 22.2941 9.36906 22.849 9.21984 23.4427H1.69586C1.57719 23.4427 1.475 23.3955 1.39812 23.305C1.32133 23.2145 1.29109 23.1062 1.31031 22.989C1.94953 19.0849 5.33836 16.1057 9.4232 16.1057C10.7616 16.1057 12.0252 16.4255 13.1418 16.9929C12.5064 17.4423 12.0386 18.1173 11.8495 18.9248L11.501 20.4123C11.462 20.5788 11.3999 20.6865 11.2753 20.8034ZM38.6876 22.989C38.0483 19.0849 34.6595 16.1058 30.5747 16.1058C29.2364 16.1058 27.9728 16.4256 26.8561 16.9929C27.4915 17.4423 27.9593 18.1173 28.1484 18.9248L28.4969 20.4123C28.5359 20.5788 28.598 20.6865 28.7227 20.8034L29.8366 21.8489C30.3109 22.2941 30.6288 22.8489 30.778 23.4427H38.302C38.3587 23.4429 38.4148 23.4308 38.4664 23.4071C38.5179 23.3834 38.5637 23.3488 38.6004 23.3055C38.6371 23.2623 38.6639 23.2116 38.679 23.1569C38.6941 23.1022 38.697 23.0449 38.6876 22.989ZM19.9991 11.1081C22.6911 11.1081 24.8734 8.92578 24.8734 6.23375C24.8734 3.54172 22.6911 1.35938 19.9991 1.35938C17.307 1.35938 15.1247 3.54172 15.1247 6.23375C15.1247 8.92578 17.307 11.1081 19.9991 11.1081ZM26.4799 33.091C26.3699 33.1509 26.293 33.2254 26.2172 33.3413L25.3809 34.6198C24.6777 35.6952 23.4473 36.2441 22.2093 36.0777L23.8195 39.5361C23.8812 39.6688 24.0661 39.677 24.1396 39.5506L25.5371 37.1458L28.277 37.6245C28.4213 37.6498 28.5339 37.5029 28.472 37.3702L26.4799 33.091ZM22.7723 24.3212L21.2346 24.3242C21.0576 24.3245 20.907 24.2152 20.8526 24.0466L20.3802 22.5833C20.2616 22.2159 19.7364 22.216 19.6178 22.5833L19.1455 24.0467C19.0911 24.2152 18.9405 24.3246 18.7634 24.3242L17.2257 24.3212C16.8374 24.3205 16.6755 24.8188 16.9901 25.0464L18.2359 25.9479C18.3793 26.0517 18.4368 26.2287 18.3818 26.397L17.9038 27.8585C17.7833 28.227 18.2074 28.5352 18.5207 28.3066L19.763 27.4004C19.9061 27.2961 20.0922 27.2961 20.2352 27.4004L21.4775 28.3066C21.7908 28.5351 22.2148 28.227 22.0944 27.8585L21.6164 26.397C21.5613 26.2287 21.6188 26.0517 21.7623 25.9479L23.008 25.0464C23.3225 24.8188 23.1606 24.3205 22.7723 24.3212ZM28.9815 22.7602C29.6485 23.3862 29.8166 24.3399 29.404 25.1563C28.3295 27.2819 28.4095 26.8288 28.6921 29.1936C28.8007 30.102 28.3165 30.9405 27.4755 31.3007C25.2862 32.2383 25.6387 31.9426 24.3351 33.9358C23.8344 34.7014 22.9245 35.0326 22.0487 34.768C19.7689 34.079 20.2291 34.0789 17.9492 34.768C17.0736 35.0326 16.1636 34.7014 15.6629 33.9358C14.3593 31.9426 14.7118 32.2383 12.5224 31.3007C11.6815 30.9405 11.1973 30.102 11.3059 29.1936C11.5885 26.8288 11.6685 27.2819 10.594 25.1563C10.1813 24.3399 10.3495 23.3862 11.0165 22.7602C12.7531 21.1303 12.523 21.5288 13.0662 19.2099C13.2748 18.3192 14.0167 17.6968 14.9301 17.6459C17.308 17.5137 16.8757 17.671 18.7824 16.2438C19.5148 15.6956 20.4831 15.6956 21.2155 16.2438C23.1222 17.671 22.6898 17.5137 25.0678 17.6459C25.9812 17.6967 26.723 18.3192 26.9316 19.2099C27.4749 21.5288 27.2449 21.1304 28.9815 22.7602ZM25.3371 25.3454C25.3371 22.3973 22.9472 20.0073 19.999 20.0073C17.0508 20.0073 14.6609 22.3973 14.6609 25.3454C14.6609 28.2935 17.0509 30.6835 19.999 30.6835C22.9471 30.6835 25.3371 28.2935 25.3371 25.3454ZM13.7808 33.3413C13.705 33.2254 13.628 33.1509 13.5181 33.091L11.5259 37.3701C11.4641 37.5028 11.5766 37.6496 11.7209 37.6245L14.4609 37.1457L15.8584 39.5505C15.932 39.677 16.117 39.6686 16.1786 39.536L17.7887 36.0776C15.6002 36.3718 14.7791 34.8677 13.7808 33.3413ZM30.5748 15.3245C32.8705 15.3245 34.7316 13.4634 34.7316 11.1676C34.7316 8.8718 32.8705 7.0107 30.5748 7.0107C28.279 7.0107 26.4179 8.87187 26.4179 11.1676C26.4178 13.4634 28.2789 15.3245 30.5748 15.3245ZM12.5655 15.392C13.294 15.6486 13.9884 15.9934 14.6333 16.4187C15.1771 16.3516 16.4487 16.4298 16.8105 16.1589L18.0337 15.2434C19.2099 14.363 20.7884 14.363 21.9645 15.2434L23.1877 16.1589C23.5498 16.4299 24.8208 16.3514 25.3648 16.4187C26.0097 15.9934 26.7041 15.6487 27.4327 15.392C25.6645 13.2528 22.9912 11.8894 19.9991 11.8894C17.0069 11.8894 14.3336 13.2527 12.5655 15.392ZM9.42336 15.3245C11.7191 15.3245 13.5802 13.4634 13.5802 11.1676C13.5802 8.8718 11.7191 7.0107 9.42336 7.0107C7.12758 7.0107 5.2664 8.87187 5.2664 11.1676C5.2664 13.4634 7.12758 15.3245 9.42336 15.3245Z" fill="#A862EA"/>
</svg>
