<svg width="16" height="17" viewBox="0 0 16 17" fill="none" xmlns="http://www.w3.org/2000/svg">
<g id="Option Icon">
<path id="Vector" d="M3.9987 1.83398C5.79203 1.83398 7.34803 2.84532 8.13003 4.32798C8.9147 3.22265 10.2054 2.50065 11.6654 2.50065H13.9987V4.16732C13.9987 6.56065 12.0587 8.50065 9.66537 8.50065H8.66536V9.16732H11.9987V13.834C11.9987 14.5707 11.402 15.1673 10.6654 15.1673H5.33203C4.59536 15.1673 3.9987 14.5707 3.9987 13.834V9.16732H7.33203V7.83398H5.9987C3.42136 7.83398 1.33203 5.74465 1.33203 3.16732V1.83398H3.9987ZM10.6654 10.5007H5.33203V13.834H10.6654V10.5007ZM12.6654 3.83398H11.6654C10.0087 3.83398 8.66536 5.17732 8.66536 6.83398V7.16732H9.66537C11.322 7.16732 12.6654 5.82398 12.6654 4.16732V3.83398ZM3.9987 3.16732H2.66536C2.66536 5.00798 4.15803 6.50065 5.9987 6.50065H7.33203C7.33203 4.65998 5.83936 3.16732 3.9987 3.16732Z" fill="#17B26A"/>
</g>
</svg>
