<svg width="18" height="19" viewBox="0 0 18 19" fill="none" xmlns="http://www.w3.org/2000/svg">
<g id="shield-star-fill">
<path id="Vector" d="M2.83725 2.6195L9 1.25L15.1627 2.6195C15.3293 2.65652 15.4782 2.74922 15.585 2.8823C15.6918 3.01538 15.75 3.18089 15.75 3.3515V10.8417C15.7499 11.5826 15.567 12.3119 15.2174 12.965C14.8678 13.6181 14.3624 14.1749 13.746 14.5858L9 17.75L4.254 14.5858C3.63771 14.1749 3.13235 13.6183 2.78276 12.9653C2.43318 12.3124 2.25018 11.5832 2.25 10.8425V3.3515C2.25003 3.18089 2.30823 3.01538 2.41499 2.8823C2.52176 2.74922 2.6707 2.65652 2.83725 2.6195ZM9 10.625L11.2043 11.7838L10.7835 9.32975L12.5662 7.59125L10.1017 7.23275L9 5L7.8975 7.23275L5.43375 7.59125L7.2165 9.32975L6.7965 11.7838L9 10.625Z" fill="url(#paint0_linear_8625_160935)"/>
</g>
<defs>
<linearGradient id="paint0_linear_8625_160935" x1="2.25" y1="9.5" x2="15.75" y2="9.5" gradientUnits="userSpaceOnUse">
<stop stop-color="#54148C"/>
<stop offset="1" stop-color="#A46EDE"/>
</linearGradient>
</defs>
</svg>
