<svg width="20" height="20" viewBox="0 0 20 20" fill="none" xmlns="http://www.w3.org/2000/svg">
<path d="M1.66699 10.0002C1.66699 9.27934 1.75866 8.58101 1.93033 7.91351C2.39071 7.93771 2.84883 7.83413 3.25403 7.61423C3.65922 7.39433 3.99573 7.06666 4.22633 6.66746C4.45694 6.26826 4.57266 5.81306 4.56072 5.35219C4.54878 4.89132 4.40963 4.44273 4.15866 4.05601C5.16611 3.06481 6.40932 2.34642 7.77116 1.96851C7.98032 2.37973 8.29919 2.72506 8.69248 2.96626C9.08577 3.20747 9.53813 3.33513 9.99949 3.33513C10.4609 3.33513 10.9132 3.20747 11.3065 2.96626C11.6998 2.72506 12.0187 2.37973 12.2278 1.96851C13.5897 2.34642 14.8329 3.06481 15.8403 4.05601C15.5891 4.4428 15.4497 4.89156 15.4377 5.35264C15.4257 5.81372 15.5414 6.26914 15.7722 6.66852C16.0029 7.06789 16.3396 7.39564 16.7451 7.61552C17.1505 7.83539 17.6089 7.93881 18.0695 7.91434C18.2412 8.58101 18.3328 9.27934 18.3328 10.0002C18.3328 10.721 18.2412 11.4193 18.0695 12.0868C17.609 12.0625 17.1508 12.1659 16.7455 12.3858C16.3402 12.6056 16.0035 12.9333 15.7728 13.3325C15.5421 13.7317 15.4263 14.187 15.4382 14.6479C15.4501 15.1089 15.5893 15.5576 15.8403 15.9443C14.8329 16.9355 13.5897 17.6539 12.2278 18.0318C12.0187 17.6206 11.6998 17.2753 11.3065 17.0341C10.9132 16.7929 10.4609 16.6652 9.99949 16.6652C9.53813 16.6652 9.08577 16.7929 8.69248 17.0341C8.29919 17.2753 7.98032 17.6206 7.77116 18.0318C6.40932 17.6539 5.16611 16.9355 4.15866 15.9443C4.40991 15.5575 4.54927 15.1088 4.5613 14.6477C4.57333 14.1866 4.45757 13.7312 4.22684 13.3318C3.9961 12.9325 3.65937 12.6047 3.25391 12.3848C2.84846 12.165 2.39008 12.0615 1.92949 12.086C1.75866 11.4202 1.66699 10.7218 1.66699 10.0002ZM5.67033 12.5002C6.19533 13.4093 6.34533 14.4552 6.14033 15.4368C6.48033 15.6785 6.84199 15.8877 7.22116 16.0618C7.98505 15.3775 8.97475 14.9995 10.0003 15.0002C11.0503 15.0002 12.032 15.3927 12.7795 16.0618C13.1587 15.8877 13.5203 15.6785 13.8603 15.4368C13.6499 14.4335 13.8172 13.3877 14.3303 12.5002C14.8425 11.6122 15.6645 10.9445 16.6387 10.6252C16.6772 10.2094 16.6772 9.79095 16.6387 9.37517C15.6642 9.05606 14.8419 8.38835 14.3295 7.50017C13.8164 6.61261 13.649 5.56687 13.8595 4.56351C13.5196 4.32177 13.1577 4.11252 12.7787 3.93851C12.015 4.62262 11.0256 5.00068 10.0003 5.00017C8.97475 5.00089 7.98505 4.62281 7.22116 3.93851C6.8421 4.11253 6.48023 4.32178 6.14033 4.56351C6.3508 5.56687 6.18343 6.61261 5.67033 7.50017C5.15814 8.38819 4.33614 9.05588 3.36199 9.37517C3.32345 9.79095 3.32345 10.2094 3.36199 10.6252C4.33645 10.9443 5.15877 11.612 5.67116 12.5002H5.67033ZM10.0003 12.5002C9.33728 12.5002 8.7014 12.2368 8.23256 11.7679C7.76372 11.2991 7.50033 10.6632 7.50033 10.0002C7.50033 9.33713 7.76372 8.70125 8.23256 8.23241C8.7014 7.76356 9.33728 7.50017 10.0003 7.50017C10.6634 7.50017 11.2993 7.76356 11.7681 8.23241C12.2369 8.70125 12.5003 9.33713 12.5003 10.0002C12.5003 10.6632 12.2369 11.2991 11.7681 11.7679C11.2993 12.2368 10.6634 12.5002 10.0003 12.5002ZM10.0003 10.8335C10.2213 10.8335 10.4333 10.7457 10.5896 10.5894C10.7459 10.4331 10.8337 10.2212 10.8337 10.0002C10.8337 9.77916 10.7459 9.5672 10.5896 9.41092C10.4333 9.25464 10.2213 9.16684 10.0003 9.16684C9.77931 9.16684 9.56735 9.25464 9.41107 9.41092C9.25479 9.5672 9.16699 9.77916 9.16699 10.0002C9.16699 10.2212 9.25479 10.4331 9.41107 10.5894C9.56735 10.7457 9.77931 10.8335 10.0003 10.8335V10.8335Z" fill="#0F1324" fill-opacity="0.6"/>
</svg>
