<svg width="40" height="41" viewBox="0 0 40 41" fill="none" xmlns="http://www.w3.org/2000/svg">
<g id="Frame">
<g id="Group" opacity="0.6">
<path id="Vector" d="M24.4771 35.994C23.0758 36.4876 21.5699 36.757 20.0019 36.757C18.4794 36.7581 16.9677 36.5006 15.5313 35.9956C14.9751 36.903 14.2751 37.7137 13.4543 38.4027C15.4628 39.2741 17.6766 39.7583 20.0018 39.7583C22.3264 39.7583 24.5399 39.2743 26.5481 38.4033C25.733 37.7165 25.0337 36.903 24.4771 35.994ZM11.2072 13.01C10.6975 12.0736 10.3418 11.0612 10.154 10.0117C6.59564 12.6653 4.1396 16.7177 3.60547 21.3469C4.60823 20.9837 5.66268 20.7833 6.7288 20.7534C7.30564 17.6808 8.92603 14.9717 11.2072 13.01ZM33.2752 20.7534C34.3413 20.7832 35.3958 20.9836 36.3985 21.3469C35.8643 16.7178 33.4083 12.6653 29.85 10.0117C29.6621 11.0612 29.3065 12.0736 28.7968 13.01C31.0778 14.9717 32.6982 17.6807 33.2752 20.7534Z" fill="#17B26A"/>
<path id="Vector_2" d="M19.9991 15.2481C23.8667 15.2481 27.002 12.1128 27.002 8.24516C27.002 4.37753 23.8667 1.24219 19.9991 1.24219C16.1314 1.24219 12.9961 4.37753 12.9961 8.24516C12.9961 12.1128 16.1314 15.2481 19.9991 15.2481Z" fill="#17B26A"/>
<path id="Vector_3" d="M3.50269 24.6894C0.153163 26.6232 -0.994424 30.9062 0.939397 34.2557C2.23655 36.5023 4.59045 37.7584 7.01078 37.7584C8.19868 37.7584 9.40289 37.4557 10.5057 36.819C13.8551 34.8851 15.0028 30.602 13.069 27.2527C11.7718 25.0059 9.418 23.7499 6.99757 23.75C5.80967 23.75 4.60536 24.0527 3.50269 24.6894ZM26.931 27.2528C24.9973 30.6022 26.1449 34.8851 29.4943 36.819C30.5973 37.4557 31.8012 37.7585 32.9893 37.7585C35.4094 37.7585 37.7635 36.5023 39.0606 34.2558C40.9943 30.9063 39.8468 26.6232 36.4973 24.6894C35.3944 24.0526 34.1906 23.7499 33.0024 23.75C30.5823 23.7501 28.2281 25.0062 26.931 27.2528Z" fill="#17B26A"/>
</g>
</g>
</svg>
