<svg width="40" height="41" viewBox="0 0 40 41" fill="none" xmlns="http://www.w3.org/2000/svg">
<g id="Frame">
<g id="Group">
<path id="Vector" d="M9.10129 6.44219C9.53004 6.62969 9.87254 6.97219 10.06 7.40094L10.3313 8.02094C10.3413 8.04397 10.3578 8.06358 10.3788 8.07736C10.3997 8.09113 10.4243 8.09847 10.4494 8.09847C10.4745 8.09847 10.4991 8.09113 10.5201 8.07736C10.541 8.06358 10.5575 8.04397 10.5675 8.02094L10.8388 7.40094C11.0263 6.97219 11.3688 6.62969 11.7975 6.44219L12.4175 6.17094C12.4406 6.16095 12.4602 6.14445 12.474 6.12346C12.4877 6.10247 12.4951 6.07792 12.4951 6.05281C12.4951 6.02771 12.4877 6.00315 12.474 5.98216C12.4602 5.96118 12.4406 5.94467 12.4175 5.93469L11.7988 5.66344C11.37 5.47587 11.0276 5.13352 10.84 4.70469L10.5675 4.08469C10.5575 4.06165 10.541 4.04204 10.5201 4.02827C10.4991 4.01449 10.4745 4.00715 10.4494 4.00715C10.4243 4.00715 10.3997 4.01449 10.3788 4.02827C10.3578 4.04204 10.3413 4.06165 10.3313 4.08469L10.06 4.70469C9.87254 5.13344 9.53004 5.47594 9.10129 5.66344L8.48129 5.93469C8.45825 5.94467 8.43864 5.96118 8.42487 5.98216C8.41109 6.00315 8.40375 6.02771 8.40375 6.05281C8.40375 6.07792 8.41109 6.10247 8.42487 6.12346C8.43864 6.14445 8.45825 6.16095 8.48129 6.17094L9.10129 6.44219ZM5.89378 23.8309C5.46495 23.6434 5.1226 23.301 4.93503 22.8722L4.66378 22.2522C4.6538 22.2292 4.6373 22.2095 4.61631 22.1958C4.59532 22.182 4.57076 22.1747 4.54566 22.1747C4.52055 22.1747 4.496 22.182 4.47501 22.1958C4.45402 22.2095 4.43752 22.2292 4.42753 22.2522L4.15628 22.8722C3.96878 23.3009 3.62628 23.6434 3.19753 23.8309L2.57753 24.1022C2.5545 24.1122 2.53489 24.1287 2.52111 24.1497C2.50734 24.1707 2.5 24.1952 2.5 24.2203C2.5 24.2454 2.50734 24.27 2.52111 24.291C2.53489 24.3119 2.5545 24.3284 2.57753 24.3384L3.19753 24.6097C3.62628 24.7972 3.96878 25.1397 4.15628 25.5684L4.42753 26.1884C4.43752 26.2115 4.45402 26.2311 4.47501 26.2449C4.496 26.2586 4.52055 26.266 4.54566 26.266C4.57076 26.266 4.59532 26.2586 4.61631 26.2449C4.6373 26.2311 4.6538 26.2115 4.66378 26.1884L4.93503 25.5684C5.12253 25.1397 5.46503 24.7972 5.89378 24.6097L6.51378 24.3384C6.53682 24.3284 6.55643 24.3119 6.5702 24.291C6.58398 24.27 6.59132 24.2454 6.59132 24.2203C6.59132 24.1952 6.58398 24.1707 6.5702 24.1497C6.55643 24.1287 6.53682 24.1122 6.51378 24.1022L5.89378 23.8309ZM28.2025 6.44219C28.6313 6.62969 28.9738 6.97219 29.1613 7.40094L29.4325 8.02094C29.4425 8.04397 29.459 8.06358 29.48 8.07736C29.501 8.09113 29.5256 8.09847 29.5507 8.09847C29.5758 8.09847 29.6003 8.09113 29.6213 8.07736C29.6423 8.06358 29.6588 8.04397 29.6688 8.02094L29.94 7.40094C30.1275 6.97219 30.47 6.62969 30.8988 6.44219L31.5188 6.17094C31.5418 6.16095 31.5614 6.14445 31.5752 6.12346C31.589 6.10247 31.5963 6.07792 31.5963 6.05281C31.5963 6.02771 31.589 6.00315 31.5752 5.98216C31.5614 5.96118 31.5418 5.94467 31.5188 5.93469L30.9 5.66344C30.4712 5.47587 30.1289 5.13352 29.9413 4.70469L29.67 4.08469C29.66 4.06165 29.6435 4.04204 29.6226 4.02827C29.6016 4.01449 29.577 4.00715 29.5519 4.00715C29.5268 4.00715 29.5022 4.01449 29.4813 4.02827C29.4603 4.04204 29.4438 4.06165 29.4338 4.08469L29.1625 4.70469C28.975 5.13344 28.6325 5.47594 28.2038 5.66344L27.5838 5.93469C27.5608 5.94467 27.5411 5.96118 27.5274 5.98216C27.5136 6.00315 27.5063 6.02771 27.5063 6.05281C27.5063 6.07792 27.5136 6.10247 27.5274 6.12346C27.5411 6.14445 27.5608 6.16095 27.5838 6.17094L28.2025 6.44219ZM37.4225 24.1022L36.8025 23.8309C36.3737 23.6434 36.0314 23.301 35.8438 22.8722L35.5725 22.2522C35.5625 22.2292 35.546 22.2095 35.5251 22.1958C35.5041 22.182 35.4795 22.1747 35.4544 22.1747C35.4293 22.1747 35.4048 22.182 35.3838 22.1958C35.3628 22.2095 35.3463 22.2292 35.3363 22.2522L35.065 22.8722C34.8775 23.3009 34.535 23.6434 34.1063 23.8309L33.4863 24.1022C33.4633 24.1122 33.4436 24.1287 33.4299 24.1497C33.4161 24.1707 33.4088 24.1952 33.4088 24.2203C33.4088 24.2454 33.4161 24.27 33.4299 24.291C33.4436 24.3119 33.4633 24.3284 33.4863 24.3384L34.1063 24.6097C34.535 24.7972 34.8775 25.1397 35.065 25.5684L35.3363 26.1884C35.3463 26.2115 35.3628 26.2311 35.3838 26.2449C35.4048 26.2586 35.4293 26.266 35.4544 26.266C35.4795 26.266 35.5041 26.2586 35.5251 26.2449C35.546 26.2311 35.5625 26.2115 35.5725 26.1884L35.8438 25.5684C36.0313 25.1397 36.3738 24.7972 36.8025 24.6097L37.4225 24.3384C37.4456 24.3284 37.4652 24.3119 37.479 24.291C37.4927 24.27 37.5001 24.2454 37.5001 24.2203C37.5001 24.1952 37.4927 24.1707 37.479 24.1497C37.4652 24.1287 37.4456 24.1122 37.4225 24.1022ZM21.3488 35.0597C20.92 34.8721 20.5776 34.5298 20.39 34.1009L20.1188 33.4809C20.1088 33.4579 20.0923 33.4383 20.0713 33.4245C20.0503 33.4107 20.0258 33.4034 20.0007 33.4034C19.9756 33.4034 19.951 33.4107 19.93 33.4245C19.909 33.4383 19.8925 33.4579 19.8825 33.4809L19.6113 34.1009C19.4238 34.5297 19.0813 34.8722 18.6525 35.0597L18.0325 35.3309C18.0095 35.3409 17.9899 35.3574 17.9761 35.3784C17.9623 35.3994 17.955 35.424 17.955 35.4491C17.955 35.4742 17.9623 35.4987 17.9761 35.5197C17.9899 35.5407 18.0095 35.5572 18.0325 35.5672L18.6525 35.8384C19.0813 36.0259 19.4238 36.3684 19.6113 36.7972L19.8825 37.4172C19.8925 37.4402 19.909 37.4598 19.93 37.4736C19.951 37.4874 19.9756 37.4947 20.0007 37.4947C20.0258 37.4947 20.0503 37.4874 20.0713 37.4736C20.0923 37.4598 20.1088 37.4402 20.1188 37.4172L20.39 36.7972C20.5775 36.3684 20.92 36.0259 21.3488 35.8384L21.9688 35.5672C21.9918 35.5572 22.0114 35.5407 22.0252 35.5197C22.039 35.4987 22.0463 35.4742 22.0463 35.4491C22.0463 35.424 22.039 35.3994 22.0252 35.3784C22.0114 35.3574 21.9918 35.3409 21.9688 35.3309L21.3488 35.0597ZM21.795 4.61969L24.8888 10.8884C25.18 11.4784 25.7438 11.8884 26.395 11.9834L33.3125 12.9872C34.9538 13.2259 35.6088 15.2422 34.4213 16.3997L29.4163 21.2784C29.1841 21.505 29.0105 21.7846 28.9104 22.0932C28.8102 22.4017 28.7865 22.73 28.8413 23.0497L30.0225 29.9397C30.3025 31.5747 28.5875 32.8209 27.12 32.0484L20.9325 28.7959C20.6453 28.6451 20.3257 28.5662 20.0013 28.5662C19.6768 28.5662 19.3573 28.6451 19.07 28.7959L12.8825 32.0484C11.415 32.8197 9.69879 31.5734 9.98004 29.9397L11.1613 23.0497C11.2161 22.73 11.1924 22.4017 11.0922 22.0932C10.992 21.7846 10.8184 21.505 10.5863 21.2784L5.58128 16.3997C4.39378 15.2422 5.04878 13.2259 6.69003 12.9872L13.6075 11.9822C13.9286 11.9355 14.2335 11.8115 14.4959 11.6207C14.7583 11.4299 14.9704 11.1782 15.1138 10.8872L18.2075 4.61844C18.94 3.13219 21.0613 3.13219 21.795 4.61969Z" fill="#F79009"/>
</g>
</g>
</svg>
