<svg width="16" height="17" viewBox="0 0 16 17" fill="none" xmlns="http://www.w3.org/2000/svg">
<path d="M12.6673 15.1668H3.33398C2.80355 15.1668 2.29484 14.9561 1.91977 14.581C1.5447 14.206 1.33398 13.6973 1.33398 13.1668V2.50016C1.33398 2.32335 1.40422 2.15378 1.52925 2.02876C1.65427 1.90373 1.82384 1.8335 2.00065 1.8335H11.334C11.5108 1.8335 11.6804 1.90373 11.8054 2.02876C11.9304 2.15378 12.0007 2.32335 12.0007 2.50016V10.5002H14.6673V13.1668C14.6673 13.6973 14.4566 14.206 14.0815 14.581C13.7065 14.9561 13.1978 15.1668 12.6673 15.1668ZM12.0007 11.8335V13.1668C12.0007 13.3436 12.0709 13.5132 12.1959 13.6382C12.3209 13.7633 12.4905 13.8335 12.6673 13.8335C12.8441 13.8335 13.0137 13.7633 13.1387 13.6382C13.2637 13.5132 13.334 13.3436 13.334 13.1668V11.8335H12.0007ZM10.6673 13.8335V3.16683H2.66732V13.1668C2.66732 13.3436 2.73756 13.5132 2.86258 13.6382C2.9876 13.7633 3.15717 13.8335 3.33398 13.8335H10.6673ZM4.00065 5.16683H9.33398V6.50016H4.00065V5.16683ZM4.00065 7.8335H9.33398V9.16683H4.00065V7.8335ZM4.00065 10.5002H7.33398V11.8335H4.00065V10.5002Z" fill="#F04438"/>
</svg>
