<svg width="18" height="19" viewBox="0 0 18 19" fill="none" xmlns="http://www.w3.org/2000/svg">
<g id="robot-fill">
<path id="Vector" d="M9.75 3.54125C13.125 3.914 15.75 6.77525 15.75 10.25V17H2.25V10.25C2.25 6.77525 4.875 3.914 8.25 3.54125V1.25H9.75V3.54125ZM9 14C9.99456 14 10.9484 13.6049 11.6517 12.9017C12.3549 12.1984 12.75 11.2446 12.75 10.25C12.75 9.25544 12.3549 8.30161 11.6517 7.59835C10.9484 6.89509 9.99456 6.5 9 6.5C8.00544 6.5 7.05161 6.89509 6.34835 7.59835C5.64509 8.30161 5.25 9.25544 5.25 10.25C5.25 11.2446 5.64509 12.1984 6.34835 12.9017C7.05161 13.6049 8.00544 14 9 14ZM9 12.5C8.40326 12.5 7.83097 12.2629 7.40901 11.841C6.98705 11.419 6.75 10.8467 6.75 10.25C6.75 9.65326 6.98705 9.08097 7.40901 8.65901C7.83097 8.23705 8.40326 8 9 8C9.59674 8 10.169 8.23705 10.591 8.65901C11.0129 9.08097 11.25 9.65326 11.25 10.25C11.25 10.8467 11.0129 11.419 10.591 11.841C10.169 12.2629 9.59674 12.5 9 12.5ZM9 11C9.19891 11 9.38968 10.921 9.53033 10.7803C9.67098 10.6397 9.75 10.4489 9.75 10.25C9.75 10.0511 9.67098 9.86032 9.53033 9.71967C9.38968 9.57902 9.19891 9.5 9 9.5C8.80109 9.5 8.61032 9.57902 8.46967 9.71967C8.32902 9.86032 8.25 10.0511 8.25 10.25C8.25 10.4489 8.32902 10.6397 8.46967 10.7803C8.61032 10.921 8.80109 11 9 11Z" fill="url(#paint0_linear_8625_161285)"/>
</g>
<defs>
<linearGradient id="paint0_linear_8625_161285" x1="2.25" y1="9.125" x2="15.75" y2="9.125" gradientUnits="userSpaceOnUse">
<stop stop-color="#54148C"/>
<stop offset="1" stop-color="#A46EDE"/>
</linearGradient>
</defs>
</svg>
