<svg width="20" height="21" viewBox="0 0 20 21" fill="none" xmlns="http://www.w3.org/2000/svg">
<g id="time-line">
<path id="Vector" d="M9.9974 18.8337C5.3949 18.8337 1.66406 15.1028 1.66406 10.5003C1.66406 5.89783 5.3949 2.16699 9.9974 2.16699C14.5999 2.16699 18.3307 5.89783 18.3307 10.5003C18.3307 15.1028 14.5999 18.8337 9.9974 18.8337ZM9.9974 17.167C11.7655 17.167 13.4612 16.4646 14.7114 15.2144C15.9617 13.9641 16.6641 12.2684 16.6641 10.5003C16.6641 8.73222 15.9617 7.03652 14.7114 5.78628C13.4612 4.53604 11.7655 3.83366 9.9974 3.83366C8.22929 3.83366 6.53359 4.53604 5.28335 5.78628C4.03311 7.03652 3.33073 8.73222 3.33073 10.5003C3.33073 12.2684 4.03311 13.9641 5.28335 15.2144C6.53359 16.4646 8.22929 17.167 9.9974 17.167ZM10.8307 10.5003H14.1641V12.167H9.16406V6.33366H10.8307V10.5003Z" fill="#98A2B3"/>
</g>
</svg>
