<svg width="20" height="17" viewBox="0 0 20 17" fill="none" xmlns="http://www.w3.org/2000/svg">
<path d="M2.3375 8L3.2125 4.575C3.27897 4.30606 3.4329 4.06682 3.65011 3.89487C3.86731 3.72292 4.13548 3.62799 4.4125 3.625H18.0875C18.2771 3.62515 18.4642 3.66842 18.6346 3.75155C18.805 3.83468 18.9543 3.95549 19.0711 4.10483C19.1879 4.25417 19.2692 4.42812 19.3089 4.61353C19.3485 4.79894 19.3455 4.99094 19.3 5.175L19.0262 6.26875M7.5 14.875H2.5C2.00272 14.875 1.52581 14.6775 1.17417 14.3258C0.822544 13.9742 0.625 13.4973 0.625 13V2.375C0.625 2.04348 0.756696 1.72554 0.991117 1.49112C1.22554 1.2567 1.54348 1.125 1.875 1.125H8.125C8.45652 1.125 8.77446 1.2567 9.00888 1.49112C9.2433 1.72554 9.375 2.04348 9.375 2.375V3.625" stroke="#6F717C" stroke-width="1.5" stroke-linecap="round" stroke-linejoin="round"/>
<path d="M18.75 16.125C19.1737 15.3913 19.375 14.5338 19.375 13.625C19.3747 12.8582 19.1981 12.1018 18.8587 11.4142C18.5194 10.7266 18.0265 10.1263 17.4181 9.65964C16.8097 9.19297 16.1021 8.87249 15.3501 8.72295C14.598 8.57342 13.8217 8.59886 13.081 8.79729C12.3404 8.99572 11.6553 9.36183 11.0788 9.86731C10.5022 10.3728 10.0497 11.0041 9.75606 11.7124C9.46246 12.4208 9.33571 13.1871 9.38559 13.9522C9.43548 14.7174 9.66067 15.4608 10.0437 16.125M13.75 16.125L16.25 13" stroke="#6F717C" stroke-width="1.5" stroke-linecap="round" stroke-linejoin="round"/>
</svg>
