<svg width="20" height="20" viewBox="0 0 20 20" fill="none" xmlns="http://www.w3.org/2000/svg">
<path d="M1.66406 18.3334C1.66406 16.5653 2.36644 14.8696 3.61668 13.6193C4.86693 12.3691 6.56262 11.6667 8.33073 11.6667C10.0988 11.6667 11.7945 12.3691 13.0448 13.6193C14.295 14.8696 14.9974 16.5653 14.9974 18.3334H13.3307C13.3307 17.0073 12.8039 15.7355 11.8663 14.7978C10.9286 13.8602 9.65681 13.3334 8.33073 13.3334C7.00465 13.3334 5.73288 13.8602 4.7952 14.7978C3.85751 15.7355 3.33073 17.0073 3.33073 18.3334H1.66406ZM8.33073 10.8334C5.56823 10.8334 3.33073 8.59587 3.33073 5.83337C3.33073 3.07087 5.56823 0.833374 8.33073 0.833374C11.0932 0.833374 13.3307 3.07087 13.3307 5.83337C13.3307 8.59587 11.0932 10.8334 8.33073 10.8334ZM8.33073 9.16671C10.1724 9.16671 11.6641 7.67504 11.6641 5.83337C11.6641 3.99171 10.1724 2.50004 8.33073 2.50004C6.48906 2.50004 4.9974 3.99171 4.9974 5.83337C4.9974 7.67504 6.48906 9.16671 8.33073 9.16671ZM15.2341 12.2525C16.4052 12.78 17.399 13.6344 18.0962 14.7131C18.7934 15.7919 19.1642 17.049 19.1641 18.3334H17.4974C17.4976 17.37 17.2195 16.4271 16.6966 15.618C16.1737 14.8089 15.4283 14.1681 14.5499 13.7725L15.2332 12.2525H15.2341ZM14.6607 2.84421C15.5003 3.19029 16.2182 3.77799 16.7232 4.53273C17.2283 5.28748 17.4977 6.17524 17.4974 7.08337C17.4977 8.22698 17.0705 9.3294 16.2995 10.1741C15.5286 11.0187 14.4696 11.5446 13.3307 11.6484V9.97087C13.9482 9.88244 14.521 9.59839 14.9651 9.16042C15.4093 8.72246 15.7013 8.15364 15.7984 7.53749C15.8954 6.92133 15.7924 6.29029 15.5044 5.737C15.2164 5.18372 14.7586 4.73733 14.1982 4.46337L14.6607 2.84421Z" fill="#0F1324" fill-opacity="0.6"/>
</svg>
