<svg width="638" height="172" viewBox="0 0 638 172" fill="none" xmlns="http://www.w3.org/2000/svg">
<g style="mix-blend-mode:plus-lighter" opacity="0.5">
<mask id="mask0_8756_111276" style="mask-type:luminance" maskUnits="userSpaceOnUse" x="0" y="-182" width="638" height="536">
<path d="M637.105 -181.56L637.105 354L0.000183105 354L0.000210828 -181.56L637.105 -181.56Z" fill="white"/>
<path d="M636.605 -181.06L0.500028 -181.06L0.5 353.5L636.605 353.5L636.605 -181.06Z" stroke="white"/>
</mask>
<g mask="url(#mask0_8756_111276)">
<path d="M204.023 91.629L150.758 172.459" stroke="#C7A8E7" stroke-opacity="0.2" stroke-width="0.94" stroke-miterlimit="10"/>
<path d="M260.887 56.5188L227.172 56.5188L210.203 82.2588" stroke="#C7A8E7" stroke-opacity="0.2" stroke-width="0.94" stroke-miterlimit="10"/>
<path d="M322.004 32.0995L304.797 56.5195L279.289 56.5195" stroke="#C7A8E7" stroke-opacity="0.2" stroke-width="0.94" stroke-miterlimit="10"/>
<path d="M374.156 -4.19141L347.583 -4.19141L332.069 17.8086" stroke="#C7A8E7" stroke-opacity="0.2" stroke-width="0.94" stroke-miterlimit="10"/>
<path d="M501.029 168.37L505.043 174.47" stroke="#C7A8E7" stroke-opacity="0.2" stroke-width="0.94" stroke-miterlimit="10"/>
<path d="M449.959 90.8799L498.559 164.63" stroke="#C7A8E7" stroke-opacity="0.2" stroke-width="0.94" stroke-miterlimit="10"/>
<path d="M392.79 56.5198L427.31 56.5198L442.953 80.2598" stroke="#C7A8E7" stroke-opacity="0.2" stroke-width="0.94" stroke-miterlimit="10"/>
<path d="M332.851 32.6405L349.679 56.5205L374.145 56.5205" stroke="#C7A8E7" stroke-opacity="0.2" stroke-width="0.94" stroke-miterlimit="10"/>
<path d="M280.53 -4.19177L306.89 -4.19177L322.676 18.1982" stroke="#C7A8E7" stroke-opacity="0.2" stroke-width="0.94" stroke-miterlimit="10"/>
<path d="M204.02 79.9287L151.973 0.978728" stroke="#C7A8E7" stroke-opacity="0.2" stroke-width="0.94" stroke-miterlimit="10"/>
<path d="M262.211 115.05L227.182 115.05L210.887 90.3398" stroke="#C7A8E7" stroke-opacity="0.2" stroke-width="0.94" stroke-miterlimit="10"/>
<path d="M322.688 140.43L304.794 115.05L280.636 115.05" stroke="#C7A8E7" stroke-opacity="0.2" stroke-width="0.94" stroke-miterlimit="10"/>
<path d="M374.617 175.76L347.582 175.76L334.437 157.12" stroke="#C7A8E7" stroke-opacity="0.2" stroke-width="0.94" stroke-miterlimit="10"/>
<path d="M449.956 80.6885L502.145 1.48849" stroke="#C7A8E7" stroke-opacity="0.2" stroke-width="0.94" stroke-miterlimit="10"/>
<path d="M395.176 115.049L427.316 115.049L442.023 92.7188" stroke="#C7A8E7" stroke-opacity="0.2" stroke-width="0.94" stroke-miterlimit="10"/>
<path d="M332.846 138.929L349.674 115.049L374.613 115.049" stroke="#C7A8E7" stroke-opacity="0.2" stroke-width="0.94" stroke-miterlimit="10"/>
<path d="M279.289 175.759L306.893 175.759L322.004 154.309" stroke="#C7A8E7" stroke-opacity="0.2" stroke-width="0.94" stroke-miterlimit="10"/>
<path d="M387.347 50.5791C391.871 43.5991 396.383 36.6291 400.906 29.6391C394.713 19.9291 388.531 10.2191 382.338 0.519104" stroke="#C7A8E7" stroke-opacity="0.2" stroke-width="0.94" stroke-miterlimit="10"/>
<path d="M378.734 108.609C373.926 101.199 369.13 93.7894 364.323 86.3694L364.157 86.3694C368.953 78.9694 373.737 71.5594 378.545 64.1594" stroke="#C7A8E7" stroke-opacity="0.2" stroke-width="0.94" stroke-miterlimit="10"/>
<path d="M382.869 171.629C388.932 162.119 395.007 152.599 401.07 143.089C396.487 136.029 391.928 128.979 387.345 121.919" stroke="#C7A8E7" stroke-opacity="0.2" stroke-width="0.94" stroke-miterlimit="10"/>
<path d="M265.113 49.6689C260.779 42.9889 256.468 36.3189 252.134 29.6389C258.849 19.1289 265.539 8.59893 272.254 -1.91107" stroke="#C7A8E7" stroke-opacity="0.2" stroke-width="0.94" stroke-miterlimit="10"/>
<path d="M274.325 108.609C279.133 101.199 283.929 93.7894 288.737 86.3694L288.902 86.3694C284.047 78.8794 279.192 71.3794 274.337 63.8894" stroke="#C7A8E7" stroke-opacity="0.2" stroke-width="0.94" stroke-miterlimit="10"/>
<path d="M269.898 171.171C263.93 161.811 257.95 152.441 251.993 143.081C257.062 135.251 262.142 127.421 267.21 119.591" stroke="#C7A8E7" stroke-opacity="0.2" stroke-width="0.94" stroke-miterlimit="10"/>
<path d="M427.852 27.2793L427.852 -19.8807" stroke="#C7A8E7" stroke-opacity="0.2" stroke-width="0.94" stroke-miterlimit="10"/>
<path d="M519.363 79.9287L439.974 42.1987" stroke="#C7A8E7" stroke-opacity="0.2" stroke-width="0.94" stroke-miterlimit="10"/>
<path d="M439.976 130.358L519.188 92.7184" stroke="#C7A8E7" stroke-opacity="0.2" stroke-width="0.94" stroke-miterlimit="10"/>
<path d="M427.852 148.369L427.852 238.659L334.453 191.899" stroke="#C7A8E7" stroke-opacity="0.2" stroke-width="0.94" stroke-miterlimit="10"/>
<path d="M222.457 142.929L222.457 222.409" stroke="#C7A8E7" stroke-opacity="0.2" stroke-width="0.94" stroke-miterlimit="10"/>
<path d="M214.855 40.1198L117.407 86.4398L117.407 86.2798L206.85 128.8" stroke="#C7A8E7" stroke-opacity="0.2" stroke-width="0.94" stroke-miterlimit="10"/>
<path d="M324.996 -14.6819L222.455 -66.0119L222.455 28.3281" stroke="#C7A8E7" stroke-opacity="0.2" stroke-width="0.94" stroke-miterlimit="10"/>
<path d="M507.069 0.618652C521.717 23.1687 530.682 48.7087 532.352 75.8887" stroke="#C7A8E7" stroke-opacity="0.2" stroke-width="0.94" stroke-linecap="round" stroke-linejoin="round"/>
<path d="M120.761 46.4394C136.002 -10.8706 184.342 -57.6106 247.922 -78.7206" stroke="#C7A8E7" stroke-opacity="0.2" stroke-width="0.94" stroke-linecap="round" stroke-linejoin="round"/>
<path d="M439.973 222.409C475.121 200.929 501.872 170.249 515.277 134.559" stroke="#C7A8E7" stroke-opacity="0.2" stroke-width="0.94" stroke-linecap="round" stroke-linejoin="round"/>
<path d="M116.899 105.558C125.555 159.628 163.781 205.768 217.391 231.988" stroke="#C7A8E7" stroke-opacity="0.2" stroke-width="0.94" stroke-linecap="round" stroke-linejoin="round"/>
<path d="M560.693 96.2098C565.075 192.94 475.762 274.35 361.213 278.05C332.958 278.96 305.815 275.06 280.864 267.22" stroke="#C7A8E7" stroke-opacity="0.2" stroke-width="0.94" stroke-linecap="round" stroke-linejoin="round"/>
<path d="M388.924 -42.8402C420.093 -32.8002 447.886 -16.9702 470.434 3.08984" stroke="#C7A8E7" stroke-opacity="0.2" stroke-width="0.94" stroke-linecap="round" stroke-linejoin="round"/>
<path d="M444.203 75.8896C442.972 65.6996 439.964 55.9696 435.428 46.9096" stroke="#C7A8E7" stroke-opacity="0.2" stroke-width="0.94" stroke-linecap="round" stroke-linejoin="round"/>
<path d="M432.715 130.539C439.607 118.639 443.823 105.429 444.664 91.4691" stroke="#C7A8E7" stroke-opacity="0.2" stroke-width="0.94" stroke-linecap="round" stroke-linejoin="round"/>
<path d="M387.342 172.519C401.814 165.079 414.271 155.109 423.84 143.339" stroke="#C7A8E7" stroke-opacity="0.2" stroke-width="0.94" stroke-linecap="round" stroke-linejoin="round"/>
<path d="M224.802 141.039C235.022 154.359 248.866 165.529 265.148 173.549" stroke="#C7A8E7" stroke-opacity="0.2" stroke-width="0.94" stroke-linecap="round" stroke-linejoin="round"/>
<path d="M205.809 91.2199C206.602 105.02 210.676 118.09 217.391 129.88" stroke="#C7A8E7" stroke-opacity="0.2" stroke-width="0.94" stroke-linecap="round" stroke-linejoin="round"/>
<path d="M266.285 -1.65118C232.808 14.3988 209.408 43.6988 206.08 77.7888" stroke="#C7A8E7" stroke-opacity="0.2" stroke-width="0.94" stroke-linecap="round" stroke-linejoin="round"/>
<path d="M421.832 26.6797C411.897 15.1997 399.154 5.55971 384.47 -1.5203" stroke="#C7A8E7" stroke-opacity="0.2" stroke-width="0.94" stroke-linecap="round" stroke-linejoin="round"/>
<path d="M381.342 56.5184C381.342 55.5284 382.302 54.7184 383.474 54.7184C384.646 54.7184 385.605 55.5284 385.605 56.5184C385.605 57.5084 384.646 58.3184 383.474 58.3184C382.302 58.3184 381.342 57.5084 381.342 56.5184Z" fill="#C7A8E7"/>
<path d="M385.105 56.5186C385.105 55.8806 384.452 55.2187 383.474 55.2187C382.495 55.2189 381.843 55.8806 381.843 56.5186C381.843 57.1564 382.495 57.8182 383.474 57.8184C384.452 57.8184 385.105 57.1565 385.105 56.5186Z" stroke="#C7A8E7" stroke-opacity="0.2"/>
<path d="M425.713 37.0994C425.713 36.1094 426.673 35.2994 427.845 35.2994C429.017 35.2994 429.977 36.1094 429.977 37.0994C429.977 38.0894 429.017 38.8994 427.845 38.8994C426.673 38.8994 425.713 38.0894 425.713 37.0994Z" fill="#C7A8E7"/>
<path d="M429.477 37.0996C429.477 36.4617 428.824 35.7998 427.845 35.7998C426.866 35.7999 426.214 36.4617 426.214 37.0996C426.214 37.7375 426.866 38.3993 427.845 38.3994C428.823 38.3994 429.476 37.7375 429.477 37.0996Z" stroke="#C7A8E7" stroke-opacity="0.2"/>
<path d="M203.674 84.4597C203.674 83.4697 204.634 82.6598 205.806 82.6598C206.978 82.6598 207.938 83.4697 207.938 84.4597C207.938 85.4497 206.978 86.2598 205.806 86.2598C204.634 86.2598 203.674 85.4497 203.674 84.4597Z" fill="#C7A8E7"/>
<path d="M207.438 84.46C207.438 83.822 206.784 83.1602 205.806 83.1602C204.827 83.1603 204.175 83.8221 204.175 84.46C204.175 85.0978 204.827 85.7597 205.806 85.7598C206.784 85.7598 207.437 85.0979 207.438 84.46Z" stroke="#C7A8E7" stroke-opacity="0.2"/>
<path d="M216.194 134.559C216.194 133.569 217.153 132.759 218.325 132.759C219.498 132.759 220.457 133.569 220.457 134.559C220.457 135.549 219.498 136.359 218.325 136.359C217.153 136.359 216.194 135.549 216.194 134.559Z" fill="#C7A8E7"/>
<path d="M219.957 134.56C219.957 133.922 219.304 133.26 218.325 133.26C217.347 133.26 216.694 133.922 216.694 134.56C216.694 135.197 217.347 135.859 218.325 135.859C219.304 135.859 219.957 135.197 219.957 134.56Z" stroke="#C7A8E7" stroke-opacity="0.2"/>
<path d="M427.834 136.369C427.834 135.379 428.794 134.569 429.966 134.569C431.138 134.569 432.098 135.379 432.098 136.369C432.098 137.359 431.138 138.169 429.966 138.169C428.794 138.169 427.834 137.359 427.834 136.369Z" fill="#C7A8E7"/>
<path d="M431.598 136.369C431.598 135.731 430.945 135.069 429.966 135.069C428.987 135.069 428.335 135.731 428.335 136.369C428.335 137.007 428.987 137.669 429.966 137.669C430.944 137.669 431.598 137.007 431.598 136.369Z" stroke="#C7A8E7" stroke-opacity="0.2"/>
<path d="M442.53 86.3787C442.53 85.3887 443.489 84.5787 444.661 84.5787C445.834 84.5787 446.793 85.3887 446.793 86.3787C446.793 87.3687 445.834 88.1787 444.661 88.1787C443.489 88.1787 442.53 87.3687 442.53 86.3787Z" fill="#C7A8E7"/>
<path d="M446.293 86.3789C446.293 85.741 445.64 85.0791 444.661 85.0791C443.682 85.0792 443.03 85.741 443.03 86.3789C443.03 87.0167 443.683 87.6786 444.661 87.6787C445.64 87.6787 446.293 87.0168 446.293 86.3789Z" stroke="#C7A8E7" stroke-opacity="0.2"/>
<path d="M325.174 25.5496C325.174 24.5596 326.134 23.7496 327.306 23.7496C328.478 23.7496 329.438 24.5596 329.438 25.5496C329.438 26.5396 328.478 27.3496 327.306 27.3496C326.134 27.3496 325.174 26.5396 325.174 25.5496Z" fill="#C7A8E7"/>
<path d="M328.938 25.5498C328.938 24.9118 328.284 24.25 327.306 24.25C326.327 24.2501 325.675 24.9119 325.675 25.5498C325.675 26.1877 326.327 26.8495 327.306 26.8496C328.284 26.8496 328.937 26.1877 328.938 25.5498Z" stroke="#C7A8E7" stroke-opacity="0.2"/>
<path d="M267.764 56.5184C267.764 55.5284 268.723 54.7184 269.896 54.7184C271.068 54.7184 272.027 55.5284 272.027 56.5184C272.027 57.5084 271.068 58.3184 269.896 58.3184C268.723 58.3184 267.764 57.5084 267.764 56.5184Z" fill="#C7A8E7"/>
<path d="M271.527 56.5186C271.527 55.8806 270.874 55.2187 269.896 55.2187C268.917 55.2189 268.265 55.8807 268.265 56.5186C268.265 57.1564 268.917 57.8182 269.896 57.8184C270.874 57.8184 271.527 57.1565 271.527 56.5186Z" stroke="#C7A8E7" stroke-opacity="0.2"/>
<path d="M381.342 115.05C381.342 114.06 382.302 113.25 383.474 113.25C384.646 113.25 385.605 114.06 385.605 115.05C385.605 116.04 384.646 116.85 383.474 116.85C382.302 116.85 381.342 116.04 381.342 115.05Z" fill="#C7A8E7"/>
<path d="M385.105 115.05C385.105 114.412 384.452 113.75 383.474 113.75C382.495 113.75 381.843 114.412 381.843 115.05C381.843 115.688 382.495 116.349 383.474 116.35C384.452 116.35 385.105 115.688 385.105 115.05Z" stroke="#C7A8E7" stroke-opacity="0.2"/>
<path d="M325.174 148.369C325.174 147.379 326.134 146.569 327.306 146.569C328.478 146.569 329.438 147.379 329.438 148.369C329.438 149.359 328.478 150.169 327.306 150.169C326.134 150.169 325.174 149.359 325.174 148.369Z" fill="#C7A8E7"/>
<path d="M328.938 148.369C328.938 147.731 328.284 147.069 327.306 147.069C326.327 147.069 325.675 147.731 325.675 148.369C325.675 149.007 326.327 149.669 327.306 149.669C328.284 149.669 328.937 149.007 328.938 148.369Z" stroke="#C7A8E7" stroke-opacity="0.2"/>
<path d="M269.295 115.05C269.295 114.06 270.255 113.25 271.427 113.25C272.599 113.25 273.559 114.06 273.559 115.05C273.559 116.04 272.599 116.85 271.427 116.85C270.255 116.85 269.295 116.04 269.295 115.05Z" fill="#C7A8E7"/>
<path d="M273.059 115.05C273.059 114.412 272.406 113.75 271.427 113.75C270.448 113.75 269.796 114.412 269.796 115.05C269.796 115.688 270.448 116.35 271.427 116.35C272.405 116.35 273.058 115.688 273.059 115.05Z" stroke="#C7A8E7" stroke-opacity="0.2"/>
<path d="M532.137 88.8398C529.117 86.8998 528.537 86.8998 525.529 88.8398C527.826 86.2898 527.826 85.7998 525.529 83.2498C528.549 85.1898 529.129 85.1898 532.137 83.2498C529.839 85.7998 529.839 86.2898 532.137 88.8398Z" fill="#C7A8E7"/>
<path d="M530.233 87.1953C530.033 86.8196 529.914 86.4442 529.914 86.0449C529.914 85.6473 530.033 85.2735 530.231 84.8994C529.749 85.0977 529.297 85.2051 528.837 85.2051C528.374 85.205 527.919 85.0961 527.433 84.8955C527.632 85.2708 527.752 85.646 527.752 86.0449C527.752 86.4428 527.633 86.8171 527.435 87.1914C527.917 86.9931 528.368 86.8848 528.828 86.8848C529.292 86.8848 529.746 86.9944 530.233 87.1953Z" stroke="#C7A8E7" stroke-opacity="0.2"/>
<path d="M520.771 -3.93079L621.997 -3.93079L652.621 46.6992" stroke="#C7A8E7" stroke-opacity="0.2" stroke-width="0.94" stroke-miterlimit="10"/>
<path d="M520.77 176.029L621.996 176.029L650.867 128.309" stroke="#C7A8E7" stroke-opacity="0.2" stroke-width="0.94" stroke-miterlimit="10"/>
<path d="M586.696 86.6484L652.621 86.6484" stroke="#C7A8E7" stroke-opacity="0.2" stroke-width="0.94" stroke-miterlimit="10"/>
</g>
</g>
</svg>
