<svg width="16" height="16" viewBox="0 0 16 16" fill="none" xmlns="http://www.w3.org/2000/svg">
<path d="M8.66667 2.70335C11.6667 3.03469 14 5.57802 14 8.66669V14.6667H2V8.66669C2 5.57802 4.33333 3.03469 7.33333 2.70335V0.666687H8.66667V2.70335ZM12.6667 13.3334V8.66669C12.6667 7.42901 12.175 6.24203 11.2998 5.36686C10.4247 4.49169 9.23768 4.00002 8 4.00002C6.76232 4.00002 5.57534 4.49169 4.70017 5.36686C3.825 6.24203 3.33333 7.42901 3.33333 8.66669V13.3334H12.6667ZM8 12C7.11595 12 6.2681 11.6488 5.64298 11.0237C5.01786 10.3986 4.66667 9.55074 4.66667 8.66669C4.66667 7.78263 5.01786 6.93479 5.64298 6.30966C6.2681 5.68454 7.11595 5.33335 8 5.33335C8.88406 5.33335 9.7319 5.68454 10.357 6.30966C10.9821 6.93479 11.3333 7.78263 11.3333 8.66669C11.3333 9.55074 10.9821 10.3986 10.357 11.0237C9.7319 11.6488 8.88406 12 8 12ZM8 10.6667C8.53043 10.6667 9.03914 10.456 9.41421 10.0809C9.78929 9.70583 10 9.19712 10 8.66669C10 8.13625 9.78929 7.62755 9.41421 7.25247C9.03914 6.8774 8.53043 6.66669 8 6.66669C7.46957 6.66669 6.96086 6.8774 6.58579 7.25247C6.21071 7.62755 6 8.13625 6 8.66669C6 9.19712 6.21071 9.70583 6.58579 10.0809C6.96086 10.456 7.46957 10.6667 8 10.6667ZM8 9.33335C7.82319 9.33335 7.65362 9.26312 7.5286 9.13809C7.40357 9.01307 7.33333 8.8435 7.33333 8.66669C7.33333 8.48988 7.40357 8.32031 7.5286 8.19528C7.65362 8.07026 7.82319 8.00002 8 8.00002C8.17681 8.00002 8.34638 8.07026 8.4714 8.19528C8.59643 8.32031 8.66667 8.48988 8.66667 8.66669C8.66667 8.8435 8.59643 9.01307 8.4714 9.13809C8.34638 9.26312 8.17681 9.33335 8 9.33335Z" fill="white"/>
</svg>
