<svg width="16" height="16" viewBox="0 0 16 16" fill="none" xmlns="http://www.w3.org/2000/svg">
<g id="Option Icon">
<path id="Vector" d="M12.668 14H3.33464C3.15782 14 2.98826 13.9298 2.86323 13.8048C2.73821 13.6797 2.66797 13.5102 2.66797 13.3334V7.33336H0.667969L7.55263 1.07469C7.67538 0.963013 7.83536 0.901123 8.0013 0.901123C8.16725 0.901123 8.32723 0.963013 8.44997 1.07469L15.3346 7.33336H13.3346V13.3334C13.3346 13.5102 13.2644 13.6797 13.1394 13.8048C13.0143 13.9298 12.8448 14 12.668 14ZM4.0013 12.6667H12.0013V6.10469L8.0013 2.46869L4.0013 6.10469V12.6667ZM5.72863 9.20603C5.64416 8.85053 5.64416 8.48019 5.72863 8.12469L5.06797 7.74336L5.73464 6.58869L6.3953 6.97069C6.66054 6.71935 6.98117 6.53391 7.3313 6.42936V5.66669H8.66463V6.42936C9.0193 6.53536 9.33797 6.72269 9.60063 6.97069L10.2613 6.58869L10.928 7.74269L10.2673 8.12469C10.3518 8.48019 10.3518 8.85053 10.2673 9.20603L10.928 9.58736L10.2613 10.7414L9.60063 10.36C9.33533 10.6111 9.0147 10.7963 8.66463 10.9007V11.664H7.3313V10.9C6.98123 10.7957 6.66061 10.6105 6.3953 10.3594L5.73464 10.7407L5.06797 9.58736L5.72863 9.20536V9.20603ZM7.99797 9.66469C8.13227 9.6696 8.26619 9.64738 8.39172 9.59937C8.51724 9.55136 8.6318 9.47854 8.72856 9.38526C8.82531 9.29198 8.90226 9.18015 8.95482 9.05646C9.00739 8.93277 9.03448 8.79976 9.03448 8.66536C9.03448 8.53097 9.00739 8.39795 8.95482 8.27426C8.90226 8.15057 8.82531 8.03874 8.72856 7.94546C8.6318 7.85218 8.51724 7.77936 8.39172 7.73135C8.26619 7.68334 8.13227 7.66112 7.99797 7.66603C7.73925 7.67548 7.49427 7.7849 7.31458 7.97128C7.13488 8.15766 7.03448 8.40647 7.03448 8.66536C7.03448 8.92426 7.13488 9.17306 7.31458 9.35944C7.49427 9.54582 7.73925 9.65524 7.99797 9.66469Z" fill="white"/>
</g>
</svg>
