<svg width="263" height="192" viewBox="0 0 263 192" fill="none" xmlns="http://www.w3.org/2000/svg">
<path d="M150.066 145.832L223.389 217.062" stroke="#C7A8E7" stroke-width="1.58736" stroke-linecap="round" stroke-linejoin="round"/>
<path d="M81.4922 79.2087L111.178 108.051" stroke="#C7A8E7" stroke-width="1.58736" stroke-linecap="round" stroke-linejoin="round"/>
<path d="M39.1484 38.0649L63.7832 61.9903" stroke="#C7A8E7" stroke-width="1.58736" stroke-linecap="round" stroke-linejoin="round"/>
<path d="M111.182 147.077L39.1484 217.064" stroke="#C7A8E7" stroke-width="1.58736" stroke-linecap="round" stroke-linejoin="round"/>
<path d="M223.389 38.0649L151.355 108.051" stroke="#C7A8E7" stroke-width="1.58736" stroke-linecap="round" stroke-linejoin="round"/>
<path d="M131.27 160.227V254.138" stroke="#C7A8E7" stroke-width="1.58736" stroke-linecap="round" stroke-linejoin="round"/>
<path d="M131.27 152.718V160.225" stroke="#C7A8E7" stroke-width="1.58736" stroke-linecap="round" stroke-linejoin="round"/>
<path d="M131.27 1V102.061" stroke="#C7A8E7" stroke-width="1.58736" stroke-linecap="round" stroke-linejoin="round"/>
<path d="M105.269 127.569H1" stroke="#C7A8E7" stroke-width="1.58736" stroke-linecap="round" stroke-linejoin="round"/>
<path d="M261.538 127.569H158.055" stroke="#C7A8E7" stroke-width="1.58736" stroke-linecap="round" stroke-linejoin="round"/>
<path d="M72.9683 73.0577C74.1891 73.0577 75.1787 72.0962 75.1787 70.9101C75.1787 69.724 74.1891 68.7625 72.9683 68.7625C71.7475 68.7625 70.7578 69.724 70.7578 70.9101C70.7578 72.0962 71.7475 73.0577 72.9683 73.0577Z" fill="url(#paint0_linear_8992_584588)"/>
<path d="M122.414 119.506C128.619 126.919 128.667 128.388 122.976 136.178C130.606 130.15 132.119 130.103 140.136 135.632C133.932 128.219 133.883 126.749 139.574 118.959C131.944 124.988 130.432 125.035 122.414 119.506Z" fill="url(#paint1_linear_8992_584588)"/>
<path d="M130.873 115.775C129.865 125.279 128.828 126.353 119.133 127.945C128.915 128.924 130.02 129.932 131.659 139.352C132.667 129.848 133.704 128.774 143.399 127.182C133.617 126.202 132.512 125.194 130.873 115.775Z" fill="url(#paint2_linear_8992_584588)"/>
<defs>
<linearGradient id="paint0_linear_8992_584588" x1="70.7578" y1="70.9101" x2="75.1787" y2="70.9101" gradientUnits="userSpaceOnUse">
<stop stop-color="#54148C"/>
<stop offset="1" stop-color="#A46EDE"/>
</linearGradient>
<linearGradient id="paint1_linear_8992_584588" x1="122.414" y1="127.569" x2="140.136" y2="127.569" gradientUnits="userSpaceOnUse">
<stop stop-color="#54148C"/>
<stop offset="1" stop-color="#A46EDE"/>
</linearGradient>
<linearGradient id="paint2_linear_8992_584588" x1="119.133" y1="127.563" x2="143.399" y2="127.563" gradientUnits="userSpaceOnUse">
<stop stop-color="#54148C"/>
<stop offset="1" stop-color="#A46EDE"/>
</linearGradient>
</defs>
</svg>
