<svg width="638" height="536" viewBox="0 0 638 536" fill="none" xmlns="http://www.w3.org/2000/svg">
<g style="mix-blend-mode:plus-lighter" opacity="0.5">
<mask id="mask0_9428_105914" style="mask-type:luminance" maskUnits="userSpaceOnUse" x="0" y="0" width="638" height="536">
<path d="M637.105 6.10352e-05L637.105 535.56L0.000183105 535.56L0.000210828 3.75184e-05L637.105 6.10352e-05Z" fill="white"/>
<path d="M636.605 0.500488L0.500028 0.500465L0.5 535.06L636.605 535.06L636.605 0.500488Z" stroke="white"/>
</mask>
<g mask="url(#mask0_9428_105914)">
<path d="M145.672 361.729L121.265 398.749" stroke="#C7A8E7" stroke-opacity="0.2" stroke-width="0.94" stroke-miterlimit="10"/>
<path d="M204.023 273.189L150.758 354.019" stroke="#C7A8E7" stroke-opacity="0.2" stroke-width="0.94" stroke-miterlimit="10"/>
<path d="M260.887 238.079L227.172 238.079L210.203 263.819" stroke="#C7A8E7" stroke-opacity="0.2" stroke-width="0.94" stroke-miterlimit="10"/>
<path d="M322.004 213.66L304.797 238.08L279.289 238.08" stroke="#C7A8E7" stroke-opacity="0.2" stroke-width="0.94" stroke-miterlimit="10"/>
<path d="M374.156 177.369L347.583 177.369L332.069 199.369" stroke="#C7A8E7" stroke-opacity="0.2" stroke-width="0.94" stroke-miterlimit="10"/>
<path d="M457.18 177.37L384.457 177.37" stroke="#C7A8E7" stroke-opacity="0.2" stroke-width="0.94" stroke-miterlimit="10"/>
<path d="M500.367 177.369L466.404 177.369" stroke="#C7A8E7" stroke-opacity="0.2" stroke-width="0.94" stroke-miterlimit="10"/>
<path d="M507.541 359.819L533.191 398.749L576.309 398.749" stroke="#C7A8E7" stroke-opacity="0.2" stroke-width="0.94" stroke-miterlimit="10"/>
<path d="M501.029 349.93L505.043 356.03" stroke="#C7A8E7" stroke-opacity="0.2" stroke-width="0.94" stroke-miterlimit="10"/>
<path d="M449.959 272.44L498.559 346.19" stroke="#C7A8E7" stroke-opacity="0.2" stroke-width="0.94" stroke-miterlimit="10"/>
<path d="M392.79 238.08L427.31 238.08L442.953 261.82" stroke="#C7A8E7" stroke-opacity="0.2" stroke-width="0.94" stroke-miterlimit="10"/>
<path d="M332.851 214.201L349.679 238.081L374.145 238.081" stroke="#C7A8E7" stroke-opacity="0.2" stroke-width="0.94" stroke-miterlimit="10"/>
<path d="M280.53 177.368L306.89 177.368L322.676 199.758" stroke="#C7A8E7" stroke-opacity="0.2" stroke-width="0.94" stroke-miterlimit="10"/>
<path d="M151.216 177.369L265.125 177.369" stroke="#C7A8E7" stroke-opacity="0.2" stroke-width="0.94" stroke-miterlimit="10"/>
<path d="M143.91 170.29L121.268 135.94" stroke="#C7A8E7" stroke-opacity="0.2" stroke-width="0.94" stroke-miterlimit="10"/>
<path d="M204.02 261.489L151.973 182.539" stroke="#C7A8E7" stroke-opacity="0.2" stroke-width="0.94" stroke-miterlimit="10"/>
<path d="M262.211 296.61L227.182 296.61L210.887 271.9" stroke="#C7A8E7" stroke-opacity="0.2" stroke-width="0.94" stroke-miterlimit="10"/>
<path d="M322.688 321.99L304.794 296.61L280.636 296.61" stroke="#C7A8E7" stroke-opacity="0.2" stroke-width="0.94" stroke-miterlimit="10"/>
<path d="M374.617 357.32L347.582 357.32L334.437 338.68" stroke="#C7A8E7" stroke-opacity="0.2" stroke-width="0.94" stroke-miterlimit="10"/>
<path d="M487.859 357.319L387.355 357.319" stroke="#C7A8E7" stroke-opacity="0.2" stroke-width="0.94" stroke-miterlimit="10"/>
<path d="M507.735 174.599L533.207 135.949L576.324 135.949" stroke="#C7A8E7" stroke-opacity="0.2" stroke-width="0.94" stroke-miterlimit="10"/>
<path d="M449.956 262.249L502.145 183.049" stroke="#C7A8E7" stroke-opacity="0.2" stroke-width="0.94" stroke-miterlimit="10"/>
<path d="M395.176 296.609L427.316 296.609L442.023 274.279" stroke="#C7A8E7" stroke-opacity="0.2" stroke-width="0.94" stroke-miterlimit="10"/>
<path d="M332.846 320.489L349.674 296.609L374.613 296.609" stroke="#C7A8E7" stroke-opacity="0.2" stroke-width="0.94" stroke-miterlimit="10"/>
<path d="M279.289 357.319L306.893 357.319L322.004 335.869" stroke="#C7A8E7" stroke-opacity="0.2" stroke-width="0.94" stroke-miterlimit="10"/>
<path d="M156.533 357.32L265.148 357.32" stroke="#C7A8E7" stroke-opacity="0.2" stroke-width="0.94" stroke-miterlimit="10"/>
<path d="M376.57 173.019C361.649 149.629 346.74 126.229 331.819 102.829" stroke="#C7A8E7" stroke-opacity="0.2" stroke-width="0.94" stroke-miterlimit="10"/>
<path d="M387.347 232.139C391.871 225.159 396.383 218.189 400.906 211.199C394.713 201.489 388.531 191.779 382.338 182.079" stroke="#C7A8E7" stroke-opacity="0.2" stroke-width="0.94" stroke-miterlimit="10"/>
<path d="M378.734 290.169C373.926 282.759 369.13 275.349 364.323 267.929L364.157 267.929C368.953 260.529 373.737 253.119 378.545 245.719" stroke="#C7A8E7" stroke-opacity="0.2" stroke-width="0.94" stroke-miterlimit="10"/>
<path d="M382.869 353.189C388.932 343.679 395.007 334.159 401.07 324.649C396.487 317.589 391.928 310.539 387.345 303.479" stroke="#C7A8E7" stroke-opacity="0.2" stroke-width="0.94" stroke-miterlimit="10"/>
<path d="M331.964 433.04C347.122 409.27 362.28 385.49 377.438 361.73" stroke="#C7A8E7" stroke-opacity="0.2" stroke-width="0.94" stroke-miterlimit="10"/>
<path d="M276.171 173.54C291.459 149.58 306.735 125.61 322.012 101.64" stroke="#C7A8E7" stroke-opacity="0.2" stroke-width="0.94" stroke-miterlimit="10"/>
<path d="M265.113 231.229C260.779 224.549 256.468 217.879 252.134 211.199C258.849 200.689 265.539 190.159 272.254 179.649" stroke="#C7A8E7" stroke-opacity="0.2" stroke-width="0.94" stroke-miterlimit="10"/>
<path d="M274.325 290.169C279.133 282.759 283.929 275.349 288.737 267.929L288.902 267.929C284.047 260.439 279.192 252.939 274.337 245.449" stroke="#C7A8E7" stroke-opacity="0.2" stroke-width="0.94" stroke-miterlimit="10"/>
<path d="M269.898 352.731C263.93 343.371 257.95 334.001 251.993 324.641C257.062 316.811 262.142 308.981 267.21 301.151" stroke="#C7A8E7" stroke-opacity="0.2" stroke-width="0.94" stroke-miterlimit="10"/>
<path d="M321.117 433.04C306.658 410.37 292.211 387.7 277.751 365.03" stroke="#C7A8E7" stroke-opacity="0.2" stroke-width="0.94" stroke-miterlimit="10"/>
<path d="M427.844 149.349L427.844 115.469L325.303 166.799" stroke="#C7A8E7" stroke-opacity="0.2" stroke-width="0.94" stroke-miterlimit="10"/>
<path d="M427.852 208.839L427.852 161.679" stroke="#C7A8E7" stroke-opacity="0.2" stroke-width="0.94" stroke-miterlimit="10"/>
<path d="M519.363 261.489L439.974 223.759" stroke="#C7A8E7" stroke-opacity="0.2" stroke-width="0.94" stroke-miterlimit="10"/>
<path d="M439.976 311.918L519.188 274.278" stroke="#C7A8E7" stroke-opacity="0.2" stroke-width="0.94" stroke-miterlimit="10"/>
<path d="M427.852 329.929L427.852 420.219L334.453 373.459" stroke="#C7A8E7" stroke-opacity="0.2" stroke-width="0.94" stroke-miterlimit="10"/>
<path d="M238.16 412.428L317.715 372.608" stroke="#C7A8E7" stroke-opacity="0.2" stroke-width="0.94" stroke-miterlimit="10"/>
<path d="M222.457 324.489L222.457 403.969" stroke="#C7A8E7" stroke-opacity="0.2" stroke-width="0.94" stroke-miterlimit="10"/>
<path d="M214.855 221.68L117.407 268L117.407 267.84L206.85 310.36" stroke="#C7A8E7" stroke-opacity="0.2" stroke-width="0.94" stroke-miterlimit="10"/>
<path d="M324.996 166.878L222.455 115.548L222.455 209.888" stroke="#C7A8E7" stroke-opacity="0.2" stroke-width="0.94" stroke-miterlimit="10"/>
<path d="M507.069 182.179C521.717 204.729 530.682 230.269 532.352 257.449" stroke="#C7A8E7" stroke-opacity="0.2" stroke-width="0.94" stroke-linecap="round" stroke-linejoin="round"/>
<path d="M309.059 91.149C314.044 90.849 319.089 90.6891 324.169 90.6891C399.521 90.6891 465.529 124.439 502.156 175.019" stroke="#C7A8E7" stroke-opacity="0.2" stroke-width="0.94" stroke-linecap="round" stroke-linejoin="round"/>
<path d="M120.761 228C136.002 170.69 184.342 123.95 247.922 102.84" stroke="#C7A8E7" stroke-opacity="0.2" stroke-width="0.94" stroke-linecap="round" stroke-linejoin="round"/>
<path d="M439.973 403.969C475.121 382.489 501.872 351.809 515.277 316.119" stroke="#C7A8E7" stroke-opacity="0.2" stroke-width="0.94" stroke-linecap="round" stroke-linejoin="round"/>
<path d="M272.253 432.039C287.553 435.119 303.528 436.749 319.941 436.749C345.852 436.749 370.637 432.689 393.457 425.279" stroke="#C7A8E7" stroke-opacity="0.2" stroke-width="0.94" stroke-linecap="round" stroke-linejoin="round"/>
<path d="M116.899 287.118C125.555 341.188 163.781 387.328 217.391 413.548" stroke="#C7A8E7" stroke-opacity="0.2" stroke-width="0.94" stroke-linecap="round" stroke-linejoin="round"/>
<path d="M560.693 277.77C565.075 374.5 475.762 455.91 361.213 459.61C332.958 460.52 305.815 456.62 280.864 448.78" stroke="#C7A8E7" stroke-opacity="0.2" stroke-width="0.94" stroke-linecap="round" stroke-linejoin="round"/>
<path d="M429.918 85.6081C478.329 99.9781 520.546 129.448 545.793 171.058" stroke="#C7A8E7" stroke-opacity="0.2" stroke-width="0.94" stroke-linecap="round" stroke-linejoin="round"/>
<path d="M388.924 138.72C420.093 148.76 447.886 164.59 470.434 184.65" stroke="#C7A8E7" stroke-opacity="0.2" stroke-width="0.94" stroke-linecap="round" stroke-linejoin="round"/>
<path d="M444.203 257.45C442.972 247.26 439.964 237.53 435.428 228.47" stroke="#C7A8E7" stroke-opacity="0.2" stroke-width="0.94" stroke-linecap="round" stroke-linejoin="round"/>
<path d="M432.715 312.099C439.607 300.199 443.823 286.989 444.664 273.029" stroke="#C7A8E7" stroke-opacity="0.2" stroke-width="0.94" stroke-linecap="round" stroke-linejoin="round"/>
<path d="M387.342 354.079C401.814 346.639 414.271 336.669 423.84 324.899" stroke="#C7A8E7" stroke-opacity="0.2" stroke-width="0.94" stroke-linecap="round" stroke-linejoin="round"/>
<path d="M332.85 368.558C347.38 367.788 361.212 364.818 373.871 360.058" stroke="#C7A8E7" stroke-opacity="0.2" stroke-width="0.94" stroke-linecap="round" stroke-linejoin="round"/>
<path d="M280.641 361.499C292.211 365.429 304.681 367.879 317.707 368.559" stroke="#C7A8E7" stroke-opacity="0.2" stroke-width="0.94" stroke-linecap="round" stroke-linejoin="round"/>
<path d="M224.802 322.599C235.022 335.919 248.866 347.089 265.148 355.109" stroke="#C7A8E7" stroke-opacity="0.2" stroke-width="0.94" stroke-linecap="round" stroke-linejoin="round"/>
<path d="M205.809 272.78C206.602 286.58 210.676 299.65 217.391 311.44" stroke="#C7A8E7" stroke-opacity="0.2" stroke-width="0.94" stroke-linecap="round" stroke-linejoin="round"/>
<path d="M266.285 179.909C232.808 195.959 209.408 225.259 206.08 259.349" stroke="#C7A8E7" stroke-opacity="0.2" stroke-width="0.94" stroke-linecap="round" stroke-linejoin="round"/>
<path d="M372.57 175.018C358.064 169.738 342.053 166.808 325.249 166.808C308.445 166.808 293.583 169.528 279.491 174.468" stroke="#C7A8E7" stroke-opacity="0.2" stroke-width="0.94" stroke-linecap="round" stroke-linejoin="round"/>
<path d="M421.832 208.24C411.897 196.76 399.154 187.12 384.47 180.04" stroke="#C7A8E7" stroke-opacity="0.2" stroke-width="0.94" stroke-linecap="round" stroke-linejoin="round"/>
<path d="M381.342 238.078C381.342 237.088 382.302 236.278 383.474 236.278C384.646 236.278 385.605 237.088 385.605 238.078C385.605 239.068 384.646 239.878 383.474 239.878C382.302 239.878 381.342 239.068 381.342 238.078Z" fill="#C7A8E7"/>
<path d="M385.105 238.079C385.105 237.441 384.452 236.779 383.474 236.779C382.495 236.779 381.843 237.441 381.843 238.079C381.843 238.716 382.495 239.378 383.474 239.378C384.452 239.378 385.105 238.717 385.105 238.079Z" stroke="#C7A8E7" stroke-opacity="0.2"/>
<path d="M376.608 177.369C376.608 176.379 377.567 175.569 378.74 175.569C379.912 175.569 380.871 176.379 380.871 177.369C380.871 178.359 379.912 179.169 378.74 179.169C377.567 179.169 376.608 178.359 376.608 177.369Z" fill="#C7A8E7"/>
<path d="M380.371 177.37C380.371 176.732 379.718 176.07 378.739 176.07C377.761 176.07 377.108 176.732 377.108 177.37C377.109 178.007 377.761 178.669 378.739 178.669C379.718 178.669 380.371 178.008 380.371 177.37Z" stroke="#C7A8E7" stroke-opacity="0.2"/>
<path d="M425.713 218.659C425.713 217.669 426.673 216.859 427.845 216.859C429.017 216.859 429.977 217.669 429.977 218.659C429.977 219.649 429.017 220.459 427.845 220.459C426.673 220.459 425.713 219.649 425.713 218.659Z" fill="#C7A8E7"/>
<path d="M429.477 218.66C429.477 218.022 428.824 217.36 427.845 217.36C426.866 217.36 426.214 218.022 426.214 218.66C426.214 219.298 426.866 219.959 427.845 219.959C428.823 219.959 429.476 219.298 429.477 218.66Z" stroke="#C7A8E7" stroke-opacity="0.2"/>
<path d="M271.413 175.569C271.413 174.579 272.372 173.769 273.544 173.769C274.717 173.769 275.676 174.579 275.676 175.569C275.676 176.559 274.717 177.369 273.544 177.369C272.372 177.369 271.413 176.559 271.413 175.569Z" fill="#C7A8E7"/>
<path d="M275.176 175.569C275.176 174.931 274.523 174.269 273.544 174.269C272.565 174.269 271.913 174.931 271.913 175.569C271.913 176.207 272.565 176.869 273.544 176.869C274.523 176.869 275.176 176.207 275.176 175.569Z" stroke="#C7A8E7" stroke-opacity="0.2"/>
<path d="M203.674 266.02C203.674 265.03 204.634 264.22 205.806 264.22C206.978 264.22 207.938 265.03 207.938 266.02C207.938 267.01 206.978 267.82 205.806 267.82C204.634 267.82 203.674 267.01 203.674 266.02Z" fill="#C7A8E7"/>
<path d="M207.438 266.02C207.438 265.382 206.784 264.72 205.806 264.72C204.827 264.72 204.175 265.382 204.175 266.02C204.175 266.658 204.827 267.32 205.806 267.32C206.784 267.32 207.437 266.658 207.438 266.02Z" stroke="#C7A8E7" stroke-opacity="0.2"/>
<path d="M216.194 316.119C216.194 315.129 217.153 314.319 218.325 314.319C219.498 314.319 220.457 315.129 220.457 316.119C220.457 317.109 219.498 317.919 218.325 317.919C217.153 317.919 216.194 317.109 216.194 316.119Z" fill="#C7A8E7"/>
<path d="M219.957 316.12C219.957 315.482 219.304 314.82 218.325 314.82C217.347 314.82 216.694 315.482 216.694 316.12C216.694 316.757 217.347 317.419 218.325 317.419C219.304 317.419 219.957 316.758 219.957 316.12Z" stroke="#C7A8E7" stroke-opacity="0.2"/>
<path d="M269.295 357.959C269.295 356.969 270.255 356.159 271.427 356.159C272.599 356.159 273.559 356.969 273.559 357.959C273.559 358.949 272.599 359.759 271.427 359.759C270.255 359.759 269.295 358.949 269.295 357.959Z" fill="#C7A8E7"/>
<path d="M273.059 357.959C273.059 357.322 272.406 356.66 271.427 356.66C270.448 356.66 269.796 357.322 269.796 357.959C269.796 358.597 270.448 359.259 271.427 359.259C272.405 359.259 273.058 358.597 273.059 357.959Z" stroke="#C7A8E7" stroke-opacity="0.2"/>
<path d="M322.87 368.759C322.87 367.769 323.829 366.959 325.001 366.959C326.174 366.959 327.133 367.769 327.133 368.759C327.133 369.749 326.174 370.559 325.001 370.559C323.829 370.559 322.87 369.749 322.87 368.759Z" fill="#C7A8E7"/>
<path d="M326.633 368.759C326.633 368.121 325.98 367.459 325.001 367.459C324.022 367.46 323.37 368.121 323.37 368.759C323.37 369.397 324.022 370.059 325.001 370.059C325.98 370.059 326.633 369.397 326.633 368.759Z" stroke="#C7A8E7" stroke-opacity="0.2"/>
<path d="M379.01 357.32C379.01 356.33 379.969 355.52 381.142 355.52C382.314 355.52 383.273 356.33 383.273 357.32C383.273 358.31 382.314 359.12 381.142 359.12C379.969 359.12 379.01 358.31 379.01 357.32Z" fill="#C7A8E7"/>
<path d="M382.773 357.32C382.773 356.682 382.12 356.02 381.142 356.02C380.163 356.02 379.511 356.682 379.511 357.32C379.511 357.958 380.163 358.62 381.142 358.62C382.12 358.62 382.773 357.958 382.773 357.32Z" stroke="#C7A8E7" stroke-opacity="0.2"/>
<path d="M427.834 317.929C427.834 316.939 428.794 316.129 429.966 316.129C431.138 316.129 432.098 316.939 432.098 317.929C432.098 318.919 431.138 319.729 429.966 319.729C428.794 319.729 427.834 318.919 427.834 317.929Z" fill="#C7A8E7"/>
<path d="M431.598 317.929C431.598 317.291 430.945 316.629 429.966 316.629C428.987 316.63 428.335 317.291 428.335 317.929C428.335 318.567 428.987 319.229 429.966 319.229C430.944 319.229 431.598 318.567 431.598 317.929Z" stroke="#C7A8E7" stroke-opacity="0.2"/>
<path d="M442.53 267.939C442.53 266.949 443.489 266.139 444.661 266.139C445.834 266.139 446.793 266.949 446.793 267.939C446.793 268.929 445.834 269.739 444.661 269.739C443.489 269.739 442.53 268.929 442.53 267.939Z" fill="#C7A8E7"/>
<path d="M446.293 267.939C446.293 267.301 445.64 266.639 444.661 266.639C443.682 266.639 443.03 267.301 443.03 267.939C443.03 268.577 443.683 269.239 444.661 269.239C445.64 269.239 446.293 268.577 446.293 267.939Z" stroke="#C7A8E7" stroke-opacity="0.2"/>
<path d="M325.174 207.11C325.174 206.12 326.134 205.31 327.306 205.31C328.478 205.31 329.438 206.12 329.438 207.11C329.438 208.1 328.478 208.91 327.306 208.91C326.134 208.91 325.174 208.1 325.174 207.11Z" fill="#C7A8E7"/>
<path d="M328.938 207.11C328.938 206.472 328.284 205.81 327.306 205.81C326.327 205.81 325.675 206.472 325.675 207.11C325.675 207.748 326.327 208.41 327.306 208.41C328.284 208.41 328.937 207.748 328.938 207.11Z" stroke="#C7A8E7" stroke-opacity="0.2"/>
<path d="M267.764 238.078C267.764 237.088 268.723 236.278 269.896 236.278C271.068 236.278 272.027 237.088 272.027 238.078C272.027 239.068 271.068 239.878 269.896 239.878C268.723 239.878 267.764 239.068 267.764 238.078Z" fill="#C7A8E7"/>
<path d="M271.527 238.079C271.527 237.441 270.874 236.779 269.896 236.779C268.917 236.779 268.265 237.441 268.265 238.079C268.265 238.716 268.917 239.378 269.896 239.378C270.874 239.378 271.527 238.717 271.527 238.079Z" stroke="#C7A8E7" stroke-opacity="0.2"/>
<path d="M381.342 296.61C381.342 295.62 382.302 294.81 383.474 294.81C384.646 294.81 385.605 295.62 385.605 296.61C385.605 297.6 384.646 298.41 383.474 298.41C382.302 298.41 381.342 297.6 381.342 296.61Z" fill="#C7A8E7"/>
<path d="M385.105 296.61C385.105 295.972 384.452 295.31 383.474 295.31C382.495 295.31 381.843 295.972 381.843 296.61C381.843 297.248 382.495 297.91 383.474 297.91C384.452 297.91 385.105 297.248 385.105 296.61Z" stroke="#C7A8E7" stroke-opacity="0.2"/>
<path d="M325.174 329.929C325.174 328.939 326.134 328.129 327.306 328.129C328.478 328.129 329.438 328.939 329.438 329.929C329.438 330.919 328.478 331.729 327.306 331.729C326.134 331.729 325.174 330.919 325.174 329.929Z" fill="#C7A8E7"/>
<path d="M328.938 329.929C328.938 329.291 328.284 328.629 327.306 328.629C326.327 328.63 325.675 329.291 325.675 329.929C325.675 330.567 326.327 331.229 327.306 331.229C328.284 331.229 328.937 330.567 328.938 329.929Z" stroke="#C7A8E7" stroke-opacity="0.2"/>
<path d="M269.295 296.61C269.295 295.62 270.255 294.81 271.427 294.81C272.599 294.81 273.559 295.62 273.559 296.61C273.559 297.6 272.599 298.41 271.427 298.41C270.255 298.41 269.295 297.6 269.295 296.61Z" fill="#C7A8E7"/>
<path d="M273.059 296.61C273.059 295.972 272.406 295.31 271.427 295.31C270.448 295.31 269.796 295.972 269.796 296.61C269.796 297.248 270.448 297.91 271.427 297.91C272.405 297.91 273.058 297.248 273.059 296.61Z" stroke="#C7A8E7" stroke-opacity="0.2"/>
<path d="M201.893 438.709C201.893 437.719 202.852 436.909 204.025 436.909C205.197 436.909 206.156 437.719 206.156 438.709C206.156 439.699 205.197 440.509 204.025 440.509C202.852 440.509 201.893 439.699 201.893 438.709Z" fill="#C7A8E7"/>
<path d="M205.656 438.709C205.656 438.072 205.003 437.41 204.024 437.41C203.046 437.41 202.394 438.072 202.394 438.709C202.394 439.347 203.046 440.009 204.024 440.009C205.003 440.009 205.656 439.347 205.656 438.709Z" stroke="#C7A8E7" stroke-opacity="0.2"/>
<path d="M201.893 438.709C201.893 437.719 202.852 436.909 204.025 436.909C205.197 436.909 206.156 437.719 206.156 438.709C206.156 439.699 205.197 440.509 204.025 440.509C202.852 440.509 201.893 439.699 201.893 438.709Z" fill="#C7A8E7"/>
<path d="M205.656 438.709C205.656 438.072 205.003 437.41 204.024 437.41C203.046 437.41 202.394 438.072 202.394 438.709C202.394 439.347 203.046 440.009 204.024 440.009C205.003 440.009 205.656 439.347 205.656 438.709Z" stroke="#C7A8E7" stroke-opacity="0.2"/>
<path d="M586.456 398.739C586.456 397.739 587.415 396.939 588.587 396.939C589.76 396.939 590.719 397.749 590.719 398.739C590.719 399.729 589.76 400.539 588.587 400.539C587.415 400.539 586.456 399.729 586.456 398.739Z" fill="#C7A8E7"/>
<path d="M590.219 398.739C590.219 398.101 589.566 397.439 588.587 397.439C587.606 397.439 586.956 398.092 586.956 398.739C586.956 399.377 587.608 400.038 588.587 400.039C589.566 400.039 590.219 399.377 590.219 398.739Z" stroke="#C7A8E7" stroke-opacity="0.2"/>
<path d="M204.018 93.5091C204.018 92.5191 204.977 91.7091 206.15 91.7091C207.322 91.7091 208.281 92.5191 208.281 93.5091C208.281 94.4991 207.322 95.3091 206.15 95.3091C204.977 95.3091 204.018 94.4991 204.018 93.5091Z" fill="#C7A8E7"/>
<path d="M207.781 93.5093C207.781 92.8713 207.128 92.2095 206.149 92.2095C205.171 92.2096 204.519 92.8714 204.519 93.5093C204.519 94.1471 205.171 94.809 206.149 94.8091C207.128 94.8091 207.781 94.1472 207.781 93.5093Z" stroke="#C7A8E7" stroke-opacity="0.2"/>
<path d="M507.746 180.65C505.307 179.08 504.821 179.08 502.37 180.65C504.229 178.58 504.229 178.18 502.37 176.11C504.809 177.68 505.295 177.68 507.746 176.11C505.887 178.18 505.887 178.58 507.746 180.65Z" fill="#C7A8E7"/>
<path d="M506.021 177.61C505.693 177.725 505.376 177.788 505.054 177.788C504.734 177.788 504.42 177.726 504.096 177.613C504.202 177.86 504.265 178.113 504.265 178.38C504.265 178.649 504.201 178.903 504.095 179.151C504.423 179.036 504.74 178.972 505.063 178.972C505.382 178.972 505.696 179.035 506.021 179.148C505.914 178.901 505.852 178.648 505.852 178.38C505.852 178.112 505.915 177.858 506.021 177.61Z" stroke="#C7A8E7" stroke-opacity="0.2"/>
<path d="M330.605 99.0884C327.586 97.1484 327.005 97.1484 323.998 99.0884C326.295 96.5384 326.295 96.0484 323.998 93.5084C327.017 95.4484 327.598 95.4484 330.605 93.5084C328.308 96.0584 328.308 96.5484 330.605 99.0884Z" fill="#C7A8E7"/>
<path d="M328.7 95.1577C328.218 95.356 327.766 95.4634 327.306 95.4634C326.844 95.4633 326.391 95.3551 325.906 95.1558C326.103 95.5272 326.221 95.899 326.221 96.2944C326.221 96.6918 326.102 97.0659 325.903 97.4399C326.386 97.2417 326.837 97.1333 327.297 97.1333C327.759 97.1333 328.213 97.2421 328.698 97.4419C328.501 97.07 328.383 96.6981 328.383 96.3022C328.383 95.905 328.502 95.5315 328.7 95.1577Z" stroke="#C7A8E7" stroke-opacity="0.2"/>
<path d="M228.105 419.459C225.086 417.519 224.505 417.519 221.498 419.459C223.795 416.909 223.795 416.419 221.498 413.879C224.517 415.819 225.098 415.819 228.105 413.879C225.808 416.429 225.808 416.919 228.105 419.459Z" fill="#C7A8E7"/>
<path d="M226.2 415.529C225.718 415.727 225.266 415.834 224.806 415.834C224.344 415.834 223.891 415.726 223.406 415.527C223.603 415.898 223.721 416.27 223.721 416.666C223.721 417.063 223.602 417.437 223.403 417.811C223.886 417.613 224.337 417.504 224.797 417.504C225.259 417.504 225.713 417.613 226.198 417.813C226.001 417.441 225.883 417.069 225.883 416.673C225.883 416.276 226.002 415.903 226.2 415.529Z" stroke="#C7A8E7" stroke-opacity="0.2"/>
<path d="M532.137 270.4C529.117 268.46 528.537 268.46 525.529 270.4C527.826 267.85 527.826 267.36 525.529 264.81C528.549 266.75 529.129 266.75 532.137 264.81C529.839 267.36 529.839 267.85 532.137 270.4Z" fill="#C7A8E7"/>
<path d="M530.233 268.755C530.033 268.38 529.914 268.004 529.914 267.605C529.914 267.207 530.033 266.834 530.231 266.459C529.749 266.658 529.297 266.765 528.837 266.765C528.374 266.765 527.919 266.656 527.433 266.456C527.632 266.831 527.752 267.206 527.752 267.605C527.752 268.003 527.633 268.377 527.435 268.751C527.917 268.553 528.368 268.445 528.828 268.445C529.292 268.445 529.746 268.555 530.233 268.755Z" stroke="#C7A8E7" stroke-opacity="0.2"/>
<path d="M520.771 177.629L621.997 177.629L652.621 228.259" stroke="#C7A8E7" stroke-opacity="0.2" stroke-width="0.94" stroke-miterlimit="10"/>
<path d="M520.77 357.589L621.996 357.589L650.867 309.869" stroke="#C7A8E7" stroke-opacity="0.2" stroke-width="0.94" stroke-miterlimit="10"/>
<path d="M586.696 268.208L652.621 268.208" stroke="#C7A8E7" stroke-opacity="0.2" stroke-width="0.94" stroke-miterlimit="10"/>
<path d="M189.574 431.008C168.128 423.828 145.202 419.168 121.269 417.428" stroke="#C7A8E7" stroke-opacity="0.2" stroke-width="0.94" stroke-miterlimit="10"/>
<path d="M319.754 534C298.639 496.4 264.368 465.09 221.985 444.29" stroke="#C7A8E7" stroke-opacity="0.2" stroke-width="0.94" stroke-miterlimit="10"/>
<path d="M189.57 101.729C168.124 108.909 145.198 113.569 121.265 115.309" stroke="#C7A8E7" stroke-opacity="0.2" stroke-width="0.94" stroke-miterlimit="10"/>
<path d="M319.75 -1.26221C298.636 36.3378 264.364 67.6478 221.982 88.4478" stroke="#C7A8E7" stroke-opacity="0.2" stroke-width="0.94" stroke-miterlimit="10"/>
<path d="M467.78 95.2583L587.539 35.5183" stroke="#C7A8E7" stroke-opacity="0.2" stroke-width="0.94" stroke-miterlimit="10"/>
<path d="M585.405 137.04C585.405 136.05 586.364 135.24 587.536 135.24C588.709 135.24 589.668 136.05 589.668 137.04C589.668 138.03 588.709 138.84 587.536 138.84C586.364 138.84 585.405 138.03 585.405 137.04Z" fill="#C7A8E7"/>
<path d="M589.168 137.04C589.168 136.402 588.515 135.74 587.536 135.74C586.557 135.74 585.905 136.402 585.905 137.04C585.905 137.678 586.558 138.339 587.536 138.34C588.515 138.34 589.168 137.678 589.168 137.04Z" stroke="#C7A8E7" stroke-opacity="0.2"/>
<path d="M601.441 28.5797C598.422 30.5197 597.841 30.5197 594.834 28.5797C597.131 31.1297 597.131 31.6197 594.834 34.1597C597.853 32.2197 598.434 32.2197 601.441 34.1597C599.144 31.6097 599.144 31.1197 601.441 28.5797Z" fill="#C7A8E7"/>
<path d="M599.536 32.5112C599.337 32.1372 599.219 31.7632 599.219 31.3657C599.219 30.9701 599.337 30.5987 599.534 30.2271C599.049 30.4268 598.595 30.5347 598.133 30.5347C597.673 30.5346 597.221 30.4272 596.739 30.229C596.938 30.6028 597.057 30.9764 597.057 31.3735C597.057 31.7692 596.939 32.1415 596.742 32.5132C597.227 32.3137 597.68 32.2046 598.142 32.2046C598.602 32.2046 599.054 32.3128 599.536 32.5112Z" stroke="#C7A8E7" stroke-opacity="0.2"/>
<path d="M582.293 28.5786L373.564 28.5786" stroke="#C7A8E7" stroke-opacity="0.2" stroke-width="0.94" stroke-miterlimit="10"/>
<path d="M601.441 137.039L601.441 42.4485" stroke="#C7A8E7" stroke-opacity="0.2" stroke-width="0.94" stroke-miterlimit="10"/>
</g>
</g>
</svg>
