<svg width="239" height="191" viewBox="0 0 239 191" fill="none" xmlns="http://www.w3.org/2000/svg">
<path d="M141.209 54.9683C138.134 58.1493 135.047 61.3304 131.973 64.5115C144.73 77.4622 157.487 90.4129 170.244 103.364" stroke="#C7A8E7" stroke-width="1.58736" stroke-linecap="round" stroke-linejoin="round"/>
<path d="M169.05 26.229C163.91 31.5308 158.781 36.8326 153.641 42.1344" stroke="#C7A8E7" stroke-width="1.58736" stroke-linecap="round" stroke-linejoin="round"/>
<path d="M161.348 133.184C151.56 123.247 141.76 113.299 131.973 103.363" stroke="#C7A8E7" stroke-width="1.58736" stroke-linecap="round" stroke-linejoin="round"/>
<path d="M133.172 180.495C142.854 170.499 152.536 160.503 162.219 150.507" stroke="#C7A8E7" stroke-width="1.58736" stroke-linecap="round" stroke-linejoin="round"/>
<path d="M85.1347 158.097C82.0598 161.278 78.9733 164.459 75.8984 167.64C88.6555 180.591 101.413 193.542 114.17 206.492" stroke="#C7A8E7" stroke-width="1.58736" stroke-linecap="round" stroke-linejoin="round"/>
<path d="M112.972 129.361C107.832 134.662 102.703 139.964 97.5625 145.266" stroke="#C7A8E7" stroke-width="1.58736" stroke-linecap="round" stroke-linejoin="round"/>
<path d="M66.3222 1.74707C63.2473 4.92815 60.1608 8.10923 57.0859 11.2903C69.843 24.241 82.6 37.1917 95.357 50.1424" stroke="#C7A8E7" stroke-width="1.58736" stroke-linecap="round" stroke-linejoin="round"/>
<path d="M86.4495 79.9627C76.6617 70.0263 66.8621 60.078 57.0742 50.1416" stroke="#C7A8E7" stroke-width="1.58736" stroke-linecap="round" stroke-linejoin="round"/>
<path d="M58.2734 127.274C67.9556 117.278 77.6379 107.282 87.3201 97.2856" stroke="#C7A8E7" stroke-width="1.58736" stroke-linecap="round" stroke-linejoin="round"/>
<path d="M10.2519 104.876C7.17702 108.057 4.09046 111.238 1.01562 114.419C13.7727 127.37 26.5297 140.32 39.2867 153.271" stroke="#C7A8E7" stroke-width="1.58736" stroke-linecap="round" stroke-linejoin="round"/>
<path d="M38.0891 76.1394C32.9487 81.4412 27.8201 86.743 22.6797 92.0448" stroke="#C7A8E7" stroke-width="1.58736" stroke-linecap="round" stroke-linejoin="round"/>
<path d="M30.3753 183.092C20.5874 173.155 10.7878 163.207 1 153.271" stroke="#C7A8E7" stroke-width="1.58736" stroke-linecap="round" stroke-linejoin="round"/>
<path d="M204.435 135.223C201.361 138.404 198.274 141.585 195.199 144.766C207.956 157.717 220.713 170.668 233.47 183.618" stroke="#C7A8E7" stroke-width="1.58736" stroke-linecap="round" stroke-linejoin="round"/>
<path d="M232.269 106.484C227.128 111.786 222 117.087 216.859 122.389" stroke="#C7A8E7" stroke-width="1.58736" stroke-linecap="round" stroke-linejoin="round"/>
<path d="M224.559 213.439C214.771 203.502 204.971 193.554 195.184 183.618" stroke="#C7A8E7" stroke-width="1.58736" stroke-linecap="round" stroke-linejoin="round"/>
<path d="M218.246 54.3946C208.459 44.4582 198.659 34.5099 188.871 24.5735" stroke="#C7A8E7" stroke-width="1.58736" stroke-linecap="round" stroke-linejoin="round"/>
<path d="M190.07 101.706C199.753 91.7097 209.435 81.7138 219.117 71.7178" stroke="#C7A8E7" stroke-width="1.58736" stroke-linecap="round" stroke-linejoin="round"/>
<path d="M15.6954 101.708C17.1732 101.708 18.3712 100.492 18.3712 98.9916C18.3712 97.4913 17.1732 96.2751 15.6954 96.2751C14.2176 96.2751 13.0195 97.4913 13.0195 98.9916C13.0195 100.492 14.2176 101.708 15.6954 101.708Z" fill="url(#paint0_linear_8992_584514)"/>
<path d="M91.6249 153.223C93.1027 153.223 94.3008 152.007 94.3008 150.507C94.3008 149.007 93.1027 147.791 91.6249 147.791C90.1471 147.791 88.9492 149.007 88.9492 150.507C88.9492 152.007 90.1471 153.223 91.6249 153.223Z" fill="url(#paint1_linear_8992_584514)"/>
<path d="M210.914 131.79C212.392 131.79 213.59 130.574 213.59 129.073C213.59 127.573 212.392 126.357 210.914 126.357C209.436 126.357 208.238 127.573 208.238 129.073C208.238 130.574 209.436 131.79 210.914 131.79Z" fill="url(#paint2_linear_8992_584514)"/>
<path d="M147.688 52.8582C149.165 52.8582 150.363 51.642 150.363 50.1417C150.363 48.6415 149.165 47.4253 147.688 47.4253C146.21 47.4253 145.012 48.6415 145.012 50.1417C145.012 51.642 146.21 52.8582 147.688 52.8582Z" fill="url(#paint3_linear_8992_584514)"/>
<path d="M164.786 146.754C169.363 143.263 170.266 143.287 175.019 147.004C171.358 142.191 171.346 141.261 174.773 136.615C170.196 140.106 169.292 140.082 164.539 136.365C168.201 141.178 168.213 142.107 164.786 146.754Z" fill="url(#paint4_linear_8992_584514)"/>
<path d="M99.2885 94.4761C95.8498 89.8295 95.8732 88.9121 99.5349 84.0869C94.7935 87.8041 93.8781 87.816 89.3011 84.3371C92.7397 88.9836 92.7163 89.901 89.0547 94.7263C93.796 91.009 94.7114 90.9971 99.2885 94.4761Z" fill="url(#paint5_linear_8992_584514)"/>
<path d="M44.2689 196.566C40.8303 191.92 40.8537 191.002 44.5153 186.177C39.774 189.894 38.8586 189.906 34.2816 186.427C37.7202 191.074 37.6968 191.991 34.0352 196.817C38.7765 193.099 39.6919 193.087 44.2689 196.566Z" fill="url(#paint6_linear_8992_584514)"/>
<path d="M233.226 68.9306C229.787 64.2841 229.811 63.3667 233.472 58.5415C228.731 62.2587 227.816 62.2706 223.239 58.7917C226.677 63.4382 226.654 64.3556 222.992 69.1808C227.734 65.4636 228.649 65.4517 233.226 68.9306Z" fill="url(#paint7_linear_8992_584514)"/>
<defs>
<linearGradient id="paint0_linear_8992_584514" x1="13.0195" y1="98.9916" x2="18.3712" y2="98.9916" gradientUnits="userSpaceOnUse">
<stop stop-color="#54148C"/>
<stop offset="1" stop-color="#A46EDE"/>
</linearGradient>
<linearGradient id="paint1_linear_8992_584514" x1="88.9492" y1="150.507" x2="94.3008" y2="150.507" gradientUnits="userSpaceOnUse">
<stop stop-color="#54148C"/>
<stop offset="1" stop-color="#A46EDE"/>
</linearGradient>
<linearGradient id="paint2_linear_8992_584514" x1="208.238" y1="129.073" x2="213.59" y2="129.073" gradientUnits="userSpaceOnUse">
<stop stop-color="#54148C"/>
<stop offset="1" stop-color="#A46EDE"/>
</linearGradient>
<linearGradient id="paint3_linear_8992_584514" x1="145.012" y1="50.1417" x2="150.363" y2="50.1417" gradientUnits="userSpaceOnUse">
<stop stop-color="#54148C"/>
<stop offset="1" stop-color="#A46EDE"/>
</linearGradient>
<linearGradient id="paint4_linear_8992_584514" x1="164.539" y1="141.684" x2="175.019" y2="141.684" gradientUnits="userSpaceOnUse">
<stop stop-color="#54148C"/>
<stop offset="1" stop-color="#A46EDE"/>
</linearGradient>
<linearGradient id="paint5_linear_8992_584514" x1="89.0547" y1="89.4066" x2="99.5349" y2="89.4066" gradientUnits="userSpaceOnUse">
<stop stop-color="#54148C"/>
<stop offset="1" stop-color="#A46EDE"/>
</linearGradient>
<linearGradient id="paint6_linear_8992_584514" x1="34.0352" y1="191.497" x2="44.5153" y2="191.497" gradientUnits="userSpaceOnUse">
<stop stop-color="#54148C"/>
<stop offset="1" stop-color="#A46EDE"/>
</linearGradient>
<linearGradient id="paint7_linear_8992_584514" x1="222.992" y1="63.8612" x2="233.472" y2="63.8612" gradientUnits="userSpaceOnUse">
<stop stop-color="#54148C"/>
<stop offset="1" stop-color="#A46EDE"/>
</linearGradient>
</defs>
</svg>
