<svg width="273" height="200" viewBox="0 0 273 200" fill="none" xmlns="http://www.w3.org/2000/svg">
<path d="M261.636 171.824C257.515 182.243 252.796 190.633 248.832 196.786" stroke="#C7A8E7" stroke-width="1.58736" stroke-linecap="round" stroke-linejoin="round"/>
<path d="M202.723 8.33887C235.712 21.6489 261.12 51.9566 268.806 89.792C272.004 105.535 272.843 122.827 270.075 140.741C269.205 146.392 268.03 151.727 266.667 156.735" stroke="#C7A8E7" stroke-width="1.58736" stroke-linecap="round" stroke-linejoin="round"/>
<path d="M45.7266 70.1322C67.2965 28.0856 115.459 2.43647 161.808 1.05092C162.489 1.0291 163.171 1.01821 163.853 1.0073C170.207 0.930932 176.446 1.45457 182.518 2.53464" stroke="#C7A8E7" stroke-width="1.58736" stroke-linecap="round" stroke-linejoin="round"/>
<path d="M117.786 128.063C116.56 124.91 115.867 121.354 115.605 117.372C115.165 106.102 119.873 97.6902 128.157 90.326C142.596 77.376 165.697 72.6956 179.078 90.0314C185.034 97.3083 188.893 106.789 188.683 116.368C188.62 125.849 185.223 136.671 181.259 145.126C176.708 152.785 170.584 161.207 153.02 171.91C148.269 174.648 142.838 177.212 137.899 179.132C121.404 185.449 99.1316 188.7 81.6932 184.762C61.4026 179.874 45.3274 165.68 37.9661 145.628C34.275 136.289 33.8766 126.841 34.0653 116.761C34.2436 106.898 35.7221 97.5265 38.3017 88.7114" stroke="#C7A8E7" stroke-width="1.58736" stroke-linecap="round" stroke-linejoin="round"/>
<path d="M100.396 155.49C75.7011 133.049 62.5096 86.4964 75.2607 54.1923C79.2349 44.1116 85.3379 37.8493 88.2845 34.8818C115.328 7.6617 159.632 16.8806 164.917 18.0588C173.704 20.0226 189.318 24.8339 205.928 38.1003C238.257 67.1096 263.864 128.118 243.311 196.784" stroke="#C7A8E7" stroke-width="1.58736" stroke-linecap="round" stroke-linejoin="round"/>
<path d="M129.117 96.9389C132.902 95.7061 137.097 95.2697 141.711 95.6624C156.423 97.408 167.548 110.936 172.529 124.715C178.884 142.182 173.882 157.467 158.132 166.249C152.218 169.326 145.674 170.351 138.649 170.308C127.366 170.286 116.921 167.231 107.547 161.034" stroke="#C7A8E7" stroke-width="1.58736" stroke-linecap="round" stroke-linejoin="round"/>
<path d="M234.182 86.5295C240.809 103.222 241.449 123.918 236.866 145.432C232.525 162.233 219.239 183.911 205.754 196.785" stroke="#C7A8E7" stroke-width="1.58736" stroke-linecap="round" stroke-linejoin="round"/>
<path d="M110.273 70.0451C121.682 60.9244 139.089 51.9566 162.096 49.2946C190.136 46.7089 209.986 54.2149 222.611 67.8631" stroke="#C7A8E7" stroke-width="1.58736" stroke-linecap="round" stroke-linejoin="round"/>
<path d="M97.8181 149.644C88.2862 140.338 84.2596 126.93 86.3044 113.02C88.0031 99.3281 92.5436 88.1892 101.509 78.2721C102.768 76.8647 104.183 75.4028 105.767 73.9299" stroke="#C7A8E7" stroke-width="1.58736" stroke-linecap="round" stroke-linejoin="round"/>
<path d="M156.148 107.041C157.805 110.783 158.602 115.169 158.56 120.024C158.172 131.119 152.174 140.207 143.607 146.895C134.043 153.801 122.247 158.001 111.75 156.408" stroke="#C7A8E7" stroke-width="1.58736" stroke-linecap="round" stroke-linejoin="round"/>
<path d="M116.031 68.6927C117.3 68.049 118.642 67.4926 120.058 67.0235C128.426 63.7614 136.511 63.2814 145.382 65.4961C157.399 68.289 169.112 75.8168 177.773 84.8066C185.89 93.5563 192.056 104.183 196.198 115.3C204.891 138.516 204.052 167.863 198.62 184.163C196.994 188.516 194.866 192.094 192.475 196.775" stroke="#C7A8E7" stroke-width="1.58736" stroke-linecap="round" stroke-linejoin="round"/>
<path d="M147.417 137.282C138.996 140.894 127.713 140.064 120.048 135.319C110.296 129.416 101.949 118.048 99.9252 106.615C98.1531 97.4286 99.5687 87.7843 104.046 80.1365" stroke="#C7A8E7" stroke-width="1.58736" stroke-linecap="round" stroke-linejoin="round"/>
<path d="M29.5098 38.0913C17.1886 75.5667 16.1819 146.219 68.602 196.775" stroke="#C7A8E7" stroke-width="1.58736" stroke-linecap="round" stroke-linejoin="round"/>
<path d="M1.79684 132.919C-1.29656 103.55 4.18766 70.0891 25.831 38.1013" stroke="#C7A8E7" stroke-width="1.58736" stroke-linecap="round" stroke-linejoin="round"/>
<path d="M24.502 196.775C15.7461 184 7.99685 166.696 3.94922 146.862" stroke="#C7A8E7" stroke-width="1.58736" stroke-linecap="round" stroke-linejoin="round"/>
<path d="M127.674 97.7555C125.723 99.1193 125.356 99.1084 123.636 97.5701C124.884 99.5448 124.853 99.9157 123.301 101.759C125.251 100.396 125.618 100.407 127.338 101.945C126.09 99.9703 126.122 99.5993 127.674 97.7555Z" fill="url(#paint0_linear_8992_584554)"/>
<path d="M122.923 129.885C120.973 131.249 120.606 131.238 118.886 129.7C120.134 131.674 120.103 132.045 118.551 133.889C120.501 132.525 120.868 132.536 122.588 134.075C121.34 132.1 121.372 131.729 122.923 129.885Z" fill="url(#paint1_linear_8992_584554)"/>
<path d="M152.998 132.078C151.047 133.442 150.68 133.431 148.961 131.893C150.208 133.868 150.177 134.238 148.625 136.082C150.575 134.719 150.942 134.729 152.662 136.268C151.414 134.293 151.446 133.922 152.998 132.078Z" fill="url(#paint2_linear_8992_584554)"/>
<path d="M156.193 102.119C154.243 103.483 153.876 103.472 152.156 101.934C153.404 103.908 153.372 104.279 151.82 106.123C153.771 104.759 154.138 104.77 155.858 106.308C154.61 104.334 154.641 103.963 156.193 102.119Z" fill="url(#paint3_linear_8992_584554)"/>
<path d="M42.0437 81.8831C42.9762 81.8831 43.732 81.0967 43.732 80.1267C43.732 79.1566 42.9762 78.3701 42.0437 78.3701C41.1113 78.3701 40.3555 79.1566 40.3555 80.1267C40.3555 81.0967 41.1113 81.8831 42.0437 81.8831Z" fill="url(#paint4_linear_8992_584554)"/>
<path d="M2.69997 141.275C3.63237 141.275 4.38825 140.489 4.38825 139.519C4.38825 138.549 3.63237 137.762 2.69997 137.762C1.76756 137.762 1.01172 138.549 1.01172 139.519C1.01172 140.489 1.76756 141.275 2.69997 141.275Z" fill="url(#paint5_linear_8992_584554)"/>
<path d="M104.075 153.157C105.007 153.157 105.763 152.37 105.763 151.4C105.763 150.43 105.007 149.644 104.075 149.644C103.143 149.644 102.387 150.43 102.387 151.4C102.387 152.37 103.143 153.157 104.075 153.157Z" fill="url(#paint6_linear_8992_584554)"/>
<path d="M110.278 77.4429C111.21 77.4429 111.966 76.6566 111.966 75.6865C111.966 74.7164 111.21 73.9299 110.278 73.9299C109.346 73.9299 108.59 74.7164 108.59 75.6865C108.59 76.6566 109.346 77.4429 110.278 77.4429Z" fill="url(#paint7_linear_8992_584554)"/>
<path d="M32.364 33.4652C33.2964 33.4652 34.0523 32.6788 34.0523 31.7087C34.0523 30.7386 33.2964 29.9521 32.364 29.9521C31.4316 29.9521 30.6758 30.7386 30.6758 31.7087C30.6758 32.6788 31.4316 33.4652 32.364 33.4652Z" fill="#C7A8E7"/>
<path d="M193.423 6.93116C194.355 6.93116 195.111 6.14477 195.111 5.17469C195.111 4.2046 194.355 3.41821 193.423 3.41821C192.49 3.41821 191.734 4.2046 191.734 5.17469C191.734 6.14477 192.49 6.93116 193.423 6.93116Z" fill="url(#paint8_linear_8992_584554)"/>
<path d="M229.239 79.1987C230.171 79.1987 230.927 78.4123 230.927 77.4423C230.927 76.4722 230.171 75.6858 229.239 75.6858C228.307 75.6858 227.551 76.4722 227.551 77.4423C227.551 78.4123 228.307 79.1987 229.239 79.1987Z" fill="url(#paint9_linear_8992_584554)"/>
<path d="M265.118 166.28C266.05 166.28 266.806 165.494 266.806 164.524C266.806 163.554 266.05 162.767 265.118 162.767C264.186 162.767 263.43 163.554 263.43 164.524C263.43 165.494 264.186 166.28 265.118 166.28Z" fill="#C7A8E7"/>
<defs>
<linearGradient id="paint0_linear_8992_584554" x1="123.301" y1="99.7575" x2="127.674" y2="99.7575" gradientUnits="userSpaceOnUse">
<stop stop-color="#54148C"/>
<stop offset="1" stop-color="#A46EDE"/>
</linearGradient>
<linearGradient id="paint1_linear_8992_584554" x1="118.551" y1="131.887" x2="122.923" y2="131.887" gradientUnits="userSpaceOnUse">
<stop stop-color="#54148C"/>
<stop offset="1" stop-color="#A46EDE"/>
</linearGradient>
<linearGradient id="paint2_linear_8992_584554" x1="148.625" y1="134.08" x2="152.998" y2="134.08" gradientUnits="userSpaceOnUse">
<stop stop-color="#54148C"/>
<stop offset="1" stop-color="#A46EDE"/>
</linearGradient>
<linearGradient id="paint3_linear_8992_584554" x1="151.82" y1="104.121" x2="156.193" y2="104.121" gradientUnits="userSpaceOnUse">
<stop stop-color="#54148C"/>
<stop offset="1" stop-color="#A46EDE"/>
</linearGradient>
<linearGradient id="paint4_linear_8992_584554" x1="40.3555" y1="80.1266" x2="43.732" y2="80.1266" gradientUnits="userSpaceOnUse">
<stop stop-color="#54148C"/>
<stop offset="1" stop-color="#A46EDE"/>
</linearGradient>
<linearGradient id="paint5_linear_8992_584554" x1="1.01172" y1="139.519" x2="4.38825" y2="139.519" gradientUnits="userSpaceOnUse">
<stop stop-color="#54148C"/>
<stop offset="1" stop-color="#A46EDE"/>
</linearGradient>
<linearGradient id="paint6_linear_8992_584554" x1="102.387" y1="151.4" x2="105.763" y2="151.4" gradientUnits="userSpaceOnUse">
<stop stop-color="#54148C"/>
<stop offset="1" stop-color="#A46EDE"/>
</linearGradient>
<linearGradient id="paint7_linear_8992_584554" x1="108.59" y1="75.6864" x2="111.966" y2="75.6864" gradientUnits="userSpaceOnUse">
<stop stop-color="#54148C"/>
<stop offset="1" stop-color="#A46EDE"/>
</linearGradient>
<linearGradient id="paint8_linear_8992_584554" x1="191.734" y1="5.17469" x2="195.111" y2="5.17469" gradientUnits="userSpaceOnUse">
<stop stop-color="#54148C"/>
<stop offset="1" stop-color="#A46EDE"/>
</linearGradient>
<linearGradient id="paint9_linear_8992_584554" x1="227.551" y1="77.4423" x2="230.927" y2="77.4423" gradientUnits="userSpaceOnUse">
<stop stop-color="#54148C"/>
<stop offset="1" stop-color="#A46EDE"/>
</linearGradient>
</defs>
</svg>
