<svg width="20" height="20" viewBox="0 0 20 20" fill="none" xmlns="http://www.w3.org/2000/svg">
<path d="M9.9974 1.66669C14.5999 1.66669 18.3307 5.39752 18.3307 10C18.3307 14.6025 14.5999 18.3334 9.9974 18.3334C5.3949 18.3334 1.66406 14.6025 1.66406 10H3.33073C3.33073 13.6817 6.31573 16.6667 9.9974 16.6667C13.6791 16.6667 16.6641 13.6817 16.6641 10C16.6641 6.31835 13.6791 3.33335 9.9974 3.33335C7.70573 3.33335 5.68406 4.48919 4.4849 6.25002H6.66406V7.91669H1.66406V2.91669H3.33073V5.00002C4.85073 2.97502 7.27156 1.66669 9.9974 1.66669ZM10.8307 5.83335V9.65419L13.5332 12.3567L12.3541 13.5359L9.16406 10.3442V5.83335H10.8307Z" fill="#0F1324" fill-opacity="0.6"/>
</svg>
