<svg width="20" height="20" viewBox="0 0 20 20" fill="none" xmlns="http://www.w3.org/2000/svg">
<path fill-rule="evenodd" clip-rule="evenodd" d="M10.6089 4.86124C10.5775 4.72316 10.5 4.59986 10.3893 4.51154C10.2786 4.42322 10.1412 4.37512 9.99956 4.37512C9.85794 4.37512 9.72051 4.42322 9.6098 4.51154C9.49909 4.59986 9.42165 4.72316 9.39018 4.86124L9.04425 6.38218C8.96587 6.72682 8.79168 7.04228 8.54176 7.29219C8.29184 7.54211 7.97638 7.7163 7.63175 7.79468L6.11112 8.14062C5.97304 8.17209 5.84974 8.24952 5.76142 8.36023C5.6731 8.47095 5.625 8.60837 5.625 8.74999C5.625 8.89162 5.6731 9.02904 5.76142 9.13975C5.84974 9.25047 5.97304 9.3279 6.11112 9.35937L7.63175 9.70531C7.97638 9.78369 8.29184 9.95788 8.54176 10.2078C8.79168 10.4577 8.96587 10.7732 9.04425 11.1178L9.39018 12.6384C9.42165 12.7765 9.49909 12.8998 9.6098 12.9881C9.72051 13.0765 9.85794 13.1246 9.99956 13.1246C10.1412 13.1246 10.2786 13.0765 10.3893 12.9881C10.5 12.8998 10.5775 12.7765 10.6089 12.6384L10.9549 11.1178C11.0333 10.7732 11.2074 10.4577 11.4574 10.2078C11.7073 9.95788 12.0227 9.78369 12.3674 9.70531L13.8883 9.35937C14.0264 9.3279 14.1497 9.25047 14.238 9.13975C14.3263 9.02904 14.3744 8.89162 14.3744 8.74999C14.3744 8.60837 14.3263 8.47095 14.238 8.36023C14.1497 8.24952 14.0264 8.17209 13.8883 8.14062L12.3674 7.79468C12.0227 7.7163 11.7073 7.54211 11.4574 7.29219C11.2074 7.04228 11.0333 6.72682 10.9549 6.38218L10.6089 4.86124ZM8.63643 8.74999C9.22302 8.4505 9.70007 7.97345 9.99956 7.38687C10.2991 7.97345 10.7761 8.4505 11.3627 8.74999C10.7761 9.04949 10.2991 9.52654 9.99956 10.1131C9.70007 9.52654 9.22302 9.04949 8.63643 8.74999Z" fill="#0F1324" fill-opacity="0.6"/>
<path fill-rule="evenodd" clip-rule="evenodd" d="M4.375 0.625C2.30406 0.625 0.625 2.30406 0.625 4.375V13.125C0.625 15.1959 2.30406 16.875 4.375 16.875H7.52875L9.52969 19.1616C9.58835 19.2286 9.66066 19.2823 9.74177 19.3191C9.82289 19.3559 9.91093 19.3749 10 19.3749C10.0891 19.3749 10.1771 19.3559 10.2582 19.3191C10.3393 19.2823 10.4117 19.2286 10.4703 19.1616L12.4709 16.875H15.625C17.6959 16.875 19.375 15.1959 19.375 13.125V4.375C19.375 2.30406 17.6959 0.625 15.625 0.625H4.375ZM1.875 4.375C1.875 3.71196 2.13839 3.07607 2.60723 2.60723C3.07607 2.13839 3.71196 1.875 4.375 1.875H15.625C16.288 1.875 16.9239 2.13839 17.3928 2.60723C17.8616 3.07607 18.125 3.71196 18.125 4.375V13.125C18.125 13.788 17.8616 14.4239 17.3928 14.8928C16.9239 15.3616 16.288 15.625 15.625 15.625H12.1875C12.0984 15.625 12.0104 15.6441 11.9293 15.6809C11.8482 15.7177 11.7758 15.7714 11.7172 15.8384L10 17.8009L8.28281 15.8384C8.22416 15.7714 8.15185 15.7177 8.07073 15.6809C7.98962 15.6441 7.90158 15.625 7.8125 15.625H4.375C3.71196 15.625 3.07607 15.3616 2.60723 14.8928C2.13839 14.4239 1.875 13.788 1.875 13.125V4.375Z" fill="#6F717C"/>
</svg>
